<svg id="Слой_1" data-name="Слой 1" xmlns="http://www.w3.org/2000/svg" xmlns:xlink="http://www.w3.org/1999/xlink" viewBox="0 0 1920 2273.75"><defs><style>.cls-1,.cls-24,.cls-25{fill:#fff;}.cls-2,.cls-26{fill:#dc6203;}.cls-23,.cls-3,.cls-30,.cls-4{fill:none;stroke-miterlimit:10;}.cls-3{stroke:#dc6203;stroke-width:4px;}.cls-4{stroke:#f66;}.cls-5{font-size:51.76px;}.cls-10,.cls-12,.cls-20,.cls-5{font-family:MyriadPro-Regular, Myriad Pro;}.cls-6{letter-spacing:0.01em;}.cls-7{letter-spacing:-0.01em;}.cls-8{letter-spacing:0.02em;}.cls-9{letter-spacing:-0.01em;}.cls-10{font-size:26.07px;}.cls-11{letter-spacing:-0.01em;}.cls-12{font-size:23.02px;}.cls-13{letter-spacing:-0.01em;}.cls-14{letter-spacing:0.01em;}.cls-15{letter-spacing:0em;}.cls-16{letter-spacing:0em;}.cls-17{letter-spacing:-0.01em;}.cls-18{letter-spacing:0em;}.cls-19{letter-spacing:-0.02em;}.cls-20{font-size:26.82px;}.cls-21{letter-spacing:0em;}.cls-22{letter-spacing:0em;}.cls-23{stroke:#000;}.cls-24{font-size:56.77px;}.cls-24,.cls-25{font-family:ArialMT, Arial;}.cls-25,.cls-26{font-size:36px;}.cls-26{font-family:Arial-BoldMT, Arial;font-weight:700;}.cls-27{letter-spacing:-0.02em;}.cls-28{letter-spacing:-0.01em;}.cls-29{letter-spacing:-0.06em;}.cls-30{stroke:#fff;stroke-width:6px;}</style></defs><title>profile</title><image width="1920" height="1080" transform="translate(0 -1)" xlink:href="../brick-3034002_1920.jpg"/><rect class="cls-1" x="390" y="179" width="1139" height="1784" rx="20" ry="20"/><rect class="cls-2" width="1920" height="129"/><rect class="cls-3" x="437.83" y="234.78" width="230" height="252.76" rx="19.62" ry="19.62"/><rect class="cls-4" x="750" y="235" width="735.5" height="252.5" rx="19.62" ry="19.62"/><rect class="cls-4" x="389.5" y="539.5" width="1140" height="760" rx="19.62" ry="19.62"/><text class="cls-5" transform="translate(804 609.43)">Мои <tspan class="cls-6" x="109.68" y="0">к</tspan><tspan class="cls-7" x="135" y="0">а</tspan><tspan x="159.22" y="0">че</tspan><tspan class="cls-8" x="211.81" y="0">с</tspan><tspan class="cls-9" x="235.83" y="0">т</tspan><tspan x="256.74" y="0">ва</tspan></text><text class="cls-10" transform="translate(780 277.89)">Иванов Иван Иванов<tspan class="cls-11" x="236.72" y="0">и</tspan><tspan x="250.88" y="0">ч</tspan></text><text class="cls-12" transform="translate(799 316.64)">19.02.1994</text><text class="cls-12" transform="translate(799 356.64)"><tspan class="cls-13">В</tspan><tspan class="cls-14" x="12.16" y="0">У</tspan><tspan x="24.4" y="0">З</tspan></text><text class="cls-12" transform="translate(791 395.64)">Об<tspan class="cls-15" x="28.02" y="0">щ</tspan><tspan x="45.17" y="0">еж</tspan><tspan class="cls-16" x="72.06" y="0">и</tspan><tspan class="cls-17" x="84.74" y="0">т</tspan><tspan class="cls-18" x="94.04" y="0">ие</tspan></text><text class="cls-12" transform="translate(791 439.64)"><tspan class="cls-19">К</tspan><tspan x="12.04" y="0">урс</tspan></text><text class="cls-20" transform="translate(1387.88 264.11)">р<tspan class="cls-21" x="15.26" y="0">е</tspan><tspan class="cls-22" x="28.78" y="0">д</tspan></text><line class="cls-23" x1="669" y1="806" x2="1170" y2="806"/><line class="cls-23" x1="671" y1="899.5" x2="1086" y2="899.5"/><line class="cls-23" x1="678" y1="983.5" x2="903" y2="983.5"/><rect class="cls-23" x="704.5" y="1244.5" width="414" height="96"/><text class="cls-24" transform="translate(390 83.42)">dor</text><path class="cls-1" d="M478.84,28.47v78.25h97.55V28.47Zm52.72,56H521.27v-31l-7.92,31H504l-7.91-31v31H485.85V43.81h16.51l6.37,24.72,6.32-24.72h16.51Zm27.07,2c-1.33,3.59-2.68,6-4.07,7.27-2,1.78-4.94,2.66-8.95,2.66a65.16,65.16,0,0,1-7.54-.66l-.88-7.87a18,18,0,0,0,5.43.77,5.27,5.27,0,0,0,3.22-.91,7,7,0,0,0,2.09-3.28L535.58,55h11.9l6.08,19.59L559.2,55h11.11Z"/><polygon class="cls-1" points="585 106.66 582.53 106.66 582.53 23.75 478.86 23.75 478.86 21.28 585 21.28 585 106.66"/><text class="cls-25" transform="translate(934.78 84.89)">Профиль</text><rect class="cls-1" x="1380" y="44" width="150" height="57" rx="5" ry="5"/><text class="cls-25" transform="translate(1135.78 84.89)">Поиск</text><text class="cls-26" transform="translate(1395.78 84.89)">Вы<tspan class="cls-27" x="56.74" y="0">х</tspan><tspan class="cls-28" x="75.87" y="0">о</tspan><tspan x="97.38" y="0">д</tspan></text><text class="cls-25" transform="translate(749.78 84.89)"><tspan class="cls-29">Г</tspan><tspan x="17.47" y="0">лавная</tspan></text><line class="cls-30" x1="935" y1="99" x2="1089" y2="99"/><ellipse class="cls-3" cx="552.83" cy="339.5" rx="50.5" ry="51"/><path class="cls-3" d="M552.83,390.5h0a84,84,0,0,1,84,84v13a0,0,0,0,1,0,0h-168a0,0,0,0,1,0,0v-13A84,84,0,0,1,552.83,390.5Z"/></svg>