<svg xmlns="http://www.w3.org/2000/svg" xmlns:xlink="http://www.w3.org/1999/xlink" viewBox="0 0 166 157.35"><defs><style>.cls-1{fill:none;}.cls-2{clip-path:url(#clip-path);}.cls-3{opacity:0.65;}.cls-4{fill:#333;}.cls-5{fill:#4d4d4d;}</style><clipPath id="clip-path" transform="translate(0 -12.65)"><circle class="cls-1" cx="85" cy="81" r="81"/></clipPath></defs><title>neighbours</title><g id="Слой_2" data-name="Слой 2"><g id="Слой_3" data-name="Слой 3"><g class="cls-2"><g class="cls-3"><circle class="cls-4" cx="18.87" cy="77.78" r="9.25"/><path class="cls-4" d="M18.5,87h0A18.5,18.5,0,0,1,37,105.53v31.82a0,0,0,0,1,0,0H0a0,0,0,0,1,0,0V105.53A18.5,18.5,0,0,1,18.5,87Z"/></g><g class="cls-3"><circle class="cls-4" cx="147.87" cy="70.78" r="9.25"/><path class="cls-4" d="M147.5,80h0A18.5,18.5,0,0,1,166,98.53v31.82a0,0,0,0,1,0,0H129a0,0,0,0,1,0,0V98.53A18.5,18.5,0,0,1,147.5,80Z"/></g><g class="cls-3"><circle class="cls-4" cx="65.04" cy="66.47" r="7.12"/><path class="cls-4" d="M64.75,73.6h0A14.25,14.25,0,0,1,79,87.84v24.51a0,0,0,0,1,0,0H50.51a0,0,0,0,1,0,0V87.84A14.25,14.25,0,0,1,64.75,73.6Z"/></g><g class="cls-3"><circle class="cls-4" cx="110.04" cy="60.47" r="7.12"/><path class="cls-4" d="M109.75,67.6h0A14.25,14.25,0,0,1,124,81.84v24.51a0,0,0,0,1,0,0H95.51a0,0,0,0,1,0,0V81.84A14.25,14.25,0,0,1,109.75,67.6Z"/></g><circle class="cls-5" cx="50.87" cy="85.78" r="9.25"/><path class="cls-5" d="M50.5,95h0A18.5,18.5,0,0,1,69,113.53v31.82a0,0,0,0,1,0,0H32a0,0,0,0,1,0,0V113.53A18.5,18.5,0,0,1,50.5,95Z"/><circle class="cls-5" cx="117.87" cy="86.78" r="9.25"/><path class="cls-5" d="M117.5,96h0a18.5,18.5,0,0,1,18.5,18.5v31.82a0,0,0,0,1,0,0H99a0,0,0,0,1,0,0V114.53A18.5,18.5,0,0,1,117.5,96Z"/><circle class="cls-4" cx="85.5" cy="76.85" r="12.5"/><path class="cls-4" d="M85,89.35h0a25,25,0,0,1,25,25v43a0,0,0,0,1,0,0H60a0,0,0,0,1,0,0v-43A25,25,0,0,1,85,89.35Z"/><path class="cls-4" d="M84.53,13.65q6.3,0,10,3.43a10.82,10.82,0,0,1,3.75,8.29A10.61,10.61,0,0,1,97,30.56a24.73,24.73,0,0,1-5.16,5.77,25.53,25.53,0,0,0-3.37,3.37,7.33,7.33,0,0,0-1.17,2.49,20.47,20.47,0,0,0-.44,4.57H81.81c0-.71,0-1.23,0-1.59a14.68,14.68,0,0,1,.88-5.36,12.12,12.12,0,0,1,2.08-3.42,39.41,39.41,0,0,1,3.79-3.68,17.77,17.77,0,0,0,3.56-3.85,6.21,6.21,0,0,0,.82-3.14,7.3,7.3,0,0,0-2.4-5.4A8.1,8.1,0,0,0,84.62,18,7.89,7.89,0,0,0,79,20.1c-1.51,1.4-2.49,3.6-3,6.59L70.62,26q.73-6,4.35-9.2a14,14,0,0,1,9.56-3.19m3,37.68v6h-6v-6h6m-3-38.68a15,15,0,0,0-10.22,3.44c-2.59,2.29-4.17,5.6-4.68,9.83a1,1,0,0,0,.2.74,1,1,0,0,0,.67.38l5.42.64H76a1,1,0,0,0,1-.85c.43-2.75,1.32-4.77,2.65-6A6.88,6.88,0,0,1,84.62,19a7.16,7.16,0,0,1,5.2,2,6.31,6.31,0,0,1,2.09,4.69,5.1,5.1,0,0,1-.69,2.64A16.66,16.66,0,0,1,87.87,32,42,42,0,0,0,84,35.74a13.59,13.59,0,0,0-2.25,3.72,15.89,15.89,0,0,0-.94,5.71c0,.36,0,.9,0,1.61a1,1,0,0,0,1,1h5.07a1,1,0,0,0,1-1,20.46,20.46,0,0,1,.4-4.33,6.34,6.34,0,0,1,1-2.16,23.28,23.28,0,0,1,3.22-3.21,25.25,25.25,0,0,0,5.37-6,11.49,11.49,0,0,0,1.44-5.67,11.84,11.84,0,0,0-4.07-9c-2.68-2.45-6.29-3.69-10.73-3.69Zm3,37.68h-6a1,1,0,0,0-1,1v6a1,1,0,0,0,1,1h6a1,1,0,0,0,1-1v-6a1,1,0,0,0-1-1Z" transform="translate(0 -12.65)"/></g></g></g></svg>