<svg id="Слой_1" data-name="Слой 1" xmlns="http://www.w3.org/2000/svg" xmlns:xlink="http://www.w3.org/1999/xlink" viewBox="0 0 1923.56 1964"><defs><style>.cls-1,.cls-24,.cls-25,.cls-29{fill:#fff;}.cls-2,.cls-4,.cls-8{fill:#dc6203;}.cls-22,.cls-23,.cls-28,.cls-3{fill:none;}.cls-22,.cls-29,.cls-3{stroke:#dc6203;}.cls-22,.cls-23,.cls-28,.cls-29,.cls-3{stroke-miterlimit:10;}.cls-3{stroke-width:4px;}.cls-4{font-size:51.76px;}.cls-4,.cls-8{font-family:Arial-BoldMT, Arial;font-weight:700;}.cls-5{letter-spacing:-0.02em;}.cls-6{letter-spacing:-0.01em;}.cls-7{letter-spacing:0em;}.cls-25,.cls-8{font-size:36px;}.cls-9{letter-spacing:-0.01em;}.cls-10{letter-spacing:-0.01em;}.cls-11{letter-spacing:0em;}.cls-12{font-size:24px;}.cls-12,.cls-24,.cls-25{font-family:ArialMT, Arial;}.cls-13{letter-spacing:-0.02em;}.cls-14{letter-spacing:-0.03em;}.cls-15{letter-spacing:-0.01em;}.cls-16{letter-spacing:0.01em;}.cls-17{letter-spacing:-0.11em;}.cls-18{letter-spacing:-0.06em;}.cls-19{opacity:0.5;font-size:26.82px;font-family:MyriadPro-Regular, Myriad Pro;}.cls-20{letter-spacing:0em;}.cls-21{letter-spacing:0em;}.cls-22,.cls-29{stroke-linecap:round;stroke-width:5px;}.cls-23{stroke:#000;}.cls-24{font-size:56.77px;}.cls-26{letter-spacing:-0.02em;}.cls-27{letter-spacing:-0.01em;}.cls-28{stroke:#fff;stroke-width:6px;}</style></defs><title>profile</title><image width="1920" height="1080" xlink:href="brick-3034002_1920.jpg"/><rect class="cls-1" x="390" y="180" width="1139" height="1784" rx="20" ry="20"/><rect class="cls-2" y="1" width="1920" height="129"/><rect class="cls-3" x="437.83" y="235.78" width="230" height="252.76" rx="19.62" ry="19.62"/><rect class="cls-3" x="750" y="236" width="735.5" height="252.5" rx="19.62" ry="19.62"/><text class="cls-4" transform="translate(790 590.43)">Мои к<tspan class="cls-5" x="146.85" y="0">а</tspan><tspan x="174.35" y="0">ч</tspan><tspan class="cls-6" x="204.4" y="0">е</tspan><tspan class="cls-7" x="232.5" y="0">ст</tspan><tspan class="cls-6" x="286.64" y="0">в</tspan><tspan x="317.78" y="0">а</tspan></text><text class="cls-8" transform="translate(771 278.89) scale(1.08 1)">И<tspan class="cls-9" x="25.87" y="0">в</tspan><tspan x="47.53" y="0">анов И</tspan><tspan class="cls-10" x="169.29" y="0">в</tspan><tspan x="190.95" y="0">ан И</tspan><tspan class="cls-9" x="268.59" y="0">в</tspan><tspan class="cls-11" x="290.25" y="0">анович</tspan></text><text class="cls-12" transform="translate(771 317.64)">19.02.1994</text><text class="cls-12" transform="translate(771 357.64)">Ю<tspan class="cls-13" x="24.25" y="0">г</tspan><tspan x="32.47" y="0">о-Западный </tspan><tspan class="cls-13" x="172.58" y="0">г</tspan><tspan x="180.81" y="0">ос</tspan><tspan class="cls-14" x="206.16" y="0">у</tspan><tspan x="217.36" y="0">дарст</tspan><tspan class="cls-15" x="281.05" y="0">в</tspan><tspan x="293.53" y="0">енный уни</tspan><tspan class="cls-15" x="409.37" y="0">в</tspan><tspan x="421.85" y="0">ерси</tspan><tspan class="cls-15" x="473.95" y="0">т</tspan><tspan class="cls-14" x="484.68" y="0">е</tspan><tspan x="497.23" y="0">т</tspan></text><text class="cls-12" transform="translate(771 396.64)">Об<tspan class="cls-15" x="32.41" y="0">ще</tspan><tspan x="64.97" y="0">житие </tspan><tspan class="cls-15" x="138.84" y="0">т</tspan><tspan x="149.57" y="0">а</tspan><tspan class="cls-16" x="162.91" y="0">к</tspan><tspan x="173.68" y="0">ое-</tspan><tspan class="cls-15" x="208.37" y="0">т</tspan><tspan x="219.09" y="0">о</tspan></text><text class="cls-12" transform="translate(771 428.64)">С<tspan class="cls-16" x="17.33" y="0">т</tspan><tspan class="cls-14" x="28.59" y="0">у</tspan><tspan x="39.8" y="0">ден</tspan><tspan class="cls-17" x="80.4" y="0">т</tspan><tspan x="88.73" y="0">, 5 </tspan><tspan class="cls-16" x="122.09" y="0">к</tspan><tspan class="cls-15" x="132.86" y="0">у</tspan><tspan x="144.59" y="0">рс</tspan></text><text class="cls-12" transform="translate(771 464.64)"><tspan class="cls-18">Т</tspan><tspan class="cls-14" x="13.31" y="0">е</tspan><tspan x="25.86" y="0">лефон: 89057684933</tspan></text><text class="cls-19" transform="translate(1425.88 279.11)">р<tspan class="cls-20" x="15.26" y="0">е</tspan><tspan class="cls-21" x="28.78" y="0">д.</tspan></text><line class="cls-22" x1="468" y1="700.5" x2="969" y2="700.5"/><rect class="cls-23" x="704.5" y="1245.5" width="414" height="96"/><text class="cls-24" transform="translate(390 84.42)">dor</text><path class="cls-1" d="M478.84,28.47v78.25h97.55V28.47Zm52.72,56H521.27v-31l-7.92,31H504l-7.91-31v31H485.85V43.81h16.51l6.37,24.72,6.32-24.72h16.51Zm27.07,2c-1.33,3.59-2.68,6-4.07,7.27-2,1.78-4.94,2.66-8.95,2.66a65.16,65.16,0,0,1-7.54-.66l-.88-7.87a18,18,0,0,0,5.43.77,5.27,5.27,0,0,0,3.22-.91,7,7,0,0,0,2.09-3.28L535.58,55h11.9l6.08,19.59L559.2,55h11.11Z" transform="translate(0 1)"/><polygon class="cls-1" points="585 107.66 582.53 107.66 582.53 24.75 478.86 24.75 478.86 22.28 585 22.28 585 107.66"/><text class="cls-25" transform="translate(934.78 85.89)">Профиль</text><rect class="cls-1" x="1380" y="45" width="150" height="57" rx="5" ry="5"/><text class="cls-25" transform="translate(1135.78 85.89)">Поиск</text><text class="cls-8" transform="translate(1395.78 85.89)">Вы<tspan class="cls-26" x="56.74" y="0">х</tspan><tspan class="cls-27" x="75.87" y="0">о</tspan><tspan x="97.38" y="0">д</tspan></text><text class="cls-25" transform="translate(749.78 85.89)"><tspan class="cls-18">Г</tspan><tspan x="17.47" y="0">лавная</tspan></text><line class="cls-28" x1="935" y1="100" x2="1089" y2="100"/><ellipse class="cls-3" cx="552.83" cy="340.5" rx="50.5" ry="51"/><path class="cls-3" d="M552.83,391.5h0a84,84,0,0,1,84,84v13a0,0,0,0,1,0,0h-168a0,0,0,0,1,0,0v-13A84,84,0,0,1,552.83,391.5Z"/><circle class="cls-29" cx="467.5" cy="700.5" r="22"/></svg>