<svg id="Слой_1" data-name="Слой 1" xmlns="http://www.w3.org/2000/svg" xmlns:xlink="http://www.w3.org/1999/xlink" viewBox="0 0 1923.56 1964"><defs><style>.cls-1,.cls-21,.cls-22,.cls-26{fill:#fff;}.cls-2,.cls-4,.cls-8{fill:#dc6203;}.cls-19,.cls-20,.cls-25,.cls-3{fill:none;}.cls-19,.cls-26,.cls-3{stroke:#dc6203;}.cls-19,.cls-20,.cls-25,.cls-26,.cls-3{stroke-miterlimit:10;}.cls-3{stroke-width:4px;}.cls-4{font-size:51.76px;}.cls-27,.cls-4,.cls-8{font-family:Arial-BoldMT, Arial;font-weight:700;}.cls-5{letter-spacing:-0.02em;}.cls-6{letter-spacing:-0.01em;}.cls-7{letter-spacing:0em;}.cls-22,.cls-8{font-size:36px;}.cls-9{letter-spacing:-0.01em;}.cls-10{letter-spacing:-0.01em;}.cls-11{letter-spacing:0em;}.cls-12{font-size:24px;}.cls-12,.cls-21,.cls-22,.cls-34{font-family:ArialMT, Arial;}.cls-13{letter-spacing:-0.02em;}.cls-14{letter-spacing:-0.03em;}.cls-15{letter-spacing:-0.01em;}.cls-16{letter-spacing:0.01em;}.cls-17{letter-spacing:-0.11em;}.cls-18{letter-spacing:-0.06em;}.cls-19,.cls-26{stroke-linecap:round;stroke-width:5px;}.cls-20{stroke:#000;}.cls-21{font-size:56.77px;}.cls-23{letter-spacing:-0.02em;}.cls-24{letter-spacing:-0.01em;}.cls-25{stroke:#fff;stroke-width:6px;}.cls-27,.cls-34{font-size:21px;}.cls-28{letter-spacing:-0.01em;}.cls-29{letter-spacing:-0.04em;}.cls-30{letter-spacing:0em;}.cls-31{letter-spacing:-0.01em;}.cls-32{letter-spacing:-0.02em;}.cls-33{letter-spacing:-0.05em;}.cls-35{letter-spacing:0.01em;}.cls-36{letter-spacing:-0.01em;}</style></defs><title>profile</title><image width="1920" height="1080" xlink:href="brick-3034002_1920.jpg"/><rect class="cls-1" x="390" y="180" width="1139" height="1784" rx="20" ry="20"/><rect class="cls-2" y="1" width="1920" height="129"/><rect class="cls-3" x="437.83" y="235.78" width="230" height="252.76" rx="19.62" ry="19.62"/><rect class="cls-3" x="750" y="236" width="735.5" height="252.5" rx="19.62" ry="19.62"/><text class="cls-4" transform="translate(790 590.43)">Мои к<tspan class="cls-5" x="146.85" y="0">а</tspan><tspan x="174.35" y="0">ч</tspan><tspan class="cls-6" x="204.4" y="0">е</tspan><tspan class="cls-7" x="232.5" y="0">ст</tspan><tspan class="cls-6" x="286.64" y="0">в</tspan><tspan x="317.78" y="0">а</tspan></text><text class="cls-8" transform="translate(771 278.89) scale(1.08 1)">И<tspan class="cls-9" x="25.87" y="0">в</tspan><tspan x="47.53" y="0">анов И</tspan><tspan class="cls-10" x="169.29" y="0">в</tspan><tspan x="190.95" y="0">ан И</tspan><tspan class="cls-9" x="268.59" y="0">в</tspan><tspan class="cls-11" x="290.25" y="0">анович</tspan></text><text class="cls-12" transform="translate(771 317.64)">19.02.1994</text><text class="cls-12" transform="translate(771 357.64)">Ю<tspan class="cls-13" x="24.25" y="0">г</tspan><tspan x="32.47" y="0">о-Западный </tspan><tspan class="cls-13" x="172.58" y="0">г</tspan><tspan x="180.81" y="0">ос</tspan><tspan class="cls-14" x="206.16" y="0">у</tspan><tspan x="217.36" y="0">дарст</tspan><tspan class="cls-15" x="281.05" y="0">в</tspan><tspan x="293.53" y="0">енный уни</tspan><tspan class="cls-15" x="409.37" y="0">в</tspan><tspan x="421.85" y="0">ерси</tspan><tspan class="cls-15" x="473.95" y="0">т</tspan><tspan class="cls-14" x="484.68" y="0">е</tspan><tspan x="497.23" y="0">т</tspan></text><text class="cls-12" transform="translate(771 396.64)">Об<tspan class="cls-15" x="32.41" y="0">ще</tspan><tspan x="64.97" y="0">житие </tspan><tspan class="cls-15" x="138.84" y="0">т</tspan><tspan x="149.57" y="0">а</tspan><tspan class="cls-16" x="162.91" y="0">к</tspan><tspan x="173.68" y="0">ое-</tspan><tspan class="cls-15" x="208.37" y="0">т</tspan><tspan x="219.09" y="0">о</tspan></text><text class="cls-12" transform="translate(771 428.64)">С<tspan class="cls-16" x="17.33" y="0">т</tspan><tspan class="cls-14" x="28.59" y="0">у</tspan><tspan x="39.8" y="0">ден</tspan><tspan class="cls-17" x="80.4" y="0">т</tspan><tspan x="88.73" y="0">, 5 </tspan><tspan class="cls-16" x="122.09" y="0">к</tspan><tspan class="cls-15" x="132.86" y="0">у</tspan><tspan x="144.59" y="0">рс</tspan></text><text class="cls-12" transform="translate(771 464.64)"><tspan class="cls-18">Т</tspan><tspan class="cls-14" x="13.31" y="0">е</tspan><tspan x="25.86" y="0">лефон: 89057684933</tspan></text><line class="cls-19" x1="1109.41" y1="716.5" x2="1446.82" y2="716.5"/><rect class="cls-20" x="704.5" y="1245.5" width="414" height="96"/><text class="cls-21" transform="translate(390 84.42)">dor</text><path class="cls-1" d="M478.84,28.47v78.25h97.55V28.47Zm52.72,56H521.27v-31l-7.92,31H504l-7.91-31v31H485.85V43.81h16.51l6.37,24.72,6.32-24.72h16.51Zm27.07,2c-1.33,3.59-2.68,6-4.07,7.27-2,1.78-4.94,2.66-8.95,2.66a65.16,65.16,0,0,1-7.54-.66l-.88-7.87a18,18,0,0,0,5.43.77,5.27,5.27,0,0,0,3.22-.91,7,7,0,0,0,2.09-3.28L535.58,55h11.9l6.08,19.59L559.2,55h11.11Z" transform="translate(0 1)"/><polygon class="cls-1" points="585 107.66 582.53 107.66 582.53 24.75 478.86 24.75 478.86 22.28 585 22.28 585 107.66"/><text class="cls-22" transform="translate(934.78 85.89)">Профиль</text><rect class="cls-1" x="1380" y="45" width="150" height="57" rx="5" ry="5"/><text class="cls-22" transform="translate(1135.78 85.89)">Поиск</text><text class="cls-8" transform="translate(1395.78 85.89)">Вы<tspan class="cls-23" x="56.74" y="0">х</tspan><tspan class="cls-24" x="75.87" y="0">о</tspan><tspan x="97.38" y="0">д</tspan></text><text class="cls-22" transform="translate(749.78 85.89)"><tspan class="cls-18">Г</tspan><tspan x="17.47" y="0">лавная</tspan></text><line class="cls-25" x1="935" y1="100" x2="1089" y2="100"/><ellipse class="cls-3" cx="552.83" cy="340.5" rx="50.5" ry="51"/><path class="cls-3" d="M552.83,391.5h0a84,84,0,0,1,84,84v13a0,0,0,0,1,0,0h-168a0,0,0,0,1,0,0v-13A84,84,0,0,1,552.83,391.5Z"/><circle class="cls-26" cx="1109.07" cy="716.5" r="14.82"/><text class="cls-27" transform="translate(438 664) scale(1.08 1)">1. Вр<tspan class="cls-28" x="51.34" y="0">е</tspan><tspan x="62.74" y="0">мя сна:</tspan></text><text class="cls-27" transform="translate(438 725) scale(1.08 1)">2. <tspan class="cls-29" x="23.35" y="0">У</tspan><tspan class="cls-30" x="35.61" y="0">ро</tspan><tspan class="cls-31" x="61.27" y="0">в</tspan><tspan x="73.9" y="0">ень общительн</tspan><tspan class="cls-28" x="234.33" y="0">о</tspan><tspan x="246.88" y="0">сти по шка</tspan><tspan class="cls-28" x="358.63" y="0">л</tspan><tspan x="371.69" y="0">е </tspan><tspan class="cls-32" x="389.21" y="0">о</tspan><tspan x="401.51" y="0">т 0 до 10 бал</tspan><tspan class="cls-31" x="534.32" y="0">л</tspan><tspan x="547.38" y="0">ов:</tspan></text><text class="cls-27" transform="translate(438 789) scale(1.08 1)">3. <tspan class="cls-33" x="23.35" y="0">Т</tspan><tspan class="cls-28" x="35.13" y="0">е</tspan><tspan x="46.53" y="0">мперамент:</tspan></text><text class="cls-34" transform="translate(603 664) scale(1.08 1)"><tspan class="cls-35">л</tspan><tspan class="cls-36" x="12.49" y="0">о</tspan><tspan class="cls-35" x="23.93" y="0">ж</tspan><tspan class="cls-36" x="38.22" y="0">у</tspan><tspan x="48.48" y="0">сь в </tspan></text><text class="cls-34" transform="translate(817 664) scale(1.08 1)">, <tspan class="cls-36" x="11.67" y="0">в</tspan><tspan x="22.59" y="0">с</tspan><tspan class="cls-36" x="33.09" y="0">т</tspan><tspan x="42.47" y="0">аю в </tspan></text><rect class="cls-3" x="718" y="635" width="89" height="29" rx="5" ry="5"/><rect class="cls-3" x="637" y="766" width="212" height="29" rx="5" ry="5"/><rect class="cls-3" x="933" y="635" width="89" height="29" rx="5" ry="5"/><path class="cls-2" d="M1456.91,284h-20.35a6.1,6.1,0,0,1-6.1-6.09V257.56a6.1,6.1,0,0,1,6.1-6.09h20.35a6.09,6.09,0,0,1,6.09,6.09v20.35A6.09,6.09,0,0,1,1456.91,284Zm-20.35-30.5a4.06,4.06,0,0,0-4.06,4.06v20.35a4.06,4.06,0,0,0,4.06,4.06h20.35a4.06,4.06,0,0,0,4.06-4.06V257.56a4.06,4.06,0,0,0-4.06-4.06Z" transform="translate(0 1)"/><rect class="cls-2" x="1448.19" y="257.41" width="12.28" height="5.4" rx="2" ry="2" transform="translate(609.89 -951.18) rotate(45)"/><path class="cls-2" d="M1455.23,267.26l-8.06-8.05a.75.75,0,0,0-.74-.19l-6.29,1.91a.76.76,0,0,0-.48.46L1434,277.07a.75.75,0,0,0,.17.78l2.44,2.43a.75.75,0,0,0,.78.18l15.67-5.68a.75.75,0,0,0,.46-.49l1.91-6.28A.76.76,0,0,0,1455.23,267.26Z" transform="translate(0 1)"/><path class="cls-1" d="M1444.08,270.11c-.52-.52-1.86-.05-2.38.48a1.34,1.34,0,0,0-.22,1.61l-6.49,6.48.52.53,6.49-6.49a1.34,1.34,0,0,0,1.61-.22C1444.13,272,1444.61,270.64,1444.08,270.11Z" transform="translate(0 1)"/></svg>