<svg xmlns="http://www.w3.org/2000/svg" xmlns:xlink="http://www.w3.org/1999/xlink" viewBox="0 0 1921 1961"><defs><style>.cls-1,.cls-12,.cls-13,.cls-17{fill:#fff;}.cls-19,.cls-2,.cls-8{fill:none;stroke-miterlimit:10;}.cls-2,.cls-8{stroke:#dc6203;stroke-width:3px;}.cls-11,.cls-13,.cls-14,.cls-17,.cls-3,.cls-7{font-size:36px;}.cls-12,.cls-13,.cls-17,.cls-3,.cls-7{font-family:ArialMT, Arial;}.cls-4{letter-spacing:-0.01em;}.cls-5{letter-spacing:-0.03em;}.cls-6{letter-spacing:-0.02em;}.cls-11,.cls-14,.cls-7,.cls-9{fill:#dc6203;}.cls-8{opacity:0.3;}.cls-10{letter-spacing:0.01em;}.cls-11{font-family:Arial-Black, Arial;}.cls-12{font-size:56.77px;}.cls-13{opacity:0.49;}.cls-14{font-family:Arial-BoldMT, Arial;font-weight:700;}.cls-15{letter-spacing:-0.02em;}.cls-16{letter-spacing:-0.01em;}.cls-18{letter-spacing:-0.06em;}.cls-19{stroke:#fff;stroke-width:6px;}</style></defs><title>register</title><g id="BG"><image width="1920" height="1080" xlink:href="D:\Хакатон\brick-3034002_1920.jpg"/></g><g id="Слой_3" data-name="Слой 3"><rect class="cls-1" x="390" y="181" width="1140" height="1780" rx="30" ry="30"/><text></text><rect class="cls-2" x="457" y="405" width="1004" height="78" rx="5" ry="5"/><text class="cls-3" transform="translate(459 384.76)">Фамилия:</text><text></text><rect class="cls-2" x="457.5" y="555.5" width="1004" height="78" rx="5" ry="5"/><text class="cls-3" transform="translate(459.5 535.26)">Имя:</text><text></text><rect class="cls-2" x="456.5" y="711.5" width="1004" height="78" rx="5" ry="5"/><rect class="cls-2" x="1136.5" y="844.5" width="324" height="78" rx="5" ry="5"/><text class="cls-3" transform="translate(458.5 691.26)">Отчест<tspan class="cls-4" x="117.76" y="0">в</tspan><tspan x="136.48" y="0">о:</tspan></text><text></text><rect class="cls-2" x="458.5" y="1285.5" width="1004" height="78" rx="5" ry="5"/><text class="cls-3" transform="translate(460.5 1265.26)"><tspan class="cls-5">В</tspan><tspan class="cls-6" x="22.82" y="0">У</tspan><tspan x="44.89" y="0">З:</tspan></text><text></text><rect class="cls-2" x="458.5" y="1435.5" width="1004" height="78" rx="5" ry="5"/><text class="cls-3" transform="translate(460.5 1415.26)">Об<tspan class="cls-4" x="48.62" y="0">ще</tspan><tspan x="97.45" y="0">житие:</tspan></text><rect class="cls-2" x="458.5" y="1589.5" width="1004" height="78" rx="5" ry="5"/><text class="cls-3" transform="translate(460.5 1569.26)">E-mail:</text><rect class="cls-2" x="458.5" y="1739.5" width="1004" height="78" rx="5" ry="5"/><text class="cls-3" transform="translate(460.5 1719.26)">Номер <tspan class="cls-4" x="120.81" y="0">т</tspan><tspan class="cls-5" x="136.9" y="0">е</tspan><tspan x="155.72" y="0">лефона:</tspan></text><text class="cls-7" transform="translate(458.5 1885.26)">* <tspan class="cls-4" x="24.01" y="0">в</tspan><tspan x="42.73" y="0">се п</tspan><tspan class="cls-6" x="110.25" y="0">о</tspan><tspan x="129.48" y="0">ля о</tspan><tspan class="cls-6" x="200" y="0">б</tspan><tspan x="219.83" y="0">яз</tspan><tspan class="cls-6" x="255.83" y="0">а</tspan><tspan class="cls-4" x="275.06" y="0">т</tspan><tspan class="cls-5" x="291.15" y="0">е</tspan><tspan x="309.97" y="0">льны для зап</tspan><tspan class="cls-6" x="533.02" y="0">о</tspan><tspan x="552.25" y="0">лнения</tspan></text><rect class="cls-8" x="458.5" y="1133.5" width="1004" height="78" rx="5" ry="5"/><text class="cls-3" transform="translate(460.5 1113.26)">К<tspan class="cls-4" x="20.97" y="0">у</tspan><tspan x="38.57" y="0">рс:</tspan></text><text class="cls-3" transform="translate(519.5 896.26)">М</text><circle class="cls-9" cx="480.5" cy="879.5" r="21.5"/><circle class="cls-2" cx="704.5" cy="879.5" r="21.5"/><text class="cls-3" transform="translate(742.5 896.26)">Ж</text><text class="cls-3" transform="translate(519.5 1016.26)">С<tspan class="cls-10" x="26" y="0">т</tspan><tspan class="cls-5" x="42.89" y="0">у</tspan><tspan x="59.7" y="0">дент</tspan></text><circle class="cls-2" cx="480.5" cy="999.5" r="21.5"/><circle class="cls-9" cx="704.5" cy="999.5" r="21.5"/><text class="cls-3" transform="translate(742.5 1016.26)">Аби<tspan class="cls-10" x="64.74" y="0">т</tspan><tspan class="cls-4" x="81.63" y="0">у</tspan><tspan x="99.23" y="0">риент</tspan></text><text class="cls-3" transform="translate(862.5 896.26)">Д<tspan class="cls-6" x="24.38" y="0">а</tspan><tspan class="cls-4" x="43.61" y="0">т</tspan><tspan x="59.7" y="0">а р</tspan><tspan class="cls-4" x="109.74" y="0">о</tspan><tspan x="129.36" y="0">ждения: </tspan></text><text class="cls-11" transform="translate(763.96 247.55)">Добро пожаловать!<tspan x="-229.25" y="43.2">Приступим к поиску идеального соседа* </tspan></text><rect class="cls-9" x="1" width="1920" height="129"/><text class="cls-12" transform="translate(391 83.42)">dor</text><path class="cls-1" d="M479.84,28.47v78.25h97.55V28.47Zm52.72,56H522.27v-31l-7.92,31H505l-7.91-31v31H486.85V43.81h16.51l6.37,24.72,6.32-24.72h16.51Zm27.07,2c-1.33,3.59-2.68,6-4.07,7.27-2,1.78-4.94,2.66-8.95,2.66a65.16,65.16,0,0,1-7.54-.66l-.88-7.87a18,18,0,0,0,5.43.77,5.27,5.27,0,0,0,3.22-.91,7,7,0,0,0,2.09-3.28L536.58,55h11.9l6.08,19.59L560.2,55h11.11Z"/><polygon class="cls-1" points="586 106.66 583.53 106.66 583.53 23.75 479.86 23.75 479.86 21.28 586 21.28 586 106.66"/><text class="cls-13" transform="translate(935.78 84.89)">Профиль</text><rect class="cls-1" x="1381" y="44" width="150" height="57" rx="5" ry="5"/><text class="cls-13" transform="translate(1136.78 84.89)">Поиск</text><text class="cls-14" transform="translate(1396.78 84.89)">Вы<tspan class="cls-15" x="56.74" y="0">х</tspan><tspan class="cls-16" x="75.87" y="0">о</tspan><tspan x="97.38" y="0">д</tspan></text><text class="cls-17" transform="translate(750.78 84.89)"><tspan class="cls-18">Г</tspan><tspan x="17.47" y="0">лавная</tspan></text><line class="cls-19" x1="751" y1="96" x2="886" y2="96"/></g></svg>