<svg xmlns="http://www.w3.org/2000/svg" viewBox="0 0 510.49 258.99"><defs><style>.cls-1{fill:#8f4a4b;}.cls-2{fill:#914d4e;}</style></defs><title>Ресурс 4</title><g id="Слой_2" data-name="Слой 2"><g id="Слой_3" data-name="Слой 3"><path class="cls-1" d="M222.14,32.44c1.16.41-.24-.33-1.45-1.13Z"/><path class="cls-1" d="M220.69,31.31l-1-.79A6.86,6.86,0,0,0,220.69,31.31Z"/><path class="cls-1" d="M210.8,24.34c2.47,1.3,5.09,3.37,6.74,4C215.38,26.56,211.61,24.33,210.8,24.34Z"/><polygon class="cls-1" points="214.16 26.85 214.58 26.84 212.33 25.82 214.16 26.85"/><polygon class="cls-1" points="215.5 27.97 215.25 27.71 211.93 25.84 215.5 27.97"/><path class="cls-1" d="M202.72,19.48c.83.42,1.68.81,2.48,1.28,2.1,1.61-1.7-.5-.3.57,3,1.76,1.37,0,5.08,2.33-.15-.43-6-3.53-5.19-3.59C201.62,18.21,204.5,20.23,202.72,19.48Z"/><path class="cls-1" d="M46.67,35.91l-.32.22C46.5,36.07,46.64,36,46.67,35.91Z"/><path class="cls-1" d="M18.4,70.74c-.34.52-.66,1.06-1,1.58a5.35,5.35,0,0,0,.46-.59Z"/><path class="cls-1" d="M69.7,19.26c.6-.26,1.14-.52,1.63-.75A9.36,9.36,0,0,0,69.7,19.26Z"/><path class="cls-1" d="M88.05,249.18a.4.4,0,0,0-.28,0l.08,0,.52.05Z"/><path class="cls-1" d="M5.54,119c0,.71,0,1.41,0,2A16.93,16.93,0,0,0,5.54,119Z"/><path class="cls-1" d="M84.61,12.35,84,12.6l.81-.26h-.17Z"/><path class="cls-1" d="M26.68,58.64c-.37.48-.7.92-1,1.3C26.06,59.51,26.38,59.07,26.68,58.64Z"/><path class="cls-1" d="M162.88,4.1a11.08,11.08,0,0,0-2-.39A8.27,8.27,0,0,0,162.88,4.1Z"/><path class="cls-1" d="M146.52,1.65h.09C146.52,1.59,146.47,1.6,146.52,1.65Z"/><path class="cls-1" d="M136,1h.19C136,1,136,.94,136,1Z"/><path class="cls-1" d="M160.88,3.71c-1.31-.43-1.61-1.09-3.47-.75l.33.15a22.17,22.17,0,0,0-3.83-.51,2.33,2.33,0,0,0,.42.22c.61.08,1.41.26,2.64.52A19.18,19.18,0,0,0,160.88,3.71Z"/><path class="cls-1" d="M46.73,35.71c.19,0,1-.74,0,0Z"/><path class="cls-1" d="M57.61,26.9l-1.17.74A11.22,11.22,0,0,0,57.61,26.9Z"/><path class="cls-1" d="M106,6.48l-.25,0C105.64,6.58,105.84,6.54,106,6.48Z"/><path class="cls-1" d="M55.41,28.38c.34-.25.67-.51,1-.74A6.25,6.25,0,0,0,55.41,28.38Z"/><path class="cls-1" d="M90.57,10.33l-.22.05A.82.82,0,0,0,90.57,10.33Z"/><path class="cls-1" d="M253.69,150.72a15.71,15.71,0,0,1-.52,2.73c0,1.18.23,0,.38-1.06s.21-2,.21-.29c.11-1,.15-1.85.17-2.61l-.57,1.42C253.29,152.94,253.65,149.57,253.69,150.72Z"/><path class="cls-1" d="M100.62,254l-.44-.14c.26.25,0,.24,1.68.76,1.54.08-.65-.9,2-.58a18.89,18.89,0,0,1-1.93-.49C102.91,254,101.81,254.05,100.62,254Z"/><path class="cls-1" d="M101.92,253.54l-.07,0-.35-.19c-.37-.09-.72-.19-1-.29A9.85,9.85,0,0,0,101.92,253.54Z"/><path class="cls-1" d="M244.05,185.67c-.19.41-.36.78-.52,1.11A4.19,4.19,0,0,0,244.05,185.67Z"/><path class="cls-1" d="M.58,115.29v-1.47A8.72,8.72,0,0,0,.58,115.29Z"/><path class="cls-1" d="M76.74,244.85l-1.12-.62-.73-.36C75.51,244.2,76.11,244.55,76.74,244.85Z"/><path class="cls-1" d="M159,250.77c-.75.66.65-.2,2.42-.36l1.53-.64C161.43,250.06,160.1,250.47,159,250.77Z"/><path class="cls-1" d="M254,149.38a0,0,0,0,1,0,0v.13Z"/><path class="cls-1" d="M202.48,230.42l.67-.42A4.75,4.75,0,0,0,202.48,230.42Z"/><path class="cls-1" d="M92.37,250.58c-2-.73-4.06-1.36-6-2.2l1.7.8C89,249.25,91.44,250.55,92.37,250.58Z"/><path class="cls-1" d="M132.55,253.41l-.56-.28c-6.21.57-13.24-.85-18.22-.86-1.84-.49-3-.84-4-1a10.17,10.17,0,0,0-2.12-.15c-1.19,0-2.31,0-5.58-1.25l.19.2a119.09,119.09,0,0,1-16.41-5.54l-2-.83c-.67-.29-1.32-.61-2-.92-1.31-.62-2.64-1.22-3.94-1.86-2.57-1.37-5.18-2.65-7.64-4.17a146.84,146.84,0,0,1-26.79-20.19l.18-.11a132.77,132.77,0,0,1-28.41-42,122.75,122.75,0,0,1-9.8-49.43,4.83,4.83,0,0,0-.38-2.17c-.15-.26-.3-.47-.35-1.85.08-1.19.16-3.89.45-3.89,0,2.32.29,1,.33,1.82.06-1.91.41-4.08.62-6.21s.61-4.17.69-5.89l-.72,2.79a29.84,29.84,0,0,1,.69-4.58c.06.53.74-1.12.61-.09.15-1.8.32-3,.49-4a13.53,13.53,0,0,1,.64-2.17c.22-.59.45-1.15.69-1.93s.48-1.78.86-3.24c-.33-1.34,1.35-8.82,3-13.62.4-.79.75-1.6,1.2-2.37-1.41,3.23.46.13-1.25,4.13,1.51-3.3,2.72-6.45,4.36-9.47-.47.51-.58.26,0-1,1.1-1.81,1.44-1.83,2.67-3.9-.37.7-.65,1.45-1,2.17a37.77,37.77,0,0,0,2.14-3.91c.49-.27,2.39-3.31,2.34-2.59a35.36,35.36,0,0,1,1.95-3.3c.3-.47.61-.95,1-1.49s.79-1.12,1.26-1.85c-2.44,2.7.27-1-.16-.78-.79,1.11-1.62,2.2-2.34,3.36a15.61,15.61,0,0,1,1.32-1.69c.09-.07-.15.25-.47.73-.6,1-1.55,2.5-1.23,2.46-1.71,2.11,1.46-3.53-1.05.27.72-1.16,1.31-2.08,1.83-2.89s1.06-1.44,1.55-2.11c1-1.34,1.93-2.75,3.63-5-2.12,2.62.18-.7-1.11.59,2.77-3.28.82-.7,1.91-1.51,1.49-1.8,2.29-2.23,3.51-4,2.7-2.64-.13.66,1.32-.59A12.41,12.41,0,0,1,35.07,47c-.71.75-1.59,1.61-2.33,2.51-1.51,1.75-2.75,3.33-2,3.28a23,23,0,0,0-1.85,2.68c-.64,1-1.37,2.08-2.2,3.21.77-1,1.79-2,2.79-3.24L31,53.57c.51-.6,1-1.21,1.45-1.82l-.36-.5c1.5-1.76,1.46-2.43,2.67-3.59-.48.76.8-.23,2-1.6-.43.32-.92.87-.86.65,1.18-1.25,1.74-2.07,2.43-2.89a42,42,0,0,1,2.88-3.18c-2.55,2.26-3.25,2.55-5.61,4.71.31-.9,1.48-1.7,2.82-3-.16.24-.44.52,0,.19L39.76,41c3.21-2.82,0,.79,2.71-1.46,2.05-1.34,2.36-2.33,3.88-3.41l-.34.16.72-.58h0c1.71-1.46,3.62-2.94,3.93-3.58a15.34,15.34,0,0,0,2.08-1.75c.95-.82,3.14-3,5-3.55l-.11.08c2.38-1.51,4.28-2.6,3.87-2.12l3.94-2.23-.21.6c1.72-1.13,2.51-1.62,3.12-2.1s1.06-.9,2.21-1.76c1.34-.64,3.19-1.47,4.89-2.35s3.29-1.66,4.16-2.12c.31-.12.76-.32,1.51-.66l-1.65.54c3-1.26,2.52-1.35,4.52-2.1-.43.12-.5.12.64-.25l1.15-.41a4.65,4.65,0,0,1-1,.4l.41,0a12,12,0,0,0,3.1-1.12A20.57,20.57,0,0,1,91.49,10c-.24.1-.65.26-.92.35,1.51-.38,3.78-.57,4.31-1a6.2,6.2,0,0,0,1.35-.5l1.11-.25-1.1.24a5.11,5.11,0,0,1,1.37-.56c1.28-.35,2.56-.68,3.86-.94A22.2,22.2,0,0,0,104,6.64h.69c1.4-.37,1.44-.24,1.27-.17a43,43,0,0,0,6.35-1c1-.18,2-.37,3-.52A21.76,21.76,0,0,1,119,4.64c1-.38-1.24-.29-1.43-.42.81-.3,3.89-.79,5.43-1.09l5.71.25c2,.1,3.57.38,3,.65,4.45,0-1.4-.34.83-.55l.52,0a21,21,0,0,1-3.63-.43c-.36-.33,3.61-.42,4.83-.35l-.85.44a12.93,12.93,0,0,0,3.51-.49,8.88,8.88,0,0,1,2.37-.62c3.31.29,1.38.61,2.06,1,1.15,0,2.3.1,3.46.15l0,.32c2.24.12,2.8-.21,5.88.34-2.27,0,4.58.9,1.45.91,1.68.33,2.28-.25,3.08.35,1.23-.15-1.5-.44-2.35-.63-.32-.28.63-.23,1.92-.06s2.89.53,3.92.65c.13.28-1.41.05,1,.64a7.45,7.45,0,0,1,3.38.6c.07-.31,2.72.53,4.06.87-1.5-.42-3.65-1.13-2.59-1.18a24.28,24.28,0,0,1,4.92,1.06l-1.8-.65a10.4,10.4,0,0,1,3.21.85,34.54,34.54,0,0,0,3.76,1.3A29.91,29.91,0,0,0,171.08,8c1.56.22,4.43.91,6.79,1.51.84.43,1.67.85,2.48,1.34.4-.11,2.92,1.1,3,.8,3.16,1.4-2.74-.6-3.14-.5a19.15,19.15,0,0,0,3.67,1.23,10.53,10.53,0,0,1,3.44,1.46L186,13.62a41.47,41.47,0,0,1,4,1.68c.05-.1-.61-.33-1.4-.67a10.46,10.46,0,0,1,3.39.85c1.33.5,2.52.94,2.43.53l-1.71-.87c2.69,1.17,4.83,1.59,6.72,2.88,1.43,1-1.27-.21-2.29-.46,2.46,1.25,2.33.38,5.23,2-1.48-.91-1.08-1-.07-.63-.84-.46-2.14-1.2-3.16-1.74s-1.8-.83-1.54-.57l.6.36a7.36,7.36,0,0,1-1.71-.46c-2.37-1.13-1-.8-1.4-1.14-3.91-1.95-.57.4-4.21-1.23l-.43-.32c-1.84-.58-4.56-1.73-5.21-1.51-1.48-1-4.28-1.42-6-2.3,0-.52,1.57.08,3.45.85.93.39,1.94.81,2.86,1.16a13.18,13.18,0,0,0,2.29.78c-1.85-1,1.28.05,2.17.19-2.09-.73-4.16-1.49-6.29-2.09a8.68,8.68,0,0,0-3.35-1.51l.48.2c-2.51-.79-2-.14-4.09-1-.31-.19.4-.12.58-.13-2-.72-1.72-.32-3.08-.67-2-.72,1.11,0-.52-.68C171.24,6.81,170,6,168,5.48c.74.66-8.32-1.12-4,.31-1.66-.24-3.31-.52-5-.65-1.49-.57,3.54-.12,2.26-.81l3.92.89c-.25-.38-2.33-.77-4.65-1.14a27.74,27.74,0,0,1-6.18-1.26,50.22,50.22,0,0,1-5.62-1l.63.68c-2.08-.4-2.74-.72-2.82-.85-1.24-.07-2.36-.18-3.5-.3a6.41,6.41,0,0,1,1.49-.07,4.12,4.12,0,0,0-2.6-.24,25.52,25.52,0,0,1-3.5,0l1.2-.18a8.21,8.21,0,0,0-1.9.15c-.55,0-1.07,0-1.57,0a12.17,12.17,0,0,0,3.1.73c-1.22-.11-2.37-.19-3.49-.25l-3.23-.06-3.1-.1c-1,0-2.06,0-3.11-.11.14-.18,1.89-.48,1.36-.48-2.11,0-4.38.44-4.17.69l-1.15.14a5.26,5.26,0,0,0-1.92-.15,6.33,6.33,0,0,0-1.33,0,9.74,9.74,0,0,1-2.69.62,23,23,0,0,0-2.82.53c.94-.08,2.09-.25,3.26-.43a12.87,12.87,0,0,1-4.4,1.05c3.06-.74-3.39,0,1.28-.81-3.4-.12-1.66.63-5.16,1.07l-2.28.19c.27-.4,3.6-.85,3-.88l-1.55.34c1.5-.6,7.44-1.4,11.07-2.14-1.24.07-2.47.2-3.69.36l-3.69.43-7.19,1.54c-2.45.63-5,1.13-7.41,1.89l-3.6,1c-1.17.39-2.31.8-3.42,1.2s-2.18.78-3.18,1.23-2,.89-2.84,1.34l.31-.13a.53.53,0,0,0-.21.32l-.36.05-1.37.8a26.42,26.42,0,0,0-3.41,1.08c-1.32.49-2.78,1-4.1,1.52,1.69-.6,1.7-.56,2-.41-.19.45-.38.69-2.79,1.74-.13-.21,1.33-.92-.5-.24,1-.33.23.21-.79.74-.7.26-1.62.63-2.35,1s-1.32.57-1.4.47a8.73,8.73,0,0,1,1.53-.77c.57-.39-2.56,1.14-.86,0l-2.33,1.35c-1.48.57.77-.78.15-.6-1,.58-1.79,1.1-2.55,1.61s-1.41,1-2.06,1.54c-1.3,1-2.6,1.93-4.22,3.15.09-.22-.17-.7-.12-.54a31.27,31.27,0,0,0-4,2.94c-1.29,1.16-2.6,2.37-4,3.43a21.82,21.82,0,0,1,2.24-1.86c-1.1.78-2.19,1.53-3.24,2.29l-3,2.35c-2,1.5-3.82,3.15-5.69,4.69s-3.57,3.23-5.39,4.85-3.55,3.4-5.32,5.24l-1.3,2.38-2,1.79a86.87,86.87,0,0,0-8.6,12l-1.78,3-1.62,3.15c-1.13,2.09-2.08,4.32-3.14,6.64a7.6,7.6,0,0,1-1.14,2,2,2,0,0,0-.73.85C9,80.1,8.43,81.41,8,82.6s-.66,2.23-.94,3.27c-.6,2-1,4.11-1.87,7.31.1-.92.08-2.56-.76.18a5.84,5.84,0,0,1-.36,2.7l.06-.94a16.51,16.51,0,0,0-.76,2.57c-.11.51-.24,1.07-.39,1.71s-.29,1.37-.47,2.21a65.28,65.28,0,0,0-1.19,16.72c-.31,5.31-.58-.58-.75.41a17.89,17.89,0,0,0,.21-2.81c0-.29-.18-.22-.24-.64-.07,2,0,4.42-.5,5.43a37.53,37.53,0,0,0,.16,6.79c-.14-1.38.08-2.57.26-1.27-.23,2.27.25,8-.26,7.75a139.83,139.83,0,0,0,2.92,20.45,124.07,124.07,0,0,0,6.35,20.38c1.12,2.12-.58-1.71.07-.56,1.59,3.08.83,2.61,2.23,5l-.72-.93a75.87,75.87,0,0,0,6.16,10.83c-.6-.42,1.4,3-.41.19,1,1.64,1,4.43,2,5.57-.05-.84,0-1.71,0-2.56a6.07,6.07,0,0,1,.78,1.19c.36.56.69,1.07.66.94a41.58,41.58,0,0,0,2.2,4.47c0,.67-1.5-1.87-2.37-3.24-.6.08,2.67,4.81,1,3.1,2,2.89-.05-.57,1.27,1.06L24,202.46l-1.21-2a37,37,0,0,1,4.2,5.35l2.59,2.43c-.06.27.32.79.84,1.42s1.25,1.32,1.8,2L31.3,211a35.48,35.48,0,0,1,3,3.8c-1.17-.77-1.35-1.71-2-1.91L33.93,215c.17-.16,1.44.95.29-.56,1,.77,1.8,1.29,2.87,2.21s2.36,2.24,4.59,4.32c1.71,2.21-2.41-1.78-1.87-.69A26.56,26.56,0,0,0,45,224.5,22.33,22.33,0,0,1,49,227.17,28.26,28.26,0,0,0,52.59,230c.94.62,1.84,1.29,3.81,2.63-1.4-.64,2.54,2.18,3.11,2.91l-1.71-.85c1.23.78,2.32,1.67,1.85,1.59,0-.23,1.36.53,3.08,1.56.86.5,1.8,1.1,2.73,1.62s1.85,1,2.59,1.36l-.34-.57c1.15.58,2.49,1.32,3.9,2s2.82,1.35,4,2c3.69,1.66,3,1,6,1.93,1.44,1,1.16,1.19.48,1.32-.93-.6-2.64-1.27-4.22-2.1-1.21-.45-2.32-.92-3.41-1.37l-3.22-1.31a51.6,51.6,0,0,1-6.33-3.32c-1.14-.28-.42.22.9.85A34,34,0,0,1,70,242.52a1.26,1.26,0,0,1-.42-.16c.19.11.36.21.54.33-1.65-.83-4.33-2.22-5-2.13,2.74,1.47,2.34.45,5.53,2.63,2.64,1.09,4.39,2.76,6,3.52.93.26,1.48.25,2.32.44a11.3,11.3,0,0,1,1.56.47c.65.25,1.45.6,2.53,1-.69-.11-1.39-.21-2.06-.37,4.89,2,2.54.35,7.07,2.15-1.59-.64,1.69.18-1.34-1,.78.21,2,.56,3.36,1s2.79,1,4,1.43c.67.13.18-.11.34-.21-2.67-1.18-4.45-1.2-6.56-2.39l-2.06-.3c-2.45-1.17-2.55-1.63-1-1.19A12.57,12.57,0,0,1,83,247c-.15-.84,2.91,1.44,4,1.21l-1.78-.65c-.3-.37.77-.06,2.19.46s3.25,1.13,4.39,1.56c2.53,1.17,5,1.86,5,2.27-1.2-.32-2.42-.58-3.61-.94,1.76.85,4.61,1.21,6.69,1.83a3.57,3.57,0,0,0,.56.24c-.1-.05-.15-.1-.14-.13a6.34,6.34,0,0,1,1.15.42c1.85.47,4.61.95,6.34,1.34l-.15-.34-.27.13c-1.72-.31-4-1.09-2.64-1,3.87.62,4.55,1.28,5.42,1.74-1,.26-3.79-.68-5.77-1a8,8,0,0,0,2.86.85c1.35.23,3,.59,5,1-1.7.28-4.65-.88-5.63-.57,3.23.69,4.13.58,7.55,1.17-.48.17-3.83-.3-3.66,0,.72.2,1.46.33,2.19.49a21.07,21.07,0,0,0-2.23-.24c-.24,0-.1.13.08.25.35.24.86.52-1.27.17,2,.62,2.87.08,5.68.82-.77-.34-3-1.06-.23-.86,1,.18,2,.42,3.07.56.63.18-.19.25-.93.29s-1.37.05-.38.3,2.19.12,3.28.18c-.09-.16-1.64-.39-.64-.5,1.86.32,3.13-.23,5.34-.35a20.77,20.77,0,0,1,3.77.4c2.22-.11,4.74-.29,7.2-.38,2.46-.24,4.87-.38,6.88-.79-2.74.56.15.52,1.83.58-3.19.38-3.19.82-2.94,1.11,2-.22,3.19-.84,2.19-.9,3.28-.14,2.22-.48,5.1-.55,1.87-.1-.86.6-.21.68,3.52-.48.88-.7,4.7-1.14-.2.09-.54.16-.23.2a14.57,14.57,0,0,0,4.61-1.23,9.11,9.11,0,0,0,1.91-.11c.67-.13,1.34-.31,1.94-.46,1.18-.32,2.05-.55,1.91-.21,4.84-1.36-.81-.14.1-.58.49-.18,1.08-.37,1.72-.54s1.3-.4,2-.58c1.31-.36,2.52-.64,3.1-.76-1.17.36-2.22.85-3.39,1.1l1.14.1a23.87,23.87,0,0,0,3.21-1,11.45,11.45,0,0,0,1.53-.86,15.42,15.42,0,0,1,4.52-1.92c-2.82,1.3-.85.65-2.2,1.46.88-.35,5.29-2.06,2.52-1.27,2.11-.84,3.6-1.36,5.07-1.91a49.35,49.35,0,0,0,4.61-2.79c2.82-1.44,5-2.29,6.43-2.89,5.61-3.62,11-6.77,16.21-11.49l-.41.32c4.2-3.48-2.19,1.13,2.12-2.52-.12.44.58-.05,1.51-.77s2-1.77,2.75-2.3,1.28-1.14,1.88-1.7,1.12-1.16,1.65-1.72c1-1.15,2.06-2.24,3-3.36,1.82-2.3,3.7-4.46,5.73-6.94.06.11-.09.51-.84,1.51a95.16,95.16,0,0,0,7.72-10.79l-.05.2c4.17-5.77,6.71-11.77,9.43-18.55-.17.57-.05.78-.17,1.23l1.28-2.82c.45-1,.83-2.13,1.22-3.19s.73-2.11,1-3a24,24,0,0,0,.51-2.44,19.33,19.33,0,0,0,1.3-3.58,31.66,31.66,0,0,1,1.37-4.55c.17-.29-.06.56-.14.93a71.62,71.62,0,0,0,1.85-7.34c.42-3.08.42-5,.59-7.09,0-1,.07-2.1.17-3.34s.29-2.68.41-4.47c.35-.16.35,1,.27,2.12s-.23,2.4,0,2.51a39.56,39.56,0,0,1,.33-4.66c.2,1.21.15.27.35,1.11a18.26,18.26,0,0,0-.06-3.65l-.17-1.75c-.06-.46-.1-.74-.09-.73s-.18.43-.26,1.85a33.73,33.73,0,0,1-.09-4.6c0-1,.07-2.05.05-3.07s-.09-2-.17-2.87c.06,1.13,0,4.68-.34,3.35,0-4.65-.72-6.17-1.34-9.35-.08-4.28.87,3.08,1.28,2.25.11-.73.34-2.49.69-.7a39.26,39.26,0,0,0-.65-5.19c-.33-1.59-.69-3.12-1-4.82l.15.08c-.19-1.2-.52-2.39-.81-3.58s-.58-2.38-.94-3.52-.7-2.27-1-3.35-.56-2.13-.82-3.12c.17.7.35,1.4.46,2.1a29.42,29.42,0,0,0-1.64-4.25c.26.07-.5-3,.07-1.82a40.64,40.64,0,0,1-2.86-5.95c-1.23-2.48-2.44-5-3.29-5.91-.43-1.21.31-.44.64-.17,1.23,2.78,1.49,3.78,2.42,5.12-1-2.3-1.64-4.07-1.33-3.79-1.46-2.12-4.44-7.33-5.56-8.14-.75-1.68-1.55-3.26-.9-2.91-2.22-3.18-2-2.18-1.7-1.37s.45,1.53-2-2c-1.93-3.48,2.6,2.9-.39-1.68l.62.8a4.38,4.38,0,0,0-2-2.77,8.41,8.41,0,0,1-2.88-2.58c0-.81,2.21,2.22.6-.46a37.29,37.29,0,0,0-3.66-3.43A49.38,49.38,0,0,1,222,60.38l.61.3L220.94,59l-1-1-1.07-.95c-1.43-1.28-2.85-2.58-3.85-3.4,0-.16.26.08.65.39-3.64-3.16-1.75-1-4.63-3.76l-1-.48c.73.68,1.81,1.66,3,2.62.58.49,1.19,1,1.78,1.41s1.13.91,1.65,1.26c-2.06-1.42,2.49,3.09,1.25,2.6l.49.19c4.25,4.92,9.78,11.08,14.11,18a26.77,26.77,0,0,1,2.19,2.88c.59,1,1.13,1.94,1.67,2.91,1.14,1.92,2,4,3.48,6.36,1,.48.57.87,2.63,5.12-1.11-2.25-.54-.08,0,1.4a28.17,28.17,0,0,1,1.39,2.85c.22,1,1.59,6.73,2.56,8.7.51,2.83-.34-.6-.67-1.15,0,1.19.84,2.18.88,3.15,0,0-.08,0-.18-.31l.74,2.92c.21.9.33,1.77.49,2.64.3,1.75.64,3.5.89,5.76.32.14.54,1.24.74,2.55s.26,2.85.48,3.85c-.28-.64.06,2.56,0,3.86l.55,2.42c.51,2.41-.18,3.37,0,6.5l.11-.76c0,.58,0,1.39,0,2.31s-.16,2-.27,3-.25,2.06-.38,3-.34,1.69-.48,2.23a85.36,85.36,0,0,1-5.54,26.36,152.75,152.75,0,0,1-12.24,24.89c-.6,1.32.82-.74.46.37a42.32,42.32,0,0,1-2.57,4.08c1.16-1.4.83-1.27.84-1,.56-.89,1-1.84,1.54-2.76.11-.1-.05.2.18,0,.5-.93,1.07-2.05,1.79-3.2-.87,1.75-.79,2.44-2.33,4.64a6.31,6.31,0,0,1,.55-1.13,28,28,0,0,1-2.1,3.37c-1.23,1.61-.83,1.28-1.14,1.38-.64.84-1.24,1.7-1.9,2.51l-2,2.42a18.27,18.27,0,0,1-1.3,2.07c-.5.64-1.05,1.25-1.55,1.79-1,1.09-1.91,1.92-2.26,2.29.13-.79,2.61-3.24,3.28-4.67-.54.52-1.12,1-1.68,1.53l.16.31-2.14,2.38.07-.17a2.69,2.69,0,0,1-1,1.27c-.13.08-.41.24-.18,0l-1.44,1.78c.67-1.19-1.46,1.39-1.5.88-5.41,5.07-6.48,7-11.95,10.61.94-.52-1.26,1.77-3,2.88-1,.58-1.31.68-.78.14l-2.07,1.66a45.65,45.65,0,0,0-4.51,2.44c-.78.46-1.59,1-2.49,1.5s-1.89,1-3,1.54l.14-.27c-.75.5-1.51,1.06-2.42,1.56s-2,1-3.19,1.57l.3-.52c-3.06,1.21-2,1.71-5.44,2.92.15.33,2.36-.38,2.83-.2-1,0-4.6,1.45-3.66,1.34-3.37,1.44-2.39.86-2.71.9l-2,.93c-2.43.85-.92-.18-.1-.69a13.4,13.4,0,0,1-1.67.78c-.59.21-1.19.39-1.82.56l-3.84,1c.34-.14.67-.31,1-.47-1.14.35-2.31.56-3.47.84a28.64,28.64,0,0,1-3.87,1.16c-1.45.3-3,.57-4.48.78l1.95-.87c-2.11.16-1,.37-1.57.56a16.72,16.72,0,0,1-5.77.51C142.39,253.67,137.06,252.75,132.55,253.41ZM104.65,6.54l-.5,0C105.23,6.25,105.84,6,104.65,6.54ZM76.59,15.88c3.18-1.63,2.24-.94,2.54-.94-.82.32-1.54.61-2.21.91l-1.84.9c-1.18.58-2.33,1.11-3.75,1.76a1.59,1.59,0,0,1,.81-.08,9,9,0,0,1-2.73,1C70.49,18.2,78.11,15.48,76.59,15.88Zm65-14.77-.43.09h0Zm-17.94.55a4,4,0,0,0-1.25-.09A2.79,2.79,0,0,0,123.7,1.66Zm-35,6.62A16.16,16.16,0,0,0,84.77,9.6C85.39,9.41,86.46,9,88.65,8.28Zm-69.4,183.8c-.61-.9-1.8-2.57-1-.88.61.69,1.18,2.36,1.83,2.86l.08.16C19.7,193.23,19.41,192.36,19.25,192.08Zm83.19,60.34c-.23.15-1,.17-.59.44l-.29-.09c.24.13.45.24.23.23a21.09,21.09,0,0,0,2.29.59C104.51,253,106.28,253.35,102.44,252.42Z"/><path class="cls-1" d="M68.68,241.88l.87.48Z"/><path class="cls-1" d="M103.92,253.54a18,18,0,0,0-2.07-.68A10.44,10.44,0,0,0,103.92,253.54Z"/><path class="cls-1" d="M196.8,18.13l-1-.38,1.78,1.06c3.15,1.43,3.44,1.27,4.35,1.38-1.45-.59-2.57-1.15-3.78-1.78s-2.56-1.23-4.37-2.05Z"/><path class="cls-1" d="M196.14,15.45a10.93,10.93,0,0,0-1.45-1l-.56-.05Z"/><path class="cls-1" d="M156.84,1.92l3.27.75C161.19,2.69,157.41,1.71,156.84,1.92Z"/><path class="cls-1" d="M170.46,8.41l1.72.24a11.51,11.51,0,0,0-3.85-1C170.36,8.11,168.79,8,170.46,8.41Z"/><path class="cls-1" d="M147.92.66c-1.08.3-3.33-.46-4-.15C144.76.48,147.71,1,147.92.66Z"/><path class="cls-1" d="M149.82,4.58c1,.5,2.73.39,4.77.76C152.88,5.1,150.54,4.42,149.82,4.58Z"/><path class="cls-1" d="M130,1.07c.17-.28,1.58-.27,3.16-.21a14.86,14.86,0,0,1-1.58.26c2.63-.22,2.81-.21,4.91-.3-2.1-.24-5.27-.3-4.94-.66C130,.41,128,.88,130,1.07Z"/><path class="cls-1" d="M144.87,4.14c1.7.27,2.71.53,4.75.81-.33-.23-1-.65-3.39-.79l.89-.24C144.91,3.49,148,4.41,144.87,4.14Z"/><path class="cls-1" d="M120.27,1l1.07,0c.61-.12,1.27-.23,1.93-.32l2-.18A15.35,15.35,0,0,0,128.33,0c-1.49.09-3.16.22-4.63.37S121,.79,120.27,1Z"/><path class="cls-1" d="M136.45,3.08l-.34.44c2.41.15-.17-.16.7-.24a10.2,10.2,0,0,0,2.22.11C136.29,3.35,138.87,3,136.45,3.08Z"/><path class="cls-1" d="M128.54,3.65,125.47,4l2.42.37C131.48,4,128.06,4.08,128.54,3.65Z"/><path class="cls-1" d="M124.73,3.55l-.35-.07c-1.53.3-3,.72-4.56,1.07C122.54,4,122.7,4,124.73,3.55Z"/><path class="cls-1" d="M69.63,16.05c-.19.21.35,0,.8-.14s.81-.33.23-.16C71.05,15.33,67.68,16.89,69.63,16.05Z"/><path class="cls-1" d="M81.28,14.55A32,32,0,0,0,78,16c-1.32.64-2.65,1.46-3.47,1.92C76.51,16.76,81.67,14.67,81.28,14.55Z"/><path class="cls-1" d="M73.9,18.29l.67-.38C74.27,18.07,74.05,18.19,73.9,18.29Z"/><path class="cls-1" d="M18.47,72.37a3.66,3.66,0,0,0-.22.52Z"/><path class="cls-1" d="M19.26,70.67a22.72,22.72,0,0,0,1.12-2.13,7.71,7.71,0,0,0,.72-1.66c-.23.44-.47.86-.7,1.29l-.63,1.31c-.42.89-.84,1.82-1.3,2.89C18.87,71.59,19.51,70.72,19.26,70.67Z"/><path class="cls-1" d="M11.87,87.06c.2-.93.69-2.12.41-1.88C12,85.65,11.54,87.6,11.87,87.06Z"/><path class="cls-1" d="M26.38,205.54c1,1.48,1.76,2.27,1.68,1.72C26.8,205.66,27.35,206.64,26.38,205.54Z"/><path class="cls-1" d="M29.54,209.05l0,.28c.19.35.37.72.58,1.06C29.93,210,29.74,209.49,29.54,209.05Z"/><path class="cls-1" d="M37.52,218.63a3.13,3.13,0,0,1-.61-.45C37.43,218.66,37.87,219.07,37.52,218.63Z"/><path class="cls-1" d="M36.65,217.93l.26.25Z"/><path class="cls-1" d="M36.15,217.27h-.21c.16.13.44.4.71.66A2,2,0,0,1,36.15,217.27Z"/><path class="cls-1" d="M40.14,221.32c-.47-.66-1-1.28-1.41-2-.92-.82-.48-.28,0,.3s.87,1.14-.17.45Z"/><path class="cls-1" d="M46.34,226.84a23.37,23.37,0,0,0,3,2.34,8.25,8.25,0,0,1,2.32,2c2.62,1.88,2.45,1.48,2.37,1.16s-.09-.52,3,1.51c-2.76-2.09-3.56-2.48-4.33-2.76s-1.46-.53-3.79-2.55c1.07,1,.64.79-.16.19S46.75,227.12,46.34,226.84Z"/><path class="cls-1" d="M46.07,225.48c-.45,0,1.72,1.85,2.5,2.31A12.3,12.3,0,0,0,46.07,225.48Z"/><polygon class="cls-1" points="56.37 234.43 57.86 235.73 58.37 235.89 56.37 234.43"/><path class="cls-1" d="M62.5,238.68l-1.78-.79C61.32,238.14,63.73,239.71,62.5,238.68Z"/><path class="cls-1" d="M71.31,244.22c1.57.92,3.33,1.06-.12-.55l.76.42C71.7,244.08,73.41,245.23,71.31,244.22Z"/><path class="cls-1" d="M93.86,252.51c-1.18-.37-2.58-.8-2.38-.57,1.08.33,2.16.66,3.27.91Z"/><path class="cls-1" d="M93.88,250.79c-.93-.75-3-1-5-1.84C91.21,249.85,90.91,249.8,93.88,250.79Z"/><path class="cls-1" d="M97.41,254.17a17.32,17.32,0,0,1-3.07-.87A7.93,7.93,0,0,0,97.41,254.17Z"/><path class="cls-1" d="M102.69,255.39c1,.42-.29.17.5.48a23.83,23.83,0,0,0,6.13,1.21c-.58-.3-1.33-.93-.33-.95-3.75-.52-5.81-.29-7.47-1.29-1.08,0-2.18,0-3.26-.09C101.18,255.66,100.66,254.83,102.69,255.39Z"/><path class="cls-1" d="M95.67,252.08l1.86.8c-.32-.34,1.16.06,2.21.27C99.37,252.51,96.78,252.37,95.67,252.08Z"/><polygon class="cls-1" points="123.53 258.31 127.84 258.39 126.45 258.3 123.53 258.31"/><path class="cls-1" d="M126.29,258.61l.1.16c1.11,0,2.21-.07,3.31-.14C128.56,258.65,127.42,258.62,126.29,258.61Z"/><path class="cls-1" d="M130.8,258.94l-.51,0c-.85.06-1.7.05-2.55.05Q129.27,259,130.8,258.94Z"/><path class="cls-1" d="M139.82,258.84l-.8-.18c-1.1.11-3.29,0-3.07.25A18.16,18.16,0,0,1,139.82,258.84Z"/><path class="cls-1" d="M167.51,248.16c-.67.36-.2.35.27.35l1-.7A5.4,5.4,0,0,1,167.51,248.16Z"/><path class="cls-1" d="M172.45,247.16c.91-.49,1.84-.94,2.74-1.45-1.67.6-2.6,1-3.47,1.38a23.76,23.76,0,0,1-3.14,1.3c1.31-.22,2.92-1.19,4.52-1.62Z"/><path class="cls-1" d="M222.46,212.21c0,.39.46-.17-.9,1.7.48-.63,1-1.23,1.43-1.81l1.36-1.82c.9-1.23,1.92-2.44,2.93-3.94-.49.4.79-2,.06-.81s-1.47,2.25-2.24,3.34l.21-.59C223.42,210.38,224.46,210,222.46,212.21Z"/><path class="cls-1" d="M223.86,62c.37.17.1-.26-.16-.7C221.84,59.7,224.23,62.37,223.86,62Z"/><path class="cls-2" d="M473.74,159.47c.11.23.44.72.47.56l-.47-.88Z"/><path class="cls-2" d="M475.32,160.64a6.9,6.9,0,0,0-1.05-2c.41.87.18.55.68,1.58,0,.15-.33-.17-.51-.49.11.24-.25-.1,0,.46.53.57.69.51.5-.12A2.86,2.86,0,0,1,475.32,160.64Z"/><path class="cls-2" d="M484.75,156.46l-.12-.07A.19.19,0,0,0,484.75,156.46Z"/><path class="cls-2" d="M490.37,153.52s0,.14.06.21A.27.27,0,0,0,490.37,153.52Z"/><path class="cls-2" d="M491.87,153.86l-.09,0C491.85,153.9,491.9,153.93,491.87,153.86Z"/><path class="cls-2" d="M484.75,156.46l.31.17C484.9,156.35,484.86,156.47,484.75,156.46Z"/><path class="cls-2" d="M475.22,157.86a.89.89,0,0,0,.06.27.44.44,0,0,1,0-.13Z"/><path class="cls-2" d="M482.84,158.63l0,0,.19.37Z"/><path class="cls-2" d="M481.12,159.91a8,8,0,0,0-.56-1,1.55,1.55,0,0,1,.22.54A4.05,4.05,0,0,0,481.12,159.91Z"/><path class="cls-2" d="M477.46,160.49v.13A.57.57,0,0,0,477.46,160.49Z"/><path class="cls-2" d="M484.22,158l.18.24A1.08,1.08,0,0,0,484.22,158Z"/><path class="cls-2" d="M470,138l0-.15C470,138,470,138,470,138Z"/><path class="cls-2" d="M468.56,133.37l0,0,.12-.46Z"/><path class="cls-2" d="M494.11,153.71h0C494.11,153.81,494.12,153.78,494.11,153.71Z"/><path class="cls-2" d="M507.49,139.48c-1.08.51-2.27.44-3.35,1A23.57,23.57,0,0,0,507.49,139.48Z"/><path class="cls-2" d="M475.33,157.93a.12.12,0,0,1,.06-.06A.05.05,0,0,0,475.33,157.93Z"/><path class="cls-2" d="M504.14,140.52h0l-.1.05Z"/><path class="cls-2" d="M498.41,150.37a3.14,3.14,0,0,0-.34-.22A1.4,1.4,0,0,0,498.41,150.37Z"/><path class="cls-2" d="M494.17,151.65l.14,0C494.24,151.65,494.2,151.64,494.17,151.65Z"/><path class="cls-2" d="M499.75,148.1c.12,0,.26,0,.22-.06l-.13,0C499.93,148.08,500,148.13,499.75,148.1Z"/><path class="cls-2" d="M502.05,146.63l-.27,0s0,0,0,.06Z"/><path class="cls-2" d="M475.48,138.94c0-.24.06-.5.1-.76C475.47,138.77,475.15,138.92,475.48,138.94Z"/><path class="cls-2" d="M475.47,158.26a.93.93,0,0,1-.14-.33.09.09,0,0,0,0,.07A1.3,1.3,0,0,0,475.47,158.26Z"/><path class="cls-2" d="M492.8,144.65l.16,0C492.86,144.65,492.81,144.64,492.8,144.65Z"/><path class="cls-2" d="M488.28,141.93l-.09.08S488.24,142,488.28,141.93Z"/><path class="cls-2" d="M492.92,144.57c.38.11.61.16.77.2l-.28-.09Z"/><path class="cls-2" d="M475.58,138.17h0Z"/><path class="cls-2" d="M473.25,139.67c.26.09.38-1,.59-1.63.39-.23,0,.83-.07,1.41.27-.24.66-1.19.8-1.11a1.45,1.45,0,0,1-.11.46c.43-.8.65.11,1.15-.9a1.12,1.12,0,0,1,0,.27c.09-.55.22-1.09.32-1.48.13,0,.39-.63.27.09-.07,0-.15.24-.24.45l.21-.27c-.14,1-.26.3-.44,1,.32-.27.81-1,.93-.7-.2,1-.52.22-.48,1.17L476,138c-.16,1.61-.15-.16-.36,1.57.32.38.56-.4.87,0,.22-.53.17-.82.39-1.35.79-.86-.17,2.59.55,1.37.26-.63.61-1.88.73-1.14l-.37,1.09c.35.2.61-1.56.81-.71-.17.42-.38.3-.36.45,0,.94.34-.59.53-.55l-.2,1c.44-.06,1-.67,1.53-.75a2.34,2.34,0,0,0-.22.91c.68-.36,1.16.41,1.55,1.13l.41-.81c.05,0,0,.41-.1.56.13.38.15-.54.33-.85.13,0,0,.53-.1.77.54-.64,1.43-1.31,1.59-.3l-.14.24c.22.42.77-1.67.86-.81l-.09.14c.56.53,1.47-.07,1.66,1.34.39-1.21.51.71,1-1,.17.94,0,1.22.38,1.92.12.11.47-1,.68-1.16l-.21.9.47-.88-.14,1.1.22-.19a1.38,1.38,0,0,1,0-.69c.36-.35.47.77.36,1.24l.79-.62a1.81,1.81,0,0,1-.37.67c.55-.84-.17,1,.33.19a3.9,3.9,0,0,1,.2-.71c0,.58.35.67.66.5l-.2.61c.41.26,1-.07,1.51.06a2.24,2.24,0,0,1,.37-1.46l-.18,1c.24-.56-.06-.39.31-1.06.16.15-.14,1.11-.32,1.39l.31-.27c-.06.28-.15.42-.25.78.24-.57.16,1.05.54.06l0,.28s.18-.29.28-.32a6.64,6.64,0,0,1,.75-1.19c0,.28-.32.88-.2.83.39-.33.56-.59,1-1a8.54,8.54,0,0,1-.91,1.07,9.64,9.64,0,0,0,1.08-.54c.3-.25.41-.37.69-.57s-.21.28-.62.56l-.09.06c.75-.41.34.07-.22.45s-1.16.7.06.17l-.12.05c.44-.18.92-.35,1.42-.51-.12.11-.94.36-1.63.69,1.07-.4,1.1-.35,1-.27s-.34.18.51-.06c-2,.68-2,.65-1.62.59s1-.17-.6.2l1.16-.27c1.17-.25-.64.16-.91.22l1.7-.38c.78-.11.66,0,.07.15a27.45,27.45,0,0,1-2.87.47c-.28,0,5.93-.5,3.09-.2l-2,.13c1.2-.07,1.06,0,.93.05s-.28.08.48.19c-.37,0-.88-.06-.86-.07-1.23-.07-.12,0,.78.16-.14,0-.85-.09-1.33-.14-.66-.08,1.34.24.24.09l-.42-.08a6.26,6.26,0,0,0,1,.24c-.61-.09.36.2-.34.07,1.13.38-.66-.12.91.44-1.63-.57-1.36-.43-.74-.07-.42-.21-.48-.19-1.07-.49l.2.14c.15.09.37.23.72.42-.85-.42-.54-.23-.35,0s.31.37-.56-.31a2.08,2.08,0,0,1,.48.8,1.51,1.51,0,0,1,.06.36.48.48,0,0,1,0,.17,2.4,2.4,0,0,1-.11.23,1.26,1.26,0,0,1-.24-.58.29.29,0,0,1,0-.14.11.11,0,0,0,0-.05c0-.06,0-.13-.4-.69l.22.45a4.15,4.15,0,0,1,0,.61c0,.38-.07.67-.39.68s-.25-.54-.33-.76c-.16.76-.95.46-1,1.34a1.24,1.24,0,0,1-.11-.36c-.06.08-.29-.05.05.46v-.19c.6.67.68,1.77.92,2.18-.81-1.57-.64-.12-1.62-2.13a1.84,1.84,0,0,0,.33.76c-.14-.06-.29-.24-.47-.69-.1.47.35,1,.08,1.11-.15-.25-.16-.38-.33-.7.19.58.37,1.15,0,1.08-.08-.16-.23-.34-.17-.38-.32.32.19,1.71-.52,1.5-.57-1.16-.37-.27-1-1.2l-.05.43.38.4c-.2.11.07.9-.3.7l-.1-.48-.25.41.43.23c.12.61.79,1.18.36,1.08,0-.13-.2.12-.66-.38h0c.1.36.2.74-.09.6s-.64-1.06-.79-1.25c.41.85-.32.51.1,1.43a5.09,5.09,0,0,0-.48-.81l.33.69a1.58,1.58,0,0,1-.54-.64c-.34.05.85,1.14.2.83a1.7,1.7,0,0,1-.09-.29c-.49-.06-.36.81-.86.68-.69-.89.11-.4-.5-1.14-.32.45-.16,1.71-.72,1.75l.15.05c.79,1.38-.74-.46-.54.3a2.61,2.61,0,0,0-.33-.62c-.42,0-.37.7-.53,1.39l-.17-.38c-.36-.2-.55.11-.83.07.17.37,0,.38.41.84-1.81-1.6-.39,1.73-1.93.42.06,0,0-.4-.1-.37l-.22.59a3.67,3.67,0,0,0,.66.72c.17.38.22.72.12.79-.06-.51-.6-.94-.89-1.21.13.17.23.38.35.56-.89-.9.71,1.2,0,.69l-.18-.32c0,.23.15.7,0,.69-.48-.64-.08-.39-.43-1-.14.15.48,1.49-.1.92-.05-.24,0-.3,0-.54-.68-.68-.57-.47-.77-.52h0l-.52-.17.21.17c.91,1.89-.23.59.22,1.93-.41-1.27-.35-.66-.82-1.44a1.76,1.76,0,0,1-.58-.57c.26.71-.54-.34-.15.69-.17-.24-.16.06-.53-.57-.05.3.32.4.5.72.27,1-1.29-.62-.94.79,0,.69.43,1.56.39,2.17a2,2,0,0,1-.49-.95c-.4-.25-.49-.11-.47.28a2.06,2.06,0,0,0-.48-.64c-.09.14.49,1,.09.69a11.72,11.72,0,0,1-.51-1.07c0,.33.14.88.12,1.2a3,3,0,0,1-.44-1,1.71,1.71,0,0,0,.17,1.39l.27.17c0,.08-.41-.56-.44-.71-.19-.63.37.09.54.33l0,.23c1,1.38.31-.52.58-.57l.58,1.11-.32-1a2.6,2.6,0,0,1,.62,1c.49.42-.1-.46.41,0a.38.38,0,0,1,.11.19l0-.42c.11.24.5.73.31.64.67.42-.05-1.08.56-.35l0,.08c.17-.61-.45-.8-.74-1.9l1.42,1.78-.46-.79c.06,0,.18,0,.36.32-.19-.62-.24-.32-.47-.87.64.58.33-.67,1.16.53-.31-.63-.48-.33-.53-.88.9,1.29.1-.38.66.12.38.71,0,.46.55,1-.63-1.23.51,0,.52-.29-.58-.92.08-.59.14-1.06.18.32.79.2,1.24.39l.09.16c-.55-1-.19-.94-.14-1.25a3.08,3.08,0,0,1,.52,1.11l.16-.11a1.07,1.07,0,0,1-.16-.68l.41.72c.19-.18-.08-1.1.5-.82-.4-.66-1.38-1.66-1.35-2.28a5.07,5.07,0,0,1,.64,1.12c0-.06-.1-.35.05-.23l.26.67c.29.17-.25-.54-.11-.55.31.5.3.31.54.71,0,.07-.22-.15-.14.08a1.43,1.43,0,0,1,.79.57c-.19-.28-.42-.68-.38-.8.2-.17.46.56.75.73-.17-.38.2-.11-.27-.86.07,0,.3.3.46.49-.1-.4.47-.43-.17-1.15l-.06,0v0h0c-.1-1,1-.08,1.21-.63l.16.25c0-.43.39-.49.2-1.13.07,0,.45.36.61.68,0-.3-.11-.59.4-.34.1.55.3.35,0,.43.35.08.66.45.46-.39.33.7.68.7.66.45l-.44-.36c.05-.17.19-.18.33-.19l.48.88c1.11.73-.3-2.26,1.14-.77-.26-.66-.51-.26-.84-1,.28,0,1.26,1,1.33,1,.58.28-.52-1.4,0-1.27-.23-.28-.78-1.06-.73-1.48.27,0,1.05,1.1,1.08,1.42,0,.06-.12,0-.18-.13a.69.69,0,0,0,.28.61l-.16-.31c.3.24.56,0,.81.56a.66.66,0,0,0-.46-.62c.54.27.42-.25.88-.13-.15-.14-.42-.47-.37-.49.64.11-.19-.68,0-1,.45.36.64,1.13.67.57a1.84,1.84,0,0,1,.64,1.06c-.12-.74.7.08.91.1l0,.33c0-.2,0-.24.12-.28l-.46-.55c.14.06.21,0,.37.27a13.37,13.37,0,0,1-.88-1.6c.29.24.1-.53.64.25-.49-.07.55.77.36,1.08,0-.13.06-.17.2-.11a.38.38,0,0,1,.1.23c.77.51-.43-1-.1-1.18.25.48.62.8.61.68-.13.07-.54-.71-.64-1.13.43.21.06-.41.19-.43l-.22-.09c-.25-.48-.11-.48-.05-.72.23.35,0,.33.17.45-.35-.89.88.59.76-.09.3.24.55.84.77,1-.12-.74.66.44.62-.21a1.72,1.72,0,0,1-.57-1.1l-.16.7-.29-1.06c-.13.08,0,.56-.17.51a1.48,1.48,0,0,0-.48-.88c.75.79,0-.75.61-.27l.95,1.49c.38.23.34,0,.42-.39s.14-.78.6-.81l-.4-.11c-.37-.6.3-.31.3-.65a3.05,3.05,0,0,0,1,.74c-.34-.31.53-.29-.37-1.13.3.13.6.24.91.35.82-.14-.93-1.41-.37-1.53.5.45,1.12.55,1.23,1,.17-.1.43-.13,0-.36.48.13-.38-.71.34-.5-.21-.17-.86-.5-.65-.57s.32.14.32.14c-.32-.14-.21-.34-1.07-.57,1.22.32,1.52.09,1.72-.12s.34-.41,1.62-.28a1.35,1.35,0,0,1,.38-.76c.25,0,.44.07.29.09,1.26-.15-2.36-.51-1-.63,1.75,0,.61.23,1.32.21,1.57.15,1.63,0,1.53-.11s-.34-.29.79-.34l.12.06c1.41-.12-.65-.47,0-.69h.53c-1.54-.19-1.74-.45-2-.62a17.73,17.73,0,0,0,2.26-.05c-.07-.09-2.51.13-2.68,0,.93-.1,1.89-.28,3.65-.42l-.23.2c2.37-.24.36-.28.91-.41l1-.06c.23-.33-2.35-.07-1.69-.4l-.84.12c-2.42.16,1.71-.31,0-.23l2.85-.41c-.46,0-2.08,0-2.38-.1a19.42,19.42,0,0,1,3.69-.16c.22-.14.49-.42-.86-.25.21,0,.82,0,.3.07a19.77,19.77,0,0,1-2.5.16,3,3,0,0,1-.74,0c2.86-.49,2.94-.62,2.79-.74s-.48-.22,1.34-.69c-1.39.1-1.58,0-1.66-.25s0-.46-.7-.56c-3.06,1.1-.39,0-3.78,1-.41,0-.43,0-.23-.08a15.11,15.11,0,0,0,1.33-.81,10.6,10.6,0,0,1,1.64-.44c-.3-.22,1.13-.53,1.56-.92-1,.42-1.79.53-1.7.29-.31.22-.63.43-1,.64-1.18.21-.68-.06-.23-.35s.87-.58-.28-.36l1.15-.32c-.93.12-1.64-.41-4,.54a3.35,3.35,0,0,1,1.14-.6,5.49,5.49,0,0,0-2.22.07c-.84.11-1.47.18-1.36-.26l.53-.33c-.32.06-1.13.59-.9.18.18-.14.49-.34.43-.38-.25.1-1.17.52-1.16.26l.64-.37c-.21-.35-.86-.19-1.49.09a10.39,10.39,0,0,1-1.69.72c.86-1.15.38-1.71.09-2l.11-.16a2.36,2.36,0,0,0-1.74.14,9.06,9.06,0,0,0-.83.38c-.29.13-.38.29-.58.37,0-1.48-1.05-.87-1.43-1.79a2.33,2.33,0,0,1-.39,1.1c-.07-.29-.58.8-.28-.37l0,0c.19-1.18-.16-.94-.37-1l-.41,1.53c0-2.37-1.66.47-1.48-1.61-.23.35-.4.3-.62.66l.2-.83a.94.94,0,0,0-1-.36l.24-.57c-.25-.12-.91,2.3-1.16,2.29l.22-1.25c-.45-.09-.65-1.29-1.37-.28.05-.18.15-.53.23-.56-.2-.09-.62-1-1,.67.26-1.1-.45-.22-.81.21l.23-.81c-.46,1-.53,1.27-.89,1.49,0-.12.1-.66.14-.43-.13-.49-.37.72-.54.22l.23-.49c-.22-.12-.27.16-.55.73-.22.29-.39-.31-.25-1.05-.14.44-.41,1-.5.76a1.41,1.41,0,0,1,.19-.52c-.26-.65-.82.8-.89-.06a2.28,2.28,0,0,0,.07-.5c.31.1.55.2.51.26a6,6,0,0,1,.41-1.93c-.34.51-1,1.66-1.14,1.25a1.57,1.57,0,0,1,0-.27l0-.08c0-.09-.1,0-.18.08-.05-.14-.08-.24-.15-.27.12-.63-.21-.41-.33-.47-.19.83-.32.65-.33,1.37,0-.07.05-.09.14-.11s.05,0,.08-.07l0,.07a2.06,2.06,0,0,1,.33,0c-.2.39-.39.72-.42.23-.2.5-.4,1-.5,1.28.11-1.19-.08-1.88,0-2.6-.5.37-1,.08-1.6,1.56-.15.17,0-.47,0-.72s.17-.1.26-.31c-.31.34-.68,0-1,1.06-.15-.55.4-.95,0-.87l.13-.32c-.33-1.9-1.88,2.45-2.17.05a.89.89,0,0,1,0,.4c-.71-1.2-2.16.44-2.71-1.33-.19-.37-.39.31-.68.79l.16-.89-.52.94c-.57.65-.15-2.32-1-1l-.08.6c-.15-.15-.65.22-.45-.46-.05.11-.21.6-.2.28l.1-.46-.63.68c-.25-.42.5-1.82,0-2a3.63,3.63,0,0,0-.85,1.54c.06,0,.12.34,0,.8l-.23.2a9.88,9.88,0,0,0-.64,3.75l.48-.76-.06.69-.25,0c0,.65.2.12.39-.23a2.94,2.94,0,0,0-.06.76l.6-1.23c-.09.54-.38,1-.26,1.36.27-.57.16-1.22.47-1.56,0,.65-.17,1.14.12.65a1.66,1.66,0,0,1-.25.71c.24-.39.42-.09.67-.79,0,.8.53-.08.2,1.2.12-.29.5-1,.65-1-.62,1.48.47.21,0,1.85.52-1.34.8-.46,1.3-1.15,0,.1-.14.32-.15.24.15.16.1.59.15.88a7,7,0,0,1,1-2c-.06,1.15-.46,1.31-.65,2.38.21-.93.6-.83.71-1.62a4.31,4.31,0,0,1-.08,1.33c.38-1.42.22-.2.57-1,.07.76-.27,1.35.1,1A1.63,1.63,0,0,1,473.25,139.67Zm6.89-.94h0l-.14,0Zm.53.11a.48.48,0,0,0-.22-.08c.05-.29.14-.58.19-.55S480.65,138.59,480.67,138.84Zm.26-6c.12-.09.1.08.07.25a.43.43,0,0,0-.17.06l0,.1C480.85,133.14,480.89,133,480.93,132.89Z"/><path class="cls-2" d="M480.52,133.93s0,0,0,0v.2l.09-.25Z"/><path class="cls-2" d="M484.61,156.38h0a.59.59,0,0,1-.08-.08Z"/><polygon class="cls-2" points="487.59 142.19 487.64 141.98 487.55 142.15 487.59 142.19"/><path class="cls-2" d="M480.53,155.56a1.17,1.17,0,0,0-.15-.16Z"/><path class="cls-2" d="M479.34,156.09l-.32-.15A.91.91,0,0,0,479.34,156.09Z"/><path class="cls-2" d="M478.27,156.28l.18.31h0Z"/><path class="cls-2" d="M491.08,146.93a.06.06,0,0,0,0-.06C491.08,146.69,491.06,146.77,491.08,146.93Z"/><path class="cls-2" d="M488.17,151.12a3.23,3.23,0,0,1-.09-.42C488,150.69,487.91,150.72,488.17,151.12Z"/><polygon class="cls-2" points="492.78 144.64 492.79 144.65 492.8 144.65 492.78 144.64"/><path class="cls-2" d="M488.28,150.6c-.16-.1-.2,0-.2.1S488.29,150.74,488.28,150.6Z"/><path class="cls-2" d="M474.43,158.27h-.06l.07.12Z"/><path class="cls-2" d="M474.44,158.39v.11S474.48,158.47,474.44,158.39Z"/><path class="cls-2" d="M474.47,158.74l0-.24S474.36,158.52,474.47,158.74Z"/><path class="cls-2" d="M475.75,157.89l-.15-.26A2.17,2.17,0,0,0,475.75,157.89Z"/><path class="cls-2" d="M476,157.6c-.12,0-.55-.42-.56-.18l.12.21C475.41,157.21,476.24,158.09,476,157.6Z"/><path class="cls-2" d="M479.48,159.89l-.41,0c.22.24.52.57.44.71C480.39,161.18,479,160,479.48,159.89Z"/><path class="cls-2" d="M480.61,159.73c-.07.22.26.4.35.56C480.9,160,480.88,159.9,480.61,159.73Z"/><path class="cls-2" d="M487,155.69l.4.65C487.41,156.18,487.19,156.09,487,155.69Z"/><polygon class="cls-2" points="486.03 151.57 485.66 151.24 485.99 151.87 486.03 151.57"/><polygon class="cls-2" points="489.69 155.72 489.7 155.85 489.74 155.49 489.69 155.72"/><path class="cls-2" d="M502.61,147.15l-1.28-.3C501.43,147,502.76,147.39,502.61,147.15Z"/><path class="cls-2" d="M508,142.55c1.13-.16,2-.38,1.09-.33C508.81,142.34,507.83,142.54,508,142.55Z"/><polygon class="cls-2" points="490.79 135.17 490.97 134.88 490.7 135.09 490.79 135.17"/><path class="cls-2" d="M294.89,140.46c-.22.16-.47.7-.13.75l.69-.75Z"/><path class="cls-2" d="M295.82,143.06a2.69,2.69,0,0,0,1.59-1.68c-.79.66-.67.27-1.58,1.07-.33,0-.32-.54-.09-.83-.22.16-.31-.43-.78,0,0,.86.42,1.14,1.2.85C296.16,142.74,295.93,142.92,295.82,143.06Z"/><path class="cls-2" d="M323.1,157.42l-.15-.18A.34.34,0,0,0,323.1,157.42Z"/><path class="cls-2" d="M341.29,163.58a.24.24,0,0,0-.26.16C341.18,163.7,341.3,163.67,341.29,163.58Z"/><path class="cls-2" d="M344.24,165.39l-.17-.11C344.12,165.39,344.18,165.46,344.24,165.39Z"/><path class="cls-2" d="M323.1,157.42l.38.46C323.62,157.59,323.31,157.57,323.1,157.42Z"/><path class="cls-2" d="M300.67,143a.67.67,0,0,0-.37.1,1.27,1.27,0,0,1,.28,0Z"/><path class="cls-2" d="M314.92,155.07l-.14-.06c-.09.09-.18.2-.28.32Z"/><path class="cls-2" d="M308.89,152.59c.11.1.51-.64.72-1-.22.28-.39.38-.53.38A2.52,2.52,0,0,0,308.89,152.59Z"/><path class="cls-2" d="M300.31,146.69l-.21,0A1.65,1.65,0,0,0,300.31,146.69Z"/><path class="cls-2" d="M319.17,157a1.6,1.6,0,0,0-.05.31A.81.81,0,0,0,319.17,157Z"/><path class="cls-2" d="M494,141.87c0,.06,0,.09.06.14S494,141.86,494,141.87Z"/><path class="cls-2" d="M502.42,142.54l-.08.09c.07.15.13.29.2.43Z"/><path class="cls-2" d="M349.93,167.76l0,0C349.73,167.81,349.82,167.81,349.93,167.76Z"/><path class="cls-2" d="M405.28,170.76c-.67-.71,1-1,0-1.8C405.36,169.28,404.47,170.33,405.28,170.76Z"/><path class="cls-2" d="M300.76,143.17a1,1,0,0,1,.23.12A.32.32,0,0,0,300.76,143.17Z"/><path class="cls-2" d="M405.25,169h0l-.1-.07Z"/><path class="cls-2" d="M363.8,169.51a1.06,1.06,0,0,0-.1-.38A1,1,0,0,0,363.8,169.51Z"/><path class="cls-2" d="M353.74,166.73l.23.16A.44.44,0,0,0,353.74,166.73Z"/><path class="cls-2" d="M369.28,169c.13.07.16.19.36.1a.28.28,0,0,0,0-.11C369.52,169.07,369.42,169.11,369.28,169Z"/><path class="cls-2" d="M374.84,169.46l-.09-.18-.18,0Z"/><path class="cls-2" d="M478.76,148.33a3,3,0,0,1,.49.63C479,148.42,479.65,147.94,478.76,148.33Z"/><path class="cls-2" d="M300.44,143.41c.13-.17.22-.24.32-.24l-.18,0A.64.64,0,0,0,300.44,143.41Z"/><path class="cls-2" d="M370.18,162.37l.84.2A3,3,0,0,0,370.18,162.37Z"/><path class="cls-2" d="M441.19,159l.17-.14A.17.17,0,0,0,441.19,159Z"/><path class="cls-2" d="M373.57,162.67a1.64,1.64,0,0,0,.43.63.53.53,0,0,0,.12-.21Z"/><path class="cls-2" d="M479.26,149h0Z"/><path class="cls-2" d="M483.89,145.1c-.77.27,0,1.15.09,1.81-.8.65-.71-.6-1.22-1-.47.49-.55,1.61-1,1.73-.1-.16-.2-.19-.19-.44-.3,1.05-1.79.7-2.13,2a.9.9,0,0,1-.18-.23,5.8,5.8,0,0,1,.62,1.39c-.34.15-.41.9-.79.27.22-.06.14-.34.17-.59l-.26.43c-.68-.86.37-.53.11-1.25-.59.58-1.14,1.69-1.79,1.6-.45-.92,1.17-.77.14-1.37l1,.07c-1.18-1.28.55-.08-.61-1.49-1.21.12-1.08.92-2.28,1-.07.62.35.76.29,1.38-1.26,1.51-2.07-2-2.8-.31-.09.74.2,2-.85,1.63l-.07-1.18c-1.12.24-.11,1.77-1.49,1.4.06-.5.74-.64.53-.72-1-.63-.32.79-.89,1l-.43-.93c-1.11.52-2.16,1.66-3.4,2.21,0-.31.11-.68-.28-.89-1.48,1-3.52.91-5.25.79l-.36,1c-.15,0-.37-.32-.27-.52-.7-.16.12.54-.08,1-.33.15-.6-.36-.45-.68-.88,1-2.68,2.4-4.06,1.8l.15-.31c-1-.1-.55,2-1.59,1.43l.12-.19c-2,.11-4,1.43-5.81.5,0,1.31-2.07-.12-1.8,1.64-1.31-.61-1.06-1-2.76-1.22-.44,0-.39,1.22-.88,1.52l-.2-.9-.51,1.1-.6-1-.44.34a.71.71,0,0,1,.52.59c-.68.57-2-.27-2.1-.73l-1.66,1.12c0-.37.24-.56.44-.83-.79,1.11-.36-.93-1.08.09.16.19,0,.56,0,.74a2.2,2.2,0,0,0-2.25.1l0-.65c-1.37.12-2.78.8-4.3,1,.6.2.66,1.31.23,1.49l-.34-.93c-.19.64.52.28.05,1.11-.58,0-.56-1-.28-1.4l-.64.45c-.08-.29.05-.46,0-.84-.18.65-1.33-.77-1.58.33l-.08-.28c-1.51.25-2.14.69-3.37.89.09.84-.42.72-.7,1.44-.95-.14-2-.66-3.13-.45-.72.52-.14.74-.42,1.28-.15-.75-1.24-.53-.74-1.16a11.4,11.4,0,0,0-3.27,1.15c.22.3.44.41.36.68-.29.16-.73-.25-.72-.62l.07-.09c-1.78,1.34-4.54-1.78-5.89,0l.08-.09-1.49.94c-.72-.09.39-.61-.18-1.05-1.58,1.39-2.65,0-4,.94-.6-1.1-1.54-1-2.52-.79s-2,.45-2.76-.25l.1.53c-.35.53-.46-.29-.74-.41,0,.42.42.47.2.77a12.2,12.2,0,0,1-4.85-.06c-1.64-.33-3.28-.83-4.89-1.08-1.17-.15-.7,2.75-2.18,1.47l.44-1c-2.41,1.22-4.86-.2-7.23.71.15-.22.17-.52.4-.5-.46-.74-1.82-.12-1.87.46-.35-.08-.05-.53-.25-.84-.47-.45-1.3.86-1.52.13,0-.12.16-.22.25-.28-.35.35-1.49-.19-1.24.66-.84-.47-1.7.22-2.36-.33-.53.88-1.45-.58-1.71.71.18-1.34-1.43-1.22-2.05-.64.23-.39-.43-.46-.16-1-.63,0-1.23.16-1.2.87-1-1.7-2.47,1-2.88-1.14a29.74,29.74,0,0,1-5.47.82c.26-1.33,1.88.11,2-1.3-1.65.32-2.76,1.4-4.28.79-.38-.26.32-.54.5-.74-1.67.26-3-.68-4.56-.21,0-.13.2-.23.36-.31-.28,0-.6-.31-.68.3l.3-.12c.28,1-1.45,1.64-1.59,2.09.8-1.65-1.32-.69-.14-2.74a.89.89,0,0,0-.53.74c-.24-.17-.28-.42.08-.83-1.05.14-.83.85-1.73.67.06-.29.27-.37.43-.69-.57.49-1.15,1-1.85.53.09-.17.05-.41.27-.36-1.31-.21-2.54,1-3.84.11.71-1.16-.39-.52-.21-1.63l-.84.15.18.6c-.66-.18-1.45.47-1.94,0l.61-.33-1.3-.09.6.58c-.82.4-.27,1.39-1.09.88.21-.07-.67-.17-.86-.89h0c-.42.25-.86.52-1.28.11,0-.38.42-1.17.4-1.42-.56.81-1.61-.2-2.29.64a1.63,1.63,0,0,0,.35-.87l-.47.65c-.24-.32-.26-.45-.08-.89-.88-.4-.09,1.45-1,.55.1,0,.09-.16.3-.22-1-.62-2.26-.15-3.17-.8,0-1.16,1,0,.9-1a12.55,12.55,0,0,0-2.44.05,4.35,4.35,0,0,1-2.27-.39l.22.21c-.69,1.44-.79-1.11-1.73-.64.21,0,.51-.76.41-.61-.87-.57-2.06-.3-3.67-.33l.31-.32c-.43-.54-1.4-.71-1.94-1.09-.32.32-.64.14-.64.77-1-2.89-3.95-.26-4.86-2.72.2.07.6-.14.44-.21l-1.52-.21c-.16.68,0,.46.1,1.07a1.19,1.19,0,0,1-1.19.3c.8-.16.43-1,.31-1.49,0,.21-.22.39-.28.6-.24-1.43-.67,1.23-1.33.06l.19-.31c-.44,0-1,.32-1.33.06.15-.8.54-.18.83-.77-.58-.18-1.72.93-1.89-.05.33-.09.66.07,1,0-.16-1.11-.32-.92-.66-1.25l0,0-.74-.83.13.35c-1.55,1.57-1.55-.32-3.05.48,1.45-.74.47-.6.93-1.39-.13-.34-.36-.77-.15-.95-.75.46-.47-.86-1.55-.19.1-.27-.45-.24,0-.86-.66-.06-.09.52-.3.83-1.31.48-1.49-2.05-3.35-1.42-1.31-.06-2,.7-3.17.6-.11-.6.77-.8.77-.8a1.3,1.3,0,0,0-1.42-.8c.22-.17.22-.42.22-.79-.44-.15-.77.79-1.1.12a5.48,5.48,0,0,1,1-.81c-.59,0-1.32.2-1.94.16.12-.51.67-.51,1-.71-.66-.1-1.64-.37-2.21.24l.22.44c-.22-.07.23-.66.45-.71.78-.29.54.62.43.89l-.44,0c-.48,1.69,1.54.53,2.19,1l-.89.93,1.21-.51c0,.37-.22,1-.66,1,.22.82.66-.14.77.7,0,.12-.05.17-.12.18l.67-.05c-.22.18-.33.82-.55.5.56,1.13,1.87,0,1.78,1l-.11,0c1.44.28.53-.75,2-1.24l-.38,2.32.54-.76c.11.1.34.28.13.59.77-.33.09-.4.64-.8.26,1.05,1.91.48,1.42,1.86.52-.52-.37-.77.51-.88-.49,1.5.89.12,1.16,1-.52.65-.89,0-.62.93.93-1.07,1,.81,1.61.8.47-1,1.25.1,2.22.16-.1.15.22.48.65.83a13.79,13.79,0,0,1,1.3,1.08l-.1.16c.59-.95,1.31-.43,2-.4-.28.6-.49.8-.92.94l.56.22a1,1,0,0,1,.91-.34l-.45.7c.76.26,1.85-.29,2.59.61.34-.69.05-2.29,1.23-2.37-.12.41-.34,1.08-.66,1.13.1,0,.43-.19.53,0l-.65.49c.32.46.44-.45.76-.25-.23.55.1.5-.12.91-.11,0-.22-.35-.43-.18a1.66,1.66,0,0,1,.68,1.25c.09-.32.29-.74.6-.69.76.26,0,.76.32,1.22.33-.31.65.29,1-.54.22.08.12.48.12.74.53-.24,1.86.52,1.74-.51l-.07-.1h.07c1.57-.39,2.48,1.39,3.87,1.47l-.1.28c.86-.06,1.74.39,2.48,0,.22.08.36.7.15,1,.65,0,.8-.29,1.5.43-.74.31.07.5-.71.17.68.49.72,1,1.77.45-.5.64.3,1.07.73,1l-.38-.67a2.77,2.77,0,0,1,1.13.34l-.49.9c1.24,1.63,3.4-1.16,4,1.14.6-.56-.72-.72-.13-1.4.68.33,1.06,1.93,1.29,2,.85.81,1.29-1.12,2.24-.51-.05-.38.07-1.33.92-1.47.69.29.53,1.65,0,1.82-.18,0-.24-.14-.2-.25-.27.07-.61.14-.42.58l.18-.32c.28.44,1.29.64.92,1.15.63-.2.37-.51,0-.79.81.72,1.46.36,2.35.92-.11-.22-.16-.66,0-.62,1.32.76.78-.52,1.77-.44.42.65-.48,1.21.58,1,.51.49-.08.95-.38,1.18,1-.47,1.56.82,2,1.07l-.52.17a1.25,1.25,0,0,1,.77,0l-.12-.76c.25.19.48.25.42.53.38-.4,0-1.2.71-1.72.3.42,1.19-.18,1.13.77-1.09-.52,0,1-1.06.93a.74.74,0,0,1,.69.14c0,.11-.08.19-.16.22.94,1,.72-.95,1.86-.72-.25.5.07,1,.28,1-.46-.1-.05-.92.45-1.24.65.54.85-.16,1.22,0l-.4-.27c.24-.5.6-.36,1.14-.44,0,.42-.52.2-.37.41.73-.81,1.11,1.19,2,.72.31.42-.13,1,.15,1.29,1-.52.85.9,1.88.5-.16-.75-.23-.58.54-1.18-.54.11-1.08.16-1.62.24l1.15-.85c-.46-.09-1.05.27-1.3.1.56-.49.48-.33.36-.95.46,1.18,1.34-.39,2,.41l-.29,1.75c1,.94,2.11-.63,3.48,0l-.42-.37c.29-.67.9,0,1.4-.2-.12.58.14.83.29,1.23,0-.44,1.06.18,1.33-1l.55.86c1.13.47,1.51-1.46,2.61-1.17-.41.61.05,1.07-.75,1.46.38,0,.7.18.75-.23.18.39,1.12-.7,1.41-.11.18-.24.29-.86.71-.77a.62.62,0,0,1,0,.29c0-.29.69-.34.39-1,1,1.94,3.21.15,4.08,1.82a24.05,24.05,0,0,1,2.56-.23c-.05.17,0,.29-.15.22,1,.6.73-1.66,1.85-1,.54,1-.64.48-.3.86.06,2,1.42-.2,2.15,1l-.2.1c.57.69,1.5-.66,2.47-.48a.62.62,0,0,0,0,.3c.7-1,2-1.21,2.92-1.49-.31.76-.44.4-.28,1.18.43-.11-.09-1.25.75-1.46.27.42.86.79.93,1.62l-.8,0c.39,1.07,1,0,1.45.16l-.06.46c1.23-.14,1.25-1.32,2.56-1.22l-.13-.36c.71-1.16.59.66,1.3-.2L392,170a11.89,11.89,0,0,1,2.49-1.36c-.47.89-1.46,1.32-2.07,1.84.47,0,1.6-.07,1.83-.66-.18.12-.42.4-.61.22a2.6,2.6,0,0,1,2.24-1.41c-.12,2.3,2.43.5,3.17,2.26,1.62-.92,3.3.31,5.22,0-.77-1.73.56-.08.34-1.91.44-.14.61-.13.66,0l1.42,1c.36.52-.4.44-.33.84,1,.08.46.75,1.15,1.2-.18-.65.28-1,.85-.75l-.84-.79c1.3-1.07,1.3,1.45,2.61.4l-.39.6c.68-.37,2.63-.17,3.19-1.73.15.2.36.68.06.85,1.72,0,3.61-1.94,5-1.17l-.08.46c.3-.17.45-.9.9-.49,0,.19-.08.46.07.47.15-.17.75-.86,1.2-.66l-.3.55c1.72.36,2.37-1.56,3.7-2,.17,1.31,1.52,1.57,2.2,1.69v.19c1.94-.08,3.09-1.55,4.77-2.35,1.32,1.23,3.8,0,5.7.47-.31-.19-.14-1,.15-1.21.46.18,1-1.12,1.12.08h-.15c.53,1.1,1.32.63,2,.53l-.19-1.57c2.17,1.94,4.33-1.7,5.69.09.33-.48.84-.59,1.16-1.07l.16.84a8.07,8.07,0,0,0,3.17-.58l-.15.66c.81-.13.45-2.61,1.17-2.84l.51,1.18c1.38-.36,3.06.37,4.15-1.08,0,.18.07.55-.14.65.66-.13,2.74.21,2.06-1.42.3,1.09,1.45-.29,2.06-1l.1.84c.35-1.2.29-1.49,1.09-2,.23,0,.36.59,0,.46.81.23.33-.91,1.28-.71l-.16.6c.72-.13.59-.39.81-1.1.35-.43,1.39-.18,1.71.52,0-.47.18-1.18.65-1.09a.58.58,0,0,1,0,.57c1.34.2,1.47-1.45,2.52-.9a.78.78,0,0,0,.28.43,6.31,6.31,0,0,1-1.66.36c.22.74,1,.65.72,1.85.44-.74,1.12-2.26,2-2.13a1.06,1.06,0,0,1,.18.22l0,.11a.45.45,0,0,0,.43-.26,1.45,1.45,0,0,0,.68,0c.27.58,1,0,1.35,0-.28-.79.25-.82-.42-1.34.07,0,0,.12-.28.24a.44.44,0,0,0-.14.13v-.08l-.92.35c.17-.5.37-.94.93-.63,0-.58.07-1.18.11-1.46.86.95,2,1.24,2.41,1.89,1-.82,2.61-1.17,2.81-2.92.26-.31.52.3.72.49-.13.22-.36.27-.39.52.51-.6,1.86-.8,1.65-1.9,1,.19-.12,1.12.94.56l0,.37c2.81.92,2.6-3.93,5.8-2.67-.22-.07-.32-.1-.42-.26,3.11-.1,5.29-3,8.57-2.67.89,0,.7-.71,1-1.4l.52.76.38-1.29c.82-1.17,2.83,1.2,3.67-.75l-.44-.48c.56-.11,1.46-1.05,1.66-.37,0-.13-.1-.66.23-.46l.22.43.89-1.32c1.11-.14.66,1.78,2.11,1.19.44-.42.89-2,.54-2.17a.76.76,0,0,1-.89-.41l.35-.45c-.55-1.29-.87-2.72-2.38-3.06l-.4,1.14-.55-.49.64-.35c-.65-.4-.64.22-.74.7a1.2,1.2,0,0,0-.65-.52l-.2,1.57c-.33-.45-.11-1.14-.76-1.18-.1.73.87.95.43,1.6-.65-.4-.75-.92-1-.23a.7.7,0,0,1-.1-.77c-.22.58-1,.65-.88,1.41-.72-.54-1.27.79-1.76-.44a2.37,2.37,0,0,1-.64,1.47c.05-1.74-1.43.5-1.91-1.13,0,1.52-1.55,1.35-2.15,2.43,0-.12,0-.37.12-.34-.55.1-.85-.24-1.28-.36.38,1.11-.3,1.68-.46,2.53-1-.81-.14-1.44-.73-2.37.38.87-.72,1.32-.22,2-.73-.47-.54-.16-1.14-1,.46,1.4-.35.4-.41,1.39-1-.41-.68-1.21-1.27-.5C483.41,145.84,483.89,145.1,483.89,145.1Zm-17.38,8.67v0l.37-.16Zm-1.56.47a3.54,3.54,0,0,0,.69-.16c.14.26.17.56,0,.59C465.67,154.46,465.26,154.41,465,154.24Zm5,4.58c-.21.2-.35.07-.43-.09a2.59,2.59,0,0,0,.4-.23v-.11A1.67,1.67,0,0,1,470,158.82Z"/><path class="cls-2" d="M470.11,157.63s0-.07.08-.1l-.2-.13v.28Z"/><path class="cls-2" d="M322.92,157.22l0,0a.28.28,0,0,1,0-.13A.41.41,0,0,1,322.92,157.22Z"/><polygon class="cls-2" points="442.86 158.24 442.91 158.45 443.01 158.23 442.86 158.24"/><path class="cls-2" d="M315.6,151.2a.5.5,0,0,0,0-.24A.53.53,0,0,0,315.6,151.2Z"/><path class="cls-2" d="M312.12,149.51l-.37-.51A2.4,2.4,0,0,0,312.12,149.51Z"/><path class="cls-2" d="M309.62,147.85a1.75,1.75,0,0,0-.2.31h0Z"/><path class="cls-2" d="M354.55,161.14a.25.25,0,0,0,.12,0C355,161,354.77,161,354.55,161.14Z"/><path class="cls-2" d="M340.43,160.08a3.48,3.48,0,0,1,.54-.28C340.74,159.69,340.55,159.62,340.43,160.08Z"/><path class="cls-2" d="M370.08,162.35h.1Z"/><path class="cls-2" d="M341.6,160a.57.57,0,0,0-.63-.17A.79.79,0,0,0,341.6,160Z"/><path class="cls-2" d="M298.39,141.66l-.1-.1a.53.53,0,0,1-.09.11Z"/><path class="cls-2" d="M298.2,141.67H298C298.08,141.71,298.14,141.74,298.2,141.67Z"/><path class="cls-2" d="M297.62,141.7l.4,0A.27.27,0,0,0,297.62,141.7Z"/><path class="cls-2" d="M301.64,143.88l.18-.25A1.25,1.25,0,0,0,301.64,143.88Z"/><path class="cls-2" d="M302.73,144.38c-.22-.2-.32-.92-.76-.94l-.15.19C302.2,143.32,302.25,144.7,302.73,144.38Z"/><path class="cls-2" d="M305.51,150l-.81-.65c0,.37,0,.86-.42.73C305,151.5,304.37,149.3,305.51,150Z"/><path class="cls-2" d="M308.17,151.78c-.56-.1-.2.43-.3.59C308.31,152.25,308.42,152.22,308.17,151.78Z"/><path class="cls-2" d="M329.45,160.19l-.29.71C329.59,160.94,329.25,160.62,329.45,160.19Z"/><polygon class="cls-2" points="334.77 157.65 334.51 157.08 334.13 157.7 334.77 157.65"/><polygon class="cls-2" points="335.71 163.61 335.5 163.66 336.26 163.59 335.71 163.61"/><path class="cls-2" d="M373.79,170.12l-.05-1C373.44,169.31,373.29,170.36,373.79,170.12Z"/><path class="cls-2" d="M390.44,169.86c.18.47.64.78.93.32C391,170.11,390.63,169.74,390.44,169.86Z"/><polygon class="cls-2" points="440.12 166.53 439.85 166.91 440.42 166.53 440.12 166.53"/><path class="cls-1" d="M134.9,193.36c1.08.07.33-.13.17-.39Z"/><path class="cls-1" d="M135.07,193l.11-.28C135,192.78,135,192.88,135.07,193Z"/><path class="cls-1" d="M135.43,190.48c.91.42-.13,1.25,1.19,1.4C137.3,191.21,136.85,190.4,135.43,190.48Z"/><polygon class="cls-1" points="134.73 191.43 135.44 191.39 134.28 191.08 134.73 191.43"/><polygon class="cls-1" points="134.15 191.87 134.39 191.76 133.57 191.12 134.15 191.87"/><path class="cls-1" d="M135.65,188.56l.28.52c-.87.65-1.33-.15-1.92.3.12.68,2-.07,1.83.83.89-.21-.21-1.37,1.21-1.45C137.38,188,136.22,188.86,135.65,188.56Z"/><path class="cls-1" d="M125.19,155.6a.76.76,0,0,0,.13-.07C125.17,155.55,125.06,155.58,125.19,155.6Z"/><path class="cls-1" d="M124.72,146.21a1.22,1.22,0,0,0,.31-.35,1.38,1.38,0,0,0-.39.12Z"/><path class="cls-1" d="M127.76,161.51a2,2,0,0,0-.35.38C127.61,161.81,127.75,161.7,127.76,161.51Z"/><path class="cls-1" d="M137.11,103.93a2.53,2.53,0,0,0,.4.1h0l-.37-.15Z"/><path class="cls-1" d="M123.21,135.94a.83.83,0,0,0-.11-.42C123.06,135.76,123.11,135.88,123.21,135.94Z"/><path class="cls-1" d="M127.93,164.88a.33.33,0,0,0,0-.14.59.59,0,0,0-.13.18l.13,0Z"/><path class="cls-1" d="M122.6,149.13a.57.57,0,0,0,.19-.33A.57.57,0,0,0,122.6,149.13Z"/><path class="cls-1" d="M135.93,180c.11-.17,0-.28-.18-.37C135.55,179.74,135.53,179.87,135.93,180Z"/><path class="cls-1" d="M135.33,176.82v0C135.51,176.8,135.47,176.79,135.33,176.82Z"/><path class="cls-1" d="M135.19,174.78l0,0C135.35,174.77,135.37,174.76,135.19,174.78Z"/><path class="cls-1" d="M135.75,179.61c.52-.35,2.29-.68.28-.74l-.25.11c.42-.27-.39-.46-.49-.69l-.46.15a2.15,2.15,0,0,1-.13.55C134.33,179.34,135.29,179.39,135.75,179.61Z"/><path class="cls-1" d="M125.55,155.65c-.36,0-.19.25,0,0Z"/><path class="cls-1" d="M127,158.58a1.53,1.53,0,0,0,.07-.29C127,158.38,126.87,158.47,127,158.58Z"/><path class="cls-1" d="M126.74,169.54a.2.2,0,0,1,.07-.06C126.61,169.48,126.64,169.52,126.74,169.54Z"/><path class="cls-1" d="M127,158a1.1,1.1,0,0,1,0,.26C127.09,158.21,127.14,158.13,127,158Z"/><path class="cls-1" d="M127.6,166.19s.05,0,.05-.05A.08.08,0,0,0,127.6,166.19Z"/><path class="cls-1" d="M152.43,63.55c.1.26-.43.23-.63.38,1.12.8.29-.89,1.22.07a.8.8,0,0,0-.21-.59l-1.26-.07C151.9,63.86,152,63.2,152.43,63.55Z"/><path class="cls-1" d="M140,101.7l-.12.07c.56,0,.73.1,1.07-.2-.8-.41-2.14-.14-3-.79.09.11,0,.25-.11.38A3.82,3.82,0,0,1,140,101.7Z"/><path class="cls-1" d="M137.85,101.16h-.07l-.31,0a.31.31,0,0,1-.17.19A1.06,1.06,0,0,0,137.85,101.16Z"/><path class="cls-1" d="M150,70.11l-.17.19C150.07,70.26,150.08,70.19,150,70.11Z"/><path class="cls-1" d="M138.82,137.62c.12.11.25.22.37.31A.51.51,0,0,0,138.82,137.62Z"/><path class="cls-1" d="M138.14,106.44a.68.68,0,0,0-.22.23.75.75,0,0,1,0,.16Z"/><path class="cls-1" d="M129.08,87.88c1.34.45-.09-.16.77-.37l-.67-.48C128.91,87.3,129.08,87.63,129.08,87.88Z"/><path class="cls-1" d="M152.9,63.42l-.12,0,0,0Z"/><path class="cls-1" d="M130.89,77.87l.22-.12A.3.3,0,0,0,130.89,77.87Z"/><path class="cls-1" d="M137,103l-.26,1.23.4-.31C136.45,103.66,137.78,103.3,137,103Z"/><path class="cls-1" d="M127.28,93.24l-.86,0c1.57,1.59-1.23,2.66,1.12,4.07-3.2,1.13,2.49,1.43-.37,2.47h.43c-1.21,4.63-3.31,9.51-2.34,14.07l-.59-.07c-1.72,7-.94,14-1.85,20.92.51.68,1.84.37,2.47,1-.06.24,0,.79-.76.75-.37-.5-1-.28-1.32-.46,0,.79-.88,1.73,0,2.48l1-.52c.38.3.08.7,0,.94-.48-.14-1.53.15-1.75-.08,2.26,1.61-1.09,1.07-.24,2.35,2,.38,3.53,2,4.9,3.13l-.56.49c.06-.7-1.47-.09-1.31-.95-.63.68.18,1.42-.19,2.08a1.56,1.56,0,0,1,1.38.28c-.31.41-1.32.38-1.45.87l-.6-.54c-.78.28.2.63.3.95-.85,0-1,.77-2,.58,1.1.75.44.94,1.12,1.71.93-.69,1.09.26,1.8.22l-.28-.86c-.64,1.15-.12-.4-1.56-.4.7-.52,2.31.92,2.15,0,.65,1.16,0,1.36,1.12,2.57-.23-.7.93.19,1.39-.16,0,.87-.52.19-1.46.41,0,.47-.81.61.23,1.1-.47.75-1.07-.17-1.68.19-1-.34,1.34-2.09-1.83-2.06,0-.41-1.19-1-1.08-1.56-.45.48-1.53,1.16-.84,1.84l1.77.13c0,.49,1.22.65,1,1-.5-.21-1.27.08-1.14.48.26-.1.21-.26.51-.2.1.73,1.3.88,1.6,1.75.49-.69,1-.8,1.84-1.41,1.24.23.16.46.29.85-.17-.06-.2-.15-.45,0l.58.43c-.57.85-1.8-.19-2.43.51-1.06.46.56.71-.05,1.07l.32-.07a.37.37,0,0,1-.09.19h.09c.16.47,0,1,1,1.12-.43,0,.11.41.4.57s1.46.91-.05,1.27c0,0,0,0,0,0-.19.57-.66,1-1.17.89l-.38.94-1.21-.11c.33.87,1,.79,2.29,1.37-.72.62-.12,1.7.35,2.09,0,.07,0,.17,0,.34l.46-.37c0,.67.61.57.62,1,.11-.09.18-.11,0,.14a1.86,1.86,0,0,1-.08.26c-.13,0-.12-.12,0-.22l-.41.09c-1.27.58.76.79.34,1.38,0-.06-.14-.14-.13-.2-.31.33-2,.88-.94,1-.13.08.08.19.35.28l-.17.25a.92.92,0,0,1,.17-.24c.36.12.8.24.54.27l-.17.83c-.16.17,0,.37.19.53l-.49.17c.1.3-.2.32-.34.3-1.67,1.19,1,1.53-.38,2.78.85.13,1.19-.37,1.63-.44a6.33,6.33,0,0,1,1.79.94c-1.11.61-1.94,2.24-3.64,2.2,0,.93,1-.41,1.62,0l-.05.11a2.56,2.56,0,0,1,1.32-.9c.89-.17,1.24.59,1,.86h-1.3c.55.78,2.45.36,3.79.71-.42.71-1.62.49-2.75.78l.41.64-1,.13c.32.42,1.23.4.94,1.07-1-.32-.76,1.06-2.06.61-.27.39,1.59.23.34.59,1.06.09.46-.39.76-.61,1.45-.34.81.66,1.25,1-.75.14-.93-.15-1.36.41.59,0,1.08.26.41.64,1-.14.28.52.26.8a1.7,1.7,0,0,1,1.63-.81c.42.19.64.36.6.93l.39-.44c1.47.26-.9.94-.35,1.52a7.39,7.39,0,0,0-1.38-.49,11.21,11.21,0,0,1,1.8,1.12l-1.31.76c.71,0,0,.63,1,.48-.54.78-1.23-.37-1.94-.33-.5.95,1.69.44.36,1.48l-.93-.13c0,.28.57.75.13.85.32,0,.17-.17.14-.34,1.94-.12,1.54,1.06,3.49.65l.07-.4c.48.52,1.88.72,1.25,1.27s-1.37,0-1.92-.15c0,.56,2.24.1,2.15.78.26-.39,1-.43,1.52-.3.07-.4.32-1.24-.49-1l-.17.17a2.47,2.47,0,0,1-1-.19c-.07-.52.86-.38,1.23-.54.18-.9-2,.23-2.05-.56l.37-.16c-.57-.29-.73-.86-2-.78,1.22-.54-.65-.8.05-1.3,2.79-.5,0,1.36,1.62,1.57.51-.5,1.37,0,2,.1l-1.41-1.11c.36-.16,1.7-.75.64-.83l0,.11c-.4-.46-1.53-.15-1.21-.65a2.53,2.53,0,0,1,.9,0c.2-.44-.69-.24-1-.47.19-.45,1.18,0,1.44-.36-1.16-.31.14-.79,0-1.18-1.56.41-2.41-1.31-3.68-.21l-1.23-.83c.78-.43,2.33.35,3.63-.12l.05.79c2-.42-1.53-1.45.61-2.29,0-.42-.24-.29.63-1.21l-1.75.38a3.17,3.17,0,0,1,1.62-.79.83.83,0,0,1-.08-.67,1,1,0,0,1,.63.2c.94-.43.56-.47,0-.51s-.45-.36-.46-.62l.68.15a.94.94,0,0,0-.7-.28.42.42,0,0,0-.2-.28,5.06,5.06,0,0,0-1.72.83c.57-1,.11-1.73,1.48-2.7.52,0,1.19.23,1.25.13.21-.43-.74-.76-1.5-.64a.58.58,0,0,1-.1-.22c.43-.12.9-.26,1-.46a.48.48,0,0,0,.33-.29c-1.42,0-.79-.82-1.45-.93a.72.72,0,0,0,0,.64c-1-.23-2.08-.43-1.35-.75,1,.52,1.41-.77,1.89.1,1.73-.79-1.32-.22-.74-.94l.68-.49c1,0,.56.65.94.52l-.15-.29c.79.23.38,1.4,1.61,2l.44-1.42c-1.37-1.62-.1-3.83-2.4-5.21l0,.06a5.15,5.15,0,0,0-.68,0l.25-.07-.78-.27c1-.37,1.13-1,1.88-1.54a2.28,2.28,0,0,1-1.4.39c-1-.05-1.48-.09-1.1-.6.73,0,.71.29,1.29-.09a.77.77,0,0,1-1-.18c.47-.29.57-.76,1.3-.77.2.13-.05.23-.16.32.2.13.66-.53,1.27-.15l-.22-.5c.62-.29,1,.19,1.37.07-.51-.82-2.2-1.26-2.68-2,.39,0,2,.07,1.55.06.5-.58-1.76-1.29-1.88-2,.49.12.29.36.52.57.67-2,.77-3.74,2.44-5.59l-1.65-.6,1.14-.44c1.2-2,.23-3.58-.13-5.64-.06-.64,1.2-.29,1.69-.55.29-1.36-1.58-1.83-1.87-3.16.5.21,1.93.62,2,.06-.47-.14-1.23-.26-.91-.59l.51.22c.77-.28.08-.64.45-1.29,0-1.18-1.07-2.39-2.86-3.48.23-1,1.8.23,2.17.06-.66.69.27.52.83.72-.45-.42-.71-.91.51-1,0-.54,0-.78-.74-1.37.39.29-.28.48-.8.19.44-.41.06-1.57,1.55-1.41-.12-2.57.38-5.4.52-8.12-.74-.51-.33.33-.85,0-1-.75.56-.49-.2-1.09l.8.29c.17-.79-1.26-1.74-2-2.57.92.2.82-.57,1.33.11-.13-.39,4.07-.5,3.24-.86l-3.91.11c-.38-.06-.1-.56-.36-.53.79-.27,1.72-.59,1.74-.82,1,0,.73.52.68.83,1.63.18,1.13-1,2.59-.38-.21-.68-.84,0-1.41-.42l.39-.55-.58.4c-.45-.53-1.68-.8-.71-1.37l-1.53-.81c1.29,0,.28-.47.61-.78l.8.29c0-.46.24-.62.74-.86,1.11.36-.31.39.75.6l.43-.47c-.73-.06-1.27-.44-1.75-.12-1.31-.59-2.42-1-2.2-2.12,1.3-.41,1.05.67,2.3.58.65-1.16-3.08-1.81-2.86-2.51.61-.86-.55-.93-.53-1.86.82.39,1-.54,1.81-.62l.84.46c-.24-.31.12-.54.73-.38-1.15-.08-.93-1.31-1.4-2h-1c-.26-.54-.79-1.3-.48-1.79-.22-.83-1.1-.76-2.09-1.5a6.67,6.67,0,0,1,3,.2c-.52.14-.27.54-.62.84.72,1.1,2.69,2.11,2.09,3,2.32.7-.19-.69.7-1.07.14,0,.18.07.2.11a.18.18,0,0,1,.09-.11,2.27,2.27,0,0,0,1.75,1.24c-.17-.61-2.32-.71-1.21-1.31-.59-.62,1.32-.82,1.53-1.12-.84-.47-2.74-.73-2.26-1.57l1.27.56c.15-1-1.88-.72-1.69-1.64-.21.3-1.26-.49-1.38.12a.94.94,0,0,1-.25-1.55c-.18-.16-.45-.09-.89-.17-1,.43.77,1-.62,1.29l1.37.58a2.2,2.2,0,0,1-2.27,0c0,.15.23.31,0,.38-2.16-.19.85-.53-1-1l.1.39c-1.42,0-1.1-1-.93-1.5.73-.45,1-.92,2-.81l.33.79c.86-.26-.34-1-.24-1.41a1.17,1.17,0,0,0,.33-.07H137a.7.7,0,0,1,.45-.18c.1-.36-.44-1-.07-1.29l-.9-.09.5.12a.94.94,0,0,1-1.34.36c-.52-.87,1.24-.76,2.05-.82,1.36.38-.12.74.3,1.2,1.4,0,.24-.76,1.27-1.4,1.45.54-.16.9,1.2,1.28.35-.59-.69-.92-.2-1.52.68.2.64.85,1.54.94l.49-.36c-.08,1,1.89.11,2.13,1,.68-.28-1.13-.72-.1-1.11-.67,0-1.93.3-2.43-.31l.53-.52c.76-.12,1.5.86,2.17.58l-.41-.69c-.45,0-.72.21-1.31-.07.54-.28-1.63-.86-2.22-1.39a.72.72,0,0,1,.77-.61c-1.18-1.06-1-2.12-2.07-3.12.8.69,1.53.25,2.26,0,.07.64,1.47.89,2.37,1-.08-.39-1.47-.89-2-.79.69-.51-.89-.6.15-1,.55-.26,1.35.43,1.9.4.18-.64-1.66-.49-1.2-1.15a.86.86,0,0,0,.49.15c.36-.34-.21-.88-.89-1.09,1.89-.07,0-1.21,1.77-.79-.3-1-1,0-1.57-.35-.72-.54.07-1.12.4-1.29,0,.24.43.55.11.72l1.26,0c1.12-1-2.61-1.29-1.32-2.21.52.71.89.39,1.69.85-.27-.24.26-1-.79-.71a2.57,2.57,0,0,1,.76-.89,4.21,4.21,0,0,0-1.4-1.34c.25-.57,1.2-.82,1.8-1-.6-1.44,1.17-2.24.53-3.75l-.09.07c.46-1-1.72.07-1.43-1,1.45.49,1.15-.39,2-.54,1.07-1.1-.52-2.49.78-3.42.3.08.65.26.63.49.7-.78.59-1.58.87-2.37l.18.09c1.51-1,.43-2.53.45-4,.15.16.7.34.87.48a1.48,1.48,0,0,0-.17-2.45c1.68-.38-.3-.64,1.41-1.29.28,0,.21.18.25.27.63-.38.59-.8.92-1.27-.59-1.44-2.4-2.28-1.44-3.46,2,.51.25,1,1.83,1.47-.27-.37-.61-.73,0-1a10.11,10.11,0,0,0,1.16.56c.61-.13-1.75-1.76-1.56-1.69-.38-.13-.62-.1-.64.19-1.13-.67.29-1.36,0-2.16a1.07,1.07,0,0,1-1.55.24c.68-.76-1.16-1.6-1.78-2.45,1.14-.54,1.51,1.08,2.95,1.34.55,0,1.76,0,2.21.51.51-.64-.54-1.51-.65-2.25l.39.13c.09-1-1.36-2.42-.35-3l-.56.28c-.2-.22.05-.65-.69-1.13.65.22,1.41-.21,1.89.19-2-1-.7-2.43-2.57-3.44a3.78,3.78,0,0,1,1.86.55c-.34.52-.82.59-.06,1.13A.87.87,0,0,1,154,51c-1.18-.85-1.38-2.13-2.62-2.74a3,3,0,0,1,2.26,0c-.27-1.66-3.58-.22-3.1-1.86,1.27-.47,1.23,1.13,1.88.19l.12.24c3,0-1.87-1.09-1.54-1.91,1.57.31.94.9,2.2.61-.17-.9-2.36-1.85-1.66-2.5l.62.29c0-.54.59-1.43.59-2,.31,0,.25.11.31.23.83-.85-.7-.54.58-1.23l-.71-.41a3.17,3.17,0,0,0-.93.73c-.22.27-.26.58.12.94-.76-.7-2.15.27-3.41-.31l.51.23c-2.58.65-3.3,2.14-4.58,3.47,1.3,1.42-1.09,1.5-.31,2.86,1.75.67.3.3.41,1.31-.09-.54-1.35-.44-1.68-.21a1.65,1.65,0,0,1,.62.84c-.66,0-2.43.74-1.33,1.51-.74.39-.54-.3-.88-.52-1,0,.59.65-.08.66a.66.66,0,0,1-.26-.15c-.17.87-.78,1.24-1.26,2.05,1.73.58.41,1.06.92,1.63-.53-.29-.8.31-1.2.46l1.17.85c1,.79-1,.42-.55,1.2l.36-.05c.4.59-1,1.45-2.07,1.6,2.25,5-3.77,5.81-4.06,10.51.46.44.95,0,1.68.47a1.93,1.93,0,0,1-.09,1c.57-.24,0-.33.44-.16l-.33-.76c.13,0,.17.09.44.1-.11-.26-.4-.6-.24-.84.36.51,1.63,1,1,1.36a.53.53,0,0,1-.28-.34c-.22.41.4.59,0,.83s0,.33-.54.24l-1,1.06c1.41,1-.28,1.41-.48,1.58-1.14-.43-.15-.92-1.22-1.52l-1,.24.93.26-.42.58-.18-.08c.35.17.7.34.33.42-.14,0-.41,0-.45-.09l.4.59c-.9-.51-.39.34-1.49,0-.94,1.39,1.06,2.29-.79,3.27.58-.09,1.68.83,1.38,1.19a.87.87,0,0,1-1-.07l.46.67c-1.91.28-.95,1.19-1.75,2l-.49-.16c.51.5.9,1,.6,1.51l-1-.31c-.84.53,2,1,1.19,1.57,1.07.22,1.72-.14,2.75,0-1.12,0-1.45.72-.64.69.29.83-.13.5-.4.52l.56.56c-.16.51-1.44-.12-2-.43,1.05.72.12,1.08-.17,1.6l-.44-.32-.33.69a1.13,1.13,0,0,1,.14,1.85l-1.34-.69c-.82.29.45.31.67.47.57.81-.42.78-1.29,1C129.31,91.5,125.29,91.92,127.28,93.24Zm.12,76,.2-.12C127.87,169.31,128.11,169.43,127.4,169.22Zm.13-6.13c.58.72-.11.5-.5.57.37-.73-.09-1.13.38-1.77a5.75,5.75,0,0,1-.92.16c.07-.26.39-.52,1.12-.61C129.06,161.74,126.69,163.42,127.53,163.09Zm8.13,12.73-.33,0h0ZM134,172.54a1,1,0,0,0,.57-.3C134.17,172.35,133.85,172.44,134,172.54Zm1.26-6.92c.59-.18.4-.52.25-.78A1.54,1.54,0,0,0,135.23,165.62Zm1.62-43.82c.21.23.78.67,1.25.35-.5-.22.42-.48-.36-.69l.07,0A4.69,4.69,0,0,0,136.85,121.8Zm-2.59-21.21a7.25,7.25,0,0,0,1.66.33l-.06,0a1,1,0,0,1,.51,0c.14-.15.3-.3.15-.45C134.61,100.2,134.36,99.8,134.26,100.59Z"/><path class="cls-1" d="M141.23,108.48c0-.08,0-.14,0-.2A.75.75,0,0,0,141.23,108.48Z"/><path class="cls-1" d="M136.51,100.58c-.12,0-.34.13-.59.34A.67.67,0,0,0,136.51,100.58Z"/><path class="cls-1" d="M130.88,188.11l-.22-.17-.51.5a3.92,3.92,0,0,0,2.56.51c-1-.48-.6-.92-1-1.66Z"/><path class="cls-1" d="M137.19,186.78a3.71,3.71,0,0,0,.91-.49h-.6Z"/><path class="cls-1" d="M138.76,178.33l-.41.71C138.89,179.17,139.67,178.3,138.76,178.33Z"/><path class="cls-1" d="M129.11,182.69l.7.25c.46-.39.33-.79-.38-.75C129.88,182.54,129.06,182.35,129.11,182.69Z"/><path class="cls-1" d="M138.65,176.62c-1.18,0,.42-.7-.68-.68C138.31,176.06,137.49,176.75,138.65,176.62Z"/><path class="cls-1" d="M127.78,178.59c-1,.36,0,.57-.24,1C127.49,179.26,128.57,178.62,127.78,178.59Z"/><path class="cls-1" d="M135,173.65c.83-.06.8.21.65.53a3.41,3.41,0,0,1-.81-.2,4.79,4.79,0,0,1,1,.82c.53-.47.83-1.11,1.87-1.17A3.91,3.91,0,0,0,135,173.65Z"/><path class="cls-1" d="M127.52,177.59c-.28.4-1,.71-.89,1.12.56-.15,1.38-.4,1.18-.87l1,0C129.43,177.33,127.54,178.23,127.52,177.59Z"/><path class="cls-1" d="M137,171.59l-.42.24c.8.38.49,1,1.74,1.13A2.18,2.18,0,0,0,137,171.59Z"/><path class="cls-1" d="M129.07,175.65l-1.35.1c-.12.52.45-.09.79.05-.18.16-.27.38,0,.45C128.24,175.73,129.58,176.08,129.07,175.65Z"/><path class="cls-1" d="M127.4,174.22l-.64-.57-1.42.66C125.94,175,126.18,174.25,127.4,174.22Z"/><path class="cls-1" d="M128.21,173.35l.25-.1-2.08-.75A5.72,5.72,0,0,0,128.21,173.35Z"/><path class="cls-1" d="M136.33,161.75c-.58-.1-1.3.43-.65.2C136.16,162,136.91,161.35,136.33,161.75Z"/><path class="cls-1" d="M125.54,164.14c.43-.29-.43-1.17-.82-1.57C125,163,124.76,164.23,125.54,164.14Z"/><path class="cls-1" d="M124.56,162.41l.16.16A.41.41,0,0,0,124.56,162.41Z"/><path class="cls-1" d="M122.23,145.74a.25.25,0,0,0-.15-.13Z"/><path class="cls-1" d="M122.54,146.15c-.21.25.1.8.72.93a4.53,4.53,0,0,0-1-1.34C122.29,145.92,121.83,146.11,122.54,146.15Z"/><path class="cls-1" d="M123.1,142.55c.35.21.14.46.71.43C124.07,142.89,123.5,142.45,123.1,142.55Z"/><path class="cls-1" d="M141.7,119.28c.34-.32.13-.54-.72-.52C141,119.14,141.47,119,141.7,119.28Z"/><polygon class="cls-1" points="140.84 118.3 141.26 118.29 141.93 118.12 140.84 118.3"/><path class="cls-1" d="M142.29,116.05a.78.78,0,0,1,.35.18C142.54,116.08,142.43,116,142.29,116.05Z"/><path class="cls-1" d="M142.69,116.3l-.05-.07Z"/><path class="cls-1" d="M142.41,116.43l.44.07a1.08,1.08,0,0,1-.16-.2C142.71,116.36,142.65,116.43,142.41,116.43Z"/><path class="cls-1" d="M142.51,115.35l-1.33.33c.59.53.71-.47,2,.13Z"/><path class="cls-1" d="M142.31,113.76c.47-.39-1.48-1.22.06-1.3-.67-1.3-2.56,0-3-1.45-.92,1.24,2.84,1,1.88,2.06C142.27,112.61,142,113.53,142.31,113.76Z"/><path class="cls-1" d="M139.75,113.7c.75.15.87-.39.39-.62C140,113.23,139,113.4,139.75,113.7Z"/><polygon class="cls-1" points="141.89 111.31 142.51 111 142.04 110.85 141.89 111.31"/><path class="cls-1" d="M142.35,109.94l.83.46C142.85,110.24,143,109.71,142.35,109.94Z"/><path class="cls-1" d="M143.68,108.12c.34-.3-1.65-.86-1.29-.09l.09-.15C142.79,108,143.56,107.66,143.68,108.12Z"/><path class="cls-1" d="M141.1,103.19c-.08.23.14.54.56.55l-.32-.7Z"/><path class="cls-1" d="M136.17,102.6c-1.26.05,0,.62-.46,1C136,103.14,136.18,103.22,136.17,102.6Z"/><path class="cls-1" d="M143,102.71c.48.24.11.46,0,.61C143.67,103.34,143.55,102.88,143,102.71Z"/><path class="cls-1" d="M142.67,101.63c.53-.13.68.15,1,0,.62-.36.61-.84,0-1.2a7.19,7.19,0,0,1-2.57-.29c.33.79,2.55,1.48.75,1.58l2.06.9C144.35,102.14,142.48,102,142.67,101.63Z"/><path class="cls-1" d="M138.39,102.5l.77-.29a1,1,0,0,1-1-.57C136.6,101.52,138.33,102.27,138.39,102.5Z"/><polygon class="cls-1" points="142.34 97.53 142.11 96.66 141.98 96.91 142.34 97.53"/><polygon class="cls-1" points="142.93 97.09 143.38 97.15 142.65 96.39 142.93 97.09"/><polygon class="cls-1" points="143.59 96.34 143.51 96.42 143.82 96.96 143.59 96.34"/><path class="cls-1" d="M144.18,94.71l-.68,0c.13.24-.67.52.22.63C143.45,95.14,143.63,94.74,144.18,94.71Z"/><path class="cls-1" d="M128.6,85.87a2.07,2.07,0,0,0,1.21.21l-1.06-.47C128.79,85.7,128.87,85.86,128.6,85.87Z"/><path class="cls-1" d="M130.62,85.21l-1.14-.89c-.34.69.63,1,.7,1.66.46-.19-.37-.74,0-1Z"/><path class="cls-1" d="M134.44,72.91c.79.27.72.1,1.12.69-.34-.76,0-1.25,0-2-.54,0-1.28-.78-1.13-.45l.28.93-.52-.26C133.46,72.23,135,72.42,134.44,72.91Z"/><path class="cls-1" d="M151.84,43.65a2.33,2.33,0,0,0,1.13.17C152.66,43.23,151.9,43.77,151.84,43.65Z"/><path class="cls-1" d="M139.61,49.18c-.92-.53-.32-.11-.27,0Z"/><path class="cls-1" d="M139.34,49.22l-.19,0C139.32,49.3,139.36,49.27,139.34,49.22Z"/><path class="cls-1" d="M138.22,49.77c-.65-.56.51-.29-.58-1C136.84,48.66,137,49.08,138.22,49.77Z"/><polygon class="cls-1" points="139.12 49.84 138.5 49.51 139.39 50.17 139.12 49.84"/><polygon class="cls-1" points="139.77 50 139.52 49.91 140.01 50.52 139.77 50"/><path class="cls-1" d="M137.41,50.2l-.06-.28c.94.26,1.07.73,1.7.9.13-.26-1.72-1-1.28-1.18-.81-.38-.25.49-1.47-.22C135.78,49.45,137,49.82,137.41,50.2Z"/><path class="cls-1" d="M134.73,66.39l-.12-.07C134.73,66.42,134.82,66.48,134.73,66.39Z"/><path class="cls-1" d="M132.63,70.09a.71.71,0,0,0-.32-.09,1.84,1.84,0,0,0,.32.22Z"/><path class="cls-1" d="M134.45,62.7a1.74,1.74,0,0,0,.37.11C134.65,62.71,134.51,62.65,134.45,62.7Z"/><path class="cls-1" d="M112.74,76.38q-.08-.12-.24-.33l0,0,.21.33Z"/><path class="cls-1" d="M130.9,74.92a.3.3,0,0,0,0,.24C131,75.1,131,75,130.9,74.92Z"/><path class="cls-1" d="M135.31,61.51l0,0a.48.48,0,0,0,.15,0l-.11-.08Z"/><path class="cls-1" d="M135,70.44c-.11,0-.2,0-.23,0C134.85,70.47,134.91,70.47,135,70.44Z"/><path class="cls-1" d="M134.3,52.24c-.14,0-.1.07,0,.21S134.57,52.51,134.3,52.24Z"/><path class="cls-1" d="M133.68,53.4h0C133.54,53.3,133.56,53.32,133.68,53.4Z"/><path class="cls-1" d="M133.06,54l0,0C132.94,53.9,132.91,53.89,133.06,54Z"/><path class="cls-1" d="M134.31,52.45c-.52-.23-2-1.23-.47,0l.24.13c-.42-.19.15.35.15.47l.41.25a.78.78,0,0,1,.29-.07C135.33,53.38,134.6,52.78,134.31,52.45Z"/><path class="cls-1" d="M134.48,66.13c.27.24.2,0,0,0Z"/><path class="cls-1" d="M134.23,64.21l-.13.05C134.18,64.28,134.26,64.3,134.23,64.21Z"/><path class="cls-1" d="M137.72,60.91l-.08,0C137.79,61,137.78,61,137.72,60.91Z"/><path class="cls-1" d="M134,64.34a.23.23,0,0,1,.09-.08C134,64.24,134,64.24,134,64.34Z"/><path class="cls-1" d="M136,61.33l-.05,0Z"/><path class="cls-1" d="M94.47,81.75c0-.19.29.23.44.33-.53-1.2-.33.15-.71-1-.06,0,0,.23,0,.41l.73,1C94.84,82,94.65,82.22,94.47,81.75Z"/><path class="cls-1" d="M110.25,75.08l.1.06c-.38-.42-.47-.57-.77-.71.44.74,1.4,1.62,1.82,2.5,0-.1,0-.11.17-.05A8.9,8.9,0,0,1,110.25,75.08Z"/><path class="cls-1" d="M111.57,76.88l.05,0,.21.22s.08,0,.16,0A1.52,1.52,0,0,0,111.57,76.88Z"/><path class="cls-1" d="M97.12,80.72l.14,0C97.09,80.59,97.07,80.61,97.12,80.72Z"/><path class="cls-1" d="M120.19,63.46,120,63.1A.6.6,0,0,0,120.19,63.46Z"/><path class="cls-1" d="M112.66,74.69a.62.62,0,0,0,.21.08.28.28,0,0,1,0-.09Z"/><path class="cls-1" d="M114.26,88.54c-.78-1.16,0,.13-.6-.42l.32.68C114.23,88.9,114.19,88.64,114.26,88.54Z"/><path class="cls-1" d="M94.17,81.45l.06.11v0Z"/><path class="cls-1" d="M110.81,91.45l-.17-.11A.37.37,0,0,0,110.81,91.45Z"/><path class="cls-1" d="M112.61,76.82l.47-.27-.34-.17C113.12,77,112.13,76.12,112.61,76.82Z"/><path class="cls-1" d="M116.71,87.7l.57.63c-.67-1.78,1.45-.15.23-2.43,2.41,1.9-1.31-2.37.86-.68l-.29-.32c2-.89,4.65-1.18,5.23-3.53l.38.46c3.07-1.32,4.54-4.32,7.13-6.17-.17-.6-1.21-1.43-1.49-2.08.12,0,.24-.26.76.27.12.43.66.82.81,1.07.2-.29,1.13,0,.72-.87l-.85-.49c-.19-.37.14-.32.25-.36.3.38,1.15,1,1.24,1.23-1.18-2.15,1.08.35.83-.72a20.73,20.73,0,0,1-2.73-4.5l.54.2c-.23.22,1.06,1,.71,1.24.65.17.24-.65.7-.65a3.21,3.21,0,0,1-.95-1c.33.06,1.07.75,1.3.67l.3.59c.65.42,0-.36,0-.54.64.55,1,.42,1.62,1.11-.62-1-.09-.64-.39-1.38-.87-.37-.75-.83-1.28-1.28l0,.5c.77,0,0,.23,1.06,1.2-.65-.28-1.48-1.89-1.6-1.43-.19-.87.35-.5-.18-1.69,0,.41-.64-.68-1.07-.87.22-.31.43.28,1.18.83.12-.19.77.31.12-.55.55.05.75.77,1.3,1,.64.77-1.54-.13.83,2-.1.15.62,1.15.4,1.3.45.12,1.43.58,1.11-.12l-1.29-1.23c.11-.19-.74-1-.52-1,.32.41,1,.81,1,.58-.22-.13-.22,0-.44-.27.12-.32-.74-1.18-.73-1.68a8.9,8.9,0,0,1-1.75-.72c-.86-.91,0-.27,0-.5a1,1,0,0,0,.32.32l-.32-.54c.66.08,1.3,1.26,2,1.43.92.55-.23-.61.32-.34l-.25-.19h.12l-.07-.06c0-.27.23-.36-.43-1,.33.27,0-.21-.14-.45s-.84-1.27.39-.39c0,0,0,0,0,0a1.33,1.33,0,0,1,1.13.48l.55-.07.88.83c0-.51-.56-.94-1.34-2,.72.26.59-.48.36-.9.05,0,.09,0,.09-.12l-.47-.19c.23-.19-.28-.58-.16-.73-.12,0-.17-.08,0,0l.14,0c.09.09.05.11,0,.1l.34.23c1.14.65-.33-.74.17-.64,0,0,.06.14,0,.15.34.1,1.8,1,1,.33.12.06,0-.11-.18-.32l.21,0a.78.78,0,0,1-.21,0c-.23-.27-.52-.59-.32-.43l.4-.13c.18,0,.12-.11,0-.28l.43.28c0-.15.26,0,.36.13,1.64.72-.27-1.12,1.22-.58a6.87,6.87,0,0,0-1.4-.93,9.78,9.78,0,0,1-1-1.42c1.05.54,2.28.62,3.55,1.71.36-.25-.9-.52-1.24-1h.08a4.08,4.08,0,0,1-1.33-.58c-.74-.53-.74-1-.46-.89l1,.83c-.13-.56-1.73-1.65-2.64-2.59.58.07,1.43.89,2.39,1.52l-.07-.43.78.57c-.09-.31-.79-.88-.32-.87.63.69,1,.17,1.82,1.11.35.05-1.15-1.06-.05-.39-.79-.68-.5-.18-.81-.3-1.25-.8-.39-.69-.61-1.07.64.42.67.62,1.22.72-.45-.36-.75-.73-.09-.44-.8-.54,0-.32.09-.39a3.05,3.05,0,0,1-1.57-.76c-.27-.3-.38-.49-.14-.62l-.47-.11c-1.07-.95,1,.28.83-.21.42.42.38.48.91,1-.3-.37-.75-1-1-1.38l1.32.54c-.58-.4.21-.2-.61-.7.72.08.85.81,1.43,1.22.76,0-1.2-1.11.27-.65l.7.57c.13-.07-.18-.55.22-.33-.28-.17-.2-.05-.25,0-1.6-1.06-.87-1.21-2.62-2.17l-.18.08c-.22-.42-1.32-1.24-.62-1.06A4.8,4.8,0,0,1,139.55,52c.23-.15-1.82-1.24-1.53-1.39a3.68,3.68,0,0,1-1.37-.71c-.18.07-.65.14.1.51l.2,0a4.47,4.47,0,0,1,.77.6c-.1.19-.82-.36-1.18-.52-.43.14,1.71,1,1.5,1.29l-.35-.17a3.83,3.83,0,0,0,1.3,1.33c-1.19-.56.22.6-.53.33-2.41-1.48.48-.39-.73-1.36-.59-.16-1.1-.78-1.62-1.17l.76,1.08c-.36-.16-1.64-.78-.82-.16h.08c.15.35,1.17.93.74.87a4.55,4.55,0,0,1-.74-.52c-.31,0,.46.47.62.71-.31,0-.93-.71-1.27-.76.81.76-.39.12-.42.29,1.38.82,1.44,1.8,2.82,2.27l.67,1c-.77-.36-1.7-1.52-2.88-2.19l.23-.24c-1.69-1.08.69,1.32-1.26.23-.17.09.1.22-.91-.1l1.48,1a6.66,6.66,0,0,1-1.53-.81c0,.15-.06.19-.18.22a1.71,1.71,0,0,1-.41-.45c-.88-.48-.6-.23-.2.12s.21.36.13.44l-.47-.47a1.55,1.55,0,0,0,.44.51s0,.1,0,.2a10.86,10.86,0,0,0,1.62.87c-.81-.09-.7.39-2.08-.23-.4-.32-.83-.82-.91-.83-.3,0,.31.67.93,1.13a.16.16,0,0,1,0,.12,2.89,2.89,0,0,0-.88-.49.66.66,0,0,0-.35-.14c1.09.91.33.74.8,1.19a.17.17,0,0,0,.23-.16c.66.69,1.43,1.46.77,1.08-.55-.76-1.32-.7-1.4-1.25-1.57-.9.93.91.26.74l-.67-.3c-.79-.66-.22-.55-.55-.76l0,.18c-.53-.58.16-.64-.59-1.58l-.79.1c.55,1.34-1.18,1.13.16,3.06v0l.5.46L129.9,57l.51.6a10.58,10.58,0,0,0-1.88-.76,4.92,4.92,0,0,1,1.18.8c.76.69,1.08,1,.65.91-.56-.48-.46-.56-1-.82a1.55,1.55,0,0,1,.68.69,3.23,3.23,0,0,1-1.2-.61c-.12-.17.1,0,.21,0-.11-.17-.65-.26-1-.78l0,.3c-.55-.31-.68-.69-1-.91.15.59,1.3,1.84,1.46,2.42-.28-.27-1.5-1.36-1.15-1-.54-.14,1,1.58.86,1.89-.33-.36-.11-.31-.23-.53-1.06.23-1.57.74-3.26.27l1.08,1.31-1-.61c-1.35-.1-1,1.11-1.27,2-.1.26-.94-.71-1.37-1-.52.26.73,1.7.61,2.35-.31-.42-1.24-1.53-1.46-1.42.32.38.84.94.52.83l-.31-.42c-.63-.44-.21.16-.63.12-.32.37.19,1.55,1.18,3.16-.44.18-1.23-1.33-1.54-1.54.65.24,0-.35-.41-.82.21.46.27.8-.62,0-.11.21-.22.24.18,1-.2-.37.31,0,.61.5-.42-.18-.44.48-1.46-.63a15.15,15.15,0,0,1-2.44,2.35c.38.7.31.12.6.6.47.93-.52-.24-.15.5l-.48-.67c-.33.13.42,1.5.68,2.28-.58-.73-.71-.4-.88-1,0,.22-2.94-2.76-2.46-2l2.72,2.78c.25.29-.07.27.12.44a6.55,6.55,0,0,0-1.41-1c-.69-.71-.37-.71-.26-.78-1.08-1.23-1-.49-1.88-1.74,0,.39.58.6.86,1.17l-.41-.1.5.28c.18.51.95,1.49.14,1l.85,1.39c-.88-1-.31,0-.62-.17l-.48-.68c-.12.15-.32,0-.72-.24-.66-.93.31.09-.36-.75l-.41-.15c.48.55.76,1.08,1.16,1.31.75,1.16,1.42,2.1,1,2.33-1-.8-.54-1-1.42-1.87-.74-.08,1.64,2.88,1.3,3-.63-.14.14.73-.11,1-.46-.74-.8-.52-1.38-1.1l-.46-.78c.08.28-.22.1-.59-.4.76.87.3,1.15.45,1.75l.67.73c0,.39.21,1.06-.12,1-.06.46.56,1.08,1,2.08a14.74,14.74,0,0,1-2-2.28c.39.33.32,0,.62.15-.21-.93-1.29-2.74-.66-2.64-1.4-2,0,.39-.73-.12-.09-.12-.11-.16-.11-.19s0,0-.09,0a3.59,3.59,0,0,0-.88-1.73c0,.35,1.39,2,.5,1.36.25.66-1.09-.67-1.3-.7.45.78,1.66,2.26,1.14,2.22l-.73-1.14c-.34.25,1.1,1.65.75,1.85.21,0,.72,1.1,1,1,.35.64.21.93-.21.76a5.16,5.16,0,0,0,.56.72c.78.57-.27-.94.73,0l-.78-1.22a4.68,4.68,0,0,1,1.51,1.67c0-.08-.07-.27.12-.11,1.41,1.65-.69-.42.41,1l0-.22c.94,1,.48,1.2.26,1.25a4.35,4.35,0,0,1-1.58-1.2l0-.54c-.64-.53,0,.62-.18.71l-.24-.22.19.21c-.07,0-.17-.09-.35-.26-.16.06,0,.69-.27.53l.58.7-.3-.41c.13-.07.64.25,1,.85.13.7-1-.63-1.57-1.2-.82-1.14.26-.19.09-.67-.94-1-.35.1-1.19-.41-.84-1.27.32-.22-.49-1.36-.37,0,.24.85-.22.73-.41-.58-.23-.8-.81-1.49l-.41-.23c.29-.34-1.24-1.43-1.2-1.93-.51-.39.59,1.11-.18.5a6.93,6.93,0,0,1,1.54,1.91l-.47-.2c-.54-.51-.8-1.42-1.31-1.81l.12.57a6.56,6.56,0,0,1,.85,1c-.42-.29.88,1.52,1.15,2.16-.13.06-.28.06-.65-.32.54,1.28.15,1.53.66,2.74a4.44,4.44,0,0,0-1.48-1.67c.1-.31-.77-1.44-1.34-2.14A5.52,5.52,0,0,0,107,76.74c-.57-.3.45.89-.32.27-.42-.3-.79-1.16-1.16-1.55-.26.12,1,1.42.54,1.34a2.13,2.13,0,0,0-.29-.42c-.32-.14-.06.5.33,1.08-1.25-1.36-.28.47-1.33-1,0,.63.64.75,1,1.3.34.74-.3.4-.54.23,0-.09-.17-.54.08-.38l-.82-.94c-.93-.42,1.43,2.45.39,1.88-.18-.68-.49-.81-.92-1.59.13.29-.39.24.37.87a1.4,1.4,0,0,1-.68-.19,6.37,6.37,0,0,0,.62,1.58c-.28.06-1-.55-1.37-.91.09,1-1.22.07-1.12,1.17l.08,0c-.49.06,1.12,1.24.71,1.47-.83-1.28-.81-.69-1.4-1.27-.9-.32-.15,1.48-1.16.93-.17-.27-.36-.61-.3-.69-.59-.18-.67.26-1,.38l-.09-.16c-1.15-.74-.75.77-1,1.4-.07-.19-.37-.68-.45-.87-.43-.13-.93-.08-.35,1.21-1.1-1.09,0,.51-1.1-.48-.16-.22-.09-.24-.1-.31-.45-.31-.49-.09-.77-.13.12,1.07,1,2.81.25,2.58-1.09-1.77,0-.61-.82-2,.1.37.23.78-.15.43-.34-.74-.24-.45-.58-1.13-.37-.42.72,2.09.62,1.92.19.35.34.52.4.41.54,1.17-.41.37-.38,1,.09,0,.53.19.94,1.1-.54-.2.35,1.59.53,2.45C94.85,87,95,86,94.19,84.81A9.18,9.18,0,0,1,93,82.87c-.4-.13,0,1.07,0,1.48L92.79,84c-.23.34.28,2.07-.38,1.48l.37.35c.06.24-.16.22.14,1a14.74,14.74,0,0,1-1-1.6c.87,2-.12,1.56.64,3.5A10,10,0,0,1,91.73,87c.29.07.56.42.27-.42-.16.12-.53-.32-.73-.78.44,1.3.27,2,.77,3.27a6.25,6.25,0,0,1-1.15-1.87c-.23.91,1.77,3,1.14,3.32-.74-.88-.36-1.46-.89-1.65v-.19c-1.48-2.56.68,2,.3,2-.68-1.45-.24-1.13-.91-2.09-.11.48.67,2.71.17,2.37l-.21-.65c-.14.2-.62,0-.76.24-.12-.29-.08-.26-.07-.35-.55-.43.14.82-.52-.1l.18.77c.32.46.89,1.06.75.14.13.93,1,1.76,1.42,3.06l-.16-.52A5.5,5.5,0,0,0,94.65,96c-.26-1.68,1,.23,1-1-.75-1.7-.08-.38.14-.91-.1.31.61,1.28.86,1.44a2,2,0,0,1-.11-.88c.36.53,1.57,1.6,1.16.39.52.4.23.56.35.93.55.79-.15-.77.23-.24a1.09,1.09,0,0,1,.11.27c.35-.25.8.06,1.28,0-.86-1.61,0-.81-.13-1.48.24.55.54.48.82.72l-.48-1.3c-.39-1.11.67.55.61-.13l-.23-.25c-.09-.58.94.09,1.63.82-.06-2,.79-2,1.88-1.71s2.38.82,3-.14c-.19-.53-.59-.72-1-1.45,0-.29.14-.25.28-.38-.41-.31,0,.18-.32-.26l0,.59c-.09-.11-.09-.17-.26-.37,0,.19.12.56,0,.55-.11-.5-.82-1.64-.33-1.35a.85.85,0,0,1,.11.36c.22,0-.13-.56.19-.35s0-.17.4.3l.87.28c-.68-1.5.48-.43.64-.36.63,1-.1.52.46,1.59l.67.61-.54-.81.39,0,.09.16c-.18-.33-.37-.66-.11-.43.08.11.26.31.26.37l-.13-.56c.47.9.32.14,1,1.11.9.07-.18-1.78,1.23-.84-.39-.39-.9-1.6-.62-1.53a1.84,1.84,0,0,1,.63.76L110.5,90c1.31,1.29.88.17,1.59.4l.28.43c-.22-.59-.36-1.08-.05-1.08l.57.84c.67.4-1.08-1.86-.43-1.53-.65-.88-1.15-1.21-1.79-2,.72.85,1.1.77.57.19,0-.56.2-.12.38.08l-.25-.65c.22-.1.92,1.1,1.22,1.66-.53-1.08.16-.56.47-.56l.22.46.38,0c-.35-.81-.15-1,.34-.85l.72,1.27c.61.48-.22-.46-.33-.69-.18-.74.47,0,1.09.55C115,86.92,117.71,89.67,116.71,87.7Zm20.4-27.13-.2-.1C136.78,60.24,136.64,60.05,137.11,60.57Zm-2,1.77c-.23-.61.23-.09.55.15-.51,0-.27.42-.81.32.25.16.54.4.74.55-.13,0-.44-.08-1-.54C133.53,61.77,135.8,62.78,135.08,62.34Zm-2-8.9.24.22h0Zm.15,1.93a2.08,2.08,0,0,0-.53-.29C133,55.3,133.28,55.47,133.22,55.37ZM130,56.51c-.51-.33-.46-.1-.43.07A.59.59,0,0,0,130,56.51ZM117.48,70.19a2.16,2.16,0,0,0-.78-1c.29.44-.41-.13.07.5l-.06,0A9.31,9.31,0,0,0,117.48,70.19Zm-3.65,9.52c-.36-.47-.71-1-1-1.34l0,0a2.52,2.52,0,0,1-.33-.37c-.13,0-.28-.11-.21.06C113.5,79.6,113.57,79.94,113.83,79.71Z"/><path class="cls-1" d="M111.08,71.68s0,.06,0,.09A.22.22,0,0,0,111.08,71.68Z"/><path class="cls-1" d="M112.32,78.07a1.32,1.32,0,0,0,.48.3A.86.86,0,0,0,112.32,78.07Z"/><path class="cls-1" d="M141.23,52.91l.12.18.6.11A6.53,6.53,0,0,0,140,51.65c.67.68.19.61.25,1.06Z"/><path class="cls-1" d="M135.57,49.84a6.14,6.14,0,0,0-.89-.37l.49.32Z"/><path class="cls-1" d="M131.53,50.92l.56.09C131.7,50.65,130.81,50.37,131.53,50.92Z"/><path class="cls-1" d="M140.64,55.6l-.46-.48c-.51-.17-.56,0,0,.44C140,55.19,140.55,55.74,140.64,55.6Z"/><path class="cls-1" d="M131.05,51.39c.9.74-.57-.11.29.58C131.12,51.73,132,52.07,131.05,51.39Z"/><path class="cls-1" d="M140.14,57.65c1,.56.25-.14.57-.15C140.62,57.64,139.55,57.16,140.14,57.65Z"/><path class="cls-1" d="M132.86,54.45c-.66-.51-.54-.57-.31-.55a6.5,6.5,0,0,1,.54.56,4,4,0,0,1-.48-.85,4.83,4.83,0,0,1-1.84-.88A9,9,0,0,0,132.86,54.45Z"/><path class="cls-1" d="M140,58.09c.36.07,1,.44,1.1.25-.49-.31-1.21-.75-1.23-.5l-.74-.62C138.4,57,140.19,57.9,140,58.09Z"/><path class="cls-1" d="M130.61,53.69l.41.21c-.5-.62-.05-.58-1-1.41C130,52.71,130.22,53.25,130.61,53.69Z"/><path class="cls-1" d="M138.05,57.65l1.07.82c.29-.06-.37-.25-.58-.51.19.07.35.07.17-.12C138.72,58.16,137.82,57.2,138.05,57.65Z"/><path class="cls-1" d="M138.81,59.11l.29.58,1.31.71C140.21,59.82,139.75,59.88,138.81,59.11Z"/><path class="cls-1" d="M137.88,58.84l-.22-.13L139,60.26A9,9,0,0,0,137.88,58.84Z"/><path class="cls-1" d="M128.05,57c.41.42,1.1.72.55.37C128.26,57,127.51,56.74,128.05,57Z"/><path class="cls-1" d="M136.89,63.31c-.41-.19,0,.65.15,1C137,64,137.51,63.8,136.89,63.31Z"/><path class="cls-1" d="M137.12,64.51l-.08-.16A.34.34,0,0,0,137.12,64.51Z"/><path class="cls-1" d="M134.34,71.93s0,.07.08.15Z"/><path class="cls-1" d="M134.22,71.57c.23.05.14-.36-.28-.82a3.9,3.9,0,0,0,.4,1.18C134.35,71.82,134.74,72.06,134.22,71.57Z"/><path class="cls-1" d="M132.83,72.55c-.2-.32,0-.27-.41-.65C132.21,71.76,132.51,72.32,132.83,72.55Z"/><path class="cls-1" d="M113.48,67.54c-.31-.13-.22.1.37.71C114,68.13,113.56,67.81,113.48,67.54Z"/><polygon class="cls-1" points="113.83 68.51 113.54 68.2 113.04 67.78 113.83 68.51"/><path class="cls-1" d="M112.27,68.24a2,2,0,0,1-.2-.32A.49.49,0,0,0,112.27,68.24Z"/><path class="cls-1" d="M112.06,67.87a.43.43,0,0,1,0,0Z"/><path class="cls-1" d="M112.29,68l-.29-.34a1.06,1.06,0,0,1,.06.19C112.06,67.82,112.12,67.85,112.29,68Z"/><path class="cls-1" d="M111.94,68.32l1,.85c-.26-.61-.61-.35-1.35-1.52Z"/><path class="cls-1" d="M111.67,69c-.41-.21.7,1.5-.37.41.12.94,1.74,1.86,1.65,2.68,1,.24-1.67-2.42-.74-2.09C111.41,69.45,111.84,69.34,111.67,69Z"/><path class="cls-1" d="M113.4,70.9c-.47-.59-.7-.5-.42-.06C113.08,70.86,113.87,71.59,113.4,70.9Z"/><polygon class="cls-1" points="111.34 70.19 110.84 69.84 111.12 70.24 111.34 70.19"/><path class="cls-1" d="M110.68,70.34l-.45-.78C110.42,69.86,110.2,70,110.68,70.34Z"/><path class="cls-1" d="M109.34,70c-.3-.14.91,1.52.86,1l-.11,0C109.9,70.74,109.32,70.29,109.34,70Z"/><path class="cls-1" d="M109.89,73.74c.1,0,0-.31-.25-.62l0,.49Z"/><path class="cls-1" d="M113.05,77.56c.85.91.14-.24.55,0C113.28,77.47,113.19,77.32,113.05,77.56Z"/><path class="cls-1" d="M108.53,72.56c-.26-.44,0-.26.14-.24C108.2,71.8,108.17,72.05,108.53,72.56Z"/><path class="cls-1" d="M108.46,73.16c-.39-.33-.42-.55-.69-.78-.5-.31-.61-.13-.26.47a15.93,15.93,0,0,1,1.64,2c0-.54-1.35-2.43-.12-1.14l-1.16-1.85C107.46,71.74,108.67,73.16,108.46,73.16Z"/><path class="cls-1" d="M111.53,76l-.59-.46a1.7,1.7,0,0,1,.52.94C112.49,77.65,111.52,76.1,111.53,76Z"/><polygon class="cls-1" points="107.72 74.97 107.67 75.47 107.82 75.47 107.72 74.97"/><polygon class="cls-1" points="107.23 74.71 106.94 74.36 107.25 75.18 107.23 74.71"/><polygon class="cls-1" points="106.61 74.51 106.69 74.54 106.61 74.1 106.61 74.51"/><path class="cls-1" d="M105.86,74.72l.46.49c0-.2.56.28,0-.42C106.44,75.08,106.22,75.11,105.86,74.72Z"/><path class="cls-1" d="M114.1,89.72a4.67,4.67,0,0,0-.74-1l.59,1C113.94,89.65,113.92,89.52,114.1,89.72Z"/><path class="cls-1" d="M112.63,88.52l.54,1.21c.39,0-.19-.89-.08-1.22-.34-.25.08.59-.25.4Z"/><path class="cls-1" d="M107.45,91c-.45-.7-.44-.57-.57-1.13.06.59-.25.58-.45.87.34.4.65,1.3.63,1l0-.63.27.5C107.93,92,107,90.8,107.45,91Z"/><path class="cls-1" d="M90.7,90.49a7.11,7.11,0,0,0-.47-1C90.22,89.94,90.7,90.39,90.7,90.49Z"/><path class="cls-1" d="M184.28,202.78c.23-1,0-.34-.22-.24Z"/><path class="cls-1" d="M184.06,202.54l-.15-.17C183.94,202.55,184,202.58,184.06,202.54Z"/><path class="cls-1" d="M182.59,201.69c.42-.8.75.38,1.06-.89C183.36,200,182.79,200.29,182.59,201.69Z"/><polygon class="cls-1" points="183.06 202.56 183.15 201.87 182.76 202.93 183.06 202.56"/><polygon class="cls-1" points="183.23 203.22 183.2 202.96 182.66 203.64 183.23 203.22"/><path class="cls-1" d="M181.45,201.09l.37-.16c.25,1-.33,1.26-.16,1.92.44,0,.32-2,.84-1.62,0-.9-.88-.06-.67-1.47C181.41,199.28,181.73,200.6,181.45,201.09Z"/><path class="cls-1" d="M159.35,206.32c0-.07,0-.09,0-.14C159.32,206.33,159.32,206.45,159.35,206.32Z"/><path class="cls-1" d="M153.44,206.6a.84.84,0,0,0-.2-.32,2.06,2.06,0,0,0,0,.39Z"/><path class="cls-1" d="M163.32,204.13a1.66,1.66,0,0,0,.19.38C163.49,204.3,163.44,204.15,163.32,204.13Z"/><path class="cls-1" d="M126.51,195.86a4,4,0,0,0,0-.41v0l0,.38Z"/><path class="cls-1" d="M146.78,208a.41.41,0,0,0-.28.12A.21.21,0,0,0,146.78,208Z"/><path class="cls-1" d="M165.43,204.28a.12.12,0,0,0-.08,0,.46.46,0,0,0,.09.15v-.13Z"/><path class="cls-1" d="M155.09,208.72c-.06-.11-.13-.19-.19-.19A.34.34,0,0,0,155.09,208.72Z"/><path class="cls-1" d="M176.25,199c-.09-.14-.18-.06-.27.1S176.1,199.37,176.25,199Z"/><path class="cls-1" d="M174.17,198.94h0C174.19,198.76,174.18,198.8,174.17,198.94Z"/><path class="cls-1" d="M172.87,198.66l0,0C172.89,198.51,172.89,198.48,172.87,198.66Z"/><path class="cls-1" d="M176,199.11c-.11-.58,0-2.37-.4-.43V199c-.08-.46-.36.29-.52.33,0,.19,0,.35,0,.49a.94.94,0,0,1,.31.24C175.54,200.44,175.76,199.51,176,199.11Z"/><path class="cls-1" d="M159.42,206c0,.36.13.2,0,0Z"/><path class="cls-1" d="M161.39,204.72a.53.53,0,0,0-.17-.08C161.27,204.71,161.32,204.79,161.39,204.72Z"/><path class="cls-1" d="M168.1,206.06l0-.08C168,206.18,168.07,206.15,168.1,206.06Z"/><path class="cls-1" d="M161.06,204.6a.42.42,0,0,1,.16,0C161.18,204.56,161.14,204.5,161.06,204.6Z"/><path class="cls-1" d="M166.19,204.75a.11.11,0,0,0,0-.06A.08.08,0,0,0,166.19,204.75Z"/><path class="cls-1" d="M98.1,191.32c.12-.17.23.34.37.49.2-1.33-.59,0-.25-1.18-.13,0-.22.19-.3.38l.27,1.22C98.4,191.73,98,191.82,98.1,191.32Z"/><path class="cls-1" d="M124.7,193.35l.07.11c-.06-.56,0-.74-.27-1-.17.86.18,2.14-.12,3.09.06-.09.16-.05.25.06A5.92,5.92,0,0,1,124.7,193.35Z"/><path class="cls-1" d="M124.63,195.58l0,.06a1.31,1.31,0,0,0,.06.31s.09,0,.13.13A1.06,1.06,0,0,0,124.63,195.58Z"/><path class="cls-1" d="M102.62,191.55l.16.11C102.68,191.42,102.64,191.43,102.62,191.55Z"/><path class="cls-1" d="M148.9,192.49c.08-.11.16-.24.23-.36A.54.54,0,0,0,148.9,192.49Z"/><path class="cls-1" d="M128.05,194.48a.46.46,0,0,0,.17.19l.1-.06Z"/><path class="cls-1" d="M117.86,206.78c0-1.4-.08.12-.36-.67l-.16.75C117.54,207.07,117.71,206.83,117.86,206.78Z"/><path class="cls-1" d="M97.9,190.92V191Z"/><path class="cls-1" d="M111.65,207.51l-.12-.18A.36.36,0,0,0,111.65,207.51Z"/><path class="cls-1" d="M125.93,196.14l.83.06-.25-.34C126.42,196.56,126,195.29,125.93,196.14Z"/><path class="cls-1" d="M121.28,207.41l.11.84c.69-1.84,1.72.7,2.22-1.86,1.06,3,.52-2.7,1.48-.06l0-.42c2.88.41,5.8,1.92,8.2.62l0,.59c4.16,1.25,8.48.38,12.74,1.31.46-.5.36-1.84.78-2.47.15.07.5,0,.42.77-.34.37-.24,1-.37,1.31.49,0,1,.89,1.56,0l-.26-1c.21-.37.45-.08.6,0a15.16,15.16,0,0,1-.18,1.74c1.19-2.24.61,1.09,1.48.25a14.79,14.79,0,0,1,2.37-4.86l.27.56c-.44-.06-.16,1.46-.71,1.3.4.63.93-.17,1.33.2a2.36,2.36,0,0,1,.28-1.37c.24.3.14,1.31.44,1.45l-.38.59c.11.78.41-.19.61-.29,0,.84.4,1.05.21,2,.55-1.09.62-.43,1.16-1.09-.36-.94.25-1.09.29-1.79l-.57.26c.67.65-.26.12-.38,1.56-.26-.7.77-2.3.16-2.14.78-.65.85,0,1.71-1.08-.46.21.2-.92,0-1.38.56,0,.08.51.13,1.45.31,0,.31.82.72-.2.43.49-.21,1.06,0,1.67-.31,1-1.2-1.37-1.45,1.78-.26,0-.71,1.16-1.07,1.05.27.45.59,1.54,1.07.87l.24-1.76c.3,0,.51-1.2.71-1-.18.5-.07,1.27.19,1.15,0-.25-.14-.21-.08-.51.46-.08.67-1.28,1.24-1.54a7.89,7.89,0,0,1-.71-1.87c.26-1.23.31-.15.57-.27a.62.62,0,0,0-.07.45l.33-.57c.47.6-.3,1.79.08,2.44.18,1.08.49-.53.66.09v-.32a.36.36,0,0,1,.11.1v-.08c.32-.15.61,0,.81-.93,0,.43.27-.09.4-.36s.73-1.4.78.12h0a1.11,1.11,0,0,1,.42,1.21l.54.45-.22,1.19c.57-.26.61-1,1.13-2.17.29.77,1,.27,1.33-.14,0,.05.1.06.21,0l-.16-.5c.4.1.43-.54.71-.51,0-.12,0-.19.08,0a.36.36,0,0,1,.15.11c0,.12-.09.09-.14,0v.41c.17,1.32.6-.66.89-.17,0,0-.1.12-.14.1.16.35.24,2.09.45,1.06,0,.14.13-.06.23-.32l.12.2a.82.82,0,0,1-.12-.2c.13-.33.27-.75.25-.49l.48.27c.08.19.23.06.35-.1l0,.51c.19-.05.16.24.12.38.44,1.81,1.1-.77,1.63.81a4.67,4.67,0,0,0,0-1.68,7.38,7.38,0,0,1,.9-1.59c.18,1.19,1,2.32.67,4,.57.19-.06-1,.29-1.59l.06.07a3.06,3.06,0,0,1-.3-1.46c0-.9.59-1.11.72-.83l-.26,1.27c.58-.39.69-2.33,1.16-3.57.36.55,0,1.69,0,2.84l.48-.27-.1,1c.31-.22.48-1.11.83-.69-.38.87.51,1,0,2.13.18.35.45-1.5.42-.21.27-1-.14-.53-.22-.86.07-1.49.56-.66.87-1-.06.77-.27.88,0,1.42.12-.57.37-1,.47-.27.1-1,.38-.16.55-.08a2.24,2.24,0,0,1-.18-1.76c.19-.37.34-.55.68-.39l-.19-.47c.45-1.38.4,1.07.87.66a8.55,8.55,0,0,0-.57,1.24,11.65,11.65,0,0,1,1-1.51l.22,1.43c.11-.7.39.1.48-.86.39.69-.46,1.13-.57,1.83.5.68.59-1.57,1-.05l-.26.89c.17.08.58-.41.56.05,0-.33-.07-.21-.19-.22.29-1.91.95-1.27,1.06-3.26l-.23-.15c.4-.36.79-1.68,1-1a3.28,3.28,0,0,1-.45,1.83c.34.16.48-2.15.88-1.93a2.31,2.31,0,0,1,.08-1.54c-.23-.15-.69-.58-.68.27l.07.2a2.94,2.94,0,0,1-.3.94c-.33,0-.07-.91-.11-1.3-.52-.37-.22,2-.72,1.87l0-.39c-.29.49-.67.53-.85,1.74-.1-1.3-.62.46-.79-.33.23-2.82.84.27,1.27-1.24-.21-.6.28-1.34.45-2l-1,1.15c0-.39-.14-1.82-.38-.81l.06.07c-.36.29-.39,1.46-.64,1a4.43,4.43,0,0,1,.16-.89c-.24-.28-.28.62-.49.86-.23-.28.25-1.14.06-1.48-.41,1.06-.45-.31-.72-.27-.05,1.62-1.28,2.08-.85,3.54l-.75,1c-.11-.85.67-2.19.63-3.56l.5.11c.12-2-1.19,1.19-1.29-1.06-.26-.12-.23.17-.63-.88l-.1,1.79a4.53,4.53,0,0,1-.18-1.74.36.36,0,0,1-.44-.06,1.33,1.33,0,0,1,.25-.57c-.09-1-.19-.64-.31-.13s-.31.36-.48.33l.22-.65a1.19,1.19,0,0,0-.3.64.28.28,0,0,0-.22.13,7.58,7.58,0,0,0,.19,1.85c-.53-.77-1.06-.43-1.42-2,.08-.51.37-1.13.32-1.2-.24-.29-.62.58-.69,1.35a.29.29,0,0,1-.15.06c0-.45,0-.93-.12-1a.53.53,0,0,0-.13-.38c-.25,1.4-.67.64-.85,1.26a.34.34,0,0,0,.4.14c-.32.91-.64,2-.71,1.19.5-.85-.25-1.51.39-1.84-.21-1.83-.37,1.26-.73.57l-.2-.73c.16-1,.52-.46.5-.85l-.22.1c.29-.74,1-.15,1.56-1.25l-.84-.68c-1.3,1.09-2.57-.49-3.83,1.64l0,0a5.77,5.77,0,0,0-.13.68v-.26L166,198c-.1-1-.49-1.23-.75-2a3.21,3.21,0,0,1,.07,1.43c-.17,1-.26,1.45-.54,1,.08-.72.28-.68.11-1.29a1.07,1.07,0,0,1-.25.95c-.12-.5-.42-.63-.33-1.37.11-.18.15.08.19.19.11-.18-.27-.7.06-1.26l-.36.16c-.12-.63.25-.94.22-1.34-.62.43-1.11,2.06-1.68,2.5.08-.39.28-2,.22-1.54-.33-.54-1.06,1.66-1.51,1.74.12-.48.26-.26.43-.48-1.28-.79-2.38-1-3.47-2.66l-.53,1.62-.2-1.15c-1.21-1.23-2.38-.28-3.72.07-.41,0-.1-1.2-.23-1.69-.86-.29-1.29,1.57-2.17,1.85.17-.5.54-1.92.18-2-.12.47-.25,1.23-.45.9l.18-.5c-.12-.77-.4-.08-.8-.45-.77-.06-1.63,1.05-2.46,2.82-.65-.24.27-1.79.18-2.16.41.66.36-.26.53-.83-.31.45-.64.7-.64-.51-.36,0-.52,0-.95.73.22-.38.3.28.08.8-.25-.45-1-.06-.83-1.55a50.86,50.86,0,0,1-5.37-.47c-.37.74.2.32,0,.85-.53,1-.31-.55-.73.22l.22-.81c-.52-.16-1.21,1.31-1.77,2,.15-.92-.36-.8.1-1.32-.26.13-.25-4-.51-3.21v3.89c0,.38-.37.12-.35.38-.16-.78-.37-1.7-.52-1.71,0-1,.36-.75.57-.71.15-1.63-.63-1.1-.21-2.58-.48.24,0,.84-.31,1.43l-.37-.37.26.57c-.36.46-.56,1.7-.93.76l-.56,1.57c0-1.3-.32-.26-.53-.58l.2-.81c-.31,0-.42-.21-.58-.7.24-1.12.26.3.4-.77l-.32-.41c0,.74-.29,1.3-.07,1.75-.41,1.35-.62,2.46-1.44,2.32-.32-1.27.46-1.1.37-2.34-.87-.56-1.22,3.22-1.7,3-.61-.53-.61.61-1.24.69.22-.85-.42-.92-.53-1.73l.26-.88c-.19.26-.38-.08-.31-.7,0,1.16-.84,1.08-1.28,1.63l.08,1c-.34.33-.8.95-1.15.7-.52.33-.39,1.2-.77,2.28a10.09,10.09,0,0,1-.18-3c.15.5.39.2.62.5.65-.87,1.17-2.94,1.86-2.46.3-2.38-.47.28-.8-.56,0-.15,0-.19.06-.22s-.06,0-.08-.07a2.64,2.64,0,0,0,.72-1.89c-.43.25-.3,2.39-.83,1.36-.37.67-.69-1.2-.93-1.36-.24.89-.22,2.81-.83,2.45l.24-1.34c-.7,0-.29,2-.93,1.92.23.15-.18,1.31.24,1.34-.19.72-.64.86-1,.48-.09.21,0,.46,0,.91.4.92.57-.91.91.42l.23-1.45a3.08,3.08,0,0,1,.22,2.25c.1-.06.18-.27.26,0,.1,2.17-.44-.76-.52,1.08l.24-.16c.14,1.41-.53,1.25-.85,1.16a3.37,3.37,0,0,1-.76-1.9l.47-.46c-.28-.81-.6.51-.88.47a.89.89,0,0,0-.09-.31,2.36,2.36,0,0,1,0,.28.75.75,0,0,1-.17-.41c-.25,0-.59.59-.83.27l.07.91v-.51c.22,0,.54.57.4,1.26-.47.65-.64-1.1-.8-1.89.07-1.4.5,0,.74-.49-.21-1.37-.52-.12-1.08-1,.14-1.52.61,0,.67-1.4-.44-.24-.51.84-1,.47,0-.7.46-.79.4-1.69l-.31-.42c.71-.11-.2-1.88.34-2.27-.29-.61-.32,1.25-.73.31.13.65.48,1.84.15,2.45l-.42-.43c-.21-.73.34-1.63.05-2.24l-.4.54a3.52,3.52,0,0,1,.15,1.29c-.26-.47-.31,1.76-.56,2.45-.23,0-.41-.11-.52-.63-.5,1.36-1.22,1.35-1.67,2.65a2.94,2.94,0,0,0-.35-2.22c.4-.21.33-1.63.25-2.53a3.53,3.53,0,0,0-.18,2.1c-.44-.56-.23,1-.65.06-.26-.47,0-1.4-.07-1.93-.46,0,0,1.73-.53,1.43a1.24,1.24,0,0,0,0-.51c-.28-.29-.52.4-.54,1.1-.39-1.83-.78.25-.83-1.55-.61.52.15,1,.07,1.61-.21.81-.74.19-.9-.08.15-.06.26-.55.43-.28l-.21-1.24c-.85-.84-.32,2.85-1.15,1.82.35-.67.07-1,.2-1.84-.1.32-.72,0-.29.94a1.83,1.83,0,0,1-.72-.51,4.75,4.75,0,0,0-.57,1.68c-.4-.1-.76-1-1-1.49-.78,1-1.66-.52-2.48.5l.07.07c-.7-.18.43,1.63-.29,1.64,0-1.53-.5-1-.79-1.79-.93-.72-1.42,1.23-2.3.26,0-.32,0-.7.16-.75-.64-.44-1.12-.1-1.67-.14v-.19c-1-1.17-1.66.38-2.54.81.06-.2,0-.77.08-1-.49-.31-1.23-.48-1.45.93-.65-1.46-.33.49-1.13-.92-.06-.26,0-.26.09-.32-.37-.48-.61-.3-1-.46-.7,1-.75,3-1.68,2.47-.18-2.07.51-.55.42-2.2-.15.38-.28.81-.55.33.09-.82,0-.51,0-1.27-.22-.54-.61,2.21-.62,2,0,.4.1.62.27.55-.13,1.29-.86.16-1.26.7.14,0,.6.4.5,1.4-.6-.41-.67,1.6-1,2.45-.59-.91.28-1.77.09-3.21a5.54,5.54,0,0,1-.21-2.26c-.49-.28-.75,1-1.16,1.32v-.41c-.57.2-1.11,2-1.65,1.24l.29.45c-.09.25-.39.15-.51,1,0-.68-.43-1.28-.3-1.85-.15,2.2-1.26,1.39-1.48,3.48a6.7,6.7,0,0,1-.06-1.94c.38.17.53.6.68-.28-.3,0-.55-.51-.52-1-.25,1.37-1,1.95-1.08,3.31a4.4,4.4,0,0,1-.43-2.18c-.92.73.58,3.49-.5,3.51-.52-1.09.44-1.51-.24-1.87l.12-.18c-.56-2.91-.29,2.1-.85,2-.11-1.6.36-1.15,0-2.28-.49.41-.68,2.78-1.19,2.27l.07-.68c-.32.13-.94-.19-1.26-.07,0-.31,0-.27.09-.35-.58-.6-.25.81-.72-.29l-.15.78c.24.55.71,1.32,1,.41-.31.91.49,2,.34,3.38l.06-.55c.85,2.35,2,2.61,3,3.46.63-1.65,1.18.63,1.86-.53,0-1.87.12-.38.72-.78-.31.24,0,1.41.25,1.66a1.72,1.72,0,0,1,.38-.85c.15.63,1,2.1,1.23.82.41.57-.06.6-.12,1,.2.95.27-.76.43-.13a1.43,1.43,0,0,1,0,.3c.57-.11.94.36,1.55.56,0-1.83.56-.73.78-1.39,0,.59.38.66.57,1l.24-1.38c.24-1.17.49.78.86.13l-.12-.32c.26-.56,1.11.48,1.47,1.44,2.51-3.75,4.4,1.71,7.21.53.15-.57-.21-.91-.12-1.74.28-.23.35-.16.61-.2-.27-.48-.19.13-.19-.38l-.37.54a3.85,3.85,0,0,0,0-.44c-.12.17-.26.55-.44.47.22-.49.19-1.85.57-1.36a.54.54,0,0,1-.14.37c.3.09.26-.56.5-.22s.19-.13.27.45l.86.67c.29-1.64.9-.14,1,0,0,1.21-.51.41-.62,1.61l.36.86-.06-1,.44.23v.19c0-.38,0-.76.17-.43a1.1,1.1,0,0,1,0,.45l.26-.55c-.1,1,.28.28.32,1.43,1,.51,1.11-1.64,2.07-.13-.17-.53.14-1.84.42-1.65a1.32,1.32,0,0,1,.16,1l.3-.62c.55,1.77.89.58,1.55,1.15v.52c.19-.62.4-1.12.76-1v1c.47.68.18-2.16.69-1.54-.08-1.09-.41-1.64-.53-2.67.19,1.1.7,1.24.53.45.44-.47.33,0,.39.27l.23-.68c.33,0,.2,1.42.12,2,.23-1.19.62-.39,1-.22l-.11.5.47.17c.24-.87.66-1,1.07-.54l-.18,1.46c.31.73.11-.51.16-.76.38-.73.53.25.8,1C120,205.77,120.82,209.6,121.28,207.41Zm46.74-2,0-.22C168.15,204.91,168.26,204.69,168,205.36Zm-3.75-.87c.53-.5.3.16.28.56-.4-.45-.7,0-1-.54a6.91,6.91,0,0,1,0,.92c-.15-.09-.27-.43-.23-1.16C163.63,202.86,164.36,205.35,164.27,204.49Zm9.34-6.07-.09.31h0Zm-2.38,1a1.58,1.58,0,0,0-.09-.61C171.14,199.22,171.14,199.54,171.23,199.44Zm-4.26-2.3c0-.61-.28-.46-.47-.34A.84.84,0,0,0,167,197.14Zm-28.59-2.54a1.45,1.45,0,0,0,.26-1.26c-.15.5-.31-.41-.47.37a.17.17,0,0,1,0-.07A6.41,6.41,0,0,0,138.38,194.6Zm-13.65,4.6a11.72,11.72,0,0,0,0-1.68l0,0a1.53,1.53,0,0,1,0-.49c-.12-.12-.24-.26-.31-.08C124.44,198.92,124.23,199.24,124.73,199.2Z"/><path class="cls-1" d="M129.14,191.16s-.1,0-.13,0A.24.24,0,0,0,129.14,191.16Z"/><path class="cls-1" d="M124.43,197a1.27,1.27,0,0,0,.3.53A.68.68,0,0,0,124.43,197Z"/><path class="cls-1" d="M180.3,205.65l-.15.18.22.6a5.23,5.23,0,0,0,.79-2.39c-.48.87-.68.39-1.21.61Z"/><path class="cls-1" d="M180.64,199.21a5,5,0,0,0-.13-1l-.11.58Z"/><path class="cls-1" d="M175.78,195.91l.36.55C176.32,196,175.94,195,175.78,195.91Z"/><path class="cls-1" d="M176.59,206.23l.29-.63c-.15-.53-.42-.49-.54.21C176.65,205.45,176.37,206.2,176.59,206.23Z"/><path class="cls-1" d="M174.69,195.66c-.26,1.14-.36-.55-.56.53C174.27,195.88,174.54,196.82,174.69,195.66Z"/><path class="cls-1" d="M173.8,206.66c0,1.11.34.17.58.45C174.16,207.09,174,205.9,173.8,206.66Z"/><path class="cls-1" d="M172.11,198.69c.11-.82.28-.74.46-.53a3.8,3.8,0,0,1-.29.75,4.15,4.15,0,0,1,.71-.83,3.49,3.49,0,0,1-.38-2.05A5.63,5.63,0,0,0,172.11,198.69Z"/><path class="cls-1" d="M173.14,206.72c.19.35.24,1.13.52,1.09,0-.58,0-1.42-.31-1.32l.21-1C173.35,204.8,173.54,206.82,173.14,206.72Z"/><path class="cls-1" d="M171.16,196.32l.08.46c.4-.73.74-.3,1.06-1.5A1.7,1.7,0,0,0,171.16,196.32Z"/><path class="cls-1" d="M172.25,204.82l-.19,1.33c.29.23,0-.45.17-.75.07.2.19.34.28.09C172.14,205.65,172.61,204.4,172.25,204.82Z"/><path class="cls-1" d="M171.06,206.18l-.46.53.14,1.51C171.27,207.76,170.86,207.38,171.06,206.18Z"/><path class="cls-1" d="M170.68,205.23l0-.26-.82,1.91A7.47,7.47,0,0,0,170.68,205.23Z"/><path class="cls-1" d="M164.56,195.64c-.14.57.12,1.33.05.67C164.74,195.84,164.37,195,164.56,195.64Z"/><path class="cls-1" d="M164.64,206.57c-.11-.46-.77.29-1.06.66C163.9,207,164.59,207.35,164.64,206.57Z"/><path class="cls-1" d="M163.46,207.37l.12-.14A.28.28,0,0,0,163.46,207.37Z"/><path class="cls-1" d="M153,209.07a.23.23,0,0,0-.09.14Z"/><path class="cls-1" d="M153.24,208.76c.14.22.51-.09.64-.71a3.67,3.67,0,0,0-.92,1C153.08,209,153.17,209.47,153.24,208.76Z"/><path class="cls-1" d="M151,208.19c.16-.35.31-.15.33-.71C151.26,207.22,150.94,207.79,151,208.19Z"/><path class="cls-1" d="M136.76,189.84c-.21-.32-.36-.1-.36.75C136.67,190.59,136.56,190.08,136.76,189.84Z"/><polygon class="cls-1" points="136.09 190.75 136.09 190.33 135.97 189.67 136.09 190.75"/><path class="cls-1" d="M134.55,189.41a1.09,1.09,0,0,1,.12-.36C134.57,189.16,134.49,189.27,134.55,189.41Z"/><path class="cls-1" d="M134.72,189l-.05.05Z"/><path class="cls-1" d="M134.81,189.28l.05-.45a1,1,0,0,1-.14.17C134.77,189,134.81,189,134.81,189.28Z"/><path class="cls-1" d="M134,189.24l.26,1.3c.38-.62-.36-.68.06-2Z"/><path class="cls-1" d="M132.85,189.55c-.31-.43-.82,1.58-1,0-.9.78.14,2.54-.85,3.1.9.79.53-2.92,1.36-2C132,189.69,132.7,189.91,132.85,189.55Z"/><path class="cls-1" d="M132.91,192.11c.08-.76-.32-.84-.46-.34C132.57,191.86,132.72,192.93,132.91,192.11Z"/><polygon class="cls-1" points="131.09 190.19 130.83 189.6 130.75 190.09 131.09 190.19"/><path class="cls-1" d="M130.08,189.88l.27-.88C130.26,189.34,129.87,189.27,130.08,189.88Z"/><path class="cls-1" d="M128.66,188.77c-.24-.29-.44,1.75.06,1.3l-.11-.08C128.64,189.67,128.36,189,128.66,188.77Z"/><path class="cls-1" d="M125.56,192c.16,0,.34-.23.3-.65l-.43.43Z"/><path class="cls-1" d="M125.77,197c.17,1.23.39-.11.69.29C126.13,197.06,126.16,196.89,125.77,197Z"/><path class="cls-1" d="M125,190.29c.1-.51.3-.19.41-.11C125.34,189.48,125,189.67,125,190.29Z"/><path class="cls-1" d="M124.31,190.75c-.16-.5,0-.7-.11-1-.34-.55-.66-.46-.81.23a10.93,10.93,0,0,1,.17,2.59c.47-.46.64-2.77.94-1l.34-2.18C124.43,189,124.59,190.87,124.31,190.75Z"/><path class="cls-1" d="M125.43,194.82l-.28-.72a1.26,1.26,0,0,1-.25,1.07C125,196.75,125.29,194.92,125.43,194.82Z"/><polygon class="cls-1" points="121.63 191.81 121.09 192.21 121.28 192.28 121.63 191.81"/><polygon class="cls-1" points="121.25 191.32 121.21 190.87 120.83 191.73 121.25 191.32"/><polygon class="cls-1" points="120.64 190.81 120.71 190.88 121.02 190.47 120.64 190.81"/><path class="cls-1" d="M119.47,190.57l.14.66c.13-.19.45.55.37-.35C119.88,191.19,119.58,191.09,119.47,190.57Z"/><path class="cls-1" d="M116.77,207.7a3.5,3.5,0,0,0-.1-1.22l-.08,1.14C116.63,207.56,116.71,207.44,116.77,207.7Z"/><path class="cls-1" d="M116,205.9l-.3,1.32c.46.17.46-.85.84-1.08-.19-.39-.37.55-.6.21Z"/><path class="cls-1" d="M108,205.49c0-.84-.11-.71.15-1.27-.37.54-.74.39-1.19.54.11.52-.17,1.46,0,1.22l.48-.54,0,.57C107.8,206.62,107.55,205.07,108,205.49Z"/><path class="cls-1" d="M86.53,197.89a3.88,3.88,0,0,0-.09-1.14C86.15,197.2,86.59,197.8,86.53,197.89Z"/></g></g></svg>