<svg xmlns="http://www.w3.org/2000/svg" viewBox="0 0 514.38 259.38"><defs><style>.cls-1{fill:#8f4a4b;}.cls-2{fill:#914d4e;}</style></defs><title>Ресурс 6</title><g id="Слой_2" data-name="Слой 2"><g id="Слой_3" data-name="Слой 3"><path class="cls-1" d="M291.87,32.44c-.73,1,.38-.15,1.53-1Z"/><path class="cls-1" d="M293.4,31.44l1.09-.7A8,8,0,0,0,293.4,31.44Z"/><path class="cls-1" d="M303.52,24.91c-2.16,1.75-5.18,3.17-6.33,4.54C299.62,28.07,303.2,25.7,303.52,24.91Z"/><polygon class="cls-1" points="299.88 26.93 299.72 27.32 301.56 25.69 299.88 26.93"/><polygon class="cls-1" points="298.3 27.7 298.64 27.58 301.71 25.31 298.3 27.7"/><path class="cls-1" d="M311.71,20.37c-.81.46-1.63.88-2.4,1.39-2.4,1,1.27-1.25-.34-.55-3,1.76-.7,1.18-4.48,3.28.46.08,6-3.51,5.6-2.74C313.36,20.17,310.11,21.42,311.71,20.37Z"/><path class="cls-1" d="M469.44,32.74l.27.3C469.62,32.89,469.52,32.76,469.44,32.74Z"/><path class="cls-1" d="M499.17,68.32c.26.59.54,1.17.82,1.73a6,6,0,0,0-.24-.72Z"/><path class="cls-1" d="M445,17.23c-.56-.37-1.08-.69-1.55-1A9.34,9.34,0,0,0,445,17.23Z"/><path class="cls-1" d="M425.17,247.4c.1-.07.17-.14.18-.21l-.08,0-.43.29Z"/><path class="cls-1" d="M514,118.25c0,.74.09,1.47.15,2.12A20.23,20.23,0,0,0,514,118.25Z"/><path class="cls-1" d="M429.8,10.29c.24.1.44.18.65.25l-.79-.35.11.09Z"/><path class="cls-1" d="M491.63,55c.33.55.64,1,.91,1.44C492.25,55.93,491.94,55.45,491.63,55Z"/><path class="cls-1" d="M351.38,6.17a17,17,0,0,0,1.95-.47A6.46,6.46,0,0,0,351.38,6.17Z"/><path class="cls-1" d="M367.45,3.66h-.1C367.45,3.72,367.5,3.71,367.45,3.66Z"/><path class="cls-1" d="M377.83,3.11l-.18,0C377.77,3.16,377.84,3.17,377.83,3.11Z"/><path class="cls-1" d="M353.33,5.7c1.36,0,1.86.47,3.46-.48l-.36,0c1.06,0,2.53-.59,3.73-.75a2.63,2.63,0,0,0-.46-.1c-.61.07-1.4.21-2.63.38A17.29,17.29,0,0,0,353.33,5.7Z"/><path class="cls-1" d="M469.23,32.71c-.05-.19-1-.84,0,0Z"/><path class="cls-1" d="M457.51,24.51l1.16.8A12.33,12.33,0,0,0,457.51,24.51Z"/><path class="cls-1" d="M408.36,3.39l.25.08C408.7,3.41,408.49,3.39,408.36,3.39Z"/><path class="cls-1" d="M459.72,26.06c-.35-.25-.69-.52-1.05-.75C459,25.54,459.31,25.81,459.72,26.06Z"/><path class="cls-1" d="M423.84,8l.2.09A.77.77,0,0,0,423.84,8Z"/><path class="cls-1" d="M265.74,149.67c.17,1,0,1.68.16,2.66.4,1.07.21-.06.06-1.07s-.22-1.9.14-.33c-.11-1-.25-1.74-.39-2.45l-.25,1.45C265.83,151.84,265.45,148.62,265.74,149.67Z"/><path class="cls-1" d="M412.32,250.51l.45-.07c-.35-.11-.09-.23-1.8.08-1.37.63,1,.5-1.48,1.42a18.74,18.74,0,0,1,1.92-.44C410.31,251.5,411.27,251,412.32,250.51Z"/><path class="cls-1" d="M411.41,251.5h.47a9.58,9.58,0,0,1,1-.2A9.46,9.46,0,0,0,411.41,251.5Z"/><path class="cls-1" d="M274.61,183.2l.43,1.09A3.82,3.82,0,0,0,274.61,183.2Z"/><path class="cls-1" d="M508.53,115.34c-.09-.5-.19-1-.26-1.39A7,7,0,0,0,508.53,115.34Z"/><path class="cls-1" d="M436,242.32a10.15,10.15,0,0,0,1.16-.5l.7-.38C437.2,241.73,436.59,242.05,436,242.32Z"/><path class="cls-1" d="M353.58,255.77c1-.24-.7-.13-2.43-.84l-1.72-.17C350.94,255.21,352.37,255.48,353.58,255.77Z"/><path class="cls-1" d="M265.73,148.37s0,0,0,0l0,.12Z"/><path class="cls-1" d="M307.82,234.61l-.62-.56A7.36,7.36,0,0,0,307.82,234.61Z"/><path class="cls-1" d="M421,249c2-.7,4-1.3,6-2.13l-1.77.58C424.42,247.91,421.69,248.4,421,249Z"/><path class="cls-1" d="M381.2,259.09l.58.29c6.48-.63,14-.36,19-2.09a19.88,19.88,0,0,0,4.25-.44,10.67,10.67,0,0,0,2.12-.67,18.76,18.76,0,0,1,5.81-1.37l-.28-.08a130,130,0,0,0,17.21-5.44l2.12-.82c.71-.29,1.4-.61,2.09-.91,1.39-.62,2.79-1.22,4.17-1.86,2.71-1.37,5.45-2.67,8.06-4.21a122.92,122.92,0,0,0,27.79-21.3l.1.17a131,131,0,0,0,29.93-43.84,133.41,133.41,0,0,0,10.21-51.89c-.08-1.66-.26-2-.44-2.25s-.34-.48-.52-1.9c0-1.24-.18-4,0-4.07.3,2.39.41,1,.56,1.84-.08-2-.32-4.29-.48-6.53a54.8,54.8,0,0,0-1-6.14l.11,3c-.34-1.35-.51-3.53-.77-4.76.26.5.25-1.36.53-.31-.55-1.82-.88-3.09-1.08-4.07s-.35-1.67-.43-2.33-.16-1.29-.32-2.14a19.39,19.39,0,0,0-.94-3.41c-1-1-3.8-8.48-6.4-13-.3-.85-.56-1.73-.91-2.57,1.44,3.33.44-.27,2.15,3.9-1.21-3.58-3-6.61-4.5-9.83.18.69-.1.63-.84-.59-1-1.95-.73-2.3-1.94-4.49.51.66.92,1.37,1.38,2a17.44,17.44,0,0,0-2.43-3.95c0-.57-1.92-3.8-1.33-3.39a37.36,37.36,0,0,1-2.48-3.17L491.27,55c-.42-.53-.91-1.11-1.51-1.8,2.05,3.18-.88-.54-.81-.06.88,1.1,1.8,2.18,2.6,3.34-.79-1.27-1.17-1.77-1.21-1.87a4.2,4.2,0,0,1,.59.68c.7,1,1.83,2.44,1.9,2.12,1.4,2.45-2.83-2.73-.11,1.11-.84-1.13-1.51-2-2.08-2.84s-1.14-1.45-1.66-2.13a47.11,47.11,0,0,0-4.15-4.75c2.31,2.57-.66-.3.42,1.2-2.84-3.31-.57-.93-1.21-2.16a20.35,20.35,0,0,0-3.73-4c-2.56-2.91.66.17-.55-1.38a13.29,13.29,0,0,1,1.64,1.59c.73.77,1.59,1.7,2.34,2.63,1.54,1.83,2.95,3.36,3,2.62L489,51.86A38.55,38.55,0,0,1,491.63,55c-.7-1.07-1.57-2.38-2.5-3.73-.48-.67-.95-1.37-1.49-2S486.55,48,486,47.44l-.56.26c-1.58-1.81-2.16-2-3.33-3.23.76.55-.2-.82-1.57-2.2.32.46.87,1,.65.93a26.81,26.81,0,0,0-2.89-2.64c-.88-.68-1.82-1.4-3.39-2.82a62.36,62.36,0,0,1,4.89,5.67c-.91-.34-1.59-1.66-3-2.92.25.16.54.42.2,0l-1.61-1.27c-3-3.12.81-.07-1.66-2.67-1.63-1.9-2.68-2.09-4-3.49l.21.32-.69-.65s0,0,0,0c-1.83-1.41-3.75-3-4.45-3.14a9.4,9.4,0,0,0-2.29-1.55,25.76,25.76,0,0,1-5.1-3.64l.12.08c-2.35-1.63-4.13-3-3.52-2.8l-3.91-2.51.63-.09a19.58,19.58,0,0,0-3.48-1.69c-.75-.26-1.37-.42-2.74-.92a38.65,38.65,0,0,0-4.9-2.57,42.2,42.2,0,0,0-4.42-1.8c-.3-.15-.76-.35-1.54-.67l1.55.85c-3-1.31-2.71-1-4.73-1.77.4.2.45.24-.65-.25l-1.15-.47a5.55,5.55,0,0,1,1,.37l-.32-.26a12,12,0,0,0-3.11-1.25,22.87,22.87,0,0,1-3.36-1c.26.07.7.19,1,.28-1.46-.59-3.44-1.89-4.18-1.69a6,6,0,0,0-1.44-.3l-1.11-.37L418.2,6a5.09,5.09,0,0,1-1.49-.24c-1.28-.4-2.57-.78-3.88-1.09a21.05,21.05,0,0,0-2.59-.56l-.63-.32c-1.43-.32-1.43-.39-1.25-.41a34.63,34.63,0,0,0-6.43-1.31c-1-.11-2-.21-3.14-.36s-2.3-.39-3.67-.63c-1.08.18,1.18.53,1.34.69-.89.13-4,0-5.61,0-1.2-.31-3.68-.58-5.71-.9s-3.61-.48-3-.77c-4.56-.08,1.42.35-.87.53l-.52,0a17,17,0,0,1,3.67.51c.33.28-3.66.36-4.88.26l.85-.43a8.91,8.91,0,0,0-3.53.54,9.72,9.72,0,0,1-2.33.8c-3.31,0-1.43-.5-2.15-.86-1.16.07-2.32.25-3.48.37l0-.32c-2.26.29-2.76.56-5.89.86,2.22-.59-4.72.31-1.65-.5-1.75.13-2.17.79-3.11.53-1.14.54,1.57-.1,2.47-.07.39.2-.56.36-1.85.57s-2.93.5-3.94.74c-.23-.22,1.32-.54-1.14-.28a9.89,9.89,0,0,1-3.39.82c.07.32-2.72.67-4.09,1,1.55-.3,3.82-.55,2.88-.06-1.16.4-2.18.64-4.87,1.35l1.89-.35A10.45,10.45,0,0,1,343,7a17.49,17.49,0,0,0-3.89.89c1.26-.63,2.11-.83,3.22-1.38-1.48.51-4.23,1.66-6.5,2.55-.94.13-1.88.26-2.8.45-.24.34-2.95,1.07-2.84,1.37-3.33,1,2.48-1.33,2.74-1.68a19,19,0,0,0-3.63,1.48A18.38,18.38,0,0,1,325.75,12l1.17-.82c-1.29.53-3.81,1.77-4,1.7.05.1.68-.21,1.48-.55-.27.47-1.71,1.18-3,1.87s-2.34,1.37-2,1.56l1.75-.78c-2.59,1.4-4.31,2.62-6.4,3.48-1.62.64.85-1,1.73-1.57C314,18,314.83,18.54,311.88,20c1.59-.72,1.4-.35.57.29.85-.43,2.16-1.08,3.17-1.61s1.74-.89,1.36-.87l-.65.23c.08-.22,1-.73,1.42-1,2.35-1.11,1.22-.25,1.75-.35,4-1.74,0-.81,3.65-2.39l.53-.08c1.7-.89,4.39-2.09,4.75-2.63,1.78-.2,4.16-1.74,6.05-2.14.32.37-1.27.94-3.18,1.58-1,.31-2,.65-2.92,1a10.78,10.78,0,0,0-2.16,1.07c2-.63-.93.88-1.64,1.41,1.95-1,3.9-2,5.92-2.82a8.53,8.53,0,0,0,3.49-1l-.48.16c2.4-1,1.64-1.08,3.82-1.66.35,0-.26.33-.4.44,2-.55,1.58-.73,2.87-1.23,2-.55-.87.68.81.26,2.21-1,3.68-.92,5.68-1.48-1-.39,7.92-2.54,3.42-2,1.61-.48,3.21-1,4.85-1.38,1.59,0-3.26,1.36-1.8,1.56l-3.89.85c.4.26,2.4-.33,4.66-.9s4.81-1,6.17-.88a47.58,47.58,0,0,1,5.6-.46l-.75-.5c2.09-.13,2.8.2,2.9.28,1.21-.14,2.31-.21,3.44-.28a6.59,6.59,0,0,1-1.44.32A4.35,4.35,0,0,0,372,3.52a22.35,22.35,0,0,1,3.42-.25l-1.16.26a7.63,7.63,0,0,0,1.84-.29c.54,0,1.05-.06,1.54-.11a11.52,11.52,0,0,0-3.09-.49H378l3.2.1c1,0,2,.06,3.05.15s2,.25,3.05.43c-.17.16-1.9.29-1.38.34,2.05.19,4.3,0,4.14-.26.46,0,.82.05,1.14.08A5.2,5.2,0,0,0,393,4a6.5,6.5,0,0,0,1.28.24,6.78,6.78,0,0,1,2.71,0,21.31,21.31,0,0,0,2.8.27c-.91-.18-2.05-.34-3.2-.48a12.59,12.59,0,0,1,4.46.2c-3.11-.13,3.18,1-1.44.43,3.13,1,1.76-.22,5.13.63l2.15.65c-.4.27-3.58-.5-3.1-.28l1.53.24c-1.55-.08-7.29-1.19-10.91-1.15,1.19.13,2.38.32,3.56.53l3.54.6c2.24.29,4.62.68,7,1.16s4.84,1,7.2,1.75l3.52,1,3.36,1c1.09.34,2.17.61,3.19.94s2,.61,2.93.87l-.31-.11a.55.55,0,0,0,.37-.1l.29.2,1.52.31c.76.45,1.86,1.07,3.09,1.69s2.58,1.27,3.76,2c-1.47-1-1.49-.93-1.53-1.24.46-.18.77-.21,3,1-.08.23-1.51-.47.12.54-.83-.54,0-.31,1.06.15.61.4,1.48.85,2.15,1.28s1.17.78,1.13.9A8.3,8.3,0,0,1,442,18.4c-.61-.26,2.3,1.5.46.73l2.33,1.19c1.24.9-1.05-.21-.58.2,1,.48,1.85.88,2.66,1.23l2.26,1.06a39.56,39.56,0,0,1,4.58,2.32c-.22,0-.55.44-.43.33a32.6,32.6,0,0,0,4.14,2.48c1.46.85,3,1.71,4.39,2.71a22.61,22.61,0,0,1-2.4-1.54l3.09,2.36,2.88,2.39c1.92,1.52,3.63,3.19,5.4,4.76s3.34,3.31,5,5,3.18,3.53,4.7,5.47l2.09,1.59,1.39,2.2c3,4.21,5.73,7.91,8.12,11.75l1.81,2.86,1.69,3c1.19,2,2.21,4.09,3.31,6.3a4.89,4.89,0,0,1,.74,2.14,2,2,0,0,0,.07,1.1c.62,1.56,1.2,2.8,1.67,3.9s.87,2.06,1.29,3a53.61,53.61,0,0,1,2.6,6.83c-.42-.81-1.32-2.11-.55.54a4.63,4.63,0,0,1,.95,2.44l-.38-.82a15.41,15.41,0,0,0,.5,2.53l.43,1.62c.13.62.26,1.33.39,2.14,1.23,5.7,2.18,11.19,3.16,16,.18,5.19-.63-.51-.7.49a8.83,8.83,0,0,0-.2-2.73c-.1-.27-.21-.18-.35-.56a13.09,13.09,0,0,1,.2,5.24c.18,2.67.12,3.88.39,6.53-.13-1.33.09-2.48.27-1.23-.06,2.2-.23,7.8-.71,7.46a121,121,0,0,1-2.74,19.7,124.89,124.89,0,0,1-6.16,19.63c-.61,2.23.74-1.58.44-.34-.92,3.23-1.12,2.39-2,4.93l.2-1.11c-1.63,3.61-3.06,7.62-4.71,11.14,0-.71-1.81,2.62-.37-.25-.91,1.67-3.21,3-3.73,4.32.76-.36,1.45-.76,2.19-1.15a6.79,6.79,0,0,1-.62,1.24c-.33.55-.66,1.05-.55,1a39.23,39.23,0,0,0-3.06,3.76c-.57.28,1-2.08,1.87-3.4-.33-.48-3.12,4.25-2.33,2.07-1.73,2.85.51-.24-.42,1.54l-1.79,2.31,1.46-1.73c-1.3,2.06-1.38,3-3.61,5.45l-1.67,3c-.27,0-.67.47-1.14,1.11s-1.09,1.39-1.7,2l.51-1a34.86,34.86,0,0,1-3.21,3.38c.56-1.24,1.43-1.52,1.53-2.18l-1.75,1.83c.19.16-.75,1.49.57.23A24.91,24.91,0,0,1,474,213.7a32.93,32.93,0,0,1-4.17,4.52c-2.23,1.54,1.83-2.26.73-1.79a34.47,34.47,0,0,0-4.42,4.81,21.49,21.49,0,0,1-3.12,3.45c-1.82,1.42-2.68,2.08-3.48,2.84a29.12,29.12,0,0,1-3.51,2.89c1.05-1.09-2.84,1.64-3.69,1.91l1.33-1.31c-1.1.9-2.28,1.58-2.05,1.17.21.09-1,1-2.61,2.08-.8.54-1.69,1.17-2.57,1.72s-1.73,1.07-2.4,1.51h.65c-1.07.66-2.31,1.53-3.64,2.27s-2.69,1.48-3.9,2c-3.54,1.82-2.62,1.65-5.27,3.27-1.67.44-1.65,0-1.26-.53,1-.28,2.63-1.12,4.27-1.75,1.12-.57,2.13-1.2,3.11-1.82l2.86-1.81c1.87-1.22,3.7-2.47,5.91-3.64.69-.94,0-.42-1.16.34a31.37,31.37,0,0,1-3.95,2.38A1.16,1.16,0,0,1,442,238c-.18.11-.35.2-.53.29,1.5-1,3.95-2.54,4.16-3.12-2.54,1.54-1.47,1.78-4.86,3.29a33.79,33.79,0,0,1-6.12,2.57c-.77.51-1.1.92-1.77,1.42a10.11,10.11,0,0,1-1.33.85,17,17,0,0,1-2.42,1.07c.55-.39,1.11-.75,1.64-1.17-4.7,1.92-1.95,1.52-6.36,3.23,1.58-.52-1.36,1,1.61-.14a19.07,19.07,0,0,1-3.14,1.37c-1.3.46-2.73,1-4,1.28-.63.26-.09.19-.16.37,2.82-.58,4.18-1.74,6.56-2.08l1.67-1.19c2.53-.82,2.94-.57,1.49.22a11.47,11.47,0,0,1,1.82-.73c.7.5-3.07,1-3.71,1.86l1.74-.75c.47.07-.52.57-1.92,1.17s-3.24,1.16-4.39,1.57c-2.67.74-5.15,1.28-5.41,1,1.16-.41,2.34-.76,3.49-1.21-1.9.33-4.47,1.51-6.54,2.09a2.84,2.84,0,0,0-.61,0c.11,0,.18,0,.19.05a6.32,6.32,0,0,1-1.21.15,61,61,0,0,1-6.24,1.48l.28.26.2-.21c1.7-.28,4-.69,2.8-.15-3.79,1-4.69.54-5.64.48.79-.65,3.74-.67,5.63-1.3a12.26,12.26,0,0,0-2.91.38,40.09,40.09,0,0,1-5,.79c1.5-.71,4.57-.85,5.34-1.45-3.17.51-3.92,1.1-7.3,1.42.39-.29,3.65-.79,3.38-1.08-.72.1-1.44.13-2.16.19a8.29,8.29,0,0,0,2.11-.45c.21-.1.05-.15-.15-.2-.4-.09-.94-.17,1.07-.63-1.94.19-2.61.87-5.4,1,.79.11,3.05.19.45.76-1,.08-2,.22-3,.26-.64-.07.13-.26.8-.48s1.25-.44.27-.4c-1,.21-2.06.33-3.09.5.12.14,1.63.07.71.37-1.83,0-2.91.91-5.05,1.24a19.48,19.48,0,0,1-3.69,0c-2.14.32-4.6.36-7,.49-2.41,0-4.79,0-6.8.05,2.74-.05-.07-.52-1.66-.9,3.12.24,3.17-.26,3-.57-1.89-.11-3.17.24-2.23.49-3.13-.51-2.22.18-5-.51-1.76-.42,1-.34.36-.6-3.37-.51-1,.43-4.65-.21.21,0,.54,0,.27-.13a15.69,15.69,0,0,0-4.58-.5,9.42,9.42,0,0,0-1.75-.61c-.63-.18-1.28-.34-1.86-.47-1.15-.26-2-.45-1.72-.69-4.74-1,.61.49-.36.46a15.42,15.42,0,0,1-1.73-.3c-.62-.17-1.27-.37-1.89-.58-1.25-.4-2.38-.83-2.92-1,1.15.34,2.25.49,3.33.92l-.86-.7a24.29,24.29,0,0,0-3.09-.91,10.49,10.49,0,0,0-1.67-.28,12.41,12.41,0,0,1-4.56-1.37c2.89.87,1,.06,2.55.29-.91-.13-5.07-2-2.64-.65-2-.88-3.38-1.51-4.74-2.18a48,48,0,0,0-4.91-1.73,44.1,44.1,0,0,1-5.73-3.69c-5.73-3-10.3-6.84-15.72-10.88l.36.34c-4-3.48,1.43,1.94-2.74-1.63.45,0-.12-.55-.95-1.33s-1.81-1.83-2.36-2.54-1.16-1.17-1.72-1.71l-1.6-1.66c-1-1.07-2-2.09-3-3.09a55.84,55.84,0,0,1-5.51-6.72c.12,0,.46.22,1.2,1.16-2.78-3.81-5.05-6.85-7.28-10.45l.15.12c-3.3-5.94-6.56-11.18-9.42-17.65.28.5.52.57.75.95-.33-.83-.7-1.77-1.1-2.76s-.75-2.06-1.15-3.06-.78-2-1.16-2.85a21.53,21.53,0,0,0-1-2.19,18.06,18.06,0,0,0-.93-3.54,27.47,27.47,0,0,1-1-4.44c0-.32.21.5.32.84-.56-2.59-.9-4.44-1.42-7.08-.72-2.87-1.19-4.67-1.7-6.6-.2-1-.39-2-.56-3.16a35,35,0,0,1-.39-4.31c.35-.2.43.86.56,2s.28,2.29.57,2.34a16.45,16.45,0,0,1-.51-4.43c.34,1.12.19.24.49,1,.11-1.45-1.11-5.78-1-5.77-.13-.07-.23.43-.11,1.79a16.83,16.83,0,0,1-.3-4.41c0-1,0-2,0-2.95s.08-1.93.07-2.77c-.07,1.08-.3,4.5-.6,3.22.32-4.51-.32-6-.26-9.23.7-4.13.3,3.12.85,2.37.24-.68.78-2.29.81-.56.24-1.83.26-3.43.37-5s.21-3,.39-4.69l.12.11c.16-1.14.39-2.29.55-3.46s.29-2.33.53-3.46.46-2.23.71-3.28a17.7,17.7,0,0,1,.91-3c-.26.64-.53,1.28-.74,1.93.07-.77.88-3,1-4.29.17.2,1.28-2.62,1.09-1.37,0-1.11.84-3.59,1.68-6.14a48.09,48.09,0,0,0,2.21-6.2c.74-1,.54,0,.52.4a23.87,23.87,0,0,0-2.19,5c1-2.23,1.89-3.77,1.89-3.36.59-2.41,3.17-7.63,3.49-8.88,1.12-1.42,2.1-2.82,2.1-2.08,1.95-3.19,1.23-2.56.54-2.05s-1.26,1,1.16-2.55c2.49-3-1.73,3.4,1.39-.93l-.51.85c1.46-1.33,1.81-1.89,2-2.67a7.88,7.88,0,0,1,1.76-3.37c.77-.12-1.58,2.64.57.5,1.23-1.56,2-2.77,2.84-4a17.93,17.93,0,0,1,3.2-3.71l-.29.61L294.09,60l1-.94,1.06-.92,3.8-3.32c.17,0-.14.22-.48.57,3.81-2.79,1.38-1.44,4.64-3.53l.72-.89c-.82.52-2,1.31-3.22,2.19-.61.44-1.22.9-1.78,1.36A12.48,12.48,0,0,0,298.33,56c1.65-1.87-3.35,2-2.73.91l-.25.46C290,61.11,284.18,67.3,279.26,74c-.62,1.17-1.3,2.17-1.9,3.18s-1.2,2-1.82,2.91A41.1,41.1,0,0,0,272,86.63c.13,1-.36,1-2.23,5.44,1-2.35-.33-.47-1,1a31.58,31.58,0,0,1-.9,3.14c-.63.79-3,6.46-3.19,8.74-.92,2.81,0-.73,0-1.37-.66,1.06-.38,2.39-.84,3.28,0,0-.06-.06,0-.37-.29,1.09-.54,2.08-.79,3s-.41,1.83-.62,2.72c-.41,1.78-.88,3.58-1.21,5.92.27.24.16,1.39,0,2.74a30.54,30.54,0,0,0-.34,4c-.11-.69-.52,2.61-.66,3.94l.35,2.54c.26,2.49-.37,3.45-.12,6.67l.1-.78c0,.59.07,1.42.07,2.36s0,2,.06,3.08c0,2.13,0,4.26,0,5.43a215.26,215.26,0,0,0,6,27.13,101.09,101.09,0,0,0,11.75,26.19c.94,1.17-.31-1.09.53-.24,1.29,1.94,1.52,2.42,2.74,4.15-.92-1.63-.92-1.27-.64-1.17-.67-.85-1.25-1.77-1.88-2.65,0-.16.16.14.07-.17-.61-.9-1.4-1.92-2.09-3.14,1.17,1.64,1.86,1.87,3.15,4.3a6.89,6.89,0,0,1-.78-1c1.16,1.94,1.38,1.93,2.26,3.38,1.09,1.77.92,1.27.91,1.6.58.9,1.13,1.83,1.75,2.72l1.87,2.63a18.62,18.62,0,0,1,1.7,1.84c.56.63,1.09,1.27,1.56,1.87.94,1.21,1.65,2.25,2,2.67-.76-.27-2.89-3.17-4.21-4.15.41.67.86,1.31,1.28,2l.34-.1,2.1,2.59-.17-.1a3.75,3.75,0,0,1,1.21,1.14c.07.14.23.43,0,.18l1.77,1.6c-1.2-.77,1.36,1.59.85,1.61,5.42,5.62,7.48,6.49,12.53,11.13-.76-.83,2.07.87,3.74,2.14.95.76,1.15,1,.43.69l2.39,1.39a21.81,21.81,0,0,0,4.32,3.17c.82.5,1.67,1,2.61,1.57s2,1.08,3.07,1.73l-.31,0c.88.35,1.76.76,2.77,1.19s2.12.92,3.39,1.55l-.61.09c3,1.71,2.69.45,6.11,2.12.12-.34-2-1.43-2.22-1.89.67.68,4.42,2.29,3.64,1.68,3.57,1.21,2.45.91,2.72,1.12l2.16.53c2.49.9.65.74-.35.61a17.84,17.84,0,0,1,1.85.46c.63.16,1.26.34,1.9.55,1.27.41,2.56.9,3.91,1.31-.38,0-.76-.1-1.14-.16,1.17.41,2.38.67,3.57,1,1.22.13,2.63.47,4.15.73s3.1.61,4.62,1l-2.21.06c2.12.67,1.14.06,1.73.09a21.34,21.34,0,0,1,5.93,1.26C370.93,258.2,376.39,259.88,381.2,259.09ZM409.59,3.9l.48.19C408.94,3.91,408.28,3.83,409.59,3.9ZM438,13.66c-3.39-1.32-2.25-1-2.45-1.28l2.2,1,1.88.91c1.2.6,2.37,1.14,3.74,1.93a2.16,2.16,0,0,1-.55-.62,8.31,8.31,0,0,1,2.43,1.72C443.75,16.93,436.73,12.74,438,13.66ZM372.26,3.43l.41-.12h0Zm17.65-.3a5.6,5.6,0,0,0,1.2.31A2.3,2.3,0,0,0,389.91,3.13Zm34.2,7.65a29,29,0,0,0,3.72,1.46C427.25,12,426.24,11.48,424.11,10.78Zm68.16,179.63c.46-1,1.28-2.79.24-1.29-.29.84-1.36,2.17-1.54,2.92l-.12.14A19.33,19.33,0,0,0,492.27,190.41Zm-80.81,62.32c.15-.24.86-.64.33-.66l.3-.06c-.28,0-.51,0-.32-.09a20.52,20.52,0,0,0-2.29.52C409.35,253.14,407.6,253.67,411.46,252.73Z"/><path class="cls-1" d="M442.8,237.49,442,238Z"/><path class="cls-1" d="M409.65,252.41a18.94,18.94,0,0,0,2.14-.34A10,10,0,0,0,409.65,252.41Z"/><path class="cls-1" d="M316.21,16.28l.92-.51-2,.73c-3,1.84-3,2.16-3.62,2.85,1.3-.86,2.4-1.49,3.61-2.14s2.57-1.23,4.36-2.14Z"/><path class="cls-1" d="M318.74,17.46a11.71,11.71,0,0,0,1.7-.45l.38-.4Z"/><path class="cls-1" d="M357.65,6l-3.23.39C353.44,6.75,357.2,6.39,357.65,6Z"/><path class="cls-1" d="M342.68,5.85l-1.63.66a11.82,11.82,0,0,0,3.86-1.13C342.91,6.05,344.37,5.39,342.68,5.85Z"/><path class="cls-1" d="M366.3,4.87c1-.47,3.25-.1,3.88-.52C369.34,4.52,366.42,4.47,366.3,4.87Z"/><path class="cls-1" d="M363.6,1.48c-1.1-.22-2.8.31-4.9.52C360.44,1.75,362.93,1.84,363.6,1.48Z"/><path class="cls-1" d="M383.71,3.11c-.18.27-1.55.24-3.1.17A12.28,12.28,0,0,1,382.16,3c-2.59.21-2.76.13-4.82.3,2.06.15,5.16.34,4.82.67C383.68,3.73,385.6,3.42,383.71,3.11Z"/><path class="cls-1" d="M368.64.94a32.33,32.33,0,0,0-4.93.14c.39.16,1.11.29,3.55.06l-.84.39C368.71,1.58,365.49,1.18,368.64.94Z"/><path class="cls-1" d="M393.1,4.46l-1-.25c-.6,0-1.25,0-1.89,0l-1.92,0a14.47,14.47,0,0,0-3,.17c1.45.06,3.07.1,4.5.1S392.4,4.5,393.1,4.46Z"/><path class="cls-1" d="M377.26,1.07l.32-.46c-2.45,0,.18.14-.69.28a10.93,10.93,0,0,0-2.26.07C377.41.78,374.82,1.31,377.26,1.07Z"/><path class="cls-1" d="M385.31.65l3.15,0L386,0C382.32,0,385.84.27,385.31.65Z"/><path class="cls-1" d="M389.15,1.15l.34.1c1.58-.14,3.17-.16,4.76-.24A37.4,37.4,0,0,0,389.15,1.15Z"/><path class="cls-1" d="M442.35,19.07c.27,0-.16-.32-.54-.59s-.74-.43-.27-.08C441,18.27,444.07,20.23,442.35,19.07Z"/><path class="cls-1" d="M433.79,11.06a32.4,32.4,0,0,0,3.34,1.42c1.42.54,2.87,1.19,3.77,1.54C438.82,13,433.6,10.69,433.79,11.06Z"/><path class="cls-1" d="M441.64,14.32l-.74-.3C441.23,14.16,441.46,14.26,441.64,14.32Z"/><path class="cls-1" d="M500.61,69.23a4.81,4.81,0,0,0,.33.5C500.82,69.55,500.73,69.4,500.61,69.23Z"/><path class="cls-1" d="M499.58,67.55c-.29-.6-.77-1.47-1.24-2.22a7.66,7.66,0,0,0-1.16-1.5l.85,1.28c.27.43.53.86.79,1.3.54.88,1.11,1.79,1.79,2.82C500.15,68.43,499.74,67.37,499.58,67.55Z"/><path class="cls-1" d="M507.15,84.84c-.45-.89-.84-2.17-.9-1.79C506.35,83.6,507.24,85.49,507.15,84.84Z"/><path class="cls-1" d="M482.83,201.76c-1.15,1.3-1.72,2.15-1.21,2C482.82,202.18,482,202.92,482.83,201.76Z"/><path class="cls-1" d="M480.29,205.51l-.25.1c-.3.25-.57.52-.89.75C479.55,206.09,479.91,205.8,480.29,205.51Z"/><path class="cls-1" d="M472,214.19a3,3,0,0,1,.41-.61C472,214.1,471.62,214.54,472,214.19Z"/><path class="cls-1" d="M472.65,213.32l-.22.26Z"/><path class="cls-1" d="M473.26,212.81l0-.2c-.11.16-.36.44-.59.71A2,2,0,0,1,473.26,212.81Z"/><path class="cls-1" d="M469.45,216.69c.64-.43,1.32-.83,1.94-1.29.74-.93.23-.48-.3-.05s-1.11.81-.44-.16Z"/><path class="cls-1" d="M463.66,222.14c-.87.65-1.76,1.66-2.67,2.48a7.91,7.91,0,0,1-2.38,1.71c-2.34,2-1.94,2-1.62,2s.56.11-2.29,2.24c2.84-1.82,3.33-2.59,3.78-3.24s.83-1.25,3.25-3c-1.23.77-.89.43-.16-.2S463.34,222.5,463.66,222.14Z"/><path class="cls-1" d="M465,222.1c.1-.43-2,1.37-2.56,2.07A11.3,11.3,0,0,0,465,222.1Z"/><polygon class="cls-1" points="454.32 229.78 452.67 230.71 452.35 231.13 454.32 229.78"/><path class="cls-1" d="M448.32,233.69l1.38-1.23C449.26,232.88,446.93,234.34,448.32,233.69Z"/><path class="cls-1" d="M439.53,238.38c-1.58.69-2.67,2,.52.22l-.76.35C439.43,238.76,437.58,239.44,439.53,238.38Z"/><path class="cls-1" d="M418.66,248.27c1.15-.34,2.45-.91,2.17-1-1,.4-2,.8-3.07,1.14Z"/><path class="cls-1" d="M419.63,249.71c1.18,0,2.94-1.05,5.07-1.64C422.3,248.81,422.56,248.66,419.63,249.71Z"/><path class="cls-1" d="M414.91,248.76a16.17,16.17,0,0,1,2.93-.9A7.1,7.1,0,0,0,414.91,248.76Z"/><path class="cls-1" d="M409.9,250.2c-1.07.09.17-.28-.63-.2a38.1,38.1,0,0,0-5.85,1.29c.63.06,1.53.37.63.75,3.6-.79,5.23-2,7.1-1.87.93-.49,1.87-.92,2.78-1.46C411.09,249.36,411.88,249.75,409.9,250.2Z"/><path class="cls-1" d="M417.44,249.59l-2,.33c.44.11-1,.58-2,.94C414.13,251.23,416.36,249.93,417.44,249.59Z"/><polygon class="cls-1" points="389.91 253.63 385.75 253.95 387.11 253.92 389.91 253.63"/><path class="cls-1" d="M387.23,253.59l-.12-.15c-1.05.14-2.11.31-3.16.42C385,253.8,386.14,253.68,387.23,253.59Z"/><path class="cls-1" d="M382.87,253.56l.49,0c.82,0,1.63-.13,2.44-.21C384.83,253.47,383.85,253.54,382.87,253.56Z"/><path class="cls-1" d="M374.22,253.26l.75.26c1.06,0,3.15.34,3,0A15.78,15.78,0,0,1,374.22,253.26Z"/><path class="cls-1" d="M344.44,253.6c.79.08.38-.18,0-.44H343.1A6.38,6.38,0,0,1,344.44,253.6Z"/><path class="cls-1" d="M339.67,251.35c-1.06-.23-2.13-.43-3.18-.69a31.26,31.26,0,0,0,3.72,1.22c1,.23,1.87.51,3.43.93-1.28-.5-3.16-.91-4.75-1.58Z"/><path class="cls-1" d="M288.05,214.49c.4,0-.1-.48,1.58,1.21-.56-.59-1.09-1.17-1.61-1.75s-1-1.2-1.45-1.82c-.95-1.25-2-2.51-3.07-4,.22.62-1.61-1.5-.73-.36s1.7,2.19,2.6,3.26l-.54-.38C286.46,213.06,286.22,212,288.05,214.49Z"/><path class="cls-1" d="M291.12,62.86c-.17.36.27.1.7-.16C293.42,60.88,290.8,63.22,291.12,62.86Z"/><path class="cls-2" d="M37.86,162.47c.17-.2.46-.7.31-.66l-.59.8Z"/><path class="cls-2" d="M38.25,160.54a7.27,7.27,0,0,0-1.36,1.79c.62-.74.43-.39,1.15-1.27.15,0,0,.36-.23.66.17-.19,0,.27.4-.22.3-.72.17-.84-.32-.4A3.61,3.61,0,0,1,38.25,160.54Z"/><path class="cls-2" d="M30.49,153.75v.14A.24.24,0,0,0,30.49,153.75Z"/><path class="cls-2" d="M25.46,149.89c.05,0,.12-.06.17-.14A.3.3,0,0,0,25.46,149.89Z"/><path class="cls-2" d="M25.14,148.39s0,.06,0,.09S25.19,148.34,25.14,148.39Z"/><path class="cls-2" d="M30.49,153.75l0-.35C30.33,153.67,30.46,153.65,30.49,153.75Z"/><path class="cls-2" d="M35.78,161.81a1.19,1.19,0,0,0,.22-.17l-.13,0Z"/><path class="cls-2" d="M33.27,154.57l0,0,.26-.32Z"/><path class="cls-2" d="M35.15,155.59a9.32,9.32,0,0,0-.7.95,1.5,1.5,0,0,1,.4-.43A5.26,5.26,0,0,0,35.15,155.59Z"/><path class="cls-2" d="M37.21,158.67l.12-.07Z"/><path class="cls-2" d="M32.08,153.6a2.41,2.41,0,0,0,.14-.27C32.17,153.42,32.12,153.51,32.08,153.6Z"/><path class="cls-2" d="M41.89,130l0,.14C41.92,130,41.91,130,41.89,130Z"/><path class="cls-2" d="M45.29,133.44l0,.05.1.46Z"/><path class="cls-2" d="M24.05,146.42v0C24.15,146.38,24.11,146.38,24.05,146.42Z"/><path class="cls-2" d="M19.09,143.18c-1.48-.42-1.62-.6-3.3-1.05C16.38,142.32,18.09,142.92,19.09,143.18Z"/><path class="cls-2" d="M35.79,161.68a.09.09,0,0,1-.08,0C35.73,161.69,35.76,161.7,35.79,161.68Z"/><path class="cls-2" d="M15.79,142.13h0l-.16,0Z"/><path class="cls-2" d="M20.67,144.86l-.26.28Z"/><path class="cls-2" d="M22.16,147.23v-.14C22.13,147.18,22.14,147.21,22.16,147.23Z"/><path class="cls-2" d="M19.05,145.24c.05-.05.16-.11,0-.07l-.1.06C19.1,145.18,19.17,145.15,19.05,145.24Z"/><path class="cls-2" d="M18.26,144.74l-.21.07h.09Z"/><path class="cls-2" d="M36.58,131.68a7.43,7.43,0,0,1,.26.71C36.67,131.82,36.88,131.55,36.58,131.68Z"/><path class="cls-2" d="M36,161.41c-.12.17-.19.25-.24.27h.08A1.7,1.7,0,0,0,36,161.41Z"/><path class="cls-2" d="M12,148.61l-.32-.35A.75.75,0,0,0,12,148.61Z"/><path class="cls-2" d="M23.84,134.9l0-.11S23.84,134.8,23.84,134.9Z"/><path class="cls-2" d="M10.15,147.45a1.29,1.29,0,0,0,.49-.38l-.33.05C10.25,147.23,10.2,147.34,10.15,147.45Z"/><path class="cls-2" d="M36.85,132.4h0Z"/><path class="cls-2" d="M38.23,130c-.27,0,.13,1.09.23,1.72-.25.38-.34-.76-.59-1.28-.13.33,0,1.36-.2,1.35a1.4,1.4,0,0,1-.12-.46c0,.91-.62.19-.61,1.33a1.61,1.61,0,0,1-.09-.26,15,15,0,0,1,.39,1.47c-.11,0-.06.73-.27,0,.08,0,0-.28,0-.51l-.06.34c-.36-1,.09-.4-.09-1.14-.17.39-.25,1.29-.51,1.05-.28-1,.36-.44-.11-1.26l.39.31c-.6-1.51.2.07-.41-1.55-.45-.2-.31.6-.76.41,0,.57.23.81.27,1.38-.3,1.12-1-2.39-1.11-1,.05.68.32,1.95-.13,1.35l-.17-1.14c-.4,0,.17,1.66-.4,1,0-.45.2-.44.12-.56-.47-.82,0,.68-.22.73l-.29-1c-.35.25-.62,1.07-1,1.36a2.27,2.27,0,0,0-.23-.91c-.43.63-1.21.17-1.89-.29v.9c-.05,0-.19-.36-.17-.54-.29-.27.12.55.1.91-.11.09-.28-.46-.27-.73-.19.81-.66,1.82-1.27,1v-.27c-.39-.27.09,1.84-.39,1.11l0-.17c-.75-.21-1.28.75-2.09-.42.2,1.26-.78-.39-.41,1.34-.58-.76-.55-1.09-1.21-1.54-.16,0,0,1.12-.08,1.35l-.22-.9v1L24,134.51l-.11.28a1.22,1.22,0,0,1,.29.63c-.15.46-.77-.48-.89-.94l-.42.91a2.06,2.06,0,0,1,0-.76c-.09,1-.28-.94-.37,0a4.81,4.81,0,0,1,.14.72c-.28-.51-.61-.43-.8-.14l-.11-.63c-.48-.05-.87.52-1.37.63a2.32,2.32,0,0,1,.35,1.47l-.29-.93c0,.61.24.32.22,1.08-.22-.06-.39-1.05-.36-1.38l-.15.38c-.08-.28-.06-.44-.14-.8.05.61-.62-.86-.51.2l-.08-.28a14.87,14.87,0,0,0-2,.87c.38.77,0,.67.17,1.33-.59-.13-1.59-.57-2.19-.35-.12.46.41.64.61,1.1-.61-.64-1.17-.43-1.3-1-.64.28-.87.36-1.12,1.07a3.14,3.14,0,0,1,.87.52c0,.13-.66-.17-1-.46l0-.07c.13.56-1,.26-2.22,0s-2.5-.37-1.77.27l-.07-.06a5.11,5.11,0,0,0,.41.76c-.59,0-.66-.43-1.69-.67.51.53.11.58-.41.6s-1.14,0-.74.36c-2.36-.59-2.93-.41-3.24-.19s-.38.49-2.41.24l1.22.26c.93.31-.93-.09-1.38-.11.95.2,1.3.18,1.81.35-.16.34-1.25.47-2.83.56,0,.43-.26.88.18,1.47.39.41,6.31.74,4.31,1l-2.28-.28a7.81,7.81,0,0,1,3,1.26,5.72,5.72,0,0,0,2.52,1.12,5.26,5.26,0,0,1-1.07-.06c-1,.24.91.62,1.82.5.07.13-.8.12-1.15.25s2,.21,1.09.46a1.68,1.68,0,0,1-.55,0c.69,0,.67.53,1.7.2-.11.4,1.32.41,1,.79,1.39-.21.2.66,1.85.16-1.66.54-.48,1,.45.83-.53.14-.21.36-.92.59a1.42,1.42,0,0,0,1.55-.17c-.52.64.13.66.61.65s.87,0,.19.78l2,.2.81.11.37.06h.25a1.37,1.37,0,0,1-.42.46l-.14,0-.18-.07c-.24-.1-.47-.19-.89.38A2.88,2.88,0,0,0,17,151c.23-.07.4-.19.58-.26.35-.15.64-.22.78.07s-.38.45-.54.62c.75-.18.81.66,1.61.3a.86.86,0,0,1-.28.26c.1,0,.08.28.4-.24l-.17.09c.36-.83,1.32-1.37,1.59-1.76-1.08,1.4.16.63-1.25,2.37a1.84,1.84,0,0,0,.55-.62c0,.15-.09.37-.43.71.47-.1.72-.71,1-.54a7.25,7.25,0,0,1-.49.6c.45-.41.89-.82,1-.46-.11.14-.21.35-.27.31.43.16,1.48-.9,1.59-.16-.82,1-.09.45-.67,1.41l.4-.14.2-.52c.19.14.8-.44.77,0l-.4.3.48,0,0-.49c.5-.36.74-1.21.83-.78-.12.06.19.14-.07.76h0c.29-.24.59-.49.58-.17s-.69,1-.8,1.24c.6-.72.6.08,1.25-.69a5.15,5.15,0,0,0-.53.78l.49-.59a1.46,1.46,0,0,1-.36.75c.2.29.68-1.25.67-.53-.06,0-.11.14-.22.21.15.47.88,0,1,.49-.52,1-.41.07-.82.94.54.1,1.61-.58,1.88-.09v-.15c.92-1.31-.11.86.5.36a2.86,2.86,0,0,0-.43.56c.15.39.79,0,1.49-.11l-.27.31c0,.42.32.46.4.73.28-.31.34-.19.6-.73-.69,2.32,1.74-.37,1.19,1.58-.07,0-.34.21-.29.24l.62-.05a3.73,3.73,0,0,0,.38-.9c.27-.31.56-.5.66-.44-.43.27-.59.94-.72,1.32.1-.19.26-.37.36-.55-.44,1.18.79-1.15.64-.26l-.21.29c.22-.08.58-.42.64-.26-.38.71-.32.24-.68.8.19.07,1.15-1.07.88-.3-.2.14-.3.08-.49.22-.34.9-.19.71-.15.92v0l.06.55.06-.27c1.34-1.62.64,0,1.66-1-1,.91-.44.6-.95,1.35a2,2,0,0,1-.28.77c.53-.54-.08.63.69-.15-.15.25.13.11-.3.71.3-.08.23-.45.44-.75.81-.67,0,1.43,1.12.52.64-.26,1.23-1,1.81-1.27a2.16,2.16,0,0,1-.66.85c-.06.47.11.48.45.3a2.48,2.48,0,0,0-.38.71c.17,0,.66-.85.6-.37-.21.25-.52.67-.76.91.29-.13.74-.5,1-.62a3.17,3.17,0,0,1-.75.84,1.76,1.76,0,0,0,1.2-.75l0-.31c.08,0-.34.6-.47.7-.49.43-.07-.38.08-.63l.22-.09c.8-1.52-.6-.05-.77-.28l.76-1-.79.72a2.66,2.66,0,0,1,.68-1c.17-.62-.38.29-.15-.38a.39.39,0,0,1,.12-.18l-.35.21c.17-.2.44-.76.44-.54.11-.79-1,.49-.55-.37l.06-.05c-.62.1-.53.75-1.4,1.46l1-2-.53.75s-.06-.16.15-.46c-.49.43-.19.35-.6.79.26-.82-.74,0,0-1.27-.45.54-.11.57-.57.85.78-1.36-.39.07-.18-.65.49-.65.43-.18.64-.9-.85,1.08-.19-.48-.48-.35-.59.91-.57.17-1,.32.22-.3-.15-.81-.17-1.29l.1-.15c-.64.9-.77.57-1.06.65a3.3,3.3,0,0,1,.78-.94l-.17-.1c-.22.27-.38.4-.55.43l.48-.66c-.24-.11-1,.53-1-.12-.43.64-.93,1.95-1.5,2.19a4.62,4.62,0,0,1,.75-1.05c-.05,0-.28.23-.23.05l.49-.52c0-.34-.38.45-.45.33.32-.5.15-.4.42-.79.06,0,0,.26.13.09a1.45,1.45,0,0,1,.18-1c-.17.29-.43.67-.56.68s.31-.65.35-1c-.28.31-.19-.14-.67.61-.06-.05.15-.4.25-.62-.32.26-.59-.25-1,.63V154l0,0h0c-.85.51-.51-.92-1.08-.83l.15-.25c-.4.14-.6-.15-1.1.29-.06-.05.14-.56.36-.84-.29.08-.49.35-.47-.22.45-.33.19-.42.38-.21-.09-.35.12-.78-.55-.25.49-.59.35-.91.12-.79l-.14.56c-.18,0-.24-.11-.31-.23l.59-.8c.2-1.31-1.92,1.22-1.17-.71-.5.51,0,.57-.57,1.19-.13-.25.42-1.59.36-1.64,0-.64-1.05,1.06-1.14.56-.16.32-.63,1.14-1,1.28-.14-.24.54-1.42.83-1.57.06,0,0,.11,0,.21a.69.69,0,0,0,.43-.51l-.22.28c.1-.37-.21-.52.17-1a.64.64,0,0,0-.36.68c0-.61-.41-.28-.5-.75-.06.2-.24.57-.29.54-.16-.62-.54.46-.89.42.14-.56.75-1.06.23-.85,0-.42.48-.82.7-1-.62.42-.23-.68-.3-.88l.29-.15c-.17.09-.24,0-.3,0l-.31.65a.48.48,0,0,1,.09-.45,14.21,14.21,0,0,1-1.08,1.48c.09-.37-.52.12-.05-.7.15.48.48-.82.83-.77-.11.06-.17,0-.18-.14a.39.39,0,0,1,.16-.19c.15-.91-.71.81-1,.59.32-.43.47-.9.35-.84.13.09-.41.79-.75,1.06,0-.49-.39.11-.47,0v.25c-.32.42-.39.29-.62.34.21-.35.28-.15.33-.34-.66.69.16-1-.4-.66.09-.37.53-.85.57-1.11-.62.42.12-.79-.45-.47a1.72,1.72,0,0,1-.76,1l.7-.15-.83.7c.12.09.51-.2.52-.05a1.55,1.55,0,0,0-.59.81c.4-1-.69.3-.5-.44l1-1.49c.07-.42-.24-.36-.46-.17s-.47.39-.42.16l-.14.28c-.47.53-.19,0-.46.16.43-.44.54-.62.79-.89-.32.31-.05-.09-1,.7.17-.2.36-.39.55-.58s-1.67.94-1.73.66c.68-.33,1-.61,1.56-.81,0,0,0-.12-.38.11.36-.21-.95.34-.42,0-.3.12-1,.42-1,.34l.33-.14a7.35,7.35,0,0,0-1.23.47c.9-.52.75-.58.52-.65s-.53-.14.47-.44a3.63,3.63,0,0,1-1-.15c.27,0,.44-.06.37,0,.69-.22-2.71.28-2,0a12.47,12.47,0,0,1,1.45-.12c1.53-.18,1.39-.19,1.06-.2s-.87,0,.05-.12h.22c1.09-.09-1.45-.05-1.38-.17h.54a17,17,0,0,1-3.59-.39c1.59.11.89.09,2.4.14-.29-.06-2.44-.09-3.08-.23.78,0,1.41,0,3.12.08l.21.08c2.14.1-.21-.09.11-.11l1,.08c-.45-.1-3-.36-3.11-.5l-.77-.07c-2.81-.41,1.38.1-.76-.24l2.73.34c-.72-.12-3-.56-3.77-.78,2.3.42,3.54.68,4.85.89a10.82,10.82,0,0,0-1.88-.4c.31.07,1.05.2.63.15-1.52-.26-2.61-.48-3.24-.64-.21-.06-.26-.1-.16-.12a30.2,30.2,0,0,0,3.58.55,10.47,10.47,0,0,1,2.54.4c-.87-.23-.54-.22-.07-.15a5.24,5.24,0,0,0,1,.14c-3.5-1,0,0-3.51-1.08-.12-.09,0-.09.2,0,.77.19,1.5.39,2.2.59,1,.32.65.26,1.39.51.32.06,1.39.46,2.24.75-1.13-.4-1.58-.58-1.13-.43L19,143c-.75-.32-.05-.09.58.15s1.26.5.55.17l.87.38c-.48-.23,0,0-1.87-1.05.3.15,1,.5,1.13.6s-.25-.23-.5-.48-.36-.46.17-.12l.44.35c-.11-.1-.77-.68-.29-.33.17.15.41.36.45.38-.15-.12-.64-.65-.36-.45l.41.42c.31.22.08,0-.17-.41a2.46,2.46,0,0,1-.5-1c.86,1.15,1.2,1.51,1.33,1.7l.09.17c.07.06,0-.19-.09-.55a3.55,3.55,0,0,1-.06-.57c0-.19.14-.41.23-.56.69,1.3,1.34.29,2.1.93a2.2,2.2,0,0,1-.16-1.16c.19.23.15-1,.41.21h-.05c.38,1.13.58.75.8.73L24.17,141c1.11,2.11,1.27-1.18,2.06.76,0-.42.21-.46.25-.88l.2.83a1,1,0,0,0,1.05-.13l.05.61c.27,0-.25-2.46,0-2.56l.38,1.21c.45-.13,1.17.84,1.35-.39,0,.19.11.55.05.61.22,0,1,.64.54-1,.27,1.1.49,0,.62-.55l.16.82c0-1.08-.11-1.37.11-1.73.1.09.22.64.08.45.33.37,0-.81.37-.45l0,.55c.25,0,.16-.27.14-.91.07-.36.5.1.71.83-.08-.46-.09-1.09.1-.91a1.7,1.7,0,0,1,.07.55c.53.45.35-1.09.82-.36a2.49,2.49,0,0,0,.16.48c-.31.05-.58.07-.57,0,.18.75.47.82.52,1.91.07-.62.11-1.93.44-1.64,0,.07.06.14.1.25v.09c.07.07.1,0,.12-.15.11.1.18.18.26.17.18.61.37.27.5.27-.21-.82,0-.73-.33-1.37,0,.05,0,.1-.07.16a.13.13,0,0,0,0,.1v-.08a1.32,1.32,0,0,1-.29.13c0-.44,0-.81.26-.39-.06-.54-.12-1.1-.14-1.37.45,1.1.93,1.64,1.15,2.33.27-.55.83-.52.69-2.12.07-.22.24.41.34.65s-.11.16-.09.39c.12-.45.61-.31.4-1.4.39.42.09,1,.42.76l0,.34c1.16,1.54.54-3,1.91-1a.88.88,0,0,1-.19-.36c1.17.75,1.71-1.38,3-.06.34.24.2-.45.23-1l.27.86,0-1.08c.21-.84,1.2,2,1.35.47l-.2-.58c.2.07.47-.48.61.21,0-.12-.09-.63.05-.34l.12.46.24-.9c.42.25.4,1.84.91,1.81a3.59,3.59,0,0,0,.05-1.76c-.08,0-.26-.24-.37-.7l.11-.28a9.88,9.88,0,0,0-1.16-3.63l-.08.9-.25-.64L44,130c-.29-.59-.24,0-.25.38a2.9,2.9,0,0,0-.29-.69l0,1.36c-.16-.52-.13-1.08-.39-1.33,0,.63.41,1.16.29,1.61-.28-.58-.37-1.1-.4-.53a1.58,1.58,0,0,1-.1-.74c0,.45-.34.26-.24,1-.32-.72-.43.32-.73-1a2.59,2.59,0,0,1-.13,1.16c-.13-1.6-.51,0-.85-1.64.16,1.43-.49.77-.62,1.62,0-.12,0-.35,0-.28-.21-.08-.36-.48-.54-.71a7.34,7.34,0,0,1,.06,2.21c-.48-1.05-.19-1.37-.52-2.41.24.92-.15,1,.11,1.77a4.77,4.77,0,0,1-.54-1.22c.32,1.43-.09.27,0,1.19-.41-.65-.39-1.33-.55-.83A1.63,1.63,0,0,1,38.23,130Zm-5.69,4h0l.12-.08Zm-.52.14a.37.37,0,0,0,.23,0c.09.28.14.57.09.57C32.32,134.5,32.15,134.36,32,134.14Zm2.5,5.41c-.06.14-.13,0-.18-.18a.6.6,0,0,0,.13-.14l0-.1C34.48,139.29,34.51,139.44,34.52,139.55Z"/><path class="cls-2" d="M34.41,138.44s0-.06,0-.07l-.1-.17,0,.26Z"/><path class="cls-2" d="M30.48,153.91v0l0,.11Z"/><polygon class="cls-2" points="24.34 134.35 24.39 134.56 24.39 134.37 24.34 134.35"/><path class="cls-2" d="M31.45,158a.9.9,0,0,0-.08.21A1.56,1.56,0,0,0,31.45,158Z"/><path class="cls-2" d="M32.44,158.82v.35A1,1,0,0,0,32.44,158.82Z"/><path class="cls-2" d="M33.05,159.71l.22-.3h0Z"/><path class="cls-2" d="M19.18,152s0,0-.05,0S19.05,152.11,19.18,152Z"/><path class="cls-2" d="M24.21,152.9a2.62,2.62,0,0,1-.34.25C23.9,153.25,24,153.3,24.21,152.9Z"/><path class="cls-2" d="M12,148.65h0l0,0Z"/><path class="cls-2" d="M23.69,153c0,.19.06.2.18.13C23.84,153.07,23.82,153,23.69,153Z"/><path class="cls-2" d="M36.49,162.35l0,.05.07-.11Z"/><path class="cls-2" d="M36.58,162.29l.1,0S36.64,162.22,36.58,162.29Z"/><path class="cls-2" d="M36.89,162.12l-.21.12S36.74,162.31,36.89,162.12Z"/><path class="cls-2" d="M35.58,161.31l-.17.25A2,2,0,0,0,35.58,161.31Z"/><path class="cls-2" d="M35.2,161.17c0,.11-.15.68.07.59l.14-.2C35.11,161.91,35.55,160.79,35.2,161.17Z"/><path class="cls-2" d="M35.82,157.09l.15.38c.13-.3.3-.71.47-.7C36.61,155.72,36.12,157.43,35.82,157.09Z"/><path class="cls-2" d="M35.2,156.13c.23,0,.25-.4.36-.55C35.3,155.77,35.24,155.82,35.2,156.13Z"/><path class="cls-2" d="M28.86,152.08l.43-.64C29.12,151.46,29.13,151.69,28.86,152.08Z"/><polygon class="cls-2" points="25.52 154.65 25.38 155.13 25.81 154.57 25.52 154.65"/><polygon class="cls-2" points="27.74 149.59 27.85 149.53 27.51 149.64 27.74 149.59"/><path class="cls-2" d="M19.38,144.57l-1.22.35A6.23,6.23,0,0,0,19.38,144.57Z"/><path class="cls-2" d="M15.6,143.3c1,.1,1.68.16.58,0C16.07,143.31,15.29,143.25,15.6,143.3Z"/><polygon class="cls-2" points="24.72 142.06 24.69 142.39 24.83 142.09 24.72 142.06"/><path class="cls-2" d="M220.87,143.54c0-.28-.38-.75-.6-.5l.3,1Z"/><path class="cls-2" d="M218.08,143a2.67,2.67,0,0,0,.62,2.22c-.15-1,.13-.7-.09-1.88.22-.25.65,0,.78.35,0-.27.54,0,.38-.67-.75-.46-1.22-.24-1.38.57C218.18,143.43,218.15,143.15,218.08,143Z"/><path class="cls-2" d="M189.69,154.45l.23,0A.37.37,0,0,0,189.69,154.45Z"/><path class="cls-2" d="M171.51,159.47a.23.23,0,0,0,.15-.26C171.55,159.31,171.46,159.39,171.51,159.47Z"/><path class="cls-2" d="M168.13,159.13l.2,0C168.23,159.08,168.15,159.05,168.13,159.13Z"/><path class="cls-2" d="M189.69,154.45l-.58-.13C189.19,154.64,189.44,154.46,189.69,154.45Z"/><path class="cls-2" d="M215.51,147.12a.77.77,0,0,0,.12-.36l-.18.22Z"/><path class="cls-2" d="M197.13,150.66l.14-.06a2.12,2.12,0,0,0,0-.42Z"/><path class="cls-2" d="M202.89,148c-.14,0,.17.81.27,1.17a.87.87,0,0,1,0-.66A2.57,2.57,0,0,0,202.89,148Z"/><path class="cls-2" d="M212.62,144.81l.1-.19S212.65,144.74,212.62,144.81Z"/><path class="cls-2" d="M192.85,152.21a2.11,2.11,0,0,0-.16-.26A.76.76,0,0,0,192.85,152.21Z"/><path class="cls-2" d="M16.61,148.76s0-.09.06-.14S16.56,148.74,16.61,148.76Z"/><path class="cls-2" d="M11.53,141.79h.11l.24-.41Z"/><path class="cls-2" d="M162.2,159.35h0C162.36,159.23,162.28,159.27,162.2,159.35Z"/><path class="cls-2" d="M108.87,163.44c.57.79-1.05.9-.18,1.8C108.62,164.9,109.6,164,108.87,163.44Z"/><path class="cls-2" d="M215.3,147.11a.86.86,0,0,1-.23.13A.41.41,0,0,0,215.3,147.11Z"/><path class="cls-2" d="M108.69,165.24h0l.09.09Z"/><path class="cls-2" d="M149,162a1.37,1.37,0,0,0,.19.34A.85.85,0,0,0,149,162Z"/><path class="cls-2" d="M159.14,161.64l-.27-.07A.56.56,0,0,0,159.14,161.64Z"/><path class="cls-2" d="M144,163.81c-.14-.06-.2-.17-.37,0a.36.36,0,0,0,.07.1C143.72,163.75,143.81,163.69,144,163.81Z"/><path class="cls-2" d="M138.54,164.3l.11.16.17-.06Z"/><path class="cls-2" d="M32.58,154.66a3.66,3.66,0,0,1,0-.81C32.48,154.45,31.63,154.37,32.58,154.66Z"/><path class="cls-2" d="M215.28,146.71c.07.2.08.31,0,.4s.1-.09.15-.13A.57.57,0,0,0,215.28,146.71Z"/><path class="cls-2" d="M144.43,170.44l-.91,0A3,3,0,0,0,144.43,170.44Z"/><path class="cls-2" d="M71.17,165.39l-.22.06A.16.16,0,0,0,71.17,165.39Z"/><path class="cls-2" d="M140.89,170.76a1.36,1.36,0,0,0-.55-.53.63.63,0,0,0-.08.22Z"/><path class="cls-2" d="M32.6,153.85Z"/><path class="cls-2" d="M26.41,153.68c.79.33.76-.87,1.16-1.4,1.05.07.14.93.26,1.58.7,0,1.51-.82,1.94-.62,0,.18,0,.27-.15.45.93-.6,1.87.64,3-.14a.76.76,0,0,1,0,.3,5.62,5.62,0,0,1,.4-1.48c.36.12.9-.42.79.32-.21-.1-.33.16-.51.34l.48-.16c0,1.1-.63.15-.89.88.84-.05,2-.56,2.43-.1-.22,1-1.42-.12-1,1l-.74-.68c.12,1.76-.48-.29-.45,1.55,1,.69,1.45,0,2.49.63.44-.45.19-.82.63-1.27,1.94-.41.45,2.86,2.08,2,.53-.54,1-1.72,1.69-.8l-.66,1c1.08.46,1.15-1.37,2.08-.26-.35.36-1,.08-.87.27.48,1.1.74-.45,1.32-.27l-.19,1c1.24.22,2.75,0,4.13.17-.16.27-.48.5-.27.89,1.82,0,3.52,1.18,5,2.24l.86-.68c.14,0,.16.46,0,.58.54.49.18-.53.58-.78.38,0,.34.62,0,.81,1.32-.41,3.59-.69,4.52.54l-.3.2c.83.59,1.49-1.47,2.13-.47l-.2.11c1.9.87,4.28.63,5.5,2.29.57-1.15,1.86,1,2.38-.69.95,1.1.55,1.34,2,2.27.42.18.88-.94,1.45-1l-.18.91.92-.79.16,1.17.55-.13a.74.74,0,0,1-.26-.75c.87-.24,1.79,1,1.71,1.48l2-.41c-.11.36-.44.42-.74.61,1.18-.74,0,1,1.07.32-.08-.23.17-.53.23-.71a2.3,2.3,0,0,0,2.19.75l-.26.6c1.35.45,3,.21,4.53.49-.51-.39-.2-1.46.27-1.49l0,1c.4-.55-.41-.44.31-1.07.56.2.21,1.16-.17,1.41l.76-.21c0,.29-.2.42-.3.78.38-.56,1.07,1.16,1.65.19v.3a31.32,31.32,0,0,0,3.6.16c.14-.84.61-.58,1.09-1.21.89.39,1.84,1.19,3,1.26.84-.31.32-.67.74-1.12,0,.77,1.09.84.44,1.31a8.93,8.93,0,0,0,3.54-.38c-.15-.33-.35-.49-.21-.74.32-.09.67.39.59.76l-.09.07c2-1,4.23,2.68,5.92,1.22l-.1.08,1.67-.73c.72.18-.49.55,0,1.06,1.82-1.16,2.71.37,4.19-.39.48,1.16,1.46,1.19,2.49,1.11s2.12-.32,2.84.43l-.06-.54c.4-.51.45.32.73.45,0-.41-.4-.49-.15-.77a12.85,12.85,0,0,1,5,.36c1.69.34,3.4.79,5.08,1,1.23.14.66-2.76,2.22-1.5l-.42,1c2.44-1.16,5.06-.12,7.43-1.23-.13.24-.12.54-.36.54.55.7,1.89,0,1.87-.64.38.05.11.53.36.81.54.4,1.23-1,1.55-.27.05.11-.13.24-.22.3.31-.35,1.56,0,1.18-.82.94.31,1.7-.53,2.46-.1.39-1,1.59.3,1.62-1,.06,1.36,1.69.95,2.19.26-.15.43.54.38.38,1,.65-.08,1.22-.39,1-1.07,1.39,1.53,2.25-1.6,3.17.39A33.06,33.06,0,0,1,154,167.5c.14,1.35-1.89.39-1.61,1.79,1.57-.79,2.34-2,4-2,.45.1-.14.62-.25.87,1.54-.85,3.18-.45,4.5-1.44,0,.12-.11.28-.24.41.28-.09.7.08.55-.52l-.24.21c-.62-.79.78-2,.74-2.51-.15,1.82,1.51.18,1.17,2.5a.85.85,0,0,0,.22-.87c.3.07.44.29.24.8,1-.52.47-1.09,1.39-1.25.06.29-.1.44-.13.8.36-.65.7-1.32,1.53-1.26,0,.19.13.4-.11.45,1.32-.4,1.93-2,3.5-1.83-.13,1.36.59.3.93,1.37l.71-.51-.45-.46c.7-.14,1.1-1.07,1.78-.85l-.4.56,1.23-.5-.82-.24c.55-.73-.42-1.36.56-1.27-.16.15.68-.14,1.2.41h0c.24-.44.49-.9,1-.78.23.31.22,1.23.37,1.43.08-1,1.51-.7,1.66-1.78a1.82,1.82,0,0,0,.15.93l.07-.81c.38.14.46.24.54.71,1-.14-.69-1.28.59-1-.07.08,0,.18-.15.34,1.21,0,2-1.08,3.16-1,.64,1-.82.52-.19,1.33a12.28,12.28,0,0,0,2.06-1.34,5.07,5.07,0,0,1,2.09-1.11l-.3,0c-.3-1.58,1.3.38,1.78-.58-.14.17,0,.91,0,.73,1.05-.09,1.86-1.06,3.15-2l0,.45c.69.15,1.57-.32,2.25-.36,0-.45.42-.51,0-1,2.71,1.44,3.08-2.6,5.45-1.46-.2.08-.34.52-.18.46l1.26-.93c-.37-.59-.34-.31-.84-.69a1.24,1.24,0,0,1,.63-1c-.45.68.44,1,.86,1.27-.13-.17-.12-.43-.23-.62,1.21.84-.43-1.33.9-1l.09.36c.3-.32.45-.9.89-1,.49.66-.25.5,0,1.12.56-.27.5-1.85,1.32-1.37-.14.31-.48.48-.62.79.93.61.89.35,1.36.3h-.05l1.12-.06-.35-.12c-.17-2.23,1.26-1,1.61-2.7-.36,1.6.16.75.48,1.6.35.12.83.2.84.48.13-.87,1,.17,1.15-1.1.16.25.49-.2.71.51.48-.48-.36-.39-.47-.75.44-1.31,2.63.09,3.29-1.74.81-1.08.55-2.07,1.3-3,.55.23.23,1.09.23,1.09a1.32,1.32,0,0,0,1.45-.77c0,.28.22.41.54.61.37-.29-.24-1.08.5-1a4.63,4.63,0,0,1,.16,1.26c.35-.5.56-1.24.93-1.74.38.37.07.84.06,1.22.45-.5,1.23-1.2,1-2l-.5-.06c.19-.14.45.55.37.76-.17.81-.83.13-1-.11l.26-.36c-1.19-1.3-1.27,1-2,1.32l-.3-1.25-.23,1.3c-.31-.2-.74-.75-.48-1.11-.8-.27-.24.64-1,.27a.17.17,0,0,1-.08-.2l-.32.6c0-.29-.49-.74-.1-.74-1.22-.16-1,1.61-1.76,1l0-.11c-1,1,.3.89-.16,2.31l-1.65-1.72.28.88a.4.4,0,0,1-.55-.25c-.2.79.26.31.25,1-1-.45-1.57,1.17-2.35-.07.08.73.84.2.38,1-.87-1.32-.66.61-1.55.24-.17-.82.56-.69-.32-1.07.24,1.4-1.24.26-1.61.72.44,1-.86.91-1.51,1.63-.06-.18-.49-.12-1-.05a11.43,11.43,0,0,1-1.68.13l-.05-.18c.29,1.08-.59,1.21-1.08,1.66a1.39,1.39,0,0,1,0-1.3l-.54.23a1,1,0,0,1-.39.88l-.18-.82c-.7.34-1.09,1.49-2.22,1.36.23.74,1.54,1.68.73,2.57-.19-.37-.49-1-.29-1.28-.07.08-.18.44-.41.35l.14-.81c-.54-.12,0,.63-.38.71-.21-.56-.4-.29-.53-.75.07-.09.39.11.43-.16a1.6,1.6,0,0,1-1.32-.44c.15.3.29.74,0,.93-.71.34-.51-.56-1-.68,0,.46-.63.25-.33,1.08-.22.07-.41-.3-.57-.5-.25.5-1.75.72-1,1.46l.12,0s0,0-.05.06h0c-1,1.27-2.78.43-3.89,1.22l-.1-.28c-.63.58-1.59.76-1.92,1.56-.22.07-.69-.34-.7-.71-.5.4-.46.77-1.44.55.43-.67-.33-.37.48-.54-.82,0-1.13-.43-1.69.58,0-.81-.85-.75-1.13-.43l.68.36a2.43,2.43,0,0,1-1.11.3l-.1-1c-1.85-.73-2.18,2.78-3.89,1.16-.22.79,1,.23.82,1.12-.75.08-1.85-1.09-2.07-1-1.1-.27-.52,1.69-1.64,1.56.22.31.59,1.2-.1,1.71-.75,0-1.25-1.25-.87-1.63a.2.2,0,0,1,.3.14c.2-.18.46-.4.09-.7v.36c-.44-.27-1.41,0-1.32-.62-.45.45-.09.62.35.7-1-.28-1.43.32-2.44.21.19.15.42.53.27.56-1.48-.11-.45.8-1.36,1.17-.65-.4-.09-1.31-.93-.64-.66-.23-.33-.9-.16-1.23-.71.87-1.69-.07-2.2-.08l.39-.39a1.26,1.26,0,0,1-.68.33l.4.64c-.29-.06-.51,0-.56-.31-.18.51.45,1.12,0,1.85-.43-.29-1,.58-1.32-.33,1.18.11-.31-.9.6-1.23a.68.68,0,0,1-.67.11.21.21,0,0,1,.06-.26c-1.23-.64-.28,1.13-1.4,1.31,0-.54-.44-.94-.6-.8.44-.07.38.84,0,1.31-.79-.27-.72.45-1.1.47l.46.11c0,.55-.42.55-.89.81-.11-.4.41-.37.2-.51-.4,1-1.42-.73-2.09,0-.41-.29-.2-1-.55-1.16-.75.83-1.05-.54-1.86.17.38.67.4.49-.14,1.27.48-.22.95-.49,1.41-.75l-.79,1.2c.46-.07.88-.61,1.17-.54-.36.66-.34.47,0,1-.79-.94-1.13.85-2,.22l-.24-1.76c-1.2-.63-1.78,1.16-3.25.91l.49.24c-.09.72-.85.22-1.27.56,0-.59-.34-.77-.58-1.11.07.44-1,.1-1,1.29l-.72-.69c-1.17-.18-1.1,1.88-2.22,1.77.26-.67-.28-1,.4-1.56-.37,0-.71,0-.67.35-.25-.35-.93.89-1.32.36-.13.27-.12.89-.54.88a.62.62,0,0,1,0-.29c0,.29-.61.45-.19,1.07-1.3-1.73-3.15.42-4.27-1.07a11.3,11.3,0,0,1-2.45.62c0-.18,0-.29.12-.24-1-.5-.51,1.73-1.7,1.17-.64-.93.58-.54.2-.89-.27-1.94-1.37.33-2.19-.77l.18-.12c-.62-.64-1.4.8-2.37.71a.64.64,0,0,0,0-.29,4.7,4.7,0,0,1-2.78,1.71c.27-.77.41-.41.22-1.18-.42.11.15,1.24-.68,1.46-.28-.41-.88-.77-1-1.6l.78,0c-.42-1.07-1,0-1.42-.14l0-.47c-1.18.17-1.19,1.34-2.48,1.27l.14.35c-.71,1.17-.6-.65-1.3.22l-.21-1.18a10.44,10.44,0,0,1-2.47,1.38,7.75,7.75,0,0,1,2.06-1.86c-.45,0-1.55.1-1.8.69.19-.12.42-.41.6-.23a2.36,2.36,0,0,1-2.24,1.32c.21-2.29-2.38-.65-3-2.45-1.64.78-3.18-.41-5.06-.43.57,1.83-.55,0-.53,1.86-.45.09-.62,0-.65-.08l-1.26-1.18c-.28-.55.44-.37.43-.79-1-.2-.35-.8-1-1.33.08.66-.4.92-.92.63l.71.9c-1.41.88-1-1.62-2.46-.74l.47-.55c-.72.31-2.53-.19-3.34,1.19-.1-.22-.22-.74.1-.84-1.62-.38-3.82,1.19-5,.16l.17-.43c-.32.1-.63.78-1,.3,0-.19.17-.44,0-.48-.18.14-.91.71-1.29.39l.41-.46c-1.53-.79-2.6.9-4,1,.18-1.31-1-1.9-1.62-2.19l.05-.19c-1.83-.39-3.31.63-5.12.86-.84-1.6-3.52-1.16-5.09-2.27.22.28-.22,1-.55,1.07-.36-.34-1.28.69-1-.49l.13.05c-.08-1.23-1-1.07-1.59-1.23l-.41,1.54c-1.24-2.58-4.59,0-5.08-2.28-.48.3-1,.19-1.47.49l.21-.83a7.66,7.66,0,0,0-3-.79l.42-.53c-.76-.23-1.54,2.17-2.27,2L64.5,157c-1.36-.31-2.46-1.73-4.08-1,.07-.17.2-.52.43-.51-.63-.19-2.24-1.44-2.45.29.27-1.1-1.35-.48-2.21-.2l.33-.78c-.9.87-1,1.14-1.93,1.19-.18-.16,0-.69.21-.41-.56-.61-.74.62-1.44,0l.45-.43c-.68-.25-.7,0-1.26.54-.53.21-1.26-.59-1.16-1.34-.22.41-.77.89-1.12.56a.63.63,0,0,1,.32-.48c-1-.89-2,.42-2.56-.6a.9.9,0,0,0,0-.52,5.94,5.94,0,0,1,1.55.59c.22-.74-.48-1.09.41-1.93-.75.38-2.14,1.28-2.76.72a1.21,1.21,0,0,1,0-.28l.1-.06a.45.45,0,0,0-.5,0,1.4,1.4,0,0,0-.53-.4c.11-.64-.74-.6-1.09-.75-.23.81-.67.53-.43,1.34,0-.08.1-.08.36,0a.52.52,0,0,0,.18,0l0,.06c.25,0,.57.14.94.24-.42.31-.83.56-1.1,0-.35.46-.73.92-.93,1.14-.15-1.29-.93-2.2-.84-2.94-1.27.1-2.73-.55-3.94.7-.38.09-.22-.55-.26-.83.23-.09.44,0,.62-.17-.77.17-1.93-.5-2.45.5-.64-.75.78-.81-.38-1l.26-.27c-1.56-2.39-4.46,1.4-6.07-1.59a.62.62,0,0,1,.14.47c-2.35-1.95-5.93-1.27-8-3.83-.62-.61-1,0-1.64.31l.19-.9-1.19.63c-1.42.24-1-2.86-3-2.15l-.07.64c-.45-.32-1.72-.39-1.35-1-.1.08-.43.5-.49.12l.19-.43-1.56.17c-.79-.75,1-1.63-.37-2.36-.57-.08-2,.55-2,.92a.78.78,0,0,1,.18.95h-.57c-.72,1.2-1.76,2.28-1,3.76l1.2-.37,0,.74-.71-.3c.11.77.61.38,1.05.16a1.16,1.16,0,0,0,0,.84l1.38-.83c-.14.54-.83.82-.41,1.34.64-.39.15-1.28.95-1.36.13.76-.2,1.18.49.9a.71.71,0,0,1-.53.58c.59-.21,1.17.33,1.68-.26.1.9,1.48.43.91,1.62a2.44,2.44,0,0,1,1.54-.51c-1.32,1.16,1.39.69.54,2.17,1.08-1.09,2.12.22,3.34-.15-.09.09-.28.26-.34.16.48.32.46.77.7,1.16.51-1.06,1.41-1,2.11-1.49.21,1.31-.89,1.13-1.1,2.22.32-.9,1.46-.44,1.53-1.26.23.84.3.48.19,1.48.62-1.33.55-.05,1.28-.74.44,1-.32,1.35.62,1.24C27.29,153.46,26.41,153.68,26.41,153.68Zm19.51,4h0l-.41-.07Zm1.59.46a3.8,3.8,0,0,0-.68-.24c0-.29.18-.56.33-.5C47,157.59,47.34,157.86,47.51,158.17Zm-1.6-6.59c.28,0,.31.14.29.32a2.58,2.58,0,0,0-.45,0l-.06.09A1.57,1.57,0,0,1,45.91,151.58Z"/><path class="cls-2" d="M45.14,152.49a.42.42,0,0,1-.12,0c0,.08.06.16.09.22l.16-.22Z"/><path class="cls-2" d="M190,154.5h0l.11.09A.25.25,0,0,1,190,154.5Z"/><polygon class="cls-2" points="69.28 165.41 69.32 165.2 69.14 165.35 69.28 165.41"/><path class="cls-2" d="M199.42,153.86a.54.54,0,0,0,.2.16A.72.72,0,0,0,199.42,153.86Z"/><path class="cls-2" d="M203.12,152.49l.63,0A2,2,0,0,0,203.12,152.49Z"/><path class="cls-2" d="M206,151.56a1.88,1.88,0,0,0-.1-.35h0Z"/><path class="cls-2" d="M160.36,167.15a.24.24,0,0,0-.11.06C160,167.42,160.18,167.33,160.36,167.15Z"/><path class="cls-2" d="M174,162.18a2.37,2.37,0,0,1-.35.49C173.88,162.68,174.07,162.65,174,162.18Z"/><path class="cls-2" d="M144.53,170.45h0Z"/><path class="cls-2" d="M173,162.81a.57.57,0,0,0,.65-.14A.87.87,0,0,0,173,162.81Z"/><path class="cls-2" d="M217.92,145.88l.15,0a.31.31,0,0,1,0-.13Z"/><path class="cls-2" d="M218,145.72l.09-.17C218,145.59,218,145.63,218,145.72Z"/><path class="cls-2" d="M218.31,145.2l-.2.35C218.21,145.5,218.36,145.45,218.31,145.2Z"/><path class="cls-2" d="M214.21,147.48l.1.29A1.1,1.1,0,0,0,214.21,147.48Z"/><path class="cls-2" d="M213.18,148.14c.28-.07.94.23,1.21-.14l-.08-.23C214.35,148.27,213.18,147.56,213.18,148.14Z"/><path class="cls-2" d="M207,147l1-.22c-.3-.21-.7-.51-.33-.77C206.07,145.71,208.2,146.58,207,147Z"/><path class="cls-2" d="M204,147.94c.42-.37-.21-.43-.26-.61C203.51,147.75,203.47,147.85,204,147.94Z"/><path class="cls-2" d="M183.11,156.16l-.18-.75C182.57,155.65,183,155.7,183.11,156.16Z"/><polygon class="cls-2" points="180.14 161.2 180.67 161.54 180.66 160.81 180.14 161.2"/><polygon class="cls-2" points="176.17 156.65 176.31 156.5 175.73 156.96 176.17 156.65"/><path class="cls-2" d="M139.45,163.47l.2.93C139.91,164.21,139.88,163.14,139.45,163.47Z"/><path class="cls-2" d="M123.28,165.12c-.18-.48-.63-.78-.91-.31C122.73,164.87,123.1,165.24,123.28,165.12Z"/><polygon class="cls-2" points="75.07 158.85 75.45 158.6 74.8 158.74 75.07 158.85"/><path class="cls-1" d="M420.51,204.42c.15-1.06,0-.34-.22-.22Z"/><path class="cls-1" d="M420.29,204.2l-.15-.16C420.18,204.21,420.23,204.24,420.29,204.2Z"/><path class="cls-1" d="M418.84,203.44c.36-.82.73.33,1-.95C419.47,201.72,419,202,418.84,203.44Z"/><polygon class="cls-1" points="419.33 204.29 419.39 203.59 419.07 204.68 419.33 204.29"/><polygon class="cls-1" points="419.54 204.93 419.5 204.68 419.02 205.39 419.54 204.93"/><path class="cls-1" d="M417.72,202.91l.34-.19c.29,1-.24,1.28-.05,1.93.43,0,.2-2,.72-1.66,0-.9-.84,0-.72-1.43C417.59,201.1,418,202.4,417.72,202.91Z"/><path class="cls-1" d="M396.66,209.19a.47.47,0,0,0,0-.14C396.63,209.2,396.64,209.31,396.66,209.19Z"/><path class="cls-1" d="M390.9,209.65a.87.87,0,0,0-.2-.31,3.42,3.42,0,0,0,.05.39Z"/><path class="cls-1" d="M400.43,206.83a1.56,1.56,0,0,0,.19.37C400.59,207,400.54,206.85,400.43,206.83Z"/><path class="cls-1" d="M365.38,197.65c0-.1.06-.23.1-.41v0l-.12.37Z"/><path class="cls-1" d="M384.32,211.18a.41.41,0,0,0-.27.12A.2.2,0,0,0,384.32,211.18Z"/><path class="cls-1" d="M402.47,206.88l-.08,0a.51.51,0,0,0,.09.16v-.14Z"/><path class="cls-1" d="M392.57,211.74c-.06-.11-.13-.19-.19-.19A.34.34,0,0,0,392.57,211.74Z"/><path class="cls-1" d="M412.65,201.09c-.09-.13-.18-.05-.26.12S412.52,201.47,412.65,201.09Z"/><path class="cls-1" d="M410.65,201.13h0C410.66,201,410.65,201,410.65,201.13Z"/><path class="cls-1" d="M409.38,200.92l0,0C409.4,200.76,409.39,200.73,409.38,200.92Z"/><path class="cls-1" d="M412.39,201.21c-.13-.57-.08-2.37-.4-.41l0,.26c-.11-.45-.34.31-.49.36a3.33,3.33,0,0,0,0,.48,1.15,1.15,0,0,1,.31.23C412,202.55,412.2,201.62,412.39,201.21Z"/><path class="cls-1" d="M396.71,208.83c0,.36.14.19,0,0Z"/><path class="cls-1" d="M398.58,207.5a.46.46,0,0,0-.16-.07C398.47,207.5,398.52,207.58,398.58,207.5Z"/><path class="cls-1" d="M405.11,208.53l0-.08C405.06,208.65,405.09,208.62,405.11,208.53Z"/><path class="cls-1" d="M398.26,207.4a.29.29,0,0,1,.16,0C398.38,207.35,398.33,207.3,398.26,207.4Z"/><path class="cls-1" d="M403.22,207.32s0,0,0-.06A.08.08,0,0,0,403.22,207.32Z"/><path class="cls-1" d="M341.26,186.15c.16-.13.08.39.14.57.62-1.17-.48-.18.2-1.18-.11,0-.24.11-.37.26L341,187C341.37,186.63,341,186.58,341.26,186.15Z"/><path class="cls-1" d="M364.18,194.86l0,.12c0-.56.11-.73-.05-1.06-.32.82-.24,2.14-.7,3,.07-.08.16,0,.23.1A6.1,6.1,0,0,1,364.18,194.86Z"/><path class="cls-1" d="M363.7,197v.38c.05,0,.08.06.11.15A1.25,1.25,0,0,0,363.7,197Z"/><path class="cls-1" d="M345,187.77l.1.14C345.07,187.67,345,187.66,345,187.77Z"/><path class="cls-1" d="M386.42,195.63a2.67,2.67,0,0,0,.22-.36A.57.57,0,0,0,386.42,195.63Z"/><path class="cls-1" d="M367,196.53a.55.55,0,0,0,.13.22s.06,0,.1,0Z"/><path class="cls-1" d="M354.79,206.54c.37-1.36-.1.09-.18-.75l-.34.69C354.42,206.74,354.64,206.55,354.79,206.54Z"/><path class="cls-1" d="M341.25,185.71l0,.12,0,0Z"/><path class="cls-1" d="M348.55,205.62l-.06-.21A.35.35,0,0,0,348.55,205.62Z"/><path class="cls-1" d="M364.8,197.82l.76.2-.18-.37C365.17,198.32,365,197,364.8,197.82Z"/><path class="cls-1" d="M358,207.94l-.07.85c1.09-1.65,1.57,1.05,2.61-1.35.49,3.11,1.06-2.54,1.51.25l0-.43c2.8,1,5.66,3,8.56,1.89l-.08.6c4.23,1.61,8.63.88,12.89,1.82.46-.5.36-1.84.78-2.46.14.07.49,0,.41.76-.33.37-.24,1-.37,1.31.49,0,1,.89,1.56,0l-.26-1c.21-.37.44-.08.59,0-.11.47,0,1.53-.16,1.74,1.16-2.25.61,1.08,1.48.24a15.33,15.33,0,0,1,2.26-4.9l.28.55c-.44-.06-.14,1.47-.68,1.31.4.63.91-.19,1.31.17A2.35,2.35,0,0,1,391,208c.24.3.16,1.31.45,1.44l-.36.6c.13.78.4-.2.6-.3,0,.84.42,1,.25,2,.52-1.1.6-.44,1.11-1.13-.37-.92.22-1.09.23-1.79l-.54.28c.67.63-.25.13-.33,1.56-.28-.69.69-2.31.1-2.14.75-.66.83,0,1.64-1.13-.45.23.17-.92,0-1.38.54,0,.09.51.17,1.45.29,0,.32.81.69-.23.43.48-.17,1.07,0,1.67-.26,1-1.2-1.33-1.36,1.83-.25,0-.67,1.18-1,1.09.27.44.62,1.52,1.08.83l.18-1.77c.3,0,.47-1.22.66-1-.16.5,0,1.27.22,1.14,0-.25-.14-.2-.09-.51.45-.09.62-1.3,1.17-1.58A7.29,7.29,0,0,1,395,207c.22-1.23.29-.15.54-.28a.68.68,0,0,0-.06.45l.31-.58c.48.58-.23,1.79.15,2.43.21,1.07.47-.54.64.07v-.32a.19.19,0,0,1,.1.1v-.09c.29-.16.59,0,.75-1,0,.42.25-.1.37-.38s.66-1.43.76.08c0,0,0,0,0,0a1.12,1.12,0,0,1,.45,1.2l.54.42-.16,1.2c.54-.28.55-1,1-2.21.31.75,1,.22,1.28-.21,0,0,.1.06.21,0l-.18-.49c.4.08.4-.56.67-.55-.05-.11-.05-.18.08,0l.15.1c0,.13-.09.1-.14,0l0,.4c.22,1.31.55-.69.85-.21,0,0-.1.12-.13.11.17.34.32,2.07.47,1,0,.14.12-.06.21-.32l.13.19a.59.59,0,0,1-.13-.19c.12-.34.23-.77.22-.51l.48.25c.08.18.22,0,.33-.12l.05.51c.19-.06.17.23.13.37.5,1.79,1-.82,1.6.74a4.82,4.82,0,0,0,0-1.68,7.28,7.28,0,0,1,.79-1.63c.22,1.17,1.08,2.26.82,3.92.55.16-.1-1,.21-1.6l.06.07a3.34,3.34,0,0,1-.36-1.44c0-.91.53-1.14.66-.87l-.19,1.28c.54-.42.56-2.35,1-3.62.37.54.06,1.69.08,2.84l.45-.29-.06,1c.29-.24.41-1.13.77-.73-.33.89.53.93.07,2.13.2.34.37-1.53.4-.23.21-1-.16-.53-.25-.86,0-1.48.51-.68.79-1.05,0,.77-.22.89.05,1.42.1-.58.31-1,.45-.3.05-1,.35-.17.52-.11a2.31,2.31,0,0,1-.25-1.74c.17-.38.31-.57.64-.42l-.21-.46c.37-1.41.44,1,.87.61a10.87,10.87,0,0,0-.5,1.27,13,13,0,0,1,.94-1.57l.27,1.43c.08-.71.39.08.43-.88.4.66-.4,1.14-.47,1.85.51.66.5-1.59.95-.1l-.21.9c.17.07.54-.43.54,0,0-.32-.08-.2-.18-.2.18-1.93.85-1.32.86-3.32l-.23-.14c.37-.37.68-1.71.93-1a3.38,3.38,0,0,1-.35,1.86c.34.14.36-2.18.75-2a2.38,2.38,0,0,1,0-1.54c-.23-.14-.69-.54-.64.3l.08.2a3.47,3.47,0,0,1-.25,1c-.32,0-.11-.91-.16-1.3-.52-.34-.12,2-.6,1.91l-.05-.39a3,3,0,0,0-.74,1.78c-.15-1.29-.58.49-.77-.29.08-2.83.82.23,1.16-1.3-.23-.59.2-1.35.34-2l-.85,1.19c-.05-.39-.22-1.81-.41-.79l.06.07c-.34.31-.31,1.47-.56,1.07a4.06,4.06,0,0,1,.1-.9c-.24-.27-.24.63-.42.88-.24-.26.18-1.15,0-1.47-.35,1.07-.45-.29-.71-.23,0,1.61-1.13,2.13-.66,3.58l-.67,1.06c-.15-.85.55-2.23.45-3.59l.48.09c0-2-1.09,1.24-1.28-1-.26-.1-.21.19-.64-.84l0,1.79a4.52,4.52,0,0,1-.24-1.72.34.34,0,0,1-.42,0,1.31,1.31,0,0,1,.21-.58c-.13-1-.21-.64-.31-.11s-.28.37-.44.34l.18-.65a1.2,1.2,0,0,0-.26.65.22.22,0,0,0-.2.14,7.44,7.44,0,0,0,.26,1.84c-.55-.74-1-.39-1.45-1.89.06-.52.31-1.14.25-1.21-.23-.28-.57.6-.6,1.38a.2.2,0,0,1-.14.06,2.31,2.31,0,0,0-.16-1,.55.55,0,0,0-.14-.37c-.18,1.41-.62.67-.77,1.3a.32.32,0,0,0,.4.12c-.27.93-.53,2-.64,1.22.44-.87-.3-1.5.3-1.85-.27-1.82-.3,1.27-.68.6l-.22-.72c.11-1,.48-.48.44-.88l-.2.12c.25-.76.93-.2,1.45-1.32l-.84-.64c-1.2,1.15-2.48-.36-3.6,1.82l0,0c0,.1-.05.29-.09.68l0-.26-.25.76c-.14-1-.52-1.2-.8-2a3.26,3.26,0,0,1,.12,1.42c-.12,1-.19,1.46-.48,1.06.06-.73.25-.7.07-1.3a1.11,1.11,0,0,1-.21,1c-.14-.49-.43-.61-.37-1.35.1-.19.14.07.19.18.1-.19-.28-.69,0-1.27l-.33.19c-.14-.63.2-1,.16-1.36-.58.46-1,2.12-1.52,2.57.06-.38.2-2,.16-1.54-.33-.53-.95,1.7-1.39,1.8.1-.48.25-.27.39-.5-1.24-.72-2.3-.86-3.37-2.52l-.47,1.65-.21-1.15c-1.18-1.19-2.26-.2-3.52.18-.39.07-.11-1.19-.24-1.68-.81-.27-1.2,1.6-2,1.89.16-.5.49-1.92.16-2-.11.48-.23,1.23-.42.91l.17-.5c-.12-.77-.39-.08-.76-.44-.72,0-1.53,1.07-2.32,2.85-.62-.24.26-1.79.18-2.17.38.66.35-.26.5-.83-.28.45-.6.71-.59-.5-.34,0-.48,0-.89.73.2-.38.27.28.06.8-.22-.45-1-.07-.76-1.55a34.78,34.78,0,0,1-5-.54c-.38.73.18.32,0,.85-.53,1-.25-.56-.68.19l.24-.79c-.47-.18-1.18,1.25-1.75,2,.2-.92-.29-.82.18-1.32-.26.13,0-4-.29-3.22l-.23,3.89c-.07.37-.36.1-.36.36a4.66,4.66,0,0,0-.38-1.73c.06-1,.38-.73.57-.68.24-1.62-.51-1.12,0-2.58-.44.21-.05.84-.37,1.41l-.31-.4.2.59c-.36.44-.62,1.67-.9.71l-.62,1.53c.13-1.29-.27-.28-.44-.6l.24-.8c-.29,0-.37-.23-.48-.73.31-1.1.22.31.43-.75L374,192c-.1.73-.37,1.27-.21,1.74-.47,1.31-.78,2.42-1.49,2.21-.15-1.29.5-1,.54-2.3-.68-.62-1.36,3.1-1.78,2.89-.49-.59-.62.56-1.2.56.3-.82-.27-1-.26-1.78l.35-.84c-.21.24-.33-.12-.19-.73-.13,1.15-.88,1-1.35,1.45l-.08,1c-.35.28-.87.83-1.15.53-.53.24-.55,1.12-1.09,2.12a10.84,10.84,0,0,1,.34-3c0,.52.32.26.48.6.74-.75,1.51-2.73,2.05-2.17.61-2.33-.45.21-.62-.66a.38.38,0,0,1,.08-.2.11.11,0,0,1-.06-.08,2.85,2.85,0,0,0,.9-1.79c-.4.2-.61,2.33-.91,1.25-.43.6-.42-1.3-.6-1.49-.35.85-.65,2.74-1.14,2.29l.44-1.28c-.61-.12-.58,1.89-1.15,1.74.18.19-.39,1.27,0,1.37-.3.67-.74.74-1,.31a4,4,0,0,0-.17.9c.21,1,.69-.81.77.55l.46-1.39a3.35,3.35,0,0,1-.18,2.25c.1,0,.21-.23.24,0-.27,2.15-.28-.82-.67,1l.26-.12c-.12,1.41-.73,1.14-1,1a3.41,3.41,0,0,1-.37-2l.52-.37c-.11-.84-.65.39-.9.31a2.63,2.63,0,0,0,0-.33,1.5,1.5,0,0,1,0,.29,1,1,0,0,1-.08-.44c-.22-.09-.65.47-.81.11l-.12.91.11-.51c.2.07.4.67.13,1.32-.57.55-.39-1.2-.37-2,.33-1.37.45.08.77-.35.07-1.38-.46-.22-.79-1.2.43-1.47.55.11.88-1.25-.34-.32-.62.73-1,.28.17-.68.58-.68.7-1.58l-.2-.47c.66,0,.2-1.88.75-2.16-.13-.65-.52,1.17-.7.16a4.91,4.91,0,0,1-.36,2.43l-.29-.5c0-.74.64-1.53.51-2.18l-.47.45a3.94,3.94,0,0,1-.13,1.3c-.14-.52-.64,1.66-1,2.28-.2-.07-.35-.19-.33-.72-.75,1.23-1.4,1.06-2.1,2.23a3.14,3.14,0,0,0,.18-2.23c.41-.12.65-1.52.78-2.42a3.92,3.92,0,0,0-.62,2c-.28-.64-.43.92-.6-.08-.13-.52.35-1.36.37-1.9-.4-.13-.41,1.68-.8,1.27a1.26,1.26,0,0,0,.12-.49c-.19-.34-.57.27-.75,1,.08-1.86-.75.07-.38-1.69-.66.36-.09,1-.32,1.58-.38.74-.7,0-.79-.3.15,0,.37-.47.46-.17l.11-1.25c-.55-1-1,2.69-1.48,1.5.48-.58.3-.91.64-1.74-.16.28-.64-.16-.49.84a1.65,1.65,0,0,1-.52-.67,5.11,5.11,0,0,0-.94,1.5c-.34-.2-.43-1.13-.5-1.7-.94.73-1.34-.93-2.34-.15l.05.08c-.58-.35-.07,1.68-.71,1.51.4-1.48-.18-1.1-.21-1.94-.61-.94-1.6.79-2.1-.38.08-.31.21-.67.36-.68-.44-.59-.95-.39-1.42-.6l.06-.17c-.48-1.4-1.54-.13-2.45,0,.12-.17.28-.73.38-.91-.32-.44-.88-.83-1.53.44-.07-1.58-.44.35-.65-1.22,0-.27.13-.23.18-.27-.15-.57-.41-.47-.65-.73-.91.73-1.65,2.56-2.24,1.76.59-2,.62-.34,1.13-1.92-.26.31-.52.67-.57.14.36-.74.18-.48.49-1.18,0-.57-1.28,1.87-1.22,1.68-.14.38-.15.61,0,.6-.58,1.16-.78-.13-1.28.23.1.07.33.59-.11,1.47-.34-.59-1.15,1.25-1.79,1.9-.14-1,.93-1.53,1.32-2.93a6.48,6.48,0,0,1,.68-2.16c-.27-.43-1,.65-1.43.82l.16-.38c-.53,0-1.67,1.46-1.75.53l0,.52c-.17.2-.36,0-.82.71.28-.62.22-1.31.57-1.78-1.11,1.94-1.52.77-2.66,2.53a7.63,7.63,0,0,1,.86-1.74c.19.3.11.75.61,0-.23-.08-.15-.67.1-1.1-.8,1.12-1.6,1.34-2.36,2.49a5,5,0,0,1,.8-2.07c-.46.14-.84.93-1.15,1.66s-.59,1.37-1,1.12c.21-1.15,1.09-1.08.82-1.68l.17-.11c1.21-2.68-1.31,1.66-1.7,1.32.84-1.36.9-.8,1.26-1.9-.47.15-2,1.94-2,1.27l.48-.48a.68.68,0,0,1-.36-.32c-.05-.14-.11-.28-.22-.3.22-.22.21-.17.29-.21.24-.62-.71.42-.05-.46l-.67.42c-.35.41-.66,1.22.14.74a3.3,3.3,0,0,0-1,1.15,6.41,6.41,0,0,1-1.12,1.51l.41-.35a4.1,4.1,0,0,0-.23,2.72,13.5,13.5,0,0,0,.87,2c1.44-1,.81,1.21,2,.54.92-1.63.29-.28,1-.34-.4.07-.63,1.27-.53,1.6a1.74,1.74,0,0,1,.74-.57c-.15.63,0,2.33.8,1.27.14.7-.31.52-.54.84-.21.95.58-.57.46.08a1.11,1.11,0,0,1-.15.25c.59.16.77.77,1.27,1.19.69-1.7.82-.44,1.3-1-.29.53.1.76.15,1.15l.75-1.18c.67-1,.17.93.76.46v-.34c.46-.43.87.85.87,1.88,1.87-1.28,2.71-.54,3.55.55s1.62,2.47,3.16,2.36c.31-.5.08-.94.42-1.69.33-.14.38,0,.64,0-.11-.53-.22.07-.07-.42l-.52.4a3,3,0,0,0,.1-.44c-.18.13-.42.45-.57.31.36-.39.75-1.69,1-1.11a.6.6,0,0,1-.24.31c.25.18.41-.45.53-.05s.22-.07.12.51l.62.89c.75-1.48.89.12,1,.3-.35,1.16-.6.24-1.06,1.36l.09.92.23-.94.35.35-.07.18c.14-.36.27-.71.3-.36,0,.13,0,.4-.09.44l.41-.45c-.39.94.19.35-.1,1.47.83.78,1.54-1.26,2.05.46,0-.56.64-1.73.85-1.47a1.3,1.3,0,0,1-.11,1l.45-.51c.06,1.86.71.8,1.21,1.53l-.14.5c.35-.54.69-1,1-.72l-.26,1c.28.78.73-2,1.07-1.32.2-1.07,0-1.68.17-2.71-.1,1.12.36,1.37.4.57.54-.35.31.09.3.36l.39-.6c.31.11-.16,1.43-.4,2,.52-1.1.69-.22,1,0l-.23.46.42.28c.45-.78.87-.78,1.17-.26l-.52,1.37c.13.78.23-.47.34-.7.55-.62.46.36.55,1.2C357.08,206,357.09,210,358,207.94Zm47-.1,0-.22C405.12,207.38,405.21,207.15,405,207.84Zm-3.64-.69c.48-.53.29.14.29.54-.4-.43-.68,0-1-.49a7.25,7.25,0,0,1,0,.92c-.15-.08-.28-.41-.27-1.15C400.68,205.55,401.48,208,401.36,207.15Zm8.73-6.52L410,201h0Zm-2.25,1.14a1.53,1.53,0,0,0-.11-.61C407.75,201.55,407.76,201.87,407.84,201.77Zm-4.17-2.09c-.06-.61-.3-.44-.47-.32A.79.79,0,0,0,403.67,199.68Zm-27.15-2.11a1.54,1.54,0,0,0,.31-1.25c-.17.51-.27-.41-.46.36a.2.2,0,0,1,0-.07A5.77,5.77,0,0,0,376.52,197.57Zm-13.42,3.05a12.59,12.59,0,0,0,.32-1.66l0,.06a1.76,1.76,0,0,1,0-.5c-.08-.14-.17-.29-.27-.14C362.88,200.29,362.61,200.56,363.1,200.62Z"/><path class="cls-1" d="M368.52,193.41s-.08,0-.12,0Z"/><path class="cls-1" d="M363.24,198.39a1.09,1.09,0,0,0,.18.57A.71.71,0,0,0,363.24,198.39Z"/><path class="cls-1" d="M416.85,207.52l-.14.19.24.59a5.53,5.53,0,0,0,.64-2.43c-.42.89-.64.43-1.14.67Z"/><path class="cls-1" d="M416.87,201.07a5.87,5.87,0,0,0-.18-1l-.08.58Z"/><path class="cls-1" d="M412.06,198l.37.54C412.58,198.05,412.17,197.12,412.06,198Z"/><path class="cls-1" d="M413.29,208.28l.25-.63c-.17-.53-.43-.48-.51.23C413.31,207.51,413.08,208.27,413.29,208.28Z"/><path class="cls-1" d="M411,197.83c-.19,1.15-.36-.54-.51.55C410.61,198.07,410.91,199,411,197.83Z"/><path class="cls-1" d="M410.62,208.85c.07,1.11.34.15.59.42C411,209.26,410.76,208.09,410.62,208.85Z"/><path class="cls-1" d="M408.66,201c.07-.83.24-.76.41-.55a3.49,3.49,0,0,1-.24.75,4.34,4.34,0,0,1,.65-.86,3.53,3.53,0,0,1-.46-2A5.76,5.76,0,0,0,408.66,201Z"/><path class="cls-1" d="M410,209c.2.34.28,1.11.55,1.06,0-.58-.05-1.42-.36-1.31l.17-1C410.11,207,410.38,209,410,209Z"/><path class="cls-1" d="M407.65,198.66l.1.46c.34-.75.69-.34.94-1.56C408.33,197.6,407.86,198.1,407.65,198.66Z"/><path class="cls-1" d="M409.05,207.09l-.12,1.34c.28.21,0-.45.13-.76.07.2.19.33.27.08C409,207.92,409.38,206.66,409.05,207.09Z"/><path class="cls-1" d="M408,208.51l-.42.55.2,1.5C408.24,210.07,407.83,209.72,408,208.51Z"/><path class="cls-1" d="M407.56,207.58l0-.26-.71,2A7.86,7.86,0,0,0,407.56,207.58Z"/><path class="cls-1" d="M401.3,198.3c-.11.57.16,1.32.07.66C401.48,198.49,401.09,197.7,401.3,198.3Z"/><path class="cls-1" d="M401.8,209.2c-.13-.44-.74.33-1,.71C401.1,209.66,401.78,210,401.8,209.2Z"/><path class="cls-1" d="M400.69,210.06l.11-.15A.35.35,0,0,0,400.69,210.06Z"/><path class="cls-1" d="M390.48,212.14s-.06.05-.09.14Z"/><path class="cls-1" d="M390.75,211.82c.14.21.5-.11.61-.73a3.9,3.9,0,0,0-.88,1C390.6,212.08,390.69,212.53,390.75,211.82Z"/><path class="cls-1" d="M388.5,211.3c.15-.36.3-.15.31-.72C388.77,210.32,388.46,210.9,388.5,211.3Z"/><path class="cls-1" d="M375.32,192.75c-.17-.33-.33-.12-.38.73C375.18,193.5,375.11,193,375.32,192.75Z"/><polygon class="cls-1" points="374.64 193.62 374.67 193.2 374.62 192.54 374.64 193.62"/><path class="cls-1" d="M373.35,192.2a1.28,1.28,0,0,1,.13-.35C373.39,192,373.3,192.06,373.35,192.2Z"/><path class="cls-1" d="M373.53,191.8a.23.23,0,0,0,0,0Z"/><path class="cls-1" d="M373.59,192.08l.08-.45a.58.58,0,0,1-.14.17C373.58,191.77,373.61,191.84,373.59,192.08Z"/><path class="cls-1" d="M372.93,192l.1,1.31c.38-.59-.24-.7.23-2Z"/><path class="cls-1" d="M371.91,192.21c-.2-.45-.87,1.5-.81,0-.86.68-.18,2.54-1.12,3,.71.89.83-2.85,1.43-1.91C371.19,192.28,371.75,192.56,371.91,192.21Z"/><path class="cls-1" d="M371.69,194.76c.15-.75-.18-.86-.36-.37C371.42,194.48,371.44,195.56,371.69,194.76Z"/><polygon class="cls-1" points="370.35 192.68 370.2 192.06 370.07 192.54 370.35 192.68"/><path class="cls-1" d="M369.52,192.25l.35-.84C369.75,191.74,369.42,191.63,369.52,192.25Z"/><path class="cls-1" d="M368.47,191c-.16-.33-.65,1.66-.14,1.29l-.09-.1C368.31,191.87,368.18,191.13,368.47,191Z"/><path class="cls-1" d="M365.19,193.73c.14.07.35-.16.39-.59l-.46.35Z"/><path class="cls-1" d="M364.49,198.64c-.06,1.25.39,0,.59.41C364.82,198.76,364.88,198.6,364.49,198.64Z"/><path class="cls-1" d="M365,191.92c.19-.49.3-.14.39,0C365.46,191.17,365.16,191.31,365,191.92Z"/><path class="cls-1" d="M364.32,192.24c-.05-.52.13-.68.09-1-.19-.6-.49-.57-.75.08a11.27,11.27,0,0,1-.36,2.57c.52-.36,1.1-2.6,1-.82l.71-2.07C364.75,190.55,364.54,192.41,364.32,192.24Z"/><path class="cls-1" d="M364.57,196.44l-.12-.75a1.31,1.31,0,0,1-.43,1C363.84,198.27,364.42,196.51,364.57,196.44Z"/><polygon class="cls-1" points="361.71 192.78 361.15 193.06 361.3 193.17 361.71 192.78"/><polygon class="cls-1" points="361.47 192.23 361.54 191.77 361.01 192.54 361.47 192.23"/><polygon class="cls-1" points="361.04 191.61 361.08 191.69 361.45 191.34 361.04 191.61"/><path class="cls-1" d="M360.05,191.12l0,.67c.15-.15.28.63.41-.26C360.28,191.81,360,191.66,360.05,191.12Z"/><path class="cls-1" d="M353.5,207.15a3.24,3.24,0,0,0,.2-1.21l-.36,1.09C353.4,207,353.51,206.89,353.5,207.15Z"/><path class="cls-1" d="M353.2,205.22l-.63,1.2c.41.28.67-.71,1.09-.83-.09-.44-.49.43-.63,0Z"/><path class="cls-1" d="M345.59,202.62c.22-.8.11-.71.51-1.17-.51.42-.81.16-1.29.18,0,.53-.59,1.34-.36,1.16l.62-.38-.2.54C345.08,203.65,345.31,202.1,345.59,202.62Z"/><path class="cls-1" d="M329.71,187.61a6,6,0,0,0,.65-.93C329.91,186.9,329.79,187.56,329.71,187.61Z"/><path class="cls-1" d="M313.81,182.71c.13,1.11.25.26.59,0Z"/><path class="cls-1" d="M314.4,182.67l.43,0A.33.33,0,0,0,314.4,182.67Z"/><path class="cls-1" d="M318,181.72c-.39,1.12-1.79.53-1.7,1.92A1.39,1.39,0,0,0,318,181.72Z"/><polygon class="cls-1" points="316.51 181.53 316.73 182.21 316.9 180.9 316.51 181.53"/><polygon class="cls-1" points="315.75 181.18 315.96 181.37 316.68 180.22 315.75 181.18"/><path class="cls-1" d="M320.78,180.9l-.66.55c-1.14-.5-.11-1.38-.87-1.73-.94.48.57,2-.75,2.26.49.76,1.88-.95,2.32.41C322,182.3,320.5,181.62,320.78,180.9Z"/><path class="cls-1" d="M360.37,149.27c.08,0,.12,0,.17,0C360.42,149.21,360.32,149.15,360.37,149.27Z"/><path class="cls-1" d="M369.44,139.91a2,2,0,0,0,.64-.2,1.19,1.19,0,0,0-.44-.11Z"/><path class="cls-1" d="M354.92,156.21a2.87,2.87,0,0,0-.65,0A.61.61,0,0,0,354.92,156.21Z"/><path class="cls-1" d="M416.46,94.83a1.55,1.55,0,0,0,.4.13l0,0-.37-.2Z"/><path class="cls-1" d="M379.88,127.61a1.71,1.71,0,0,0,.37-.52C380,127.31,379.87,127.47,379.88,127.61Z"/><path class="cls-1" d="M350.79,158.93l.18-.1a1,1,0,0,0-.29,0l.1.09Z"/><path class="cls-1" d="M364.81,141.85a.78.78,0,0,0,.41-.15A.69.69,0,0,0,364.81,141.85Z"/><path class="cls-1" d="M333,176.38a.49.49,0,0,0,.49-.4C333.24,175.87,333.05,175.92,333,176.38Z"/><path class="cls-1" d="M337.32,173.9l0,0C337.41,174.05,337.4,174,337.32,173.9Z"/><path class="cls-1" d="M340.19,172.48l0,.06C340.25,172.63,340.28,172.64,340.19,172.48Z"/><path class="cls-1" d="M333.48,176c.62.31,1.58,1.84,1.12-.15l-.21-.19c.49.25.54-.66.84-.89a2.41,2.41,0,0,0-.35-.36,3.45,3.45,0,0,1-.81.2C333.48,174.44,333.66,175.41,333.48,176Z"/><path class="cls-1" d="M360.55,149.59c-.25-.27-.4.07,0,0Z"/><path class="cls-1" d="M358,153.17c.12-.06.25-.11.37-.18A.39.39,0,0,0,358,153.17Z"/><path class="cls-1" d="M344.31,161.09l.11,0C344.33,160.93,344.3,161,344.31,161.09Z"/><path class="cls-1" d="M358.73,152.79a2.23,2.23,0,0,1-.33.2C358.54,153,358.67,153,358.73,152.79Z"/><path class="cls-1" d="M349,159.58s.06,0,.08,0A.08.08,0,0,0,349,159.58Z"/><path class="cls-1" d="M378.76,41c.37-.25.72.21,1.13.29.6-1.46-1.78.33-.77-1.06a1.6,1.6,0,0,0-.88.57l.81,1.07C379.68,41.23,378.46,41.55,378.76,41Z"/><path class="cls-1" d="M419.35,90.74l-.12.14c.57-.08.74,0,1-.55-.84-.52-2.15.2-3.07-.67a.7.7,0,0,1-.08.63A2.46,2.46,0,0,1,419.35,90.74Z"/><path class="cls-1" d="M417.13,90.29l-.07,0a1.72,1.72,0,0,0-.3.11.5.5,0,0,1-.15.32A1,1,0,0,0,417.13,90.29Z"/><path class="cls-1" d="M392.77,41.06l.46.21C393.05,41,392.9,41,392.77,41.06Z"/><path class="cls-1" d="M389.36,140.15a3.9,3.9,0,0,0-.08.57A.63.63,0,0,0,389.36,140.15Z"/><path class="cls-1" d="M417.17,98.87a1.5,1.5,0,0,0-.26.36,1.22,1.22,0,0,1,0,.27C417,99.29,417.09,99.08,417.17,98.87Z"/><path class="cls-1" d="M404.43,75.18c1.42-.17-.16-.14.48-.81l-.84-.2C404,74.61,404.3,74.89,404.43,75.18Z"/><path class="cls-1" d="M378.17,40.7l0,.12,0,0Z"/><path class="cls-1" d="M399.1,64.22a1.47,1.47,0,0,0,0-.26A.37.37,0,0,0,399.1,64.22Z"/><path class="cls-1" d="M416.33,93.38l-.27,2,.4-.54C415.8,94.48,417.15,93.75,416.33,93.38Z"/><path class="cls-1" d="M405.07,82.17l-.83.26a2.37,2.37,0,0,1,.87,2.39A1.87,1.87,0,0,0,406.37,87c-1.44,1-.77,1.32-.08,1.63s1.43.62.08,1.49l.42,0a32.7,32.7,0,0,1-2.29,8.46c-1.05,2.54-2,4.68-2.88,7.35l-.49-.33c-2.67,3.3-5.7,6.79-9.05,10.28A107.3,107.3,0,0,1,381,126c-.38,1.06.93,1.67.73,2.73-.31.19-.89.79-1.38.24.28-.77-.45-1-.45-1.38-.84.82-2.57,1.2-2.79,2.57l1.29.13c-.05.58-.72.8-1,1-.2-.47-1.29-.9-1.2-1.28-.16,3.26-2,.41-2.85,2.38,1.05,1.75.34,4.63.15,6.75l-1,.19c.83-.76-1-1.07.07-1.94-1.25.35-1.45,1.76-2.47,2.29.51.21.92.73.76,1.19-.68.27-1.43-.4-2.06.1l.11-1c-.91-.16-.53.88-.79,1.32-.71-.48-1.67.28-2.2-.52a2.66,2.66,0,0,1-.08.91,1.07,1.07,0,0,1-.17.43,1.92,1.92,0,0,0-.4,1c1.29,0,.61,1,1.16,1.4l.54-1c-1.48.62.25-.45-.87-1.35,1,0,1,2.3,1.72,1.31-.55,1.53-1.19,1.25-1.49,3.19.49-.85.49.82,1.14.8-.88.87-.56-.17-1.45-.62-.49.45-1.2,0-1,1.18-1.11.35-.55-.93-1.34-1-.33-1,3.1-.95.72-3.13.33-.37-.08-1.65.44-2.05-.73.12-2-.1-2,.93l1.14,1.37c-.46.42.21,1.43-.25,1.6-.14-.54-1-.84-1.26-.41.27.1.39-.07.54.2-.65.7,0,1.74-.7,2.74a9.68,9.68,0,0,1,2.72.07c.59,1.13-.39.56-.72,1,0-.19,0-.29-.25-.38l-.08.84c-1.32.33-1-1.52-2.16-1.4-1.19-.42-.43,1-1.22.88a2.79,2.79,0,0,0,.28.19.77.77,0,0,1-.27.09l.06.07c-.43.53-1.06.86-.67,1.73-.3-.3-.4.44-.41.81s-.22,1.93-1.53,1c0,0,0,0,0,0-.8.32-1.6.29-1.73-.23l-1.32.43-.55-1.09c-.82.95-.35,1.46-.39,3-1.13-.13-2.13,1.18-2.39,1.88a.72.72,0,0,0-.41.27l.69.13c-.85.47-.41,1-1,1.3.18,0,.23.08-.18.1a2.22,2.22,0,0,1-.36.11c0-.13.09-.18.25-.2l-.31-.29c-1.34-.7-.65,1.24-1.6,1.28.05-.08.12-.22.2-.25-.57,0-2-1.17-1.65-.17-.17-.06-.2.2-.2.51l-.39,0a1.75,1.75,0,0,1,.39,0c0,.4,0,.88-.12.67l-1.14.43c-.28,0-.47.24-.6.51l-.43-.33c-.34.28-.49,0-.52-.12-2.18-.76-1.58,1.94-3.74,1.44.14.89.91.88,1.18,1.25a6.56,6.56,0,0,1-.62,2.28c-1.22-.65-3.67-.46-4.17-2.1-1.23.54.87.7.56,1.53l-.16,0a2.52,2.52,0,0,1,1.64.7c.53.74-.39,1.56-.84,1.51l-.4-1.26c-.87,1,.29,2.58.22,4.08-1.12,0-1.17-1.27-1.91-2.18l-.77.78-.46-.85c-.48.55-.19,1.42-1.19,1.53.16-1.12-1.67-.12-1.42-1.64-.61,0,.14,1.68-.71.67.17,1.08.66.23,1,.39.89,1.2-.67,1.17-1.05,1.8-.4-.65-.05-1-.94-1.1.14.59-.07,1.21-.77.77.45.86-.65.57-1.05.71a1.44,1.44,0,0,1,1.56,1.14c-.14.51-.33.83-1.14,1.11l.72.13c0,1.6-1.54-.34-2.21.52a8,8,0,0,0,.33-1.63,13.94,13.94,0,0,1-1.12,2.39l-1.39-.86c.23.67-.87.37-.43,1.23-1.22-.09.22-1.42,0-2.09-1.45,0-.19,1.91-2,1.17l0-1c-.4.13-.91,1-1.16.59.15.29.27.08.51,0,.65,1.84-1.11,2.08-.07,3.79l.58-.14c-.62.74-.57,2.24-1.5,1.92-.76-.34-.28-1.37-.24-2-.8.27.39,2.27-.59,2.54.61.05.84.73.79,1.33.58-.14,1.83-.34,1.26-1l-.27-.07a1.85,1.85,0,0,1,0-1.11c.7-.36.73.64,1.05.91,1.32-.31-.81-1.82.29-2.31l.32.27c.28-.72,1.05-1.19.62-2.35,1.06.9,1-1.09,1.84-.67,1.4,2.47-1.9.77-1.8,2.46.83.23.29,1.37.35,2.06l1.22-2c.32.27,1.49,1.26,1.33.18h-.17c.56-.65-.16-1.58.62-1.55.22.18.24.67.28.87.68-.06.17-.81.42-1.24.68-.06.26,1.18.87,1.21.15-1.3,1.15-.31,1.68-.66-1-1.3,1.21-3.12-.66-3.73l.82-1.68c.81.52.14,2.48,1.14,3.48l-1.1.51c1.12,1.67,1.64-2.33,3.39-.75.62-.23.34-.4,1.9-.11l-1-1.47a2.43,2.43,0,0,1,1.58,1.09,2.05,2.05,0,0,1,.94-.5,1,1,0,0,1-.11.74c.9.64.84.24.74-.3s.39-.65.75-.83v.76a1,1,0,0,0,.18-.86.87.87,0,0,0,.34-.37,4.18,4.18,0,0,0-1.7-1.14c1.63-.09,2.45-1,4.28-.32.21.47.06,1.29.23,1.27.69-.09.85-1.21.42-1.86a1.27,1.27,0,0,1,.27-.23c.32.33.68.67,1,.59a.6.6,0,0,0,.53.12c-.52-1.34.89-1.33.8-2a1.78,1.78,0,0,0-.91.43c0-1.08-.17-2.25.55-1.78-.37,1.25,1.62.77.57,1.83,1.77,1.05-.18-1.38,1.05-1.36l1,.27c.42.94-.71,1-.38,1.26l.35-.35c0,.91-1.85,1.37-2.25,2.93l2.23-.62c1.84-2.45,5.6-3.06,6.49-6.24l-.07.08a3,3,0,0,0-.28-.63l.23.16V164c1,.54,1.92.16,3.06.35-.8-.25-.8-.25-1.25-.88-.46-.93-.62-1.34.26-1.45.39.62,0,.87.78,1a.61.61,0,0,1-.25-1c.63.16,1.32-.16,1.73.46-.07.28-.35.15-.53.14-.07.27,1.08.1.88.94l.58-.62c.74.26.25,1,.63,1.22.89-1.16.55-3,1.3-4.08.17.35,1.07,1.72.81,1.32,1.08-.13.72-2.61,1.53-3.34.14.5-.3.57-.44.94,1.55-.69,2.88-1.49,4.27-2.14a23.8,23.8,0,0,1,4.62-1.81l-.44-1.82,1.41.21A11.07,11.07,0,0,0,375.7,152l.46-.43a4,4,0,0,0,.35-.37c.21-.24.41-.5.6-.76.73-1.06,1.39-2.25,2.27-3.43.58-.69,1.19.49,1.82.55,1.61-1.2.66-2.94,1.88-4.5.14.56.76,1.94,1.43,1.44-.21-.46-.64-1.1,0-1.22l.14.56c.86.25.73-.59,1.69-1,1.33-1.19,1.82-3.2,1.74-5.58,1.31-.9,1,1.48,1.52,1.56-1.25.27-.4.74-.2,1.34.14-.75.49-1.44,1.51-.73a2.46,2.46,0,0,0,1-1.95c-.05.58-.74.32-.8-.34.78-.13,1.8-1.62,2.71-.42,2.79-2.83,6.38-5.57,9.49-8.74,0-1.07-.61.18-.7-.5.06-1.47,1-.2,1-1.4l.33.84c1-.86.87-2.9,1.17-4.31.54.79,1.26-.25,1,.91.29-.55,3.89,1.67,3.59.72l-3.36-2.07c-.26-.28.49-.76.24-.87.93.11,2.06.2,2.31-.09.87.5.07,1.08-.3,1.46,1.18,1.15,2-.65,2.61.92.56-1-.75-.43-.75-1.34.3-.17.6-.37.91-.56l-.92.26c.16-1-.63-2,.78-2.28l-.54-1.88c1.11.7.71-.51,1.29-.83l.44.8a1.89,1.89,0,0,1,1.49-1c.66,1-.66.45.1,1.24l.84-.52c-.6-.42-.74-1.22-1.48-1-.65-1.48-1.28-2.39-.16-4.08,1.55-.15.43,1.44,1.67,1.77.81-.81.46-1.81,0-2.7s-1.06-1.69-.73-2.22c1.14-1.19.09-1.61.66-3.06.61.81,1.23-.69,2.1-.69l.6.93a.56.56,0,0,1,.94-.55c-1.13-.33-.2-2.42-.52-3.66l-1-.08c-.1-.92-.39-2.18.05-3-.08-1.34-1-1.23-1.88-2.36a4.32,4.32,0,0,1,3,.19c-.56.27-.37.91-.77,1.42.29.9.81,1.8,1.16,2.69a2.82,2.82,0,0,1,.06,2.56c2.07,1.46.06-1.25,1.08-1.85a.26.26,0,0,1,.17.21.35.35,0,0,1,.12-.2,2.76,2.76,0,0,0,1.32,2.37c.07-1.17-2.08-1.43-.74-2.48-.38-1.13,1.65-1.51,1.9-2.09-.76-.85-2.64-1.22-2-2.71l1.2.9c.32-1.81-1.74-1.14-1.52-2.75-.21.54-1.25-.7-1.39.36a2.17,2.17,0,0,1-.21-2.57c-.19-.23-.45-.08-.9-.15-1,.83.76,1.56-.64,2.16l1.36.83a1.53,1.53,0,0,1-2.3.11c0,.25.18.48-.1.62-2.18-.19,1-.89-.85-1.43,0,.2.06.4.07.6-1.4,0-1.07-1.5-.91-2.22.74-.77,1.06-1.53,2.08-1.52l.33,1.19c.87-.54-.33-1.53-.29-2.19a.71.71,0,0,0,.32-.18.66.66,0,0,1-.28.05.68.68,0,0,1,.43-.37c.06-.6-.54-1.48-.2-2l-.91.07.51.08c-.05.54-.63,1.26-1.3.84-.6-1.19,1.16-1.43,1.94-1.74,1.43.26,0,1.21.44,1.83,1.37-.36.22-1.26,1.05-2.57,1.55.49,0,1.51,1.4,1.8.3-1.08-.84-1.34-.49-2.47.71.12.82,1.22,1.72,1.13l.4-.75c.17,1.84,1.88-.38,2.31,1.08.59-.72-1.28-.94-.36-2-.65.31-1.82,1.11-2.45.22l.4-1c.71-.49,1.66,1,2.25.29l-.57-1.09c-.45.07-.65.61-1.29.32.47-.67-1.81-.9-2.55-1.54,0-.57,0-1,.52-1.29-1.44-1.28-1.72-3-3.2-4.08,1.05.7,1.52-.31,2.09-1,.37,1,1.77.75,2.65.51-.26-.63-1.77-.76-2.18-.35.38-1.17-1.08-.52-.37-1.63.34-.7,1.44,0,1.91-.32-.21-1.17-1.75.07-1.72-1.24.2,0,.28.12.51,0,.13-.74-.69-1.29-1.4-1.25,1.6-1.2-.79-1.9,1-2.27-1-1.46-.86.53-1.56.39-1-.4-.71-1.77-.56-2.24.16.37.74.57.59,1l1.08-.72c.12-1.15-.69-1.23-1.45-1.29s-1.48-.12-1.33-1.23c1,.71,1,0,2,.13-.41-.18-.66-1.79-1.2-.54a7.76,7.76,0,0,1-.16-1.9,4.56,4.56,0,0,0-2.27-.94,4.8,4.8,0,0,1,.33-2.82A6.64,6.64,0,0,1,412.51,57a6.42,6.42,0,0,0-2.18-2.79l.05.19c-.93-1.67-.81,1.66-2,.1,1.37-.75,0-1.55.21-2.58a4,4,0,0,0-1.06-1.44,11.66,11.66,0,0,0-1.44-.92,6.57,6.57,0,0,1-2.57-2.23.71.71,0,0,1,1-.19,7.75,7.75,0,0,0-2.12-1.81c-.76-.46-1.52-.84-2.33-1.26l.16-.13A5.67,5.67,0,0,0,396.43,42a19,19,0,0,0-2.14-.1c-.72,0-1.44,0-2.15,0,.26-.16.41-.71.63-.87a7.18,7.18,0,0,0-2.55-.6,2.76,2.76,0,0,0-2.27.94c-.83-.78-1.12-.64-1.45-.52s-.72.23-1.84-.4c-.14-.26.2-.27.34-.34a7.3,7.3,0,0,0-3-.23,8.9,8.9,0,0,0-2.31,2.19,3.39,3.39,0,0,1-2.6,1.25c-.7-2,1.41-.91,1.07-2.53-.44.5-.77,1-1.61.74.21-.9,0-.52.05-1.33-.76-.4-1.57,2.75-1.6,2.54.1.39.35.54.82.33-.18,1.38-2.35.91-3.31,1.87.38-.14,1.7-.19,1.61.89-1.66.17-1.34,2.25-1.93,3.42-1.66-.23.17-2-.64-3.23-.44-.39-1.5-1.19-1.14-2-1.42.33-1.77,1.89-2.65,2.76l-.17-.37c-1.46,1-1.94,3.48-3.55,3.6l.88,0c-.07.36-.85.73-.69,1.69-.37-.58-1.61-.4-1.6-1.12.73,2.14-2.09,3.47-1.2,5.54-.69-.1-1.08-1-1.32-1.41.89-.59,1.42-.51,1.26-1.52-.64.58-1.48.65-1.73.18.26,1.6-.76,3.48,0,4.69-.9,0-1.58.26-2.32-.64-.6,1.28.34,1.56,1.11,1.82s1.45.52.62,1.64c-1.67.41-.42-1.94-1.83-.67l.06-.38c-1.59-.31-1.32.23-.73.93s1.47,1.61,1,2.19c-1.48-.64-.4-1.5-1.95-1.19-.39,1.51,1.44,3.08.45,4.08l-.53-.46a20,20,0,0,0-1.22,3.35c-.31,0-.24-.15-.27-.35-.53.76-.34,1-.23,1.17s.18.26-.48.89l.7.5a4.48,4.48,0,0,0,1-1.23,1.46,1.46,0,0,0,0-1.51c.33.54.91.33,1.53.15a2.31,2.31,0,0,1,1.94,0l-.47-.31a12.65,12.65,0,0,0,3.31-1.83c.45-.34.88-.7,1.34-1a10.74,10.74,0,0,1,1.39-1,1.32,1.32,0,0,1,.82-1.69c.59-.29,1.18-.53,1.32-1.45-1.12-1.49-.07-.48.66-1.63-.38.63.88,1.11,1.36,1a1.82,1.82,0,0,1,.11-1.19c.64.32,2.74.57,2.5-.77,1,.06.19.6.28,1,.8.61.08-1,.64-.58a.61.61,0,0,1,.1.29c.91-.68,1.74-.63,2.87-1-.79-1.67.71-1.14.9-2,.09.59.9.34,1.34.52,0-.49,0-1,.06-1.5.18-1.31,1.13.43,1.68-.44l-.3-.24c.4-.73,2.29-.16,3,.68A5.07,5.07,0,0,1,388,54.23a10.34,10.34,0,0,1,1.38.77c.46.26.88.56,1.31.82a9.82,9.82,0,0,0,1.32.7,7,7,0,0,0,1.46.51c.5-.37.2-.94.76-1.57a1.93,1.93,0,0,1,1,.35c-.11-.65-.37-.06-.07-.49l-.88.15c0-.14.12-.15.18-.42-.3,0-.69.24-.94.06.59-.3,1.27-1.43,1.64-.69a.56.56,0,0,1-.43.19c.41.33.76-.25.93.27s.37.09.12.63l.43.68.36.72c.76-.45,1.13-.21,1.26.22a4.63,4.63,0,0,1,.12,1.06c-.93.8-1-.42-2,.3l-.2,1,.65-.72.35.69-.16.11c.32-.22.64-.43.55-.06-.07.12-.2.35-.29.34l.75,0c-.93.52.13.5-.77,1.27.32.84,1,1,1.51,1.19s.94.62.76,1.69c.29-.53,1.79-.63,1.92-.1a.75.75,0,0,1-.73.68l.84.26c-.56.84-.51,1.26-.29,1.66a2.36,2.36,0,0,1,.57,1.46l-.48.17c.73.13,1.38.38,1.51,1.08l-1,.31c-.3,1,2.24-.3,2,.86,1-.42,1.3-1.21,2.22-1.72-.94.67-.71,1.71-.06,1.19.78.77.23.66,0,.83l.84.32c.21.67-1.27.68-1.95.67,1.37.18.76,1.16.81,1.9l-.55-.13.09,1a1.69,1.69,0,0,1,1,.82,2,2,0,0,1,0,1.27l-1.53-.18c-.6.72.55.15.82.23.9.7,0,1.12-.69,1.74.92.51.41,1.34,0,2.08S403.93,81.73,405.07,82.17ZM345,161.49l.24.11C345.06,162,345,162.28,345,161.49Zm7.85-4.26c-.61,1.05-.68.29-1,0,1.1-.23,1.35-.93,2.39-1a3.27,3.27,0,0,1-.68-.65,1.21,1.21,0,0,1,1.34.48C355.31,157.5,352,156.77,352.84,157.23Zm-14,16.36c0-.11,0-.23,0-.34h0Zm4.12-3.74a1,1,0,0,0,.62.34C343.31,169.9,343.07,169.67,343,169.85Zm10.26-3.9c.52.39.92-.06,1.21-.4A3.67,3.67,0,0,0,353.22,166Zm52-44.76c-.05.41,0,1.3.68,1.16-.19-.56.84-.37.41-1.08h.09A4.61,4.61,0,0,0,405.18,121.19Zm8.33-31.09a4.74,4.74,0,0,0,1.68.2l-.05.09c.2-.07.37-.14.5-.07.12-.26.27-.54.11-.73C413.81,89.46,413.52,88.93,413.51,90.1Z"/><path class="cls-1" d="M419.71,102.44c0-.15.05-.26.05-.35A1.46,1.46,0,0,0,419.71,102.44Z"/><path class="cls-1" d="M415.74,89.65c-.12,0-.32.28-.55.65A.82.82,0,0,0,415.74,89.65Z"/><path class="cls-1" d="M320.28,176l.19-.32-.82-.23c-.64,1.05-.31,1.82-.11,2.8.44-1.23,1.15-1.09,2.11-1.87Z"/><path class="cls-1" d="M323.67,181.46c.21.18.74.64.91.62l-.13-.59Z"/><path class="cls-1" d="M336.11,178.17l-1.13,0C334.93,178.8,336.4,179.05,336.11,178.17Z"/><path class="cls-1" d="M327.42,171.25l-.16.81c.66.24,1.18-.11.94-.79C327.83,171.91,327.89,171,327.42,171.25Z"/><path class="cls-1" d="M338.56,177c-.28-1.17,1.13,0,.79-1.09C339.27,176.31,338.05,176,338.56,177Z"/><path class="cls-1" d="M332.7,167.62c-.8-.81-.79.29-1.47.36C331.69,167.73,332.88,168.4,332.7,167.62Z"/><path class="cls-1" d="M341.71,171.51c.36.75,0,.91-.55,1,0-.31-.08-.69,0-.91a7.13,7.13,0,0,1-.86,1.51c.84.2,1.86.07,2.27,1C342.65,173.19,342.6,171.9,341.71,171.51Z"/><path class="cls-1" d="M334,166.79c-.61,0-1.25-.56-1.77-.21.37.46.95,1.1,1.53.63l.23,1C334.89,168.49,333.11,167.19,334,166.79Z"/><path class="cls-1" d="M345.36,172.05l-.5-.24c-.27,1-1.29,1.17-1.06,2.44A3.71,3.71,0,0,0,345.36,172.05Z"/><path class="cls-1" d="M337.07,167.14l-.57-1.23c-.72.19.27.37.2.78-.28-.07-.61,0-.62.27C336.71,166.39,336.65,167.9,337.07,167.14Z"/><path class="cls-1" d="M338.44,164.68l.53-1-1.35-.94C336.92,163.76,338,163.54,338.44,164.68Z"/><path class="cls-1" d="M339.88,164.91l.22.17.24-2.42A6.36,6.36,0,0,0,339.88,164.91Z"/><path class="cls-1" d="M359.17,163.67c-.17-.58-1.28-.74-.62-.39C358.67,163.78,360,163.81,359.17,163.67Z"/><path class="cls-1" d="M350.55,156.29c.56.16,1.22-1.22,1.48-1.86C351.61,155,350.06,155.67,350.55,156.29Z"/><path class="cls-1" d="M352.14,154.18l-.11.25A.55.55,0,0,0,352.14,154.18Z"/><path class="cls-1" d="M368,137.79a.3.3,0,0,0,0-.24Z"/><path class="cls-1" d="M367.81,138.47a1.19,1.19,0,0,0-.45,1.57,8,8,0,0,0,.66-2.25C367.86,138.05,367.29,138,367.81,138.47Z"/><path class="cls-1" d="M372.34,134.64c0,.48-.42.62,0,1C372.68,135.67,372.75,134.8,372.34,134.64Z"/><path class="cls-1" d="M411.88,120.48c.62-.29.66-.71-.11-1.1C411.36,119.91,412,119.93,411.88,120.48Z"/><path class="cls-1" d="M412.11,118.67l.38.19.76.07Z"/><path class="cls-1" d="M415.6,115.91a.67.67,0,0,1,.15.42C415.8,116.06,415.82,115.83,415.6,115.91Z"/><path class="cls-1" d="M415.73,116.46a.59.59,0,0,0,0-.13Z"/><path class="cls-1" d="M415.34,116.54l.35.29a1,1,0,0,1,0-.37C415.68,116.57,415.56,116.64,415.34,116.54Z"/><path class="cls-1" d="M416.43,114.85l-1.53,0c.08,1.1,1.08-.49,1.78,1Z"/><path class="cls-1" d="M417.64,112.12c.75-.57-.54-2.54,1-2.3.15-1.24-.5-1.36-1.09-1.53s-1.09-.34-.91-1.63c-1.65,1.86,2.18,2.31.46,4C418.46,110.07,417.49,111.62,417.64,112.12Z"/><path class="cls-1" d="M415.21,111.22c.61.5,1.15-.37.83-.9C415.82,110.55,414.69,110.51,415.21,111.22Z"/><polygon class="cls-1" points="418.99 107.66 419.79 107.2 419.4 106.84 418.99 107.66"/><path class="cls-1" d="M420.23,105.19l.59,1C420.58,105.81,421,104.83,420.23,105.19Z"/><path class="cls-1" d="M422.33,101.84c.46-.58-1.38-1.6-1.29-.18l.16-.28C421.48,101.54,422.37,101,422.33,101.84Z"/><path class="cls-1" d="M420.49,93.09c-.09.4.13.92.56.87l-.31-1.17Z"/><path class="cls-1" d="M415.53,92.84c-1.27.24,0,1-.47,1.61C415.37,93.71,415.53,93.82,415.53,92.84Z"/><path class="cls-1" d="M422.36,91.9c.5.34.11.81,0,1.1C423.08,92.91,423,92.08,422.36,91.9Z"/><path class="cls-1" d="M422,90c.51-.37.69.1,1-.18a1.42,1.42,0,0,0-.17-2.14,4.18,4.18,0,0,1-2.58.2c.42,1.22,2.7,2,.92,2.52q1.06.57,2.13,1.17C423.7,90.57,421.83,90.75,422,90Z"/><path class="cls-1" d="M417.77,92.36l.78-.6c-.71.09-.82-.41-1-.76C415.93,91.09,417.73,92,417.77,92.36Z"/><polygon class="cls-1" points="420.81 83.04 420.29 81.66 420.25 82.13 420.81 83.04"/><polygon class="cls-1" points="421.21 82.08 421.67 81.99 420.71 80.99 421.21 82.08"/><polygon class="cls-1" points="421.58 80.51 421.53 80.69 422.02 81.5 421.58 80.51"/><path class="cls-1" d="M421.43,77.48l-.61.37c.24.34-.38,1.17.5,1A.87.87,0,0,1,421.43,77.48Z"/><path class="cls-1" d="M402.93,73.21a1.65,1.65,0,0,0,1.15-.44l-1.16.08C403,72.92,403.16,73.05,402.93,73.21Z"/><path class="cls-1" d="M404.21,71.37l-1.5-.28c.14.92,1.16.67,1.63,1.37.27-.47-.79-.59-.61-1.12Z"/><path class="cls-1" d="M396.61,58c.58-.59.37-.62,1.14-.65a2.29,2.29,0,0,1-.59-.17,2.34,2.34,0,0,1-.48-.22,5.54,5.54,0,0,0-.94-.55c-.18.5-1.13,1-.77.94a5.17,5.17,0,0,1,1,0l-.43.39C395.59,58.64,396.37,57.25,396.61,58Z"/><path class="cls-1" d="M356.06,64.92a1.47,1.47,0,0,0-1.12-.28C355,65.61,356.06,64.72,356.06,64.92Z"/></g></g></svg>