<svg xmlns="http://www.w3.org/2000/svg" viewBox="0 0 514.38 259.38"><defs><style>.cls-1{fill:#8f4a4b;}.cls-2{fill:#914d4e;}</style></defs><title>Ресурс 8</title><g id="Слой_2" data-name="Слой 2"><g id="Слой_3" data-name="Слой 3"><path class="cls-1" d="M291.87,32.44c-.73,1,.38-.15,1.53-1Z"/><path class="cls-1" d="M293.4,31.44l1.09-.7A8,8,0,0,0,293.4,31.44Z"/><path class="cls-1" d="M303.52,24.91c-2.16,1.75-5.18,3.17-6.33,4.54C299.62,28.07,303.2,25.7,303.52,24.91Z"/><polygon class="cls-1" points="299.88 26.93 299.72 27.32 301.56 25.69 299.88 26.93"/><polygon class="cls-1" points="298.3 27.7 298.64 27.58 301.71 25.31 298.3 27.7"/><path class="cls-1" d="M311.71,20.37c-.81.46-1.63.88-2.4,1.39-2.4,1,1.27-1.25-.34-.55-3,1.76-.7,1.18-4.48,3.28.46.08,6-3.51,5.6-2.74C313.36,20.17,310.11,21.42,311.71,20.37Z"/><path class="cls-1" d="M469.44,32.74l.27.3C469.62,32.89,469.52,32.76,469.44,32.74Z"/><path class="cls-1" d="M499.17,68.32c.26.59.54,1.17.82,1.73a6,6,0,0,0-.24-.72Z"/><path class="cls-1" d="M445,17.23c-.56-.37-1.08-.69-1.55-1A9.34,9.34,0,0,0,445,17.23Z"/><path class="cls-1" d="M425.17,247.4c.1-.07.17-.14.18-.21l-.08,0-.43.29Z"/><path class="cls-1" d="M514,118.25c0,.74.09,1.47.15,2.12A20.23,20.23,0,0,0,514,118.25Z"/><path class="cls-1" d="M429.8,10.29c.24.1.44.18.65.25l-.79-.35.11.09Z"/><path class="cls-1" d="M491.63,55c.33.55.64,1,.91,1.44C492.25,55.93,491.94,55.45,491.63,55Z"/><path class="cls-1" d="M351.38,6.17a17,17,0,0,0,1.95-.47A6.46,6.46,0,0,0,351.38,6.17Z"/><path class="cls-1" d="M367.45,3.66h-.1C367.45,3.72,367.5,3.71,367.45,3.66Z"/><path class="cls-1" d="M377.83,3.11l-.18,0C377.77,3.16,377.84,3.17,377.83,3.11Z"/><path class="cls-1" d="M353.33,5.7c1.36,0,1.86.47,3.46-.48l-.36,0c1.06,0,2.53-.59,3.73-.75a2.63,2.63,0,0,0-.46-.1c-.61.07-1.4.21-2.63.38A17.29,17.29,0,0,0,353.33,5.7Z"/><path class="cls-1" d="M469.23,32.71c-.05-.19-1-.84,0,0Z"/><path class="cls-1" d="M457.51,24.51l1.16.8A12.33,12.33,0,0,0,457.51,24.51Z"/><path class="cls-1" d="M408.36,3.39l.25.08C408.7,3.41,408.49,3.39,408.36,3.39Z"/><path class="cls-1" d="M459.72,26.06c-.35-.25-.69-.52-1.05-.75C459,25.54,459.31,25.81,459.72,26.06Z"/><path class="cls-1" d="M423.84,8l.2.09A.77.77,0,0,0,423.84,8Z"/><path class="cls-1" d="M265.74,149.67c.17,1,0,1.68.16,2.66.4,1.07.21-.06.06-1.07s-.22-1.9.14-.33c-.11-1-.25-1.74-.39-2.45l-.25,1.45C265.83,151.84,265.45,148.62,265.74,149.67Z"/><path class="cls-1" d="M412.32,250.51l.45-.07c-.35-.11-.09-.23-1.8.08-1.37.63,1,.5-1.48,1.42a18.74,18.74,0,0,1,1.92-.44C410.31,251.5,411.27,251,412.32,250.51Z"/><path class="cls-1" d="M411.41,251.5h.47a9.58,9.58,0,0,1,1-.2A9.46,9.46,0,0,0,411.41,251.5Z"/><path class="cls-1" d="M274.61,183.2l.43,1.09A3.82,3.82,0,0,0,274.61,183.2Z"/><path class="cls-1" d="M508.53,115.34c-.09-.5-.19-1-.26-1.39A7,7,0,0,0,508.53,115.34Z"/><path class="cls-1" d="M436,242.32a10.15,10.15,0,0,0,1.16-.5l.7-.38C437.2,241.73,436.59,242.05,436,242.32Z"/><path class="cls-1" d="M353.58,255.77c1-.24-.7-.13-2.43-.84l-1.72-.17C350.94,255.21,352.37,255.48,353.58,255.77Z"/><path class="cls-1" d="M265.73,148.37s0,0,0,0l0,.12Z"/><path class="cls-1" d="M307.82,234.61l-.62-.56A7.36,7.36,0,0,0,307.82,234.61Z"/><path class="cls-1" d="M421,249c2-.7,4-1.3,6-2.13l-1.77.58C424.42,247.91,421.69,248.4,421,249Z"/><path class="cls-1" d="M381.2,259.09l.58.29c6.48-.63,14-.36,19-2.09a19.88,19.88,0,0,0,4.25-.44,10.67,10.67,0,0,0,2.12-.67,18.76,18.76,0,0,1,5.81-1.37l-.28-.08a130,130,0,0,0,17.21-5.44l2.12-.82c.71-.29,1.4-.61,2.09-.91,1.39-.62,2.79-1.22,4.17-1.86,2.71-1.37,5.45-2.67,8.06-4.21a122.92,122.92,0,0,0,27.79-21.3l.1.17a131,131,0,0,0,29.93-43.84,133.41,133.41,0,0,0,10.21-51.89c-.08-1.66-.26-2-.44-2.25s-.34-.48-.52-1.9c0-1.24-.18-4,0-4.07.3,2.39.41,1,.56,1.84-.08-2-.32-4.29-.48-6.53a54.8,54.8,0,0,0-1-6.14l.11,3c-.34-1.35-.51-3.53-.77-4.76.26.5.25-1.36.53-.31-.55-1.82-.88-3.09-1.08-4.07s-.35-1.67-.43-2.33-.16-1.29-.32-2.14a19.39,19.39,0,0,0-.94-3.41c-1-1-3.8-8.48-6.4-13-.3-.85-.56-1.73-.91-2.57,1.44,3.33.44-.27,2.15,3.9-1.21-3.58-3-6.61-4.5-9.83.18.69-.1.63-.84-.59-1-1.95-.73-2.3-1.94-4.49.51.66.92,1.37,1.38,2a17.44,17.44,0,0,0-2.43-3.95c0-.57-1.92-3.8-1.33-3.39a37.36,37.36,0,0,1-2.48-3.17L491.27,55c-.42-.53-.91-1.11-1.51-1.8,2.05,3.18-.88-.54-.81-.06.88,1.1,1.8,2.18,2.6,3.34-.79-1.27-1.17-1.77-1.21-1.87a4.2,4.2,0,0,1,.59.68c.7,1,1.83,2.44,1.9,2.12,1.4,2.45-2.83-2.73-.11,1.11-.84-1.13-1.51-2-2.08-2.84s-1.14-1.45-1.66-2.13a47.11,47.11,0,0,0-4.15-4.75c2.31,2.57-.66-.3.42,1.2-2.84-3.31-.57-.93-1.21-2.16a20.35,20.35,0,0,0-3.73-4c-2.56-2.91.66.17-.55-1.38a13.29,13.29,0,0,1,1.64,1.59c.73.77,1.59,1.7,2.34,2.63,1.54,1.83,2.95,3.36,3,2.62L489,51.86A38.55,38.55,0,0,1,491.63,55c-.7-1.07-1.57-2.38-2.5-3.73-.48-.67-.95-1.37-1.49-2S486.55,48,486,47.44l-.56.26c-1.58-1.81-2.16-2-3.33-3.23.76.55-.2-.82-1.57-2.2.32.46.87,1,.65.93a26.81,26.81,0,0,0-2.89-2.64c-.88-.68-1.82-1.4-3.39-2.82a62.36,62.36,0,0,1,4.89,5.67c-.91-.34-1.59-1.66-3-2.92.25.16.54.42.2,0l-1.61-1.27c-3-3.12.81-.07-1.66-2.67-1.63-1.9-2.68-2.09-4-3.49l.21.32-.69-.65s0,0,0,0c-1.83-1.41-3.75-3-4.45-3.14a9.4,9.4,0,0,0-2.29-1.55,25.76,25.76,0,0,1-5.1-3.64l.12.08c-2.35-1.63-4.13-3-3.52-2.8l-3.91-2.51.63-.09a19.58,19.58,0,0,0-3.48-1.69c-.75-.26-1.37-.42-2.74-.92a38.65,38.65,0,0,0-4.9-2.57,42.2,42.2,0,0,0-4.42-1.8c-.3-.15-.76-.35-1.54-.67l1.55.85c-3-1.31-2.71-1-4.73-1.77.4.2.45.24-.65-.25l-1.15-.47a5.55,5.55,0,0,1,1,.37l-.32-.26a12,12,0,0,0-3.11-1.25,22.87,22.87,0,0,1-3.36-1c.26.07.7.19,1,.28-1.46-.59-3.44-1.89-4.18-1.69a6,6,0,0,0-1.44-.3l-1.11-.37L418.2,6a5.09,5.09,0,0,1-1.49-.24c-1.28-.4-2.57-.78-3.88-1.09a21.05,21.05,0,0,0-2.59-.56l-.63-.32c-1.43-.32-1.43-.39-1.25-.41a34.63,34.63,0,0,0-6.43-1.31c-1-.11-2-.21-3.14-.36s-2.3-.39-3.67-.63c-1.08.18,1.18.53,1.34.69-.89.13-4,0-5.61,0-1.2-.31-3.68-.58-5.71-.9s-3.61-.48-3-.77c-4.56-.08,1.42.35-.87.53l-.52,0a17,17,0,0,1,3.67.51c.33.28-3.66.36-4.88.26l.85-.43a8.91,8.91,0,0,0-3.53.54,9.72,9.72,0,0,1-2.33.8c-3.31,0-1.43-.5-2.15-.86-1.16.07-2.32.25-3.48.37l0-.32c-2.26.29-2.76.56-5.89.86,2.22-.59-4.72.31-1.65-.5-1.75.13-2.17.79-3.11.53-1.14.54,1.57-.1,2.47-.07.39.2-.56.36-1.85.57s-2.93.5-3.94.74c-.23-.22,1.32-.54-1.14-.28a9.89,9.89,0,0,1-3.39.82c.07.32-2.72.67-4.09,1,1.55-.3,3.82-.55,2.88-.06-1.16.4-2.18.64-4.87,1.35l1.89-.35A10.45,10.45,0,0,1,343,7a17.49,17.49,0,0,0-3.89.89c1.26-.63,2.11-.83,3.22-1.38-1.48.51-4.23,1.66-6.5,2.55-.94.13-1.88.26-2.8.45-.24.34-2.95,1.07-2.84,1.37-3.33,1,2.48-1.33,2.74-1.68a19,19,0,0,0-3.63,1.48A18.38,18.38,0,0,1,325.75,12l1.17-.82c-1.29.53-3.81,1.77-4,1.7.05.1.68-.21,1.48-.55-.27.47-1.71,1.18-3,1.87s-2.34,1.37-2,1.56l1.75-.78c-2.59,1.4-4.31,2.62-6.4,3.48-1.62.64.85-1,1.73-1.57C314,18,314.83,18.54,311.88,20c1.59-.72,1.4-.35.57.29.85-.43,2.16-1.08,3.17-1.61s1.74-.89,1.36-.87l-.65.23c.08-.22,1-.73,1.42-1,2.35-1.11,1.22-.25,1.75-.35,4-1.74,0-.81,3.65-2.39l.53-.08c1.7-.89,4.39-2.09,4.75-2.63,1.78-.2,4.16-1.74,6.05-2.14.32.37-1.27.94-3.18,1.58-1,.31-2,.65-2.92,1a10.78,10.78,0,0,0-2.16,1.07c2-.63-.93.88-1.64,1.41,1.95-1,3.9-2,5.92-2.82a8.53,8.53,0,0,0,3.49-1l-.48.16c2.4-1,1.64-1.08,3.82-1.66.35,0-.26.33-.4.44,2-.55,1.58-.73,2.87-1.23,2-.55-.87.68.81.26,2.21-1,3.68-.92,5.68-1.48-1-.39,7.92-2.54,3.42-2,1.61-.48,3.21-1,4.85-1.38,1.59,0-3.26,1.36-1.8,1.56l-3.89.85c.4.26,2.4-.33,4.66-.9s4.81-1,6.17-.88a47.58,47.58,0,0,1,5.6-.46l-.75-.5c2.09-.13,2.8.2,2.9.28,1.21-.14,2.31-.21,3.44-.28a6.59,6.59,0,0,1-1.44.32A4.35,4.35,0,0,0,372,3.52a22.35,22.35,0,0,1,3.42-.25l-1.16.26a7.63,7.63,0,0,0,1.84-.29c.54,0,1.05-.06,1.54-.11a11.52,11.52,0,0,0-3.09-.49H378l3.2.1c1,0,2,.06,3.05.15s2,.25,3.05.43c-.17.16-1.9.29-1.38.34,2.05.19,4.3,0,4.14-.26.46,0,.82.05,1.14.08A5.2,5.2,0,0,0,393,4a6.5,6.5,0,0,0,1.28.24,6.78,6.78,0,0,1,2.71,0,21.31,21.31,0,0,0,2.8.27c-.91-.18-2.05-.34-3.2-.48a12.59,12.59,0,0,1,4.46.2c-3.11-.13,3.18,1-1.44.43,3.13,1,1.76-.22,5.13.63l2.15.65c-.4.27-3.58-.5-3.1-.28l1.53.24c-1.55-.08-7.29-1.19-10.91-1.15,1.19.13,2.38.32,3.56.53l3.54.6c2.24.29,4.62.68,7,1.16s4.84,1,7.2,1.75l3.52,1,3.36,1c1.09.34,2.17.61,3.19.94s2,.61,2.93.87l-.31-.11a.55.55,0,0,0,.37-.1l.29.2,1.52.31c.76.45,1.86,1.07,3.09,1.69s2.58,1.27,3.76,2c-1.47-1-1.49-.93-1.53-1.24.46-.18.77-.21,3,1-.08.23-1.51-.47.12.54-.83-.54,0-.31,1.06.15.61.4,1.48.85,2.15,1.28s1.17.78,1.13.9A8.3,8.3,0,0,1,442,18.4c-.61-.26,2.3,1.5.46.73l2.33,1.19c1.24.9-1.05-.21-.58.2,1,.48,1.85.88,2.66,1.23l2.26,1.06a39.56,39.56,0,0,1,4.58,2.32c-.22,0-.55.44-.43.33a32.6,32.6,0,0,0,4.14,2.48c1.46.85,3,1.71,4.39,2.71a22.61,22.61,0,0,1-2.4-1.54l3.09,2.36,2.88,2.39c1.92,1.52,3.63,3.19,5.4,4.76s3.34,3.31,5,5,3.18,3.53,4.7,5.47l2.09,1.59,1.39,2.2c3,4.21,5.73,7.91,8.12,11.75l1.81,2.86,1.69,3c1.19,2,2.21,4.09,3.31,6.3a4.89,4.89,0,0,1,.74,2.14,2,2,0,0,0,.07,1.1c.62,1.56,1.2,2.8,1.67,3.9s.87,2.06,1.29,3a53.61,53.61,0,0,1,2.6,6.83c-.42-.81-1.32-2.11-.55.54a4.63,4.63,0,0,1,.95,2.44l-.38-.82a15.41,15.41,0,0,0,.5,2.53l.43,1.62c.13.62.26,1.33.39,2.14,1.23,5.7,2.18,11.19,3.16,16,.18,5.19-.63-.51-.7.49a8.83,8.83,0,0,0-.2-2.73c-.1-.27-.21-.18-.35-.56a13.09,13.09,0,0,1,.2,5.24c.18,2.67.12,3.88.39,6.53-.13-1.33.09-2.48.27-1.23-.06,2.2-.23,7.8-.71,7.46a121,121,0,0,1-2.74,19.7,124.89,124.89,0,0,1-6.16,19.63c-.61,2.23.74-1.58.44-.34-.92,3.23-1.12,2.39-2,4.93l.2-1.11c-1.63,3.61-3.06,7.62-4.71,11.14,0-.71-1.81,2.62-.37-.25-.91,1.67-3.21,3-3.73,4.32.76-.36,1.45-.76,2.19-1.15a6.79,6.79,0,0,1-.62,1.24c-.33.55-.66,1.05-.55,1a39.23,39.23,0,0,0-3.06,3.76c-.57.28,1-2.08,1.87-3.4-.33-.48-3.12,4.25-2.33,2.07-1.73,2.85.51-.24-.42,1.54l-1.79,2.31,1.46-1.73c-1.3,2.06-1.38,3-3.61,5.45l-1.67,3c-.27,0-.67.47-1.14,1.11s-1.09,1.39-1.7,2l.51-1a34.86,34.86,0,0,1-3.21,3.38c.56-1.24,1.43-1.52,1.53-2.18l-1.75,1.83c.19.16-.75,1.49.57.23A24.91,24.91,0,0,1,474,213.7a32.93,32.93,0,0,1-4.17,4.52c-2.23,1.54,1.83-2.26.73-1.79a34.47,34.47,0,0,0-4.42,4.81,21.49,21.49,0,0,1-3.12,3.45c-1.82,1.42-2.68,2.08-3.48,2.84a29.12,29.12,0,0,1-3.51,2.89c1.05-1.09-2.84,1.64-3.69,1.91l1.33-1.31c-1.1.9-2.28,1.58-2.05,1.17.21.09-1,1-2.61,2.08-.8.54-1.69,1.17-2.57,1.72s-1.73,1.07-2.4,1.51h.65c-1.07.66-2.31,1.53-3.64,2.27s-2.69,1.48-3.9,2c-3.54,1.82-2.62,1.65-5.27,3.27-1.67.44-1.65,0-1.26-.53,1-.28,2.63-1.12,4.27-1.75,1.12-.57,2.13-1.2,3.11-1.82l2.86-1.81c1.87-1.22,3.7-2.47,5.91-3.64.69-.94,0-.42-1.16.34a31.37,31.37,0,0,1-3.95,2.38A1.16,1.16,0,0,1,442,238c-.18.11-.35.2-.53.29,1.5-1,3.95-2.54,4.16-3.12-2.54,1.54-1.47,1.78-4.86,3.29a33.79,33.79,0,0,1-6.12,2.57c-.77.51-1.1.92-1.77,1.42a10.11,10.11,0,0,1-1.33.85,17,17,0,0,1-2.42,1.07c.55-.39,1.11-.75,1.64-1.17-4.7,1.92-1.95,1.52-6.36,3.23,1.58-.52-1.36,1,1.61-.14a19.07,19.07,0,0,1-3.14,1.37c-1.3.46-2.73,1-4,1.28-.63.26-.09.19-.16.37,2.82-.58,4.18-1.74,6.56-2.08l1.67-1.19c2.53-.82,2.94-.57,1.49.22a11.47,11.47,0,0,1,1.82-.73c.7.5-3.07,1-3.71,1.86l1.74-.75c.47.07-.52.57-1.92,1.17s-3.24,1.16-4.39,1.57c-2.67.74-5.15,1.28-5.41,1,1.16-.41,2.34-.76,3.49-1.21-1.9.33-4.47,1.51-6.54,2.09a2.84,2.84,0,0,0-.61,0c.11,0,.18,0,.19.05a6.32,6.32,0,0,1-1.21.15,61,61,0,0,1-6.24,1.48l.28.26.2-.21c1.7-.28,4-.69,2.8-.15-3.79,1-4.69.54-5.64.48.79-.65,3.74-.67,5.63-1.3a12.26,12.26,0,0,0-2.91.38,40.09,40.09,0,0,1-5,.79c1.5-.71,4.57-.85,5.34-1.45-3.17.51-3.92,1.1-7.3,1.42.39-.29,3.65-.79,3.38-1.08-.72.1-1.44.13-2.16.19a8.29,8.29,0,0,0,2.11-.45c.21-.1.05-.15-.15-.2-.4-.09-.94-.17,1.07-.63-1.94.19-2.61.87-5.4,1,.79.11,3.05.19.45.76-1,.08-2,.22-3,.26-.64-.07.13-.26.8-.48s1.25-.44.27-.4c-1,.21-2.06.33-3.09.5.12.14,1.63.07.71.37-1.83,0-2.91.91-5.05,1.24a19.48,19.48,0,0,1-3.69,0c-2.14.32-4.6.36-7,.49-2.41,0-4.79,0-6.8.05,2.74-.05-.07-.52-1.66-.9,3.12.24,3.17-.26,3-.57-1.89-.11-3.17.24-2.23.49-3.13-.51-2.22.18-5-.51-1.76-.42,1-.34.36-.6-3.37-.51-1,.43-4.65-.21.21,0,.54,0,.27-.13a15.69,15.69,0,0,0-4.58-.5,9.42,9.42,0,0,0-1.75-.61c-.63-.18-1.28-.34-1.86-.47-1.15-.26-2-.45-1.72-.69-4.74-1,.61.49-.36.46a15.42,15.42,0,0,1-1.73-.3c-.62-.17-1.27-.37-1.89-.58-1.25-.4-2.38-.83-2.92-1,1.15.34,2.25.49,3.33.92l-.86-.7a24.29,24.29,0,0,0-3.09-.91,10.49,10.49,0,0,0-1.67-.28,12.41,12.41,0,0,1-4.56-1.37c2.89.87,1,.06,2.55.29-.91-.13-5.07-2-2.64-.65-2-.88-3.38-1.51-4.74-2.18a48,48,0,0,0-4.91-1.73,44.1,44.1,0,0,1-5.73-3.69c-5.73-3-10.3-6.84-15.72-10.88l.36.34c-4-3.48,1.43,1.94-2.74-1.63.45,0-.12-.55-.95-1.33s-1.81-1.83-2.36-2.54-1.16-1.17-1.72-1.71l-1.6-1.66c-1-1.07-2-2.09-3-3.09a55.84,55.84,0,0,1-5.51-6.72c.12,0,.46.22,1.2,1.16-2.78-3.81-5.05-6.85-7.28-10.45l.15.12c-3.3-5.94-6.56-11.18-9.42-17.65.28.5.52.57.75.95-.33-.83-.7-1.77-1.1-2.76s-.75-2.06-1.15-3.06-.78-2-1.16-2.85a21.53,21.53,0,0,0-1-2.19,18.06,18.06,0,0,0-.93-3.54,27.47,27.47,0,0,1-1-4.44c0-.32.21.5.32.84-.56-2.59-.9-4.44-1.42-7.08-.72-2.87-1.19-4.67-1.7-6.6-.2-1-.39-2-.56-3.16a35,35,0,0,1-.39-4.31c.35-.2.43.86.56,2s.28,2.29.57,2.34a16.45,16.45,0,0,1-.51-4.43c.34,1.12.19.24.49,1,.11-1.45-1.11-5.78-1-5.77-.13-.07-.23.43-.11,1.79a16.83,16.83,0,0,1-.3-4.41c0-1,0-2,0-2.95s.08-1.93.07-2.77c-.07,1.08-.3,4.5-.6,3.22.32-4.51-.32-6-.26-9.23.7-4.13.3,3.12.85,2.37.24-.68.78-2.29.81-.56.24-1.83.26-3.43.37-5s.21-3,.39-4.69l.12.11c.16-1.14.39-2.29.55-3.46s.29-2.33.53-3.46.46-2.23.71-3.28a17.7,17.7,0,0,1,.91-3c-.26.64-.53,1.28-.74,1.93.07-.77.88-3,1-4.29.17.2,1.28-2.62,1.09-1.37,0-1.11.84-3.59,1.68-6.14a48.09,48.09,0,0,0,2.21-6.2c.74-1,.54,0,.52.4a23.87,23.87,0,0,0-2.19,5c1-2.23,1.89-3.77,1.89-3.36.59-2.41,3.17-7.63,3.49-8.88,1.12-1.42,2.1-2.82,2.1-2.08,1.95-3.19,1.23-2.56.54-2.05s-1.26,1,1.16-2.55c2.49-3-1.73,3.4,1.39-.93l-.51.85c1.46-1.33,1.81-1.89,2-2.67a7.88,7.88,0,0,1,1.76-3.37c.77-.12-1.58,2.64.57.5,1.23-1.56,2-2.77,2.84-4a17.93,17.93,0,0,1,3.2-3.71l-.29.61L294.09,60l1-.94,1.06-.92,3.8-3.32c.17,0-.14.22-.48.57,3.81-2.79,1.38-1.44,4.64-3.53l.72-.89c-.82.52-2,1.31-3.22,2.19-.61.44-1.22.9-1.78,1.36A12.48,12.48,0,0,0,298.33,56c1.65-1.87-3.35,2-2.73.91l-.25.46C290,61.11,284.18,67.3,279.26,74c-.62,1.17-1.3,2.17-1.9,3.18s-1.2,2-1.82,2.91A41.1,41.1,0,0,0,272,86.63c.13,1-.36,1-2.23,5.44,1-2.35-.33-.47-1,1a31.58,31.58,0,0,1-.9,3.14c-.63.79-3,6.46-3.19,8.74-.92,2.81,0-.73,0-1.37-.66,1.06-.38,2.39-.84,3.28,0,0-.06-.06,0-.37-.29,1.09-.54,2.08-.79,3s-.41,1.83-.62,2.72c-.41,1.78-.88,3.58-1.21,5.92.27.24.16,1.39,0,2.74a30.54,30.54,0,0,0-.34,4c-.11-.69-.52,2.61-.66,3.94l.35,2.54c.26,2.49-.37,3.45-.12,6.67l.1-.78c0,.59.07,1.42.07,2.36s0,2,.06,3.08c0,2.13,0,4.26,0,5.43a215.26,215.26,0,0,0,6,27.13,101.09,101.09,0,0,0,11.75,26.19c.94,1.17-.31-1.09.53-.24,1.29,1.94,1.52,2.42,2.74,4.15-.92-1.63-.92-1.27-.64-1.17-.67-.85-1.25-1.77-1.88-2.65,0-.16.16.14.07-.17-.61-.9-1.4-1.92-2.09-3.14,1.17,1.64,1.86,1.87,3.15,4.3a6.89,6.89,0,0,1-.78-1c1.16,1.94,1.38,1.93,2.26,3.38,1.09,1.77.92,1.27.91,1.6.58.9,1.13,1.83,1.75,2.72l1.87,2.63a18.62,18.62,0,0,1,1.7,1.84c.56.63,1.09,1.27,1.56,1.87.94,1.21,1.65,2.25,2,2.67-.76-.27-2.89-3.17-4.21-4.15.41.67.86,1.31,1.28,2l.34-.1,2.1,2.59-.17-.1a3.75,3.75,0,0,1,1.21,1.14c.07.14.23.43,0,.18l1.77,1.6c-1.2-.77,1.36,1.59.85,1.61,5.42,5.62,7.48,6.49,12.53,11.13-.76-.83,2.07.87,3.74,2.14.95.76,1.15,1,.43.69l2.39,1.39a21.81,21.81,0,0,0,4.32,3.17c.82.5,1.67,1,2.61,1.57s2,1.08,3.07,1.73l-.31,0c.88.35,1.76.76,2.77,1.19s2.12.92,3.39,1.55l-.61.09c3,1.71,2.69.45,6.11,2.12.12-.34-2-1.43-2.22-1.89.67.68,4.42,2.29,3.64,1.68,3.57,1.21,2.45.91,2.72,1.12l2.16.53c2.49.9.65.74-.35.61a17.84,17.84,0,0,1,1.85.46c.63.16,1.26.34,1.9.55,1.27.41,2.56.9,3.91,1.31-.38,0-.76-.1-1.14-.16,1.17.41,2.38.67,3.57,1,1.22.13,2.63.47,4.15.73s3.1.61,4.62,1l-2.21.06c2.12.67,1.14.06,1.73.09a21.34,21.34,0,0,1,5.93,1.26C370.93,258.2,376.39,259.88,381.2,259.09ZM409.59,3.9l.48.19C408.94,3.91,408.28,3.83,409.59,3.9ZM438,13.66c-3.39-1.32-2.25-1-2.45-1.28l2.2,1,1.88.91c1.2.6,2.37,1.14,3.74,1.93a2.16,2.16,0,0,1-.55-.62,8.31,8.31,0,0,1,2.43,1.72C443.75,16.93,436.73,12.74,438,13.66ZM372.26,3.43l.41-.12h0Zm17.65-.3a5.6,5.6,0,0,0,1.2.31A2.3,2.3,0,0,0,389.91,3.13Zm34.2,7.65a29,29,0,0,0,3.72,1.46C427.25,12,426.24,11.48,424.11,10.78Zm68.16,179.63c.46-1,1.28-2.79.24-1.29-.29.84-1.36,2.17-1.54,2.92l-.12.14A19.33,19.33,0,0,0,492.27,190.41Zm-80.81,62.32c.15-.24.86-.64.33-.66l.3-.06c-.28,0-.51,0-.32-.09a20.52,20.52,0,0,0-2.29.52C409.35,253.14,407.6,253.67,411.46,252.73Z"/><path class="cls-1" d="M442.8,237.49,442,238Z"/><path class="cls-1" d="M409.65,252.41a18.94,18.94,0,0,0,2.14-.34A10,10,0,0,0,409.65,252.41Z"/><path class="cls-1" d="M316.21,16.28l.92-.51-2,.73c-3,1.84-3,2.16-3.62,2.85,1.3-.86,2.4-1.49,3.61-2.14s2.57-1.23,4.36-2.14Z"/><path class="cls-1" d="M318.74,17.46a11.71,11.71,0,0,0,1.7-.45l.38-.4Z"/><path class="cls-1" d="M357.65,6l-3.23.39C353.44,6.75,357.2,6.39,357.65,6Z"/><path class="cls-1" d="M342.68,5.85l-1.63.66a11.82,11.82,0,0,0,3.86-1.13C342.91,6.05,344.37,5.39,342.68,5.85Z"/><path class="cls-1" d="M366.3,4.87c1-.47,3.25-.1,3.88-.52C369.34,4.52,366.42,4.47,366.3,4.87Z"/><path class="cls-1" d="M363.6,1.48c-1.1-.22-2.8.31-4.9.52C360.44,1.75,362.93,1.84,363.6,1.48Z"/><path class="cls-1" d="M383.71,3.11c-.18.27-1.55.24-3.1.17A12.28,12.28,0,0,1,382.16,3c-2.59.21-2.76.13-4.82.3,2.06.15,5.16.34,4.82.67C383.68,3.73,385.6,3.42,383.71,3.11Z"/><path class="cls-1" d="M368.64.94a32.33,32.33,0,0,0-4.93.14c.39.16,1.11.29,3.55.06l-.84.39C368.71,1.58,365.49,1.18,368.64.94Z"/><path class="cls-1" d="M393.1,4.46l-1-.25c-.6,0-1.25,0-1.89,0l-1.92,0a14.47,14.47,0,0,0-3,.17c1.45.06,3.07.1,4.5.1S392.4,4.5,393.1,4.46Z"/><path class="cls-1" d="M377.26,1.07l.32-.46c-2.45,0,.18.14-.69.28a10.93,10.93,0,0,0-2.26.07C377.41.78,374.82,1.31,377.26,1.07Z"/><path class="cls-1" d="M385.31.65l3.15,0L386,0C382.32,0,385.84.27,385.31.65Z"/><path class="cls-1" d="M389.15,1.15l.34.1c1.58-.14,3.17-.16,4.76-.24A37.4,37.4,0,0,0,389.15,1.15Z"/><path class="cls-1" d="M442.35,19.07c.27,0-.16-.32-.54-.59s-.74-.43-.27-.08C441,18.27,444.07,20.23,442.35,19.07Z"/><path class="cls-1" d="M433.79,11.06a32.4,32.4,0,0,0,3.34,1.42c1.42.54,2.87,1.19,3.77,1.54C438.82,13,433.6,10.69,433.79,11.06Z"/><path class="cls-1" d="M441.64,14.32l-.74-.3C441.23,14.16,441.46,14.26,441.64,14.32Z"/><path class="cls-1" d="M500.61,69.23a4.81,4.81,0,0,0,.33.5C500.82,69.55,500.73,69.4,500.61,69.23Z"/><path class="cls-1" d="M499.58,67.55c-.29-.6-.77-1.47-1.24-2.22a7.66,7.66,0,0,0-1.16-1.5l.85,1.28c.27.43.53.86.79,1.3.54.88,1.11,1.79,1.79,2.82C500.15,68.43,499.74,67.37,499.58,67.55Z"/><path class="cls-1" d="M507.15,84.84c-.45-.89-.84-2.17-.9-1.79C506.35,83.6,507.24,85.49,507.15,84.84Z"/><path class="cls-1" d="M482.83,201.76c-1.15,1.3-1.72,2.15-1.21,2C482.82,202.18,482,202.92,482.83,201.76Z"/><path class="cls-1" d="M480.29,205.51l-.25.1c-.3.25-.57.52-.89.75C479.55,206.09,479.91,205.8,480.29,205.51Z"/><path class="cls-1" d="M472,214.19a3,3,0,0,1,.41-.61C472,214.1,471.62,214.54,472,214.19Z"/><path class="cls-1" d="M472.65,213.32l-.22.26Z"/><path class="cls-1" d="M473.26,212.81l0-.2c-.11.16-.36.44-.59.71A2,2,0,0,1,473.26,212.81Z"/><path class="cls-1" d="M469.45,216.69c.64-.43,1.32-.83,1.94-1.29.74-.93.23-.48-.3-.05s-1.11.81-.44-.16Z"/><path class="cls-1" d="M463.66,222.14c-.87.65-1.76,1.66-2.67,2.48a7.91,7.91,0,0,1-2.38,1.71c-2.34,2-1.94,2-1.62,2s.56.11-2.29,2.24c2.84-1.82,3.33-2.59,3.78-3.24s.83-1.25,3.25-3c-1.23.77-.89.43-.16-.2S463.34,222.5,463.66,222.14Z"/><path class="cls-1" d="M465,222.1c.1-.43-2,1.37-2.56,2.07A11.3,11.3,0,0,0,465,222.1Z"/><polygon class="cls-1" points="454.32 229.78 452.67 230.71 452.35 231.13 454.32 229.78"/><path class="cls-1" d="M448.32,233.69l1.38-1.23C449.26,232.88,446.93,234.34,448.32,233.69Z"/><path class="cls-1" d="M439.53,238.38c-1.58.69-2.67,2,.52.22l-.76.35C439.43,238.76,437.58,239.44,439.53,238.38Z"/><path class="cls-1" d="M418.66,248.27c1.15-.34,2.45-.91,2.17-1-1,.4-2,.8-3.07,1.14Z"/><path class="cls-1" d="M419.63,249.71c1.18,0,2.94-1.05,5.07-1.64C422.3,248.81,422.56,248.66,419.63,249.71Z"/><path class="cls-1" d="M414.91,248.76a16.17,16.17,0,0,1,2.93-.9A7.1,7.1,0,0,0,414.91,248.76Z"/><path class="cls-1" d="M409.9,250.2c-1.07.09.17-.28-.63-.2a38.1,38.1,0,0,0-5.85,1.29c.63.06,1.53.37.63.75,3.6-.79,5.23-2,7.1-1.87.93-.49,1.87-.92,2.78-1.46C411.09,249.36,411.88,249.75,409.9,250.2Z"/><path class="cls-1" d="M417.44,249.59l-2,.33c.44.11-1,.58-2,.94C414.13,251.23,416.36,249.93,417.44,249.59Z"/><polygon class="cls-1" points="389.91 253.63 385.75 253.95 387.11 253.92 389.91 253.63"/><path class="cls-1" d="M387.23,253.59l-.12-.15c-1.05.14-2.11.31-3.16.42C385,253.8,386.14,253.68,387.23,253.59Z"/><path class="cls-1" d="M382.87,253.56l.49,0c.82,0,1.63-.13,2.44-.21C384.83,253.47,383.85,253.54,382.87,253.56Z"/><path class="cls-1" d="M374.22,253.26l.75.26c1.06,0,3.15.34,3,0A15.78,15.78,0,0,1,374.22,253.26Z"/><path class="cls-1" d="M344.44,253.6c.79.08.38-.18,0-.44H343.1A6.38,6.38,0,0,1,344.44,253.6Z"/><path class="cls-1" d="M339.67,251.35c-1.06-.23-2.13-.43-3.18-.69a31.26,31.26,0,0,0,3.72,1.22c1,.23,1.87.51,3.43.93-1.28-.5-3.16-.91-4.75-1.58Z"/><path class="cls-1" d="M288.05,214.49c.4,0-.1-.48,1.58,1.21-.56-.59-1.09-1.17-1.61-1.75s-1-1.2-1.45-1.82c-.95-1.25-2-2.51-3.07-4,.22.62-1.61-1.5-.73-.36s1.7,2.19,2.6,3.26l-.54-.38C286.46,213.06,286.22,212,288.05,214.49Z"/><path class="cls-1" d="M291.12,62.86c-.17.36.27.1.7-.16C293.42,60.88,290.8,63.22,291.12,62.86Z"/><path class="cls-2" d="M37.86,162.47c.17-.2.46-.7.31-.66l-.59.8Z"/><path class="cls-2" d="M38.25,160.54a7.27,7.27,0,0,0-1.36,1.79c.62-.74.43-.39,1.15-1.27.15,0,0,.36-.23.66.17-.19,0,.27.4-.22.3-.72.17-.84-.32-.4A3.61,3.61,0,0,1,38.25,160.54Z"/><path class="cls-2" d="M30.49,153.75v.14A.24.24,0,0,0,30.49,153.75Z"/><path class="cls-2" d="M25.46,149.89c.05,0,.12-.06.17-.14A.3.3,0,0,0,25.46,149.89Z"/><path class="cls-2" d="M25.14,148.39s0,.06,0,.09S25.19,148.34,25.14,148.39Z"/><path class="cls-2" d="M30.49,153.75l0-.35C30.33,153.67,30.46,153.65,30.49,153.75Z"/><path class="cls-2" d="M35.78,161.81a1.19,1.19,0,0,0,.22-.17l-.13,0Z"/><path class="cls-2" d="M33.27,154.57l0,0,.26-.32Z"/><path class="cls-2" d="M35.15,155.59a9.32,9.32,0,0,0-.7.95,1.5,1.5,0,0,1,.4-.43A5.26,5.26,0,0,0,35.15,155.59Z"/><path class="cls-2" d="M37.21,158.67l.12-.07Z"/><path class="cls-2" d="M32.08,153.6a2.41,2.41,0,0,0,.14-.27C32.17,153.42,32.12,153.51,32.08,153.6Z"/><path class="cls-2" d="M41.89,130l0,.14C41.92,130,41.91,130,41.89,130Z"/><path class="cls-2" d="M45.29,133.44l0,.05.1.46Z"/><path class="cls-2" d="M24.05,146.42v0C24.15,146.38,24.11,146.38,24.05,146.42Z"/><path class="cls-2" d="M19.09,143.18c-1.48-.42-1.62-.6-3.3-1.05C16.38,142.32,18.09,142.92,19.09,143.18Z"/><path class="cls-2" d="M35.79,161.68a.09.09,0,0,1-.08,0C35.73,161.69,35.76,161.7,35.79,161.68Z"/><path class="cls-2" d="M15.79,142.13h0l-.16,0Z"/><path class="cls-2" d="M20.67,144.86l-.26.28Z"/><path class="cls-2" d="M22.16,147.23v-.14C22.13,147.18,22.14,147.21,22.16,147.23Z"/><path class="cls-2" d="M19.05,145.24c.05-.05.16-.11,0-.07l-.1.06C19.1,145.18,19.17,145.15,19.05,145.24Z"/><path class="cls-2" d="M18.26,144.74l-.21.07h.09Z"/><path class="cls-2" d="M36.58,131.68a7.43,7.43,0,0,1,.26.71C36.67,131.82,36.88,131.55,36.58,131.68Z"/><path class="cls-2" d="M36,161.41c-.12.17-.19.25-.24.27h.08A1.7,1.7,0,0,0,36,161.41Z"/><path class="cls-2" d="M12,148.61l-.32-.35A.75.75,0,0,0,12,148.61Z"/><path class="cls-2" d="M23.84,134.9l0-.11S23.84,134.8,23.84,134.9Z"/><path class="cls-2" d="M10.15,147.45a1.29,1.29,0,0,0,.49-.38l-.33.05C10.25,147.23,10.2,147.34,10.15,147.45Z"/><path class="cls-2" d="M36.85,132.4h0Z"/><path class="cls-2" d="M38.23,130c-.27,0,.13,1.09.23,1.72-.25.38-.34-.76-.59-1.28-.13.33,0,1.36-.2,1.35a1.4,1.4,0,0,1-.12-.46c0,.91-.62.19-.61,1.33a1.61,1.61,0,0,1-.09-.26,15,15,0,0,1,.39,1.47c-.11,0-.06.73-.27,0,.08,0,0-.28,0-.51l-.06.34c-.36-1,.09-.4-.09-1.14-.17.39-.25,1.29-.51,1.05-.28-1,.36-.44-.11-1.26l.39.31c-.6-1.51.2.07-.41-1.55-.45-.2-.31.6-.76.41,0,.57.23.81.27,1.38-.3,1.12-1-2.39-1.11-1,.05.68.32,1.95-.13,1.35l-.17-1.14c-.4,0,.17,1.66-.4,1,0-.45.2-.44.12-.56-.47-.82,0,.68-.22.73l-.29-1c-.35.25-.62,1.07-1,1.36a2.27,2.27,0,0,0-.23-.91c-.43.63-1.21.17-1.89-.29v.9c-.05,0-.19-.36-.17-.54-.29-.27.12.55.1.91-.11.09-.28-.46-.27-.73-.19.81-.66,1.82-1.27,1v-.27c-.39-.27.09,1.84-.39,1.11l0-.17c-.75-.21-1.28.75-2.09-.42.2,1.26-.78-.39-.41,1.34-.58-.76-.55-1.09-1.21-1.54-.16,0,0,1.12-.08,1.35l-.22-.9v1L24,134.51l-.11.28a1.22,1.22,0,0,1,.29.63c-.15.46-.77-.48-.89-.94l-.42.91a2.06,2.06,0,0,1,0-.76c-.09,1-.28-.94-.37,0a4.81,4.81,0,0,1,.14.72c-.28-.51-.61-.43-.8-.14l-.11-.63c-.48-.05-.87.52-1.37.63a2.32,2.32,0,0,1,.35,1.47l-.29-.93c0,.61.24.32.22,1.08-.22-.06-.39-1.05-.36-1.38l-.15.38c-.08-.28-.06-.44-.14-.8.05.61-.62-.86-.51.2l-.08-.28a14.87,14.87,0,0,0-2,.87c.38.77,0,.67.17,1.33-.59-.13-1.59-.57-2.19-.35-.12.46.41.64.61,1.1-.61-.64-1.17-.43-1.3-1-.64.28-.87.36-1.12,1.07a3.14,3.14,0,0,1,.87.52c0,.13-.66-.17-1-.46l0-.07c.13.56-1,.26-2.22,0s-2.5-.37-1.77.27l-.07-.06a5.11,5.11,0,0,0,.41.76c-.59,0-.66-.43-1.69-.67.51.53.11.58-.41.6s-1.14,0-.74.36c-2.36-.59-2.93-.41-3.24-.19s-.38.49-2.41.24l1.22.26c.93.31-.93-.09-1.38-.11.95.2,1.3.18,1.81.35-.16.34-1.25.47-2.83.56,0,.43-.26.88.18,1.47.39.41,6.31.74,4.31,1l-2.28-.28a7.81,7.81,0,0,1,3,1.26,5.72,5.72,0,0,0,2.52,1.12,5.26,5.26,0,0,1-1.07-.06c-1,.24.91.62,1.82.5.07.13-.8.12-1.15.25s2,.21,1.09.46a1.68,1.68,0,0,1-.55,0c.69,0,.67.53,1.7.2-.11.4,1.32.41,1,.79,1.39-.21.2.66,1.85.16-1.66.54-.48,1,.45.83-.53.14-.21.36-.92.59a1.42,1.42,0,0,0,1.55-.17c-.52.64.13.66.61.65s.87,0,.19.78l2,.2.81.11.37.06h.25a1.37,1.37,0,0,1-.42.46l-.14,0-.18-.07c-.24-.1-.47-.19-.89.38A2.88,2.88,0,0,0,17,151c.23-.07.4-.19.58-.26.35-.15.64-.22.78.07s-.38.45-.54.62c.75-.18.81.66,1.61.3a.86.86,0,0,1-.28.26c.1,0,.08.28.4-.24l-.17.09c.36-.83,1.32-1.37,1.59-1.76-1.08,1.4.16.63-1.25,2.37a1.84,1.84,0,0,0,.55-.62c0,.15-.09.37-.43.71.47-.1.72-.71,1-.54a7.25,7.25,0,0,1-.49.6c.45-.41.89-.82,1-.46-.11.14-.21.35-.27.31.43.16,1.48-.9,1.59-.16-.82,1-.09.45-.67,1.41l.4-.14.2-.52c.19.14.8-.44.77,0l-.4.3.48,0,0-.49c.5-.36.74-1.21.83-.78-.12.06.19.14-.07.76h0c.29-.24.59-.49.58-.17s-.69,1-.8,1.24c.6-.72.6.08,1.25-.69a5.15,5.15,0,0,0-.53.78l.49-.59a1.46,1.46,0,0,1-.36.75c.2.29.68-1.25.67-.53-.06,0-.11.14-.22.21.15.47.88,0,1,.49-.52,1-.41.07-.82.94.54.1,1.61-.58,1.88-.09v-.15c.92-1.31-.11.86.5.36a2.86,2.86,0,0,0-.43.56c.15.39.79,0,1.49-.11l-.27.31c0,.42.32.46.4.73.28-.31.34-.19.6-.73-.69,2.32,1.74-.37,1.19,1.58-.07,0-.34.21-.29.24l.62-.05a3.73,3.73,0,0,0,.38-.9c.27-.31.56-.5.66-.44-.43.27-.59.94-.72,1.32.1-.19.26-.37.36-.55-.44,1.18.79-1.15.64-.26l-.21.29c.22-.08.58-.42.64-.26-.38.71-.32.24-.68.8.19.07,1.15-1.07.88-.3-.2.14-.3.08-.49.22-.34.9-.19.71-.15.92v0l.06.55.06-.27c1.34-1.62.64,0,1.66-1-1,.91-.44.6-.95,1.35a2,2,0,0,1-.28.77c.53-.54-.08.63.69-.15-.15.25.13.11-.3.71.3-.08.23-.45.44-.75.81-.67,0,1.43,1.12.52.64-.26,1.23-1,1.81-1.27a2.16,2.16,0,0,1-.66.85c-.06.47.11.48.45.3a2.48,2.48,0,0,0-.38.71c.17,0,.66-.85.6-.37-.21.25-.52.67-.76.91.29-.13.74-.5,1-.62a3.17,3.17,0,0,1-.75.84,1.76,1.76,0,0,0,1.2-.75l0-.31c.08,0-.34.6-.47.7-.49.43-.07-.38.08-.63l.22-.09c.8-1.52-.6-.05-.77-.28l.76-1-.79.72a2.66,2.66,0,0,1,.68-1c.17-.62-.38.29-.15-.38a.39.39,0,0,1,.12-.18l-.35.21c.17-.2.44-.76.44-.54.11-.79-1,.49-.55-.37l.06-.05c-.62.1-.53.75-1.4,1.46l1-2-.53.75s-.06-.16.15-.46c-.49.43-.19.35-.6.79.26-.82-.74,0,0-1.27-.45.54-.11.57-.57.85.78-1.36-.39.07-.18-.65.49-.65.43-.18.64-.9-.85,1.08-.19-.48-.48-.35-.59.91-.57.17-1,.32.22-.3-.15-.81-.17-1.29l.1-.15c-.64.9-.77.57-1.06.65a3.3,3.3,0,0,1,.78-.94l-.17-.1c-.22.27-.38.4-.55.43l.48-.66c-.24-.11-1,.53-1-.12-.43.64-.93,1.95-1.5,2.19a4.62,4.62,0,0,1,.75-1.05c-.05,0-.28.23-.23.05l.49-.52c0-.34-.38.45-.45.33.32-.5.15-.4.42-.79.06,0,0,.26.13.09a1.45,1.45,0,0,1,.18-1c-.17.29-.43.67-.56.68s.31-.65.35-1c-.28.31-.19-.14-.67.61-.06-.05.15-.4.25-.62-.32.26-.59-.25-1,.63V154l0,0h0c-.85.51-.51-.92-1.08-.83l.15-.25c-.4.14-.6-.15-1.1.29-.06-.05.14-.56.36-.84-.29.08-.49.35-.47-.22.45-.33.19-.42.38-.21-.09-.35.12-.78-.55-.25.49-.59.35-.91.12-.79l-.14.56c-.18,0-.24-.11-.31-.23l.59-.8c.2-1.31-1.92,1.22-1.17-.71-.5.51,0,.57-.57,1.19-.13-.25.42-1.59.36-1.64,0-.64-1.05,1.06-1.14.56-.16.32-.63,1.14-1,1.28-.14-.24.54-1.42.83-1.57.06,0,0,.11,0,.21a.69.69,0,0,0,.43-.51l-.22.28c.1-.37-.21-.52.17-1a.64.64,0,0,0-.36.68c0-.61-.41-.28-.5-.75-.06.2-.24.57-.29.54-.16-.62-.54.46-.89.42.14-.56.75-1.06.23-.85,0-.42.48-.82.7-1-.62.42-.23-.68-.3-.88l.29-.15c-.17.09-.24,0-.3,0l-.31.65a.48.48,0,0,1,.09-.45,14.21,14.21,0,0,1-1.08,1.48c.09-.37-.52.12-.05-.7.15.48.48-.82.83-.77-.11.06-.17,0-.18-.14a.39.39,0,0,1,.16-.19c.15-.91-.71.81-1,.59.32-.43.47-.9.35-.84.13.09-.41.79-.75,1.06,0-.49-.39.11-.47,0v.25c-.32.42-.39.29-.62.34.21-.35.28-.15.33-.34-.66.69.16-1-.4-.66.09-.37.53-.85.57-1.11-.62.42.12-.79-.45-.47a1.72,1.72,0,0,1-.76,1l.7-.15-.83.7c.12.09.51-.2.52-.05a1.55,1.55,0,0,0-.59.81c.4-1-.69.3-.5-.44l1-1.49c.07-.42-.24-.36-.46-.17s-.47.39-.42.16l-.14.28c-.47.53-.19,0-.46.16.43-.44.54-.62.79-.89-.32.31-.05-.09-1,.7.17-.2.36-.39.55-.58s-1.67.94-1.73.66c.68-.33,1-.61,1.56-.81,0,0,0-.12-.38.11.36-.21-.95.34-.42,0-.3.12-1,.42-1,.34l.33-.14a7.35,7.35,0,0,0-1.23.47c.9-.52.75-.58.52-.65s-.53-.14.47-.44a3.63,3.63,0,0,1-1-.15c.27,0,.44-.06.37,0,.69-.22-2.71.28-2,0a12.47,12.47,0,0,1,1.45-.12c1.53-.18,1.39-.19,1.06-.2s-.87,0,.05-.12h.22c1.09-.09-1.45-.05-1.38-.17h.54a17,17,0,0,1-3.59-.39c1.59.11.89.09,2.4.14-.29-.06-2.44-.09-3.08-.23.78,0,1.41,0,3.12.08l.21.08c2.14.1-.21-.09.11-.11l1,.08c-.45-.1-3-.36-3.11-.5l-.77-.07c-2.81-.41,1.38.1-.76-.24l2.73.34c-.72-.12-3-.56-3.77-.78,2.3.42,3.54.68,4.85.89a10.82,10.82,0,0,0-1.88-.4c.31.07,1.05.2.63.15-1.52-.26-2.61-.48-3.24-.64-.21-.06-.26-.1-.16-.12a30.2,30.2,0,0,0,3.58.55,10.47,10.47,0,0,1,2.54.4c-.87-.23-.54-.22-.07-.15a5.24,5.24,0,0,0,1,.14c-3.5-1,0,0-3.51-1.08-.12-.09,0-.09.2,0,.77.19,1.5.39,2.2.59,1,.32.65.26,1.39.51.32.06,1.39.46,2.24.75-1.13-.4-1.58-.58-1.13-.43L19,143c-.75-.32-.05-.09.58.15s1.26.5.55.17l.87.38c-.48-.23,0,0-1.87-1.05.3.15,1,.5,1.13.6s-.25-.23-.5-.48-.36-.46.17-.12l.44.35c-.11-.1-.77-.68-.29-.33.17.15.41.36.45.38-.15-.12-.64-.65-.36-.45l.41.42c.31.22.08,0-.17-.41a2.46,2.46,0,0,1-.5-1c.86,1.15,1.2,1.51,1.33,1.7l.09.17c.07.06,0-.19-.09-.55a3.55,3.55,0,0,1-.06-.57c0-.19.14-.41.23-.56.69,1.3,1.34.29,2.1.93a2.2,2.2,0,0,1-.16-1.16c.19.23.15-1,.41.21h-.05c.38,1.13.58.75.8.73L24.17,141c1.11,2.11,1.27-1.18,2.06.76,0-.42.21-.46.25-.88l.2.83a1,1,0,0,0,1.05-.13l.05.61c.27,0-.25-2.46,0-2.56l.38,1.21c.45-.13,1.17.84,1.35-.39,0,.19.11.55.05.61.22,0,1,.64.54-1,.27,1.1.49,0,.62-.55l.16.82c0-1.08-.11-1.37.11-1.73.1.09.22.64.08.45.33.37,0-.81.37-.45l0,.55c.25,0,.16-.27.14-.91.07-.36.5.1.71.83-.08-.46-.09-1.09.1-.91a1.7,1.7,0,0,1,.07.55c.53.45.35-1.09.82-.36a2.49,2.49,0,0,0,.16.48c-.31.05-.58.07-.57,0,.18.75.47.82.52,1.91.07-.62.11-1.93.44-1.64,0,.07.06.14.1.25v.09c.07.07.1,0,.12-.15.11.1.18.18.26.17.18.61.37.27.5.27-.21-.82,0-.73-.33-1.37,0,.05,0,.1-.07.16a.13.13,0,0,0,0,.1v-.08a1.32,1.32,0,0,1-.29.13c0-.44,0-.81.26-.39-.06-.54-.12-1.1-.14-1.37.45,1.1.93,1.64,1.15,2.33.27-.55.83-.52.69-2.12.07-.22.24.41.34.65s-.11.16-.09.39c.12-.45.61-.31.4-1.4.39.42.09,1,.42.76l0,.34c1.16,1.54.54-3,1.91-1a.88.88,0,0,1-.19-.36c1.17.75,1.71-1.38,3-.06.34.24.2-.45.23-1l.27.86,0-1.08c.21-.84,1.2,2,1.35.47l-.2-.58c.2.07.47-.48.61.21,0-.12-.09-.63.05-.34l.12.46.24-.9c.42.25.4,1.84.91,1.81a3.59,3.59,0,0,0,.05-1.76c-.08,0-.26-.24-.37-.7l.11-.28a9.88,9.88,0,0,0-1.16-3.63l-.08.9-.25-.64L44,130c-.29-.59-.24,0-.25.38a2.9,2.9,0,0,0-.29-.69l0,1.36c-.16-.52-.13-1.08-.39-1.33,0,.63.41,1.16.29,1.61-.28-.58-.37-1.1-.4-.53a1.58,1.58,0,0,1-.1-.74c0,.45-.34.26-.24,1-.32-.72-.43.32-.73-1a2.59,2.59,0,0,1-.13,1.16c-.13-1.6-.51,0-.85-1.64.16,1.43-.49.77-.62,1.62,0-.12,0-.35,0-.28-.21-.08-.36-.48-.54-.71a7.34,7.34,0,0,1,.06,2.21c-.48-1.05-.19-1.37-.52-2.41.24.92-.15,1,.11,1.77a4.77,4.77,0,0,1-.54-1.22c.32,1.43-.09.27,0,1.19-.41-.65-.39-1.33-.55-.83A1.63,1.63,0,0,1,38.23,130Zm-5.69,4h0l.12-.08Zm-.52.14a.37.37,0,0,0,.23,0c.09.28.14.57.09.57C32.32,134.5,32.15,134.36,32,134.14Zm2.5,5.41c-.06.14-.13,0-.18-.18a.6.6,0,0,0,.13-.14l0-.1C34.48,139.29,34.51,139.44,34.52,139.55Z"/><path class="cls-2" d="M34.41,138.44s0-.06,0-.07l-.1-.17,0,.26Z"/><path class="cls-2" d="M30.48,153.91v0l0,.11Z"/><polygon class="cls-2" points="24.34 134.35 24.39 134.56 24.39 134.37 24.34 134.35"/><path class="cls-2" d="M31.45,158a.9.9,0,0,0-.08.21A1.56,1.56,0,0,0,31.45,158Z"/><path class="cls-2" d="M32.44,158.82v.35A1,1,0,0,0,32.44,158.82Z"/><path class="cls-2" d="M33.05,159.71l.22-.3h0Z"/><path class="cls-2" d="M19.18,152s0,0-.05,0S19.05,152.11,19.18,152Z"/><path class="cls-2" d="M24.21,152.9a2.62,2.62,0,0,1-.34.25C23.9,153.25,24,153.3,24.21,152.9Z"/><path class="cls-2" d="M12,148.65h0l0,0Z"/><path class="cls-2" d="M23.69,153c0,.19.06.2.18.13C23.84,153.07,23.82,153,23.69,153Z"/><path class="cls-2" d="M36.49,162.35l0,.05.07-.11Z"/><path class="cls-2" d="M36.58,162.29l.1,0S36.64,162.22,36.58,162.29Z"/><path class="cls-2" d="M36.89,162.12l-.21.12S36.74,162.31,36.89,162.12Z"/><path class="cls-2" d="M35.58,161.31l-.17.25A2,2,0,0,0,35.58,161.31Z"/><path class="cls-2" d="M35.2,161.17c0,.11-.15.68.07.59l.14-.2C35.11,161.91,35.55,160.79,35.2,161.17Z"/><path class="cls-2" d="M35.82,157.09l.15.38c.13-.3.3-.71.47-.7C36.61,155.72,36.12,157.43,35.82,157.09Z"/><path class="cls-2" d="M35.2,156.13c.23,0,.25-.4.36-.55C35.3,155.77,35.24,155.82,35.2,156.13Z"/><path class="cls-2" d="M28.86,152.08l.43-.64C29.12,151.46,29.13,151.69,28.86,152.08Z"/><polygon class="cls-2" points="25.52 154.65 25.38 155.13 25.81 154.57 25.52 154.65"/><polygon class="cls-2" points="27.74 149.59 27.85 149.53 27.51 149.64 27.74 149.59"/><path class="cls-2" d="M19.38,144.57l-1.22.35A6.23,6.23,0,0,0,19.38,144.57Z"/><path class="cls-2" d="M15.6,143.3c1,.1,1.68.16.58,0C16.07,143.31,15.29,143.25,15.6,143.3Z"/><polygon class="cls-2" points="24.72 142.06 24.69 142.39 24.83 142.09 24.72 142.06"/><path class="cls-2" d="M220.87,143.54c0-.28-.38-.75-.6-.5l.3,1Z"/><path class="cls-2" d="M218.08,143a2.67,2.67,0,0,0,.62,2.22c-.15-1,.13-.7-.09-1.88.22-.25.65,0,.78.35,0-.27.54,0,.38-.67-.75-.46-1.22-.24-1.38.57C218.18,143.43,218.15,143.15,218.08,143Z"/><path class="cls-2" d="M189.69,154.45l.23,0A.37.37,0,0,0,189.69,154.45Z"/><path class="cls-2" d="M171.51,159.47a.23.23,0,0,0,.15-.26C171.55,159.31,171.46,159.39,171.51,159.47Z"/><path class="cls-2" d="M168.13,159.13l.2,0C168.23,159.08,168.15,159.05,168.13,159.13Z"/><path class="cls-2" d="M189.69,154.45l-.58-.13C189.19,154.64,189.44,154.46,189.69,154.45Z"/><path class="cls-2" d="M215.51,147.12a.77.77,0,0,0,.12-.36l-.18.22Z"/><path class="cls-2" d="M197.13,150.66l.14-.06a2.12,2.12,0,0,0,0-.42Z"/><path class="cls-2" d="M202.89,148c-.14,0,.17.81.27,1.17a.87.87,0,0,1,0-.66A2.57,2.57,0,0,0,202.89,148Z"/><path class="cls-2" d="M212.62,144.81l.1-.19S212.65,144.74,212.62,144.81Z"/><path class="cls-2" d="M192.85,152.21a2.11,2.11,0,0,0-.16-.26A.76.76,0,0,0,192.85,152.21Z"/><path class="cls-2" d="M16.61,148.76s0-.09.06-.14S16.56,148.74,16.61,148.76Z"/><path class="cls-2" d="M11.53,141.79h.11l.24-.41Z"/><path class="cls-2" d="M162.2,159.35h0C162.36,159.23,162.28,159.27,162.2,159.35Z"/><path class="cls-2" d="M108.87,163.44c.57.79-1.05.9-.18,1.8C108.62,164.9,109.6,164,108.87,163.44Z"/><path class="cls-2" d="M215.3,147.11a.86.86,0,0,1-.23.13A.41.41,0,0,0,215.3,147.11Z"/><path class="cls-2" d="M108.69,165.24h0l.09.09Z"/><path class="cls-2" d="M149,162a1.37,1.37,0,0,0,.19.34A.85.85,0,0,0,149,162Z"/><path class="cls-2" d="M159.14,161.64l-.27-.07A.56.56,0,0,0,159.14,161.64Z"/><path class="cls-2" d="M144,163.81c-.14-.06-.2-.17-.37,0a.36.36,0,0,0,.07.1C143.72,163.75,143.81,163.69,144,163.81Z"/><path class="cls-2" d="M138.54,164.3l.11.16.17-.06Z"/><path class="cls-2" d="M32.58,154.66a3.66,3.66,0,0,1,0-.81C32.48,154.45,31.63,154.37,32.58,154.66Z"/><path class="cls-2" d="M215.28,146.71c.07.2.08.31,0,.4s.1-.09.15-.13A.57.57,0,0,0,215.28,146.71Z"/><path class="cls-2" d="M144.43,170.44l-.91,0A3,3,0,0,0,144.43,170.44Z"/><path class="cls-2" d="M71.17,165.39l-.22.06A.16.16,0,0,0,71.17,165.39Z"/><path class="cls-2" d="M140.89,170.76a1.36,1.36,0,0,0-.55-.53.63.63,0,0,0-.08.22Z"/><path class="cls-2" d="M32.6,153.85Z"/><path class="cls-2" d="M26.41,153.68c.79.33.76-.87,1.16-1.4,1.05.07.14.93.26,1.58.7,0,1.51-.82,1.94-.62,0,.18,0,.27-.15.45.93-.6,1.87.64,3-.14a.76.76,0,0,1,0,.3,5.62,5.62,0,0,1,.4-1.48c.36.12.9-.42.79.32-.21-.1-.33.16-.51.34l.48-.16c0,1.1-.63.15-.89.88.84-.05,2-.56,2.43-.1-.22,1-1.42-.12-1,1l-.74-.68c.12,1.76-.48-.29-.45,1.55,1,.69,1.45,0,2.49.63.44-.45.19-.82.63-1.27,1.94-.41.45,2.86,2.08,2,.53-.54,1-1.72,1.69-.8l-.66,1c1.08.46,1.15-1.37,2.08-.26-.35.36-1,.08-.87.27.48,1.1.74-.45,1.32-.27l-.19,1c1.24.22,2.75,0,4.13.17-.16.27-.48.5-.27.89,1.82,0,3.52,1.18,5,2.24l.86-.68c.14,0,.16.46,0,.58.54.49.18-.53.58-.78.38,0,.34.62,0,.81,1.32-.41,3.59-.69,4.52.54l-.3.2c.83.59,1.49-1.47,2.13-.47l-.2.11c1.9.87,4.28.63,5.5,2.29.57-1.15,1.86,1,2.38-.69.95,1.1.55,1.34,2,2.27.42.18.88-.94,1.45-1l-.18.91.92-.79.16,1.17.55-.13a.74.74,0,0,1-.26-.75c.87-.24,1.79,1,1.71,1.48l2-.41c-.11.36-.44.42-.74.61,1.18-.74,0,1,1.07.32-.08-.23.17-.53.23-.71a2.3,2.3,0,0,0,2.19.75l-.26.6c1.35.45,3,.21,4.53.49-.51-.39-.2-1.46.27-1.49l0,1c.4-.55-.41-.44.31-1.07.56.2.21,1.16-.17,1.41l.76-.21c0,.29-.2.42-.3.78.38-.56,1.07,1.16,1.65.19v.3a31.32,31.32,0,0,0,3.6.16c.14-.84.61-.58,1.09-1.21.89.39,1.84,1.19,3,1.26.84-.31.32-.67.74-1.12,0,.77,1.09.84.44,1.31a8.93,8.93,0,0,0,3.54-.38c-.15-.33-.35-.49-.21-.74.32-.09.67.39.59.76l-.09.07c2-1,4.23,2.68,5.92,1.22l-.1.08,1.67-.73c.72.18-.49.55,0,1.06,1.82-1.16,2.71.37,4.19-.39.48,1.16,1.46,1.19,2.49,1.11s2.12-.32,2.84.43l-.06-.54c.4-.51.45.32.73.45,0-.41-.4-.49-.15-.77a12.85,12.85,0,0,1,5,.36c1.69.34,3.4.79,5.08,1,1.23.14.66-2.76,2.22-1.5l-.42,1c2.44-1.16,5.06-.12,7.43-1.23-.13.24-.12.54-.36.54.55.7,1.89,0,1.87-.64.38.05.11.53.36.81.54.4,1.23-1,1.55-.27.05.11-.13.24-.22.3.31-.35,1.56,0,1.18-.82.94.31,1.7-.53,2.46-.1.39-1,1.59.3,1.62-1,.06,1.36,1.69.95,2.19.26-.15.43.54.38.38,1,.65-.08,1.22-.39,1-1.07,1.39,1.53,2.25-1.6,3.17.39A33.06,33.06,0,0,1,154,167.5c.14,1.35-1.89.39-1.61,1.79,1.57-.79,2.34-2,4-2,.45.1-.14.62-.25.87,1.54-.85,3.18-.45,4.5-1.44,0,.12-.11.28-.24.41.28-.09.7.08.55-.52l-.24.21c-.62-.79.78-2,.74-2.51-.15,1.82,1.51.18,1.17,2.5a.85.85,0,0,0,.22-.87c.3.07.44.29.24.8,1-.52.47-1.09,1.39-1.25.06.29-.1.44-.13.8.36-.65.7-1.32,1.53-1.26,0,.19.13.4-.11.45,1.32-.4,1.93-2,3.5-1.83-.13,1.36.59.3.93,1.37l.71-.51-.45-.46c.7-.14,1.1-1.07,1.78-.85l-.4.56,1.23-.5-.82-.24c.55-.73-.42-1.36.56-1.27-.16.15.68-.14,1.2.41h0c.24-.44.49-.9,1-.78.23.31.22,1.23.37,1.43.08-1,1.51-.7,1.66-1.78a1.82,1.82,0,0,0,.15.93l.07-.81c.38.14.46.24.54.71,1-.14-.69-1.28.59-1-.07.08,0,.18-.15.34,1.21,0,2-1.08,3.16-1,.64,1-.82.52-.19,1.33a12.28,12.28,0,0,0,2.06-1.34,5.07,5.07,0,0,1,2.09-1.11l-.3,0c-.3-1.58,1.3.38,1.78-.58-.14.17,0,.91,0,.73,1.05-.09,1.86-1.06,3.15-2l0,.45c.69.15,1.57-.32,2.25-.36,0-.45.42-.51,0-1,2.71,1.44,3.08-2.6,5.45-1.46-.2.08-.34.52-.18.46l1.26-.93c-.37-.59-.34-.31-.84-.69a1.24,1.24,0,0,1,.63-1c-.45.68.44,1,.86,1.27-.13-.17-.12-.43-.23-.62,1.21.84-.43-1.33.9-1l.09.36c.3-.32.45-.9.89-1,.49.66-.25.5,0,1.12.56-.27.5-1.85,1.32-1.37-.14.31-.48.48-.62.79.93.61.89.35,1.36.3h-.05l1.12-.06-.35-.12c-.17-2.23,1.26-1,1.61-2.7-.36,1.6.16.75.48,1.6.35.12.83.2.84.48.13-.87,1,.17,1.15-1.1.16.25.49-.2.71.51.48-.48-.36-.39-.47-.75.44-1.31,2.63.09,3.29-1.74.81-1.08.55-2.07,1.3-3,.55.23.23,1.09.23,1.09a1.32,1.32,0,0,0,1.45-.77c0,.28.22.41.54.61.37-.29-.24-1.08.5-1a4.63,4.63,0,0,1,.16,1.26c.35-.5.56-1.24.93-1.74.38.37.07.84.06,1.22.45-.5,1.23-1.2,1-2l-.5-.06c.19-.14.45.55.37.76-.17.81-.83.13-1-.11l.26-.36c-1.19-1.3-1.27,1-2,1.32l-.3-1.25-.23,1.3c-.31-.2-.74-.75-.48-1.11-.8-.27-.24.64-1,.27a.17.17,0,0,1-.08-.2l-.32.6c0-.29-.49-.74-.1-.74-1.22-.16-1,1.61-1.76,1l0-.11c-1,1,.3.89-.16,2.31l-1.65-1.72.28.88a.4.4,0,0,1-.55-.25c-.2.79.26.31.25,1-1-.45-1.57,1.17-2.35-.07.08.73.84.2.38,1-.87-1.32-.66.61-1.55.24-.17-.82.56-.69-.32-1.07.24,1.4-1.24.26-1.61.72.44,1-.86.91-1.51,1.63-.06-.18-.49-.12-1-.05a11.43,11.43,0,0,1-1.68.13l-.05-.18c.29,1.08-.59,1.21-1.08,1.66a1.39,1.39,0,0,1,0-1.3l-.54.23a1,1,0,0,1-.39.88l-.18-.82c-.7.34-1.09,1.49-2.22,1.36.23.74,1.54,1.68.73,2.57-.19-.37-.49-1-.29-1.28-.07.08-.18.44-.41.35l.14-.81c-.54-.12,0,.63-.38.71-.21-.56-.4-.29-.53-.75.07-.09.39.11.43-.16a1.6,1.6,0,0,1-1.32-.44c.15.3.29.74,0,.93-.71.34-.51-.56-1-.68,0,.46-.63.25-.33,1.08-.22.07-.41-.3-.57-.5-.25.5-1.75.72-1,1.46l.12,0s0,0-.05.06h0c-1,1.27-2.78.43-3.89,1.22l-.1-.28c-.63.58-1.59.76-1.92,1.56-.22.07-.69-.34-.7-.71-.5.4-.46.77-1.44.55.43-.67-.33-.37.48-.54-.82,0-1.13-.43-1.69.58,0-.81-.85-.75-1.13-.43l.68.36a2.43,2.43,0,0,1-1.11.3l-.1-1c-1.85-.73-2.18,2.78-3.89,1.16-.22.79,1,.23.82,1.12-.75.08-1.85-1.09-2.07-1-1.1-.27-.52,1.69-1.64,1.56.22.31.59,1.2-.1,1.71-.75,0-1.25-1.25-.87-1.63a.2.2,0,0,1,.3.14c.2-.18.46-.4.09-.7v.36c-.44-.27-1.41,0-1.32-.62-.45.45-.09.62.35.7-1-.28-1.43.32-2.44.21.19.15.42.53.27.56-1.48-.11-.45.8-1.36,1.17-.65-.4-.09-1.31-.93-.64-.66-.23-.33-.9-.16-1.23-.71.87-1.69-.07-2.2-.08l.39-.39a1.26,1.26,0,0,1-.68.33l.4.64c-.29-.06-.51,0-.56-.31-.18.51.45,1.12,0,1.85-.43-.29-1,.58-1.32-.33,1.18.11-.31-.9.6-1.23a.68.68,0,0,1-.67.11.21.21,0,0,1,.06-.26c-1.23-.64-.28,1.13-1.4,1.31,0-.54-.44-.94-.6-.8.44-.07.38.84,0,1.31-.79-.27-.72.45-1.1.47l.46.11c0,.55-.42.55-.89.81-.11-.4.41-.37.2-.51-.4,1-1.42-.73-2.09,0-.41-.29-.2-1-.55-1.16-.75.83-1.05-.54-1.86.17.38.67.4.49-.14,1.27.48-.22.95-.49,1.41-.75l-.79,1.2c.46-.07.88-.61,1.17-.54-.36.66-.34.47,0,1-.79-.94-1.13.85-2,.22l-.24-1.76c-1.2-.63-1.78,1.16-3.25.91l.49.24c-.09.72-.85.22-1.27.56,0-.59-.34-.77-.58-1.11.07.44-1,.1-1,1.29l-.72-.69c-1.17-.18-1.1,1.88-2.22,1.77.26-.67-.28-1,.4-1.56-.37,0-.71,0-.67.35-.25-.35-.93.89-1.32.36-.13.27-.12.89-.54.88a.62.62,0,0,1,0-.29c0,.29-.61.45-.19,1.07-1.3-1.73-3.15.42-4.27-1.07a11.3,11.3,0,0,1-2.45.62c0-.18,0-.29.12-.24-1-.5-.51,1.73-1.7,1.17-.64-.93.58-.54.2-.89-.27-1.94-1.37.33-2.19-.77l.18-.12c-.62-.64-1.4.8-2.37.71a.64.64,0,0,0,0-.29,4.7,4.7,0,0,1-2.78,1.71c.27-.77.41-.41.22-1.18-.42.11.15,1.24-.68,1.46-.28-.41-.88-.77-1-1.6l.78,0c-.42-1.07-1,0-1.42-.14l0-.47c-1.18.17-1.19,1.34-2.48,1.27l.14.35c-.71,1.17-.6-.65-1.3.22l-.21-1.18a10.44,10.44,0,0,1-2.47,1.38,7.75,7.75,0,0,1,2.06-1.86c-.45,0-1.55.1-1.8.69.19-.12.42-.41.6-.23a2.36,2.36,0,0,1-2.24,1.32c.21-2.29-2.38-.65-3-2.45-1.64.78-3.18-.41-5.06-.43.57,1.83-.55,0-.53,1.86-.45.09-.62,0-.65-.08l-1.26-1.18c-.28-.55.44-.37.43-.79-1-.2-.35-.8-1-1.33.08.66-.4.92-.92.63l.71.9c-1.41.88-1-1.62-2.46-.74l.47-.55c-.72.31-2.53-.19-3.34,1.19-.1-.22-.22-.74.1-.84-1.62-.38-3.82,1.19-5,.16l.17-.43c-.32.1-.63.78-1,.3,0-.19.17-.44,0-.48-.18.14-.91.71-1.29.39l.41-.46c-1.53-.79-2.6.9-4,1,.18-1.31-1-1.9-1.62-2.19l.05-.19c-1.83-.39-3.31.63-5.12.86-.84-1.6-3.52-1.16-5.09-2.27.22.28-.22,1-.55,1.07-.36-.34-1.28.69-1-.49l.13.05c-.08-1.23-1-1.07-1.59-1.23l-.41,1.54c-1.24-2.58-4.59,0-5.08-2.28-.48.3-1,.19-1.47.49l.21-.83a7.66,7.66,0,0,0-3-.79l.42-.53c-.76-.23-1.54,2.17-2.27,2L64.5,157c-1.36-.31-2.46-1.73-4.08-1,.07-.17.2-.52.43-.51-.63-.19-2.24-1.44-2.45.29.27-1.1-1.35-.48-2.21-.2l.33-.78c-.9.87-1,1.14-1.93,1.19-.18-.16,0-.69.21-.41-.56-.61-.74.62-1.44,0l.45-.43c-.68-.25-.7,0-1.26.54-.53.21-1.26-.59-1.16-1.34-.22.41-.77.89-1.12.56a.63.63,0,0,1,.32-.48c-1-.89-2,.42-2.56-.6a.9.9,0,0,0,0-.52,5.94,5.94,0,0,1,1.55.59c.22-.74-.48-1.09.41-1.93-.75.38-2.14,1.28-2.76.72a1.21,1.21,0,0,1,0-.28l.1-.06a.45.45,0,0,0-.5,0,1.4,1.4,0,0,0-.53-.4c.11-.64-.74-.6-1.09-.75-.23.81-.67.53-.43,1.34,0-.08.1-.08.36,0a.52.52,0,0,0,.18,0l0,.06c.25,0,.57.14.94.24-.42.31-.83.56-1.1,0-.35.46-.73.92-.93,1.14-.15-1.29-.93-2.2-.84-2.94-1.27.1-2.73-.55-3.94.7-.38.09-.22-.55-.26-.83.23-.09.44,0,.62-.17-.77.17-1.93-.5-2.45.5-.64-.75.78-.81-.38-1l.26-.27c-1.56-2.39-4.46,1.4-6.07-1.59a.62.62,0,0,1,.14.47c-2.35-1.95-5.93-1.27-8-3.83-.62-.61-1,0-1.64.31l.19-.9-1.19.63c-1.42.24-1-2.86-3-2.15l-.07.64c-.45-.32-1.72-.39-1.35-1-.1.08-.43.5-.49.12l.19-.43-1.56.17c-.79-.75,1-1.63-.37-2.36-.57-.08-2,.55-2,.92a.78.78,0,0,1,.18.95h-.57c-.72,1.2-1.76,2.28-1,3.76l1.2-.37,0,.74-.71-.3c.11.77.61.38,1.05.16a1.16,1.16,0,0,0,0,.84l1.38-.83c-.14.54-.83.82-.41,1.34.64-.39.15-1.28.95-1.36.13.76-.2,1.18.49.9a.71.71,0,0,1-.53.58c.59-.21,1.17.33,1.68-.26.1.9,1.48.43.91,1.62a2.44,2.44,0,0,1,1.54-.51c-1.32,1.16,1.39.69.54,2.17,1.08-1.09,2.12.22,3.34-.15-.09.09-.28.26-.34.16.48.32.46.77.7,1.16.51-1.06,1.41-1,2.11-1.49.21,1.31-.89,1.13-1.1,2.22.32-.9,1.46-.44,1.53-1.26.23.84.3.48.19,1.48.62-1.33.55-.05,1.28-.74.44,1-.32,1.35.62,1.24C27.29,153.46,26.41,153.68,26.41,153.68Zm19.51,4h0l-.41-.07Zm1.59.46a3.8,3.8,0,0,0-.68-.24c0-.29.18-.56.33-.5C47,157.59,47.34,157.86,47.51,158.17Zm-1.6-6.59c.28,0,.31.14.29.32a2.58,2.58,0,0,0-.45,0l-.06.09A1.57,1.57,0,0,1,45.91,151.58Z"/><path class="cls-2" d="M45.14,152.49a.42.42,0,0,1-.12,0c0,.08.06.16.09.22l.16-.22Z"/><path class="cls-2" d="M190,154.5h0l.11.09A.25.25,0,0,1,190,154.5Z"/><polygon class="cls-2" points="69.28 165.41 69.32 165.2 69.14 165.35 69.28 165.41"/><path class="cls-2" d="M199.42,153.86a.54.54,0,0,0,.2.16A.72.72,0,0,0,199.42,153.86Z"/><path class="cls-2" d="M203.12,152.49l.63,0A2,2,0,0,0,203.12,152.49Z"/><path class="cls-2" d="M206,151.56a1.88,1.88,0,0,0-.1-.35h0Z"/><path class="cls-2" d="M160.36,167.15a.24.24,0,0,0-.11.06C160,167.42,160.18,167.33,160.36,167.15Z"/><path class="cls-2" d="M174,162.18a2.37,2.37,0,0,1-.35.49C173.88,162.68,174.07,162.65,174,162.18Z"/><path class="cls-2" d="M144.53,170.45h0Z"/><path class="cls-2" d="M173,162.81a.57.57,0,0,0,.65-.14A.87.87,0,0,0,173,162.81Z"/><path class="cls-2" d="M217.92,145.88l.15,0a.31.31,0,0,1,0-.13Z"/><path class="cls-2" d="M218,145.72l.09-.17C218,145.59,218,145.63,218,145.72Z"/><path class="cls-2" d="M218.31,145.2l-.2.35C218.21,145.5,218.36,145.45,218.31,145.2Z"/><path class="cls-2" d="M214.21,147.48l.1.29A1.1,1.1,0,0,0,214.21,147.48Z"/><path class="cls-2" d="M213.18,148.14c.28-.07.94.23,1.21-.14l-.08-.23C214.35,148.27,213.18,147.56,213.18,148.14Z"/><path class="cls-2" d="M207,147l1-.22c-.3-.21-.7-.51-.33-.77C206.07,145.71,208.2,146.58,207,147Z"/><path class="cls-2" d="M204,147.94c.42-.37-.21-.43-.26-.61C203.51,147.75,203.47,147.85,204,147.94Z"/><path class="cls-2" d="M183.11,156.16l-.18-.75C182.57,155.65,183,155.7,183.11,156.16Z"/><polygon class="cls-2" points="180.14 161.2 180.67 161.54 180.66 160.81 180.14 161.2"/><polygon class="cls-2" points="176.17 156.65 176.31 156.5 175.73 156.96 176.17 156.65"/><path class="cls-2" d="M139.45,163.47l.2.93C139.91,164.21,139.88,163.14,139.45,163.47Z"/><path class="cls-2" d="M123.28,165.12c-.18-.48-.63-.78-.91-.31C122.73,164.87,123.1,165.24,123.28,165.12Z"/><polygon class="cls-2" points="75.07 158.85 75.45 158.6 74.8 158.74 75.07 158.85"/><path class="cls-1" d="M406.51,138.42c.26-1.06-.08-.34-.4-.22Z"/><path class="cls-1" d="M406.11,138.2l-.29-.15C405.9,138.22,406,138.24,406.11,138.2Z"/><path class="cls-1" d="M405.86,137.76a1,1,0,0,0-.87-.39.54.54,0,0,1-.36-.12.42.42,0,0,1-.17-.24s0-.07.12-.12l.21-.12c.16-.09.11-.15.18-.24l-.12-.05h-.38c-.29,0-.12,0-.14,0a.49.49,0,0,1,.15-.1.46.46,0,0,1,.37.08A3.69,3.69,0,0,1,405.86,137.76Z"/><path class="cls-1" d="M405.39,138.49l-.3-.69c.27.37.55.75.86,1.12Z"/><path class="cls-1" d="M405.23,139.07v-.24c.33.26.68.53,1,.79C405.92,139.45,405.57,139.26,405.23,139.07Z"/><path class="cls-1" d="M405.77,137.44l.37-.2c.95.93.32,1.31,1,1.93a.17.17,0,0,0,.17-.1.22.22,0,0,0-.06-.27c-.16-.2-.31-.44-.47-.68-.31-.46-.59-.89-.89-.78-.16-.44.11-.41.33-.43,0,0,.09,0,.05,0l-.11,0a.85.85,0,0,1-.22-.13,1.81,1.81,0,0,1-.43-.69C404.76,135.64,405.84,136.92,405.77,137.44Z"/><path class="cls-1" d="M370.54,144l-.09-.14C370.48,144,370.52,144.1,370.54,144Z"/><path class="cls-1" d="M360.67,145.08a1.24,1.24,0,0,0-.41-.29,1.21,1.21,0,0,0,.17.38Z"/><path class="cls-1" d="M376.68,141.34a2.07,2.07,0,0,0,.38.36C377,141.5,376.87,141.35,376.68,141.34Z"/><path class="cls-1" d="M350.77,113.83a2.47,2.47,0,0,0,.36.21h0l-.31-.25Z"/><path class="cls-1" d="M346.61,147.43a3.7,3.7,0,0,0-.87.11A1.25,1.25,0,0,0,346.61,147.43Z"/><path class="cls-1" d="M380.21,141.31h-.15a.9.9,0,0,0,.18.15l0-.14Z"/><path class="cls-1" d="M363.94,147a.72.72,0,0,0-.36-.17A.55.55,0,0,0,363.94,147Z"/><path class="cls-1" d="M397.65,135.69c-.16-.14-.3-.06-.43.11C397.31,136,397.45,136.06,397.65,135.69Z"/><path class="cls-1" d="M394.14,135.67h0C394.15,135.49,394.13,135.53,394.14,135.67Z"/><path class="cls-1" d="M391.89,135.42l0,0C391.91,135.26,391.9,135.24,391.89,135.42Z"/><path class="cls-1" d="M397.22,135.8c-.27-.58-.27-2.38-.74-.42l.07.27c-.21-.46-.58.29-.84.34a4.79,4.79,0,0,0,.07.49,2.25,2.25,0,0,1,.56.23C396.64,137.14,396.89,136.21,397.22,135.8Z"/><path class="cls-1" d="M370.57,143.61c0,.37.27.18,0,0Z"/><path class="cls-1" d="M373.59,142.13l-.3-.06C373.39,142.14,373.48,142.21,373.59,142.13Z"/><path class="cls-1" d="M384.92,143s0-.05-.05-.09C384.84,143.08,384.89,143.05,384.92,143Z"/><path class="cls-1" d="M373,142.05a1.23,1.23,0,0,1,.27,0C373.21,142,373.12,142,373,142.05Z"/><path class="cls-1" d="M381.55,141.74s0-.05-.05-.06A.1.1,0,0,0,381.55,141.74Z"/><path class="cls-1" d="M373.07,71.27c.08.28-.45.24-.67.4,1.07.9.36-1,1.22.1a.84.84,0,0,0-.16-.65l-1.27-.1C372.5,71.59,372.68,70.88,373.07,71.27Z"/><path class="cls-1" d="M354.26,112.15l-.14,0c.54.15.68.28,1.11,0-.67-.63-2.05-.66-2.71-1.55.05.14-.06.28-.22.38A3.5,3.5,0,0,1,354.26,112.15Z"/><path class="cls-1" d="M352.3,111.07h-.07a1.25,1.25,0,0,0-.31,0,.31.31,0,0,1-.22.15A1,1,0,0,0,352.3,111.07Z"/><path class="cls-1" d="M370.15,78.21l-.19.22C370.23,78.38,370.25,78.3,370.15,78.21Z"/><path class="cls-1" d="M352.05,131.68c.07-.13.13-.26.19-.39A1.39,1.39,0,0,0,352.05,131.68Z"/><path class="cls-1" d="M351,116.75a.62.62,0,0,0-.28.18,1.41,1.41,0,0,1,0,.18Z"/><path class="cls-1" d="M346.83,95.48c1.24.68-.05-.17.84-.24l-.56-.6C346.78,94.86,346.89,95.23,346.83,95.48Z"/><path class="cls-1" d="M373.55,71.13l-.11,0,0,0Z"/><path class="cls-1" d="M350.19,85.52l.24-.09A.36.36,0,0,0,350.19,85.52Z"/><path class="cls-1" d="M350.91,112.82l-.61,1.25.47-.24C350.21,113.38,351.61,113.33,350.91,112.82Z"/><path class="cls-1" d="M344,100.57l-.83-.21c1.18,1.93-1.81,2.4.15,4.34-3.38.37,2.06,2-1,2.38l.41.11c-2.36,4.38-5.94,8.7-6.44,13.73l-.55-.24-.32.58-.16.28-.25.54-1,2.23c-.72,1.49-1.42,3-2.24,4.54a12.14,12.14,0,0,0-.56,1.15l-.44,1.15a14.59,14.59,0,0,0-.52,2.1,11.71,11.71,0,0,0-.08,3.52,10.6,10.6,0,0,0,.93,3.2,10.75,10.75,0,0,0,2.25,3.14,15.88,15.88,0,0,0,6.64,3.72,31.61,31.61,0,0,0,4,.89c1.49-.41,1.31-1.78,2.56-2.37.41.07,1.39,0,1.19.76-1,.39-.72,1-1.12,1.32.78,0,1.63.2,2.51.27a4,4,0,0,0,2.52-.44c-.38-.3-.73-.61-1.06-.91.56-.42,1.33-.18,1.81-.15-.23.5.48,1.51,0,1.76.19-.16.37-.29.53-.4s.35-.2.37-.27a.65.65,0,0,1,.32-.22c.17,0,.29.14.41.35.19.43.5,1,1.17.57.27-2,2-3.67,3.07-5.12l.59.52c-.78,0,0,1.47-.94,1.38.81.58,1.55-.29,2.31,0-.15-.5-.12-1.17.18-1.4.47.27.52,1.29,1.05,1.38l-.51.64c.36.75.65-.25,1-.38.12.85.91,1,.78,1.93.7-1.16,1-.51,1.72-1.25-.81-.88.19-1.11.09-1.81l-.89.34c1.27.55-.41.16-.3,1.59-.6-.65.79-2.38-.21-2.14,1.19-.75,1.45-.11,2.65-1.31-.73.28.13-.94-.27-1.37.94-.07.24.5.54,1.42.51-.05.7.77,1.16-.3.82.43-.11,1.08.31,1.66-.3,1-2.3-1.19-2,2-.43,0-.94,1.26-1.56,1.2.54.41,1.33,1.44,2,.71l0-1.78c.5,0,.59-1.26,1-1.11-.19.52.17,1.26.57,1.12-.11-.26-.28-.2-.23-.51.74-.14.84-1.35,1.73-1.69-.74-.46-.9-1-1.6-1.76.18-1.25.49-.19.9-.34-.06.17-.15.2,0,.45l.43-.6c.93.53-.1,1.81.66,2.4.53,1,.72-.59,1.12,0,0-.11-.06-.22-.08-.31a.64.64,0,0,1,.2.08v-.08c.49-.19,1-.09,1.15-1,.05.42.43-.12.58-.41s.93-1.48,1.33,0h0c.61.19,1.07.66.94,1.16l1,.39-.12,1.21c.88-.32.81-1,1.43-2.27.62.72,1.74.17,2.17-.27a.38.38,0,0,0,.35,0l-.35-.49c.69.07.62-.57,1.08-.56-.09-.12-.1-.19.15,0a2.24,2.24,0,0,1,.26.1c0,.13-.13.11-.23,0l.07.41c.51,1.3.88-.71,1.45-.23-.05,0-.15.12-.21.11.32.34.73,2.07.91,1,.07.14.2-.07.32-.32l.24.19a1.21,1.21,0,0,1-.24-.2c.17-.34.34-.76.34-.5l.85.25c.15.18.38,0,.57-.12l.12.51c.31-.06.3.24.26.38,1,1.79,1.72-.81,2.81.76.27-.83-.19-1.23-.21-1.69a6.26,6.26,0,0,1,1.29-1.61c.46,1.19,2,2.3,1.67,4,1,.18-.25-1,.27-1.6l.11.07a2.52,2.52,0,0,1-.72-1.45c0-.91.85-1.13,1.1-.85l-.25,1.27c.92-.4.84-2.34,1.46-3.6.69.55.22,1.69.31,2.85l.77-.28,0,1c.5-.23.66-1.12,1.32-.71-.54.89,1,1,.23,2.14.37.34.56-1.52.7-.22.31-1-.32-.53-.49-.87-.09-1.48.86-.67,1.33-1,0,.76-.35.89.17,1.42.13-.58.49-1,.76-.29,0-1,.62-.17.92-.1a1.59,1.59,0,0,1-.54-1.75.87.87,0,0,1,1.11-.41l-.4-.47c.57-1.4.83,1.06,1.56.63-.32.57-.51.56-.8,1.26a12.08,12.08,0,0,1,1.56-1.56c.18.48.38,1,.59,1.43.08-.71.72.08.71-.89.79.66-.61,1.15-.72,1.85.52.34.73-.06.92-.36s.33-.48.95.26q-.15.45-.33.9c.42.07,1.15-.44,1.26,0-.05-.32-.23-.19-.48-.19.05-1.93,1.5-1.35.9-3.34l-.43-.14c.57-.38.52-1.74,1.17-1s.24,1.36.14,1.86c.69.14-.24-2.18.42-2a2.27,2.27,0,0,1-.71-1.55c-.35-.13-1-.52-.69.33l.17.19a1.78,1.78,0,0,1,0,1c-.48,0-.44-.91-.63-1.29-.76-.33.39,2-.39,1.93l-.15-.39c-.29.51-.89.57-1,1.8-.4-1.3-1,.49-1.41-.29,0-1.42.34-1.36.76-1.14s1,.6,1.12-.18c-.43-.59.13-1.35.15-2a5.64,5.64,0,0,1-1.08,1.21c-.12-.39-.48-1.81-.72-.79l.1.07c-.51.31-.42,1.48-.88,1.08a2.31,2.31,0,0,1,.13-.9c-.44-.28-.39.63-.69.88-.44-.27.26-1.16-.11-1.48-.55,1.08-.8-.29-1.25-.24.13,1.62-1.87,2.12-1,3.58L396.65,141c-.3-.86.84-2.22.6-3.59l.85.1c-.05-2-1.85,1.23-2.32-1-.45-.11-.35.17-1.17-.86l.06,1.79a2.93,2.93,0,0,1-.53-1.74,1,1,0,0,1-.75,0,1,1,0,0,1,.35-.58c-.29-1-.41-.64-.55-.12s-.49.37-.77.34l.29-.65a1,1,0,0,0-.44.64.46.46,0,0,0-.34.14,4.94,4.94,0,0,0,.57,1.85c-1-.76-1.85-.42-2.67-1.94.06-.51.47-1.14.36-1.21-.43-.28-1,.59-1,1.37a.59.59,0,0,1-.26.06c-.06-.45-.14-.93-.35-1a.49.49,0,0,0-.26-.37c-.23,1.41-1.06.65-1.28,1.29a.94.94,0,0,0,.7.12c-.41.92-.79,2-1,1.21.72-.86-.64-1.51.39-1.85-.62-1.83-.44,1.27-1.16.59l-.46-.73c.13-1,.82-.47.73-.87l-.35.12c.38-.76,1.64-.18,2.49-1.3l-1.56-.66c-2.06,1.13-4.53-.4-6.34,1.81a.15.15,0,0,0,.07,0,5.29,5.29,0,0,0-.09.69l-.07-.26L380,135c-.35-1-1.07-1.19-1.68-2a2,2,0,0,1,.4,1.42c-.11,1-.18,1.47-.74,1.08,0-.74.37-.71-.05-1.3a.72.72,0,0,1-.24,1c-.31-.48-.85-.59-.85-1.32.16-.2.27.05.37.16.16-.19-.59-.67-.14-1.26l-.59.2c-.33-.62.24-1,.11-1.36-1,.49-1.5,2.17-2.38,2.66.05-.39.07-2,.05-1.55-.67-.5-1.45,1.77-2.21,1.9.11-.48.39-.29.63-.52-2.34-.63-4.25-.64-6.45-2.18l-.55,1.69-.58-1.11c-2.3-1.05-4,.06-6.18.58-.67.11-.42-1.17-.73-1.64-1.47-.18-1.81,1.72-3.21,2.1.19-.51.51-2-.08-2-.11.49-.19,1.25-.57.95l.2-.52c-.31-.75-.78,0-1.57-.34-.13,0-.11,0-.14,0l-.07.05a.86.86,0,0,0-.15.17c-.11.15-.23.37-.39.64-.31.55-.75,1.32-1.38,2.27-.32-.08-.11-.54.14-1a6.09,6.09,0,0,0,.54-1.18c.13.62.31-.3.51-.89-.24.48-.58.78-.17-.43-.19.07-.2,0-.8.84.29-.41.07.24-.3.8,0-.42-.75,0,.28-1.5l-.16,0a1.82,1.82,0,0,1-1.17-.17.87.87,0,0,1-.57-.89c-1,.32-.43.3-1.16.55-1.3.32.76-.49-.24-.25l1.05-.35c.13-.16-.27-.1-.78-.06a5.41,5.41,0,0,1-1.47,0c1.11-.23,1.08-.48,1.61-.39a13.28,13.28,0,0,1,2.3-.66,15.64,15.64,0,0,0,1.58-.35c-1.5.25-3,.55-4.59.91-.44.08,0-.22-.35-.15,1-.31,2-.55,2.06-.62,1.1-.1.81.06.74.14a22.85,22.85,0,0,1,2.92-.41c-.29,0-.94.09-1.59.1.14,0,.27-.07.41-.09l-.62.08c-.52,0-1.81-.16-.78-.29a11.93,11.93,0,0,1-1.56-.41c1.32.18.32-.15.67-.23.26.1.52.18.79.26,0-.14.25-.14.73-.05,1.07.38-.3,0,.74.31a2.63,2.63,0,0,1,.39.06,10.58,10.58,0,0,0-1.68-.53,6.71,6.71,0,0,1-1.54-.85,1.28,1.28,0,0,1-.1-1.46c1.38-.06.79,1,2,1.25,1-1-2.4-2.75-2-3.41.86-.73-.23-1.12.09-2.09.66.63,1.12-.3,1.94-.15l.66.71c-.12-.39.3-.53.84-.2-1.09-.4-.49-1.64-.72-2.5l-.95-.27c-.09-.63-.37-1.58.1-2,0-.93-.84-1.09-1.57-2.12a6.07,6.07,0,0,1,2.86,1c-.55,0-.43.49-.86.72.35,1.35,1.93,2.94,1.06,3.76,2,1.36,0-.79,1-1,.12.07.15.13.15.17a.19.19,0,0,1,.12-.09,2.3,2.3,0,0,0,1.3,1.78c0-.7-2-1.37-.75-1.72-.38-.81,1.55-.53,1.84-.8-.66-.73-2.42-1.49-1.69-2.26l1.06.92c.46-1-1.6-1.25-1.14-2.18-.29.27-1.07-.84-1.37-.21a1.1,1.1,0,0,1,.22-1.72c-.14-.22-.41-.21-.82-.41-1.1.22.45,1.27-1,1.22l1.16,1a2,2,0,0,1-2.19-.61c0,.18.12.39-.16.4-2-.76,1-.34-.63-1.25l0,.44c-1.36-.38-.76-1.36-.47-1.81.84-.29,1.28-.71,2.23-.35l.1.91c.91-.07-.05-1.13.17-1.55a.65.65,0,0,0,.34,0,.9.9,0,0,1-.27-.07.63.63,0,0,1,.49-.08c.2-.36-.14-1.16.31-1.39l-.86-.3.45.24a.91.91,0,0,1-1.41.07c-.26-1,1.43-.51,2.24-.4,1.22.71-.33.76-.06,1.34,1.38.29.47-.74,1.65-1.21,1.27.9-.41.94.81,1.65.51-.56-.42-1.14.22-1.69.62.35.4,1.06,1.26,1.35l.58-.28c-.37,1.14,1.82.52,1.81,1.52.75-.17-.91-1,.22-1.25-.68-.09-2-.08-2.31-.86l.67-.45c.78,0,1.23,1.25,2,1.08l-.21-.85c-.43-.14-.77.08-1.27-.34.61-.2-1.37-1.27-1.81-2a.77.77,0,0,1,.91-.51c-.88-1.39-.39-2.49-1.26-3.77.63.88,1.45.54,2.22.45-.08.72,1.24,1.24,2.1,1.53,0-.45-1.24-1.24-1.76-1.22.8-.44-.74-.81.37-1,.61-.2,1.24.69,1.78.76.34-.69-1.53-.82-.92-1.47.16.11.19.2.46.23.44-.3,0-1-.63-1.33,1.89.22.29-1.33,1.94-.6-.07-1.18-1-.2-1.49-.62-.58-.7.31-1.23.67-1.36-.06.26.32.66,0,.8l1.24.23c1.31-.94-2.33-1.79-.87-2.62.38.85.81.54,1.52,1.16-.22-.3.46-1.13-.65-.89a3.29,3.29,0,0,1,.93-.9,4,4,0,0,0-1.14-1.65c.36-.59,1.36-.76,2-.89-.36-1.65,1.54-2.38,1.14-4.14l-.11.08c.61-1-1.74-.06-1.29-1.19,1.39.66,1.21-.35,2.11-.46,1.23-1.16-.21-2.81,1.2-3.79.3.12.63.32.58.59.8-.85.78-1.76,1.16-2.64l.16.1c1.65-1.06.67-2.87.79-4.46.15.17.69.37.85.53a1.62,1.62,0,0,0,0-2.59c1.71-.37-.24-.71,1.52-1.35.27,0,.2.19.23.28.66-.38.64-.82,1-1.32-.49-1.56-2.25-2.5-1.19-3.79,2,.59.18,1.08,1.74,1.64-.25-.41-.57-.8,0-1,.69.5.47.21,1.13.63.62-.15-1.63-2-1.44-1.9-.38-.15-.62-.1-.67.21-1.09-.75.39-1.51.14-2.41a1.06,1.06,0,0,1-1.59.27c.74-.85-1.06-1.78-1.65-2.7,1.18-.64,1.47,1.17,2.91,1.44.56,0,1.79,0,2.21.53.56-.76-.46-1.74-.54-2.59l.39.14a5.54,5.54,0,0,0-.47-1.92c-.2-.66-.33-1.24.19-1.62l-.58.39c-.19-.24.05-.78-.71-1.25.66.18,1.42-.42,1.91,0-2-.94-.83-2.75-2.81-3.61a3.52,3.52,0,0,1,1.91.34c-.3.65-.77.8,0,1.31a.9.9,0,0,1,1.17-.72c-1.24-.8-1.57-2.2-2.89-2.67a2.79,2.79,0,0,1,2.26-.33c-.47-1.77-3.58.33-3.31-1.53,1.21-.71,1.37,1,1.9-.1l.15.24c3-.46-2-.87-1.77-1.81,1.59.08,1,.81,2.26.3-.29-.92-2.59-1.6-2-2.4l.66.22c-.06-.57.41-1.59.36-2.14.31,0,.26.09.33.2.73-.91-.75-.53.46-1.18l-.73-.35c-.61.32-1.5,1-.67,1.66-.82-.65-2.11.56-3.42.12l.53.18c-2.51,1.08-3,2.86-4.12,4.46,1.46,1.32-.91,1.74,0,3,1.81.47.34.27.54,1.31-.14-.56-1.39-.3-1.69,0a1.57,1.57,0,0,1,.69.79c-.66.08-2.36.92-1.23,1.61-.71.41-.55-.27-.9-.47-1,0,.62.61,0,.65a.86.86,0,0,1-.28-.14,2.05,2.05,0,0,1-.46,1,7.5,7.5,0,0,0-.74,1c1.74.58.4,1.07.9,1.66-.52-.3-.81.31-1.22.46l1.14.9c1,.84-1,.43-.6,1.25l.36,0c.37.63-1.08,1.51-2.17,1.65.95,2.73-.12,4.28-1.49,5.79-.68.73-1.47,1.57-2.08,2.37a6.11,6.11,0,0,0-1.23,3c.42.47.95.07,1.65.56a2.28,2.28,0,0,1-.18,1c.59-.22,0-.35.46-.14l-.28-.81c.14,0,.17.1.44.12-.09-.27-.36-.64-.17-.89.32.55,1.56,1.08.89,1.47a.54.54,0,0,1-.25-.37c-.25.42.35.65-.1.87s0,.35-.57.22l-1.12,1.06c1.31,1.16-.41,1.46-.62,1.62-1.1-.54-.07-1-1.09-1.67l-1,.17.91.34-.48.57-.16-.09c.33.2.66.4.28.46-.13,0-.41,0-.43-.13l.34.64c-.85-.6-.43.32-1.49-.13-1.08,1.33.79,2.45-1.17,3.27.59,0,1.57,1,1.22,1.37a.83.83,0,0,1-1-.18l.37.74c-2,.06-1.09,1.11-2,1.89l-.46-.23c.43.57.74,1.13.36,1.62l-.92-.46c-.92.43,1.82,1.26.93,1.78,1,.38,1.73.1,2.73.39-1.11-.21-1.56.53-.75.62.14.9-.22.51-.49.48l.46.67c-.25.5-1.41-.34-1.92-.75.92.9-.06,1.13-.44,1.61l-.38-.39-.46.65a1.17,1.17,0,0,1-.23,1.9l-1.18-.94c-.86.16.38.4.57.6.39.93-.58.72-1.47.78C346.34,99.21,342.32,98.85,344,100.57Zm40.71,41.69-.09-.22C384.83,141.8,385,141.58,384.67,142.26Zm-6.35-.65c.78-.54.52.13.57.53-.75-.41-1.18,0-1.83-.44a4.68,4.68,0,0,1,.14.92c-.26-.08-.52-.4-.6-1.13C377,140,378.63,142.46,378.32,141.61Zm14.8-6.45a2.24,2.24,0,0,1-.11.31h0Zm-3.91,1.07a1,1,0,0,0-.23-.61C389,136,389.08,136.33,389.21,136.23Zm-7.63-2.14c-.15-.61-.57-.45-.88-.32A2,2,0,0,0,381.58,134.09Zm-35.85-4a2.08,2.08,0,0,0,1.44-.17c-.57,0,.57-.32-.32-.23l.09,0A11.94,11.94,0,0,0,345.73,130.08ZM349,109.63a6.79,6.79,0,0,0,1.52.74l-.07,0a.94.94,0,0,1,.48.14c.18-.13.39-.25.28-.44C349.42,109.31,349.28,108.83,349,109.63Z"/><path class="cls-1" d="M353.35,119.71c0-.09,0-.15,0-.21A.62.62,0,0,0,353.35,119.71Z"/><path class="cls-1" d="M351.16,110.14c-.11-.06-.37.07-.67.23A.67.67,0,0,0,351.16,110.14Z"/><path class="cls-1" d="M406.16,142.05l-.22.2.74.55c.77-.66.44-1.51.27-2.43-.37.92-1,.47-1.93.76C405.37,141.44,405.76,141.75,406.16,142.05Z"/><path class="cls-1" d="M404,135.64a10,10,0,0,0-.44-1l.07.59Z"/><path class="cls-1" d="M396.46,132.59l.67.55C397.37,132.63,396.61,131.69,396.46,132.59Z"/><path class="cls-1" d="M399.19,142.9l.4-.64c-.32-.52-.78-.48-.88.23C399.18,142.12,398.81,142.88,399.19,142.9Z"/><path class="cls-1" d="M394.58,132.38c-.28,1.14-.68-.56-.88.53C393.9,132.6,394.49,133.53,394.58,132.38Z"/><path class="cls-1" d="M394.53,143.42c.17,1.1.6.15,1,.43C395.19,143.83,394.72,142.65,394.53,143.42Z"/><path class="cls-1" d="M390.61,135.46c.08-.82.38-.75.7-.54a2.69,2.69,0,0,1-.38.76,5,5,0,0,1,1.1-.85c-.42-.6-1.07-1-.94-2A3.43,3.43,0,0,0,390.61,135.46Z"/><path class="cls-1" d="M393.43,143.49c.36.34.55,1.12,1,1.08-.05-.58-.16-1.43-.7-1.32l.24-.95C393.52,141.56,394.11,143.59,393.43,143.49Z"/><path class="cls-1" d="M388.66,133.11l.2.46c.57-.74,1.23-.32,1.59-1.53A2.48,2.48,0,0,0,388.66,133.11Z"/><path class="cls-1" d="M391.67,141.6l-.14,1.35c.52.21,0-.46.19-.77.14.2.36.34.48.09C391.6,142.44,392.22,141.18,391.67,141.6Z"/><path class="cls-1" d="M389.87,143l-.7.55.44,1.5C390.43,144.57,389.7,144.2,389.87,143Z"/><path class="cls-1" d="M389.09,142.05l-.06-.26-1.11,1.94A6.29,6.29,0,0,0,389.09,142.05Z"/><path class="cls-1" d="M377.13,132.77c-.12.58.47,1.31.22.66C377.47,133,376.68,132.19,377.13,132.77Z"/><path class="cls-1" d="M379.3,143.66c-.27-.45-1.21.35-1.62.74C378.17,144.13,379.34,144.44,379.3,143.66Z"/><path class="cls-1" d="M377.51,144.56l.17-.16A.44.44,0,0,0,377.51,144.56Z"/><path class="cls-1" d="M360.39,147.59c-.05,0-.09.06-.13.16Z"/><path class="cls-1" d="M360.8,147.25c.28.19.84-.17.93-.79a4.58,4.58,0,0,0-1.34,1.13C360.58,147.52,360.82,148,360.8,147.25Z"/><path class="cls-1" d="M356.76,147c.21-.37.5-.19.43-.75C357.07,146,356.62,146.59,356.76,147Z"/><path class="cls-1" d="M351.36,128.61c.34,0,.11-.07-.77-.16C350.57,128.54,351.11,128.54,351.36,128.61Z"/><path class="cls-1" d="M350.45,128.32l.43.06.66.08C351.18,128.4,350.82,128.36,350.45,128.32Z"/><path class="cls-1" d="M351.93,128a.77.77,0,0,1,.28.29C352.16,128.06,352.1,127.9,351.93,128Z"/><path class="cls-1" d="M352.23,128.32a.13.13,0,0,0,0-.08Z"/><path class="cls-1" d="M351.94,128.34l.41.17-.08,0,0-.14C352.23,128.41,352.16,128.44,351.94,128.34Z"/><path class="cls-1" d="M352.36,127.3l-1.38,0c.4.72.84-.28,1.91.7Z"/><path class="cls-1" d="M352.68,125.57c.57-.27-1-1.68.47-1.34-.21-1.55-2.46-.69-2.39-2.34-1.29,1,2.41,1.82,1.14,2.68C353,124.36,352.43,125.24,352.68,125.57Z"/><path class="cls-1" d="M350.23,124.8c.68.37,1-.16.58-.53C350.66,124.4,349.56,124.27,350.23,124.8Z"/><polygon class="cls-1" points="353.07 122.89 353.77 122.74 353.36 122.45 353.07 122.89"/><path class="cls-1" d="M354,121.57l.65.71C354.35,122,354.64,121.5,354,121.57Z"/><path class="cls-1" d="M355.82,120c.43-.24-1.32-1.35-1.22-.44l.14-.14C355,119.57,355.85,119.45,355.82,120Z"/><path class="cls-1" d="M354.86,114a.52.52,0,0,0,.39.73l-.1-.83Z"/><path class="cls-1" d="M350.24,112.19c-1.23-.25-.16.67-.73,1C349.94,112.73,350.08,112.86,350.24,112.19Z"/><path class="cls-1" d="M356.81,113.93c.4.38,0,.53-.17.67C357.32,114.79,357.35,114.25,356.81,113.93Z"/><path class="cls-1" d="M356.87,112.69c.55,0,.62.31,1,.28.72-.27.86-.8.33-1.33a6.39,6.39,0,0,1-2.43-.88c.09.92,2.06,2.19.27,1.88l1.73,1.46C358.35,113.63,356.57,113.06,356.87,112.69Z"/><path class="cls-1" d="M352.44,112.63l.83-.13c-.68-.19-.67-.54-.79-.84C351,111.16,352.45,112.36,352.44,112.63Z"/><polygon class="cls-1" points="357.7 108.12 357.71 107.12 357.51 107.37 357.7 108.12"/><polygon class="cls-1" points="358.39 107.76 358.83 107.91 358.31 106.93 358.39 107.76"/><polygon class="cls-1" points="359.25 107.05 359.15 107.13 359.31 107.78 359.25 107.05"/><path class="cls-1" d="M360.25,105.37l-.68-.09c.08.28-.79.45.07.74C359.43,105.71,359.71,105.3,360.25,105.37Z"/><path class="cls-1" d="M346.73,93.36a2,2,0,0,0,1.16.41l-1-.64C347,93.22,347,93.4,346.73,93.36Z"/><path class="cls-1" d="M348.84,93l-1-1.08c-.45.65.46,1.11.41,1.81.49-.12-.24-.82.22-1Z"/><path class="cls-1" d="M354.28,80.73c.77.33.71.15,1.06.79-.27-.81.1-1.31.22-2.09-.54,0-1.22-.88-1.1-.52l.2,1-.49-.31C353.36,80,354.92,80.26,354.28,80.73Z"/><path class="cls-1" d="M372,48.84a2.24,2.24,0,0,0,1.15,0C372.79,48.28,372.09,49,372,48.84Z"/><path class="cls-1" d="M407.69,218.59c1.07.18.34-.08.22-.33Z"/><path class="cls-1" d="M407.91,218.26l.16-.22C407.89,218.1,407.87,218.18,407.91,218.26Z"/><path class="cls-1" d="M408.65,216.19c.83.49-.34,1,1,1.34C410.37,217.06,410.06,216.34,408.65,216.19Z"/><polygon class="cls-1" points="407.81 216.9 408.51 216.97 407.42 216.53 407.81 216.9"/><polygon class="cls-1" points="407.16 217.2 407.42 217.14 406.71 216.47 407.16 217.2"/><path class="cls-1" d="M409.2,214.61l.18.48c-1,.41-1.28-.34-1.93-.07,0,.61,2,.28,1.65,1,.9,0,0-1.18,1.44-1C411,214.43,409.71,215,409.2,214.61Z"/><path class="cls-1" d="M405.07,184.49a.58.58,0,0,0,.14-.05C405.06,184.45,404.94,184.46,405.07,184.49Z"/><path class="cls-1" d="M405.44,176.26a1,1,0,0,0,.34-.28,1.51,1.51,0,0,0-.4.07Z"/><path class="cls-1" d="M407,189.94a1.87,1.87,0,0,0-.39.27C406.77,190.17,406.93,190.1,407,189.94Z"/><path class="cls-1" d="M422.09,140.68l.39.15h0l-.35-.18Z"/><path class="cls-1" d="M405,166.87a.68.68,0,0,0-.07-.39C404.83,166.68,404.87,166.8,405,166.87Z"/><path class="cls-1" d="M406.68,192.86a.6.6,0,0,0,0-.12.4.4,0,0,0-.16.13Z"/><path class="cls-1" d="M403.09,178.57c.12-.1.21-.18.22-.27A.46.46,0,0,0,403.09,178.57Z"/><path class="cls-1" d="M411.38,207.5c.15-.12.07-.24-.08-.36C411.08,207.2,411,207.31,411.38,207.5Z"/><path class="cls-1" d="M411.58,204.67h0C411.75,204.69,411.72,204.68,411.58,204.67Z"/><path class="cls-1" d="M411.94,202.87l0,0C412.09,202.9,412.12,202.89,411.94,202.87Z"/><path class="cls-1" d="M411.3,207.14c.58-.17,2.38,0,.45-.56l-.27,0c.47-.12-.26-.48-.3-.7l-.49,0a1.35,1.35,0,0,1-.26.43C410,206.57,410.91,206.85,411.3,207.14Z"/><path class="cls-1" d="M405.42,184.58c-.36,0-.21.19,0,0Z"/><path class="cls-1" d="M406.5,187.29a1,1,0,0,0,.1-.24C406.52,187.12,406.44,187.19,406.5,187.29Z"/><path class="cls-1" d="M404.76,196.62l.08,0C404.64,196.55,404.67,196.59,404.76,196.62Z"/><path class="cls-1" d="M406.65,186.83a.79.79,0,0,1,0,.22C406.68,187,406.74,186.93,406.65,186.83Z"/><path class="cls-1" d="M406.16,193.92s0,0,0,0Z"/><path class="cls-1" d="M437.6,104.46c.13.23-.4.24-.59.39,1.2.67.19-.84,1.22,0,0-.18-.12-.36-.27-.53l-1.26,0C437.1,104.78,437.16,104.17,437.6,104.46Z"/><path class="cls-1" d="M425.16,139.09l-.12,0c.55.09.71.18,1.08,0-.76-.47-2.11-.41-2.91-1.09.07.11,0,.22-.15.31A4.27,4.27,0,0,1,425.16,139.09Z"/><path class="cls-1" d="M423.06,138.32H423a1.76,1.76,0,0,0-.32,0,.25.25,0,0,1-.18.14A1.1,1.1,0,0,0,423.06,138.32Z"/><path class="cls-1" d="M435.74,110.68a1.46,1.46,0,0,1-.16.19C435.84,110.82,435.85,110.75,435.74,110.68Z"/><path class="cls-1" d="M420.25,170.47a3.19,3.19,0,0,0,.33.31A.54.54,0,0,0,420.25,170.47Z"/><path class="cls-1" d="M422.86,143.05a.63.63,0,0,0-.24.16.77.77,0,0,1,0,.15Z"/><path class="cls-1" d="M415.2,125.71c1.32.51-.07-.14.79-.24l-.65-.47C415.06,125.2,415.22,125.5,415.2,125.71Z"/><path class="cls-1" d="M438.05,104.3l-.12,0,0,0Z"/><path class="cls-1" d="M417.09,117.31l.22-.09A.32.32,0,0,0,417.09,117.31Z"/><path class="cls-1" d="M422,139.85l-.37,1.06.42-.23C421.46,140.35,422.81,140.21,422,139.85Z"/><path class="cls-1" d="M413.18,130.1l-.85-.13c1.46,1.55-1.38,2.12.85,3.64-3.24.54,2.35,1.54-.55,2.07l.42.07c-1.54,3.84-4.17,7.75-3.68,11.94l-.58-.14a33.05,33.05,0,0,0-1.45,4.6c-.35,1.49-.62,3-.87,4.5a83.82,83.82,0,0,1-1.76,9c.43.67,1.79.59,2.35,1.2-.09.2-.12.7-.84.56-.31-.49-1-.39-1.25-.58-.06.69-1.07,1.42-.3,2.2l1-.33c.34.31,0,.63-.08.84-.46-.18-1.54-.07-1.73-.3,2.07,1.74-1.19.82-.48,2.08,1.94.6,3.31,2.26,4.56,3.41l-.6.37c.12-.62-1.45-.25-1.22-1-.68.55.06,1.3-.37,1.85.52,0,1.17.12,1.35.41-.34.32-1.35.18-1.52.59l-.55-.53c-.8.15.14.57.22.86-.85-.06-1.11.56-2,.28,1,.78.36.88,1,1.63,1-.5,1.07.35,1.77.39l-.2-.78c-.74.93-.09-.36-1.52-.53.74-.37,2.22,1.07,2.14.22.55,1.09-.12,1.19.89,2.38-.17-.65.9.26,1.39,0-.08.76-.53.1-1.48.18,0,.42-.86.44.12,1-.53.6-1-.27-1.68,0-.93-.41,1.52-1.66-1.63-2,0-.35-1.09-1-.94-1.48-.49.37-1.62.83-1,1.5l1.75.32c0,.43,1.16.71,1,1-.48-.24-1.27-.07-1.18.28.27-.05.23-.19.53-.11,0,.64,1.21.93,1.43,1.71a7.22,7.22,0,0,1,1.95-1c1.21.36.11.43.21.78-.16-.07-.18-.15-.44-.09l.53.45c-.65.67-1.76-.38-2.46.14-1.1.27.49.69-.15.92h.32a.37.37,0,0,1-.11.15h.09c.11.43-.05.84.85,1.1-.42,0,.07.37.34.54s1.34,1-.19,1.09c0,0,0,0,0,0a1.07,1.07,0,0,1-1.25.61l-.49.76-1.19-.26c.23.79.94.81,2.11,1.49-.79.43-.34,1.43.06,1.84-.05.05-.07.14,0,.29l.52-.24c-.13.57.51.58.47,1,.12-.07.19-.07,0,.12a1.16,1.16,0,0,1-.12.2c-.13,0-.1-.12,0-.19l-.41,0c-1.34.29.63.79.12,1.22,0-.05-.11-.14-.09-.19-.36.24-2.11.43-1.09.67-.14,0,.06.17.31.3l-.21.18a.84.84,0,0,1,.21-.18c.33.17.75.34.49.32l-.3.68c-.19.12-.06.32.09.48l-.52.07c.05.26-.25.23-.38.18-1.84.66.73,1.44-.89,2.2.81.28,1.24-.06,1.69,0a6,6,0,0,1,1.55,1.16c-1.21.28-2.39,1.45-4,1-.23.76,1.05-.12,1.58.35l-.08.08a2.74,2.74,0,0,1,1.48-.45c.91,0,1.08.78.8.95l-1.26-.31c.35.78,2.29.88,3.51,1.49-.58.51-1.69,0-2.85,0l.24.65-1-.12c.21.42,1.09.63.64,1.13-.85-.51-1,.71-2.14,0-.36.27,1.49.58.19.59,1,.33.54-.22.88-.33,1.49.05.63.75,1,1.16-.77-.05-.87-.35-1.43,0,.57.15,1,.48.25.65,1,.1.14.51,0,.75a1.78,1.78,0,0,1,1.78-.3c.36.25.53.46.35.93l.49-.29c1.36.57-1.1.59-.71,1.22a7.89,7.89,0,0,0-1.21-.74,12.44,12.44,0,0,1,1.48,1.38l-1.45.36c.69.12-.12.55.85.63-.7.56-1.12-.59-1.82-.72-.7.73,1.55.76,0,1.38l-.88-.32c-.09.25.39.79-.06.79.32,0,.2-.11.21-.27,1.92.3,1.28,1.24,3.28,1.28l.15-.33c.35.54,1.68,1,1,1.33s-1.34-.28-1.85-.49c-.15.48,2.17.51,1.95,1.06a1.75,1.75,0,0,1,1.55,0c.14-.32.56-1-.29-.9l-.2.11a2.71,2.71,0,0,1-.95-.35c0-.45.92-.15,1.31-.22.37-.72-2-.19-1.88-.87l.39-.06c-.49-.37-.51-.89-1.73-1.08,1.31-.2-.45-.84.35-1.1,2.83.19-.29,1.16,1.22,1.68.61-.31,1.33.31,2,.51L409.1,211c.4-.06,1.83-.26.82-.56l-.07.08c-.28-.47-1.44-.46-1-.82a3,3,0,0,1,.89.18c.29-.33-.62-.36-.85-.63.29-.33,1.14.3,1.48,0-1-.52.33-.63.3-1-1.62,0-2-1.68-3.51-1l-1-1c.86-.17,2.16.87,3.54.78l-.14.68c2,.11-1.13-1.59,1.14-1.79.13-.36-.16-.3.92-.88l-1.79-.1a3.38,3.38,0,0,1,1.76-.28.66.66,0,0,1,.08-.6,1,1,0,0,1,.56.33c1-.15.66-.28.15-.44s-.34-.42-.3-.65l.64.29a1,1,0,0,0-.62-.41.38.38,0,0,0-.12-.29,5.51,5.51,0,0,0-1.87.31c.8-.75.5-1.47,2.06-2,.51.09,1.11.48,1.18.4.31-.34-.54-.85-1.31-.91a.48.48,0,0,1,0-.21c.45,0,.93,0,1-.21a.52.52,0,0,0,.39-.18c-1.39-.3-.6-.92-1.23-1.15a.64.64,0,0,0-.15.57c-.9-.42-1.95-.81-1.16-.94.83.65,1.53-.41,1.82.46,1.86-.37-1.24-.46-.53-1l.75-.32c1,.18.43.71.83.67l-.1-.3c.74.37.11,1.36,1.18,2.15l.73-1.23c-1-1.84.59-3.52-1.47-5.16a.14.14,0,0,0,0,.06,4.69,4.69,0,0,0-.67-.14l.26,0-.73-.37c1-.17,1.25-.71,2.08-1.08a2.47,2.47,0,0,1-1.44.14c-1-.2-1.45-.3-1-.7.73.09.67.37,1.29.11a.83.83,0,0,1-.93-.3c.5-.19.66-.6,1.39-.5.18.14-.08.2-.2.27.18.14.72-.38,1.27,0l-.14-.48c.64-.18.93.31,1.33.26-.38-.82-2-1.44-2.4-2.2.39.09,2,.34,1.54.26.56-.45-1.6-1.38-1.64-2,.47.17.24.36.45.58.89-1.74,1.16-3.23,3-4.68l-1.58-.72,1.18-.26c1.36-1.62.53-3.18.35-5,0-.55,1.21-.11,1.72-.27.4-1.13-1.41-1.76-1.57-3,.48.25,1.85.78,2,.31-.46-.18-1.2-.38-.85-.62l.48.25c.79-.14.14-.54.57-1.05.16-1-.82-2.21-2.48-3.4.35-.87,1.76.44,2.15.34-.73.51.21.5.75.75-.4-.43-.61-.89.6-.83,0-.48.12-.68-.58-1.3.35.32-.32.39-.82.06.49-.29.24-1.35,1.7-1,.15-2.26,1-4.66,1.4-7-.68-.56-.36.24-.85-.09-.86-.79.61-.35-.08-1l.76.36c.27-.67-1.06-1.71-1.66-2.54.89.3.87-.39,1.3.28-.09-.36,4.08.1,3.3-.33l-3.88-.43c-.37-.1,0-.51-.31-.52.81-.13,1.77-.29,1.81-.49,1,.11.67.56.59.83,1.6.38,1.22-.7,2.61,0-.14-.64-.84-.09-1.36-.56l.45-.44-.62.28c-.39-.53-1.58-.92-.56-1.28l-1.44-.91c1.28.22.33-.36.69-.59l.76.36c.05-.39.3-.49.81-.63,1.06.47-.34.29.69.62L426,153c-.71-.16-1.21-.56-1.71-.35-1.24-.7-2.31-1.17-2-2.15,1.33-.17,1,.74,2.21.83.77-.91-2.86-2-2.56-2.6.69-.66-.45-.89-.33-1.71.77.46,1-.33,1.85-.28l.78.53c-.2-.31.19-.46.77-.23-1.13-.24-.78-1.29-1.17-2l-1-.15c-.21-.5-.66-1.25-.3-1.65-.13-.75-1-.82-1.92-1.61a7.39,7.39,0,0,1,3,.6c-.53.05-.33.43-.7.66.6,1.07,2.45,2.24,1.77,3,2.21,1-.13-.64.79-.84.14,0,.17.08.19.12a.12.12,0,0,1,.09-.08,2.4,2.4,0,0,0,1.61,1.34c-.11-.56-2.21-1-1.06-1.33-.53-.63,1.39-.54,1.62-.78-.78-.54-2.63-1-2.07-1.71l1.2.67c.26-.86-1.79-.9-1.51-1.69-.23.24-1.2-.61-1.38-.08-.62-.45-.59-1.07-.1-1.41-.17-.17-.44-.14-.87-.28-1,.25.67,1-.73,1.06l1.31.7a2.41,2.41,0,0,1-2.24-.34c0,.14.19.3-.08.33-2.12-.47.89-.35-.85-1l.07.36c-1.4-.22-1-1.07-.8-1.46.77-.3,1.11-.66,2.11-.43l.26.74c.87-.12-.26-.93-.12-1.28a1.07,1.07,0,0,0,.33,0,1.51,1.51,0,0,1-.28,0,.68.68,0,0,1,.46-.09c.14-.31-.34-.94.06-1.16l-.89-.2.48.18a1,1,0,0,1-1.36.14c-.43-.83,1.3-.51,2.11-.46,1.31.51-.19.64.18,1.1,1.39.15.32-.64,1.39-1.08,1.39.66-.23.78,1.08,1.29.39-.48-.61-.9-.08-1.38.66.25.57.83,1.45,1l.52-.26c-.16.94,1.87.33,2,1.13.69-.17-1.07-.78,0-1-.67,0-1.94,0-2.39-.58l.57-.4c.77,0,1.41.95,2.1.78l-.35-.68c-.44-.09-.73.11-1.29-.22.56-.18-1.55-1-2.09-1.5.11-.29.26-.5.8-.46-1.09-1.09-.79-2-1.84-3,.75.7,1.5.38,2.23.28,0,.58,1.41,1,2.3,1.15-.06-.36-1.41-1-1.91-.91.7-.4-.85-.64.2-.87.56-.18,1.31.52,1.85.55.22-.58-1.62-.61-1.12-1.16a.88.88,0,0,0,.48.17c.38-.27-.17-.81-.83-1.07,1.89.11.09-1.09,1.8-.56-.24-1-1-.12-1.54-.45-.68-.55.12-1,.45-1.14,0,.21.41.53.08.66l1.26.14c1.14-.82-2.56-1.38-1.24-2.12.49.69.86.42,1.65.9-.26-.24.29-.94-.76-.7a2.36,2.36,0,0,1,.77-.77,4,4,0,0,0-1.35-1.31c.27-.51,1.22-.68,1.82-.8-.59-1.35,1.17-2,.55-3.43l-.1.07c.46-.87-1.71,0-1.43-.94,1.46.5,1.15-.33,2-.44,1.05-1-.58-2.31.69-3.15.31.08.66.24.64.46.68-.71.53-1.47.79-2.2l.18.07c1.48-.93.3-2.37.22-3.71.17.14.72.3.9.42a1.36,1.36,0,0,0-.35-2.29c1.64-.44-.34-.6,1.3-1.27.27,0,.22.15.27.22.59-.38.51-.75.8-1.2-.75-1.29-2.63-1.94-1.81-3.08,2.06.32.36.87,2,1.21-.31-.32-.69-.62-.14-.88a7.79,7.79,0,0,0,1.22.43c.58-.17-1.93-1.48-1.73-1.43-.4-.09-.63,0-.62.22-1.2-.53.14-1.25-.26-2a1.09,1.09,0,0,1-1.51.33c.58-.73-1.35-1.36-2.07-2.06,1.05-.59,1.63.85,3.09,1,.54,0,1.74-.15,2.25.27.42-.64-.73-1.34-.94-2l.4.08c0-.89-1.65-2-.75-2.67l-.51.32c-.23-.17-.05-.59-.85-1,.67.12,1.35-.36,1.88,0-2.12-.68-1.06-2.14-3.07-2.8a4.11,4.11,0,0,1,1.92.24c-.26.52-.71.65.12,1,0-.45.63-.72,1.12-.59-1.29-.61-1.71-1.75-3.06-2.12a3.23,3.23,0,0,1,2.23-.32c-.59-1.46-3.55.36-3.4-1.19,1.16-.62,1.42.82,1.88-.13l.17.19c3-.49-2-.67-1.88-1.44,1.6,0,1.09.64,2.28.16-.33-.78-2.7-1.23-2.16-1.93l.67.14c-.11-.48.24-1.39.13-1.86.32,0,.27,0,.35.14.63-.87-.8-.37.32-1.08l-.76-.21c-.56.36-1.36,1-.47,1.5-.89-.47-2,.64-3.39.38l.54.1a5.93,5.93,0,0,0-2.36,1.75c-.53.63-.88,1.31-1.38,2,1.54,1-.75,1.4.24,2.46,1.83.35.35.21.62,1.07-.18-.46-1.4-.22-1.69,0a1.69,1.69,0,0,1,.76.64c-.66.09-2.27.88-1.07,1.42-.65.4-.57-.2-.94-.36-1,.06.69.5,0,.57a.94.94,0,0,1-.28-.1c-.05.75-.6,1.12-1,1.85,1.8.35.56.87,1.15,1.32-.57-.21-.75.32-1.13.48l1.28.64c1.06.62-.91.43-.4,1.08l.35-.07c.46.49-.81,1.31-1.85,1.5,1.42,2.13.61,3.45-.49,4.68s-2.56,2.4-2.53,4.4c.48.37.94,0,1.69.41a1.38,1.38,0,0,1,0,.86c.55-.2-.05-.29.43-.13l-.37-.66a2.47,2.47,0,0,0,.44.09c-.12-.22-.43-.52-.28-.73.38.44,1.68.84,1.07,1.18a.57.57,0,0,1-.3-.29c-.19.35.43.51,0,.71s.05.29-.53.2l-1,.9c1.43.92-.22,1.21-.41,1.35-1.15-.4-.19-.8-1.28-1.34l-.95.17.93.26-.39.48-.17-.07c.35.15.7.31.34.37-.14,0-.41,0-.45-.1l.42.52c-.91-.46-.37.27-1.48-.06-.88,1.13,1.12,2-.7,2.73.57,0,1.67.81,1.38,1.1a1,1,0,0,1-1-.12l.46.6c-1.89.12-.91,1-1.72,1.64l-.48-.17c.5.46.88.91.57,1.33l-1-.35c-.84.39,2,1,1.16,1.44,1.06.28,1.71,0,2.73.23-1.12-.14-1.45.49-.65.54.27.74-.14.43-.41.41l.55.54c-.17.43-1.43-.23-2-.55,1,.71.11,1-.19,1.36l-.43-.31-.35.56c.72.62.63,1.2.06,1.6l-1.3-.73c-.82.17.43.31.64.47.53.76-.45.63-1.32.72C415.28,128.84,411.3,128.75,413.18,130.1Zm-7.72,66.37.23-.06C405.91,196.64,406.13,196.78,405.46,196.47Zm1.07-5.21c.47.71-.18.42-.58.41.47-.57.07-1,.61-1.46a5.64,5.64,0,0,1-.92,0c.1-.21.44-.38,1.18-.36C408.21,190.32,405.66,191.42,406.53,191.26Zm5.61,12.62-.31-.11h0Zm-.88-3.26a1.13,1.13,0,0,0,.62-.14C411.49,200.49,411.17,200.51,411.26,200.62Zm2.51-6c.62-.06.48-.4.37-.65A1.3,1.3,0,0,0,413.77,194.67ZM420,156.32c.19.24.71.71,1.2.48-.47-.26.47-.36-.28-.66H421A6,6,0,0,0,420,156.32Zm-.43-19a7.76,7.76,0,0,0,1.61.51l-.06,0a1.11,1.11,0,0,1,.49.08c.15-.11.33-.23.19-.37C420,137.06,419.73,136.67,419.57,137.35Z"/><path class="cls-1" d="M425.71,145.29c0-.08,0-.13,0-.18A.54.54,0,0,0,425.71,145.29Z"/><path class="cls-1" d="M421.79,137.63c-.12,0-.35.08-.61.23A.65.65,0,0,0,421.79,137.63Z"/><path class="cls-1" d="M404.62,213.35l-.18-.2-.6.34a4,4,0,0,0,2.4.93c-.87-.59-.41-.91-.62-1.64Z"/><path class="cls-1" d="M411.07,213.42a4.58,4.58,0,0,0,1-.23l-.58-.13Z"/><path class="cls-1" d="M414.53,206.79l-.58.5C414.44,207.52,415.42,207,414.53,206.79Z"/><path class="cls-1" d="M404.12,208.19l.62.37c.54-.22.51-.6-.19-.73C404.9,208.24,404.16,207.88,404.12,208.19Z"/><path class="cls-1" d="M414.84,205.3c-1.13-.32.58-.5-.49-.76C414.65,204.73,413.69,205.12,414.84,205.3Z"/><path class="cls-1" d="M403.84,204.34c-1.11,0-.18.48-.49.82C403.39,204.85,404.59,204.56,403.84,204.34Z"/><path class="cls-1" d="M412,201.82c.82.14.73.37.5.62-.24-.13-.62-.23-.73-.37a4.64,4.64,0,0,1,.79,1c.62-.29,1.07-.79,2.08-.6A4.12,4.12,0,0,0,412,201.82Z"/><path class="cls-1" d="M403.82,203.44c-.36.27-1.14.36-1.12.73.58,0,1.43,0,1.34-.45l.95.27C405.74,203.68,403.69,204,403.82,203.44Z"/><path class="cls-1" d="M414.4,200.43l-.47.12c.71.53.26,1,1.45,1.43A2.06,2.06,0,0,0,414.4,200.43Z"/><path class="cls-1" d="M405.79,202.18l-1.33-.23c-.24.4.45,0,.75.22-.21.09-.35.26-.11.38C405,202,406.19,202.66,405.79,202.18Z"/><path class="cls-1" d="M404.49,200.6,404,200l-1.52.24C402.9,200.92,403.3,200.36,404.49,200.6Z"/><path class="cls-1" d="M405.47,200.05l.27,0L403.85,199A6.35,6.35,0,0,0,405.47,200.05Z"/><path class="cls-1" d="M415.42,191.37c-.57-.17-1.35.2-.68.08C415.2,191.61,416,191.09,415.42,191.37Z"/><path class="cls-1" d="M404.42,191.85c.46-.17-.26-1.06-.6-1.45C404,190.84,403.63,191.81,404.42,191.85Z"/><path class="cls-1" d="M403.68,190.24l.14.16A.36.36,0,0,0,403.68,190.24Z"/><path class="cls-1" d="M403,175.57a.22.22,0,0,0-.14-.13Z"/><path class="cls-1" d="M403.28,176c-.23.2,0,.71.64.9a4.1,4.1,0,0,0-.91-1.29C403.05,175.74,402.58,175.85,403.28,176Z"/><path class="cls-1" d="M404.17,172.78c.33.23.1.43.66.47C405.1,173.2,404.57,172.74,404.17,172.78Z"/><path class="cls-1" d="M425.07,154.76c.36-.22.17-.44-.67-.55C424.34,154.54,424.87,154.47,425.07,154.76Z"/><polygon class="cls-1" points="424.31 153.8 424.73 153.85 425.4 153.8 424.31 153.8"/><path class="cls-1" d="M426,152.08a.88.88,0,0,1,.33.2C426.21,152.14,426.11,152,426,152.08Z"/><path class="cls-1" d="M426.33,152.35a.13.13,0,0,0,0-.07Z"/><path class="cls-1" d="M426,152.42l.44.12a.74.74,0,0,1-.15-.19C426.35,152.41,426.28,152.45,426,152.42Z"/><path class="cls-1" d="M426.25,151.51l-1.34.09c.52.54.74-.3,2,.4Z"/><path class="cls-1" d="M426.23,150.09c.49-.27-1.34-1.28.18-1.13-.52-1.24-2.52-.36-2.79-1.71-1,1,2.71,1.29,1.64,2.09C426.3,149.08,425.91,149.84,426.23,150.09Z"/><path class="cls-1" d="M423.7,149.67c.72.23.9-.22.45-.49C424,149.3,422.94,149.29,423.7,149.67Z"/><polygon class="cls-1" points="426.06 147.89 426.71 147.71 426.26 147.5 426.06 147.89"/><path class="cls-1" d="M426.66,146.74l.78.53C427.13,147.08,427.32,146.63,426.66,146.74Z"/><path class="cls-1" d="M428.17,145.32c.36-.22-1.55-1-1.28-.26l.12-.13C427.3,145.05,428.09,144.89,428.17,145.32Z"/><path class="cls-1" d="M426.09,140.56c-.09.19.1.5.52.57l-.26-.67Z"/><path class="cls-1" d="M421.27,139.38c-1.25-.13,0,.55-.53.82C421.08,139.84,421.23,139.93,421.27,139.38Z"/><path class="cls-1" d="M428,140.37c.45.28.07.43,0,.55C428.63,141,428.55,140.6,428,140.37Z"/><path class="cls-1" d="M427.79,139.37c.54-.05.66.22,1,.17.65-.25.69-.68.08-1.08a8.08,8.08,0,0,1-2.52-.59c.25.75,2.39,1.66.6,1.51l1.95,1.08C429.4,140.05,427.57,139.68,427.79,139.37Z"/><path class="cls-1" d="M423.48,139.59l.79-.16a1.06,1.06,0,0,1-.92-.63C421.8,138.48,423.44,139.37,423.48,139.59Z"/><polygon class="cls-1" points="427.81 135.63 427.64 134.82 427.5 135.03 427.81 135.63"/><polygon class="cls-1" points="428.42 135.3 428.87 135.4 428.2 134.64 428.42 135.3"/><polygon class="cls-1" points="429.14 134.69 429.05 134.76 429.32 135.28 429.14 134.69"/><path class="cls-1" d="M429.84,133.27l-.68,0c.12.23-.7.4.18.6C429.09,133.59,429.3,133.24,429.84,133.27Z"/><path class="cls-1" d="M414.79,124a2.36,2.36,0,0,0,1.2.29l-1.05-.49C415,123.82,415.06,124,414.79,124Z"/><path class="cls-1" d="M416.8,123.56l-1.11-.86c-.35.56.61.91.66,1.49.46-.12-.35-.67.06-.87Z"/><path class="cls-1" d="M420.46,113.23c.8.25.72.1,1.14.62-.37-.66-.07-1.08-.05-1.73-.53,0-1.31-.68-1.15-.39l.33.8-.53-.24C419.46,112.62,421,112.82,420.46,113.23Z"/><path class="cls-1" d="M434,86.44a2.71,2.71,0,0,0,1.14-.06C434.68,85.91,434.06,86.53,434,86.44Z"/></g></g></svg>