<svg xmlns="http://www.w3.org/2000/svg" viewBox="0 0 32.54 32.53"><defs><style>.cls-1{fill:#dc6203;}.cls-2{fill:#fff;}</style></defs><title>pero</title><g id="Слой_2" data-name="Слой 2"><g id="Слой_1-2" data-name="Слой 1"><path class="cls-1" d="M26.44,32.53H6.09A6.09,6.09,0,0,1,0,26.44V6.09A6.09,6.09,0,0,1,6.09,0H26.44a6.1,6.1,0,0,1,6.1,6.09V26.44A6.1,6.1,0,0,1,26.44,32.53ZM6.09,2A4.06,4.06,0,0,0,2,6.09V26.44A4.06,4.06,0,0,0,6.09,30.5H26.44a4.06,4.06,0,0,0,4.06-4.06V6.09A4.06,4.06,0,0,0,26.44,2Z"/><rect class="cls-1" x="17.72" y="5.94" width="12.28" height="5.4" rx="2" ry="2" transform="translate(13.1 -14.34) rotate(45)"/><path class="cls-1" d="M24.76,15.8l-8-8.06A.76.76,0,0,0,16,7.56L9.68,9.47a.73.73,0,0,0-.48.46L3.52,25.6a.75.75,0,0,0,.17.78l2.43,2.44A.75.75,0,0,0,6.9,29l15.68-5.68a.76.76,0,0,0,.46-.48L25,16.54A.73.73,0,0,0,24.76,15.8Z"/><path class="cls-2" d="M13.62,18.65c-.53-.53-1.86,0-2.39.48a1.35,1.35,0,0,0-.22,1.6L4.52,27.22l.53.52,6.49-6.48a1.35,1.35,0,0,0,1.6-.22C13.67,20.51,14.15,19.18,13.62,18.65Z"/></g></g></svg>