<svg xmlns="http://www.w3.org/2000/svg" xmlns:xlink="http://www.w3.org/1999/xlink" viewBox="0 0 142.92 131"><defs><style>.cls-1{fill:none;}.cls-2{clip-path:url(#clip-path);}.cls-3{opacity:0.74;}.cls-4{fill:#ffeed4;stroke:#333;stroke-miterlimit:10;stroke-width:2px;}.cls-5{fill:#333;}</style><clipPath id="clip-path" transform="translate(-6.59 -37)"><circle class="cls-1" cx="81" cy="81" r="81"/></clipPath></defs><title>dormitory</title><g id="Слой_2" data-name="Слой 2"><g id="Слой_3" data-name="Слой 3"><g class="cls-2"><g class="cls-3"><rect class="cls-4" x="79.2" y="17.79" width="62.72" height="102.41"/><rect class="cls-5" x="87.14" y="28.11" width="7.94" height="15.08"/><rect class="cls-5" x="100.11" y="28.11" width="7.94" height="15.08"/><rect class="cls-5" x="113.07" y="28.11" width="7.94" height="15.08"/><rect class="cls-5" x="126.04" y="28.11" width="7.94" height="15.08"/><rect class="cls-5" x="87.14" y="50.34" width="7.94" height="15.08"/><rect class="cls-5" x="100.11" y="50.34" width="7.94" height="15.08"/><rect class="cls-5" x="113.07" y="50.34" width="7.94" height="15.08"/><rect class="cls-5" x="126.04" y="50.34" width="7.94" height="15.08"/><rect class="cls-5" x="87.14" y="72.57" width="7.94" height="15.08"/><rect class="cls-5" x="100.11" y="72.57" width="7.94" height="15.08"/><rect class="cls-5" x="113.07" y="72.57" width="7.94" height="15.08"/><rect class="cls-5" x="126.04" y="72.57" width="7.94" height="15.08"/><rect class="cls-5" x="87.14" y="94.8" width="7.94" height="15.08"/><rect class="cls-5" x="100.11" y="94.8" width="7.94" height="15.08"/><rect class="cls-5" x="113.07" y="94.8" width="7.94" height="15.08"/><rect class="cls-5" x="126.04" y="94.8" width="7.94" height="15.08"/></g><g class="cls-3"><rect class="cls-4" x="1" y="40.77" width="37.12" height="78.47"/><rect class="cls-5" x="5.7" y="48.67" width="4.7" height="11.56"/><rect class="cls-5" x="13.37" y="48.67" width="4.7" height="11.56"/><rect class="cls-5" x="21.05" y="48.67" width="4.7" height="11.56"/><rect class="cls-5" x="28.72" y="48.67" width="4.7" height="11.56"/><rect class="cls-5" x="5.7" y="65.71" width="4.7" height="11.56"/><rect class="cls-5" x="13.37" y="65.71" width="4.7" height="11.56"/><rect class="cls-5" x="21.05" y="65.71" width="4.7" height="11.56"/><rect class="cls-5" x="28.72" y="65.71" width="4.7" height="11.56"/><rect class="cls-5" x="5.7" y="82.74" width="4.7" height="11.56"/><rect class="cls-5" x="13.37" y="82.74" width="4.7" height="11.56"/><rect class="cls-5" x="21.05" y="82.74" width="4.7" height="11.56"/><rect class="cls-5" x="28.72" y="82.74" width="4.7" height="11.56"/><rect class="cls-5" x="5.7" y="99.77" width="4.7" height="11.56"/><rect class="cls-5" x="13.37" y="99.77" width="4.7" height="11.56"/><rect class="cls-5" x="21.05" y="99.77" width="4.7" height="11.56"/><rect class="cls-5" x="28.72" y="99.77" width="4.7" height="11.56"/></g><rect class="cls-4" x="31.41" y="1" width="79" height="129"/><rect class="cls-5" x="41.41" y="14" width="10" height="19"/><rect class="cls-5" x="57.74" y="14" width="10" height="19"/><rect class="cls-5" x="74.07" y="14" width="10" height="19"/><rect class="cls-5" x="90.41" y="14" width="10" height="19"/><rect class="cls-5" x="41.41" y="42" width="10" height="19"/><rect class="cls-5" x="57.74" y="42" width="10" height="19"/><rect class="cls-5" x="74.07" y="42" width="10" height="19"/><rect class="cls-5" x="90.41" y="42" width="10" height="19"/><rect class="cls-5" x="41.41" y="70" width="10" height="19"/><rect class="cls-5" x="57.74" y="70" width="10" height="19"/><rect class="cls-5" x="74.07" y="70" width="10" height="19"/><rect class="cls-5" x="90.41" y="70" width="10" height="19"/><rect class="cls-5" x="41.41" y="98" width="10" height="19"/><rect class="cls-5" x="57.74" y="98" width="10" height="19"/><rect class="cls-5" x="74.07" y="98" width="10" height="19"/><rect class="cls-5" x="90.41" y="98" width="10" height="19"/></g></g></g></svg>