<svg xmlns="http://www.w3.org/2000/svg" viewBox="0 0 789.97 346.14"><defs><style>.cls-1{font-size:230px;font-family:ArialMT, Arial;}.cls-1,.cls-2{fill:#fff;}.cls-3{fill:none;stroke:#fff;stroke-miterlimit:10;stroke-width:10px;}</style></defs><title>Ресурс 3</title><g id="Слой_2" data-name="Слой 2"><g id="Слой_2-2" data-name="Слой 2"><text class="cls-1" transform="translate(0 251.74)">dor</text><path class="cls-2" d="M359.9,29.14v317H755.1v-317ZM573.47,255.9H531.81V130.34L499.71,255.9H462L430,130.34V255.9H388.28V91.26h66.91L481,191.44,506.61,91.26h66.86Zm109.69,8.17q-8.08,21.8-16.5,29.44-11.91,10.8-36.26,10.79-9.89,0-30.54-2.69l-3.59-31.9a72.15,72.15,0,0,0,22,3.15q8.09,0,13.08-3.71t8.47-13.27l-50-119.25H638l24.6,79.4,22.85-79.4h45Z"/><polyline class="cls-3" points="360 5 784.97 5 784.97 345.88"/></g></g></svg>