<svg xmlns="http://www.w3.org/2000/svg" viewBox="0 0 510.49 258.99"><defs><style>.cls-1{fill:#8f4a4b;}.cls-2{fill:#914d4e;}</style></defs><title>Ресурс 7</title><g id="Слой_2" data-name="Слой 2"><g id="Слой_3" data-name="Слой 3"><path class="cls-1" d="M222.14,32.44c1.16.41-.24-.33-1.45-1.13Z"/><path class="cls-1" d="M220.69,31.31l-1-.79A6.86,6.86,0,0,0,220.69,31.31Z"/><path class="cls-1" d="M210.8,24.34c2.47,1.3,5.09,3.37,6.74,4C215.38,26.56,211.61,24.33,210.8,24.34Z"/><polygon class="cls-1" points="214.16 26.85 214.58 26.84 212.33 25.82 214.16 26.85"/><polygon class="cls-1" points="215.5 27.97 215.25 27.71 211.93 25.84 215.5 27.97"/><path class="cls-1" d="M202.72,19.48c.83.42,1.68.81,2.48,1.28,2.1,1.61-1.7-.5-.3.57,3,1.76,1.37,0,5.08,2.33-.15-.43-6-3.53-5.19-3.59C201.62,18.21,204.5,20.23,202.72,19.48Z"/><path class="cls-1" d="M46.67,35.91l-.32.22C46.5,36.07,46.64,36,46.67,35.91Z"/><path class="cls-1" d="M18.4,70.74c-.34.52-.66,1.06-1,1.58a5.35,5.35,0,0,0,.46-.59Z"/><path class="cls-1" d="M69.7,19.26c.6-.26,1.14-.52,1.63-.75A9.36,9.36,0,0,0,69.7,19.26Z"/><path class="cls-1" d="M88.05,249.18a.4.4,0,0,0-.28,0l.08,0,.52.05Z"/><path class="cls-1" d="M5.54,119c0,.71,0,1.41,0,2A16.93,16.93,0,0,0,5.54,119Z"/><path class="cls-1" d="M84.61,12.35,84,12.6l.81-.26h-.17Z"/><path class="cls-1" d="M26.68,58.64c-.37.48-.7.92-1,1.3C26.06,59.51,26.38,59.07,26.68,58.64Z"/><path class="cls-1" d="M162.88,4.1a11.08,11.08,0,0,0-2-.39A8.27,8.27,0,0,0,162.88,4.1Z"/><path class="cls-1" d="M146.52,1.65h.09C146.52,1.59,146.47,1.6,146.52,1.65Z"/><path class="cls-1" d="M136,1h.19C136,1,136,.94,136,1Z"/><path class="cls-1" d="M160.88,3.71c-1.31-.43-1.61-1.09-3.47-.75l.33.15a22.17,22.17,0,0,0-3.83-.51,2.33,2.33,0,0,0,.42.22c.61.08,1.41.26,2.64.52A19.18,19.18,0,0,0,160.88,3.71Z"/><path class="cls-1" d="M46.73,35.71c.19,0,1-.74,0,0Z"/><path class="cls-1" d="M57.61,26.9l-1.17.74A11.22,11.22,0,0,0,57.61,26.9Z"/><path class="cls-1" d="M106,6.48l-.25,0C105.64,6.58,105.84,6.54,106,6.48Z"/><path class="cls-1" d="M55.41,28.38c.34-.25.67-.51,1-.74A6.25,6.25,0,0,0,55.41,28.38Z"/><path class="cls-1" d="M90.57,10.33l-.22.05A.82.82,0,0,0,90.57,10.33Z"/><path class="cls-1" d="M253.69,150.72a15.71,15.71,0,0,1-.52,2.73c0,1.18.23,0,.38-1.06s.21-2,.21-.29c.11-1,.15-1.85.17-2.61l-.57,1.42C253.29,152.94,253.65,149.57,253.69,150.72Z"/><path class="cls-1" d="M100.62,254l-.44-.14c.26.25,0,.24,1.68.76,1.54.08-.65-.9,2-.58a18.89,18.89,0,0,1-1.93-.49C102.91,254,101.81,254.05,100.62,254Z"/><path class="cls-1" d="M101.92,253.54l-.07,0-.35-.19c-.37-.09-.72-.19-1-.29A9.85,9.85,0,0,0,101.92,253.54Z"/><path class="cls-1" d="M244.05,185.67c-.19.41-.36.78-.52,1.11A4.19,4.19,0,0,0,244.05,185.67Z"/><path class="cls-1" d="M.58,115.29v-1.47A8.72,8.72,0,0,0,.58,115.29Z"/><path class="cls-1" d="M76.74,244.85l-1.12-.62-.73-.36C75.51,244.2,76.11,244.55,76.74,244.85Z"/><path class="cls-1" d="M159,250.77c-.75.66.65-.2,2.42-.36l1.53-.64C161.43,250.06,160.1,250.47,159,250.77Z"/><path class="cls-1" d="M254,149.38a0,0,0,0,1,0,0v.13Z"/><path class="cls-1" d="M202.48,230.42l.67-.42A4.75,4.75,0,0,0,202.48,230.42Z"/><path class="cls-1" d="M92.37,250.58c-2-.73-4.06-1.36-6-2.2l1.7.8C89,249.25,91.44,250.55,92.37,250.58Z"/><path class="cls-1" d="M132.55,253.41l-.56-.28c-6.21.57-13.24-.85-18.22-.86-1.84-.49-3-.84-4-1a10.17,10.17,0,0,0-2.12-.15c-1.19,0-2.31,0-5.58-1.25l.19.2a119.09,119.09,0,0,1-16.41-5.54l-2-.83c-.67-.29-1.32-.61-2-.92-1.31-.62-2.64-1.22-3.94-1.86-2.57-1.37-5.18-2.65-7.64-4.17a146.84,146.84,0,0,1-26.79-20.19l.18-.11a132.77,132.77,0,0,1-28.41-42,122.75,122.75,0,0,1-9.8-49.43,4.83,4.83,0,0,0-.38-2.17c-.15-.26-.3-.47-.35-1.85.08-1.19.16-3.89.45-3.89,0,2.32.29,1,.33,1.82.06-1.91.41-4.08.62-6.21s.61-4.17.69-5.89l-.72,2.79a29.84,29.84,0,0,1,.69-4.58c.06.53.74-1.12.61-.09.15-1.8.32-3,.49-4a13.53,13.53,0,0,1,.64-2.17c.22-.59.45-1.15.69-1.93s.48-1.78.86-3.24c-.33-1.34,1.35-8.82,3-13.62.4-.79.75-1.6,1.2-2.37-1.41,3.23.46.13-1.25,4.13,1.51-3.3,2.72-6.45,4.36-9.47-.47.51-.58.26,0-1,1.1-1.81,1.44-1.83,2.67-3.9-.37.7-.65,1.45-1,2.17a37.77,37.77,0,0,0,2.14-3.91c.49-.27,2.39-3.31,2.34-2.59a35.36,35.36,0,0,1,1.95-3.3c.3-.47.61-.95,1-1.49s.79-1.12,1.26-1.85c-2.44,2.7.27-1-.16-.78-.79,1.11-1.62,2.2-2.34,3.36a15.61,15.61,0,0,1,1.32-1.69c.09-.07-.15.25-.47.73-.6,1-1.55,2.5-1.23,2.46-1.71,2.11,1.46-3.53-1.05.27.72-1.16,1.31-2.08,1.83-2.89s1.06-1.44,1.55-2.11c1-1.34,1.93-2.75,3.63-5-2.12,2.62.18-.7-1.11.59,2.77-3.28.82-.7,1.91-1.51,1.49-1.8,2.29-2.23,3.51-4,2.7-2.64-.13.66,1.32-.59A12.41,12.41,0,0,1,35.07,47c-.71.75-1.59,1.61-2.33,2.51-1.51,1.75-2.75,3.33-2,3.28a23,23,0,0,0-1.85,2.68c-.64,1-1.37,2.08-2.2,3.21.77-1,1.79-2,2.79-3.24L31,53.57c.51-.6,1-1.21,1.45-1.82l-.36-.5c1.5-1.76,1.46-2.43,2.67-3.59-.48.76.8-.23,2-1.6-.43.32-.92.87-.86.65,1.18-1.25,1.74-2.07,2.43-2.89a42,42,0,0,1,2.88-3.18c-2.55,2.26-3.25,2.55-5.61,4.71.31-.9,1.48-1.7,2.82-3-.16.24-.44.52,0,.19L39.76,41c3.21-2.82,0,.79,2.71-1.46,2.05-1.34,2.36-2.33,3.88-3.41l-.34.16.72-.58h0c1.71-1.46,3.62-2.94,3.93-3.58a15.34,15.34,0,0,0,2.08-1.75c.95-.82,3.14-3,5-3.55l-.11.08c2.38-1.51,4.28-2.6,3.87-2.12l3.94-2.23-.21.6c1.72-1.13,2.51-1.62,3.12-2.1s1.06-.9,2.21-1.76c1.34-.64,3.19-1.47,4.89-2.35s3.29-1.66,4.16-2.12c.31-.12.76-.32,1.51-.66l-1.65.54c3-1.26,2.52-1.35,4.52-2.1-.43.12-.5.12.64-.25l1.15-.41a4.65,4.65,0,0,1-1,.4l.41,0a12,12,0,0,0,3.1-1.12A20.57,20.57,0,0,1,91.49,10c-.24.1-.65.26-.92.35,1.51-.38,3.78-.57,4.31-1a6.2,6.2,0,0,0,1.35-.5l1.11-.25-1.1.24a5.11,5.11,0,0,1,1.37-.56c1.28-.35,2.56-.68,3.86-.94A22.2,22.2,0,0,0,104,6.64h.69c1.4-.37,1.44-.24,1.27-.17a43,43,0,0,0,6.35-1c1-.18,2-.37,3-.52A21.76,21.76,0,0,1,119,4.64c1-.38-1.24-.29-1.43-.42.81-.3,3.89-.79,5.43-1.09l5.71.25c2,.1,3.57.38,3,.65,4.45,0-1.4-.34.83-.55l.52,0a21,21,0,0,1-3.63-.43c-.36-.33,3.61-.42,4.83-.35l-.85.44a12.93,12.93,0,0,0,3.51-.49,8.88,8.88,0,0,1,2.37-.62c3.31.29,1.38.61,2.06,1,1.15,0,2.3.1,3.46.15l0,.32c2.24.12,2.8-.21,5.88.34-2.27,0,4.58.9,1.45.91,1.68.33,2.28-.25,3.08.35,1.23-.15-1.5-.44-2.35-.63-.32-.28.63-.23,1.92-.06s2.89.53,3.92.65c.13.28-1.41.05,1,.64a7.45,7.45,0,0,1,3.38.6c.07-.31,2.72.53,4.06.87-1.5-.42-3.65-1.13-2.59-1.18a24.28,24.28,0,0,1,4.92,1.06l-1.8-.65a10.4,10.4,0,0,1,3.21.85,34.54,34.54,0,0,0,3.76,1.3A29.91,29.91,0,0,0,171.08,8c1.56.22,4.43.91,6.79,1.51.84.43,1.67.85,2.48,1.34.4-.11,2.92,1.1,3,.8,3.16,1.4-2.74-.6-3.14-.5a19.15,19.15,0,0,0,3.67,1.23,10.53,10.53,0,0,1,3.44,1.46L186,13.62a41.47,41.47,0,0,1,4,1.68c.05-.1-.61-.33-1.4-.67a10.46,10.46,0,0,1,3.39.85c1.33.5,2.52.94,2.43.53l-1.71-.87c2.69,1.17,4.83,1.59,6.72,2.88,1.43,1-1.27-.21-2.29-.46,2.46,1.25,2.33.38,5.23,2-1.48-.91-1.08-1-.07-.63-.84-.46-2.14-1.2-3.16-1.74s-1.8-.83-1.54-.57l.6.36a7.36,7.36,0,0,1-1.71-.46c-2.37-1.13-1-.8-1.4-1.14-3.91-1.95-.57.4-4.21-1.23l-.43-.32c-1.84-.58-4.56-1.73-5.21-1.51-1.48-1-4.28-1.42-6-2.3,0-.52,1.57.08,3.45.85.93.39,1.94.81,2.86,1.16a13.18,13.18,0,0,0,2.29.78c-1.85-1,1.28.05,2.17.19-2.09-.73-4.16-1.49-6.29-2.09a8.68,8.68,0,0,0-3.35-1.51l.48.2c-2.51-.79-2-.14-4.09-1-.31-.19.4-.12.58-.13-2-.72-1.72-.32-3.08-.67-2-.72,1.11,0-.52-.68C171.24,6.81,170,6,168,5.48c.74.66-8.32-1.12-4,.31-1.66-.24-3.31-.52-5-.65-1.49-.57,3.54-.12,2.26-.81l3.92.89c-.25-.38-2.33-.77-4.65-1.14a27.74,27.74,0,0,1-6.18-1.26,50.22,50.22,0,0,1-5.62-1l.63.68c-2.08-.4-2.74-.72-2.82-.85-1.24-.07-2.36-.18-3.5-.3a6.41,6.41,0,0,1,1.49-.07,4.12,4.12,0,0,0-2.6-.24,25.52,25.52,0,0,1-3.5,0l1.2-.18a8.21,8.21,0,0,0-1.9.15c-.55,0-1.07,0-1.57,0a12.17,12.17,0,0,0,3.1.73c-1.22-.11-2.37-.19-3.49-.25l-3.23-.06-3.1-.1c-1,0-2.06,0-3.11-.11.14-.18,1.89-.48,1.36-.48-2.11,0-4.38.44-4.17.69l-1.15.14a5.26,5.26,0,0,0-1.92-.15,6.33,6.33,0,0,0-1.33,0,9.74,9.74,0,0,1-2.69.62,23,23,0,0,0-2.82.53c.94-.08,2.09-.25,3.26-.43a12.87,12.87,0,0,1-4.4,1.05c3.06-.74-3.39,0,1.28-.81-3.4-.12-1.66.63-5.16,1.07l-2.28.19c.27-.4,3.6-.85,3-.88l-1.55.34c1.5-.6,7.44-1.4,11.07-2.14-1.24.07-2.47.2-3.69.36l-3.69.43-7.19,1.54c-2.45.63-5,1.13-7.41,1.89l-3.6,1c-1.17.39-2.31.8-3.42,1.2s-2.18.78-3.18,1.23-2,.89-2.84,1.34l.31-.13a.53.53,0,0,0-.21.32l-.36.05-1.37.8a26.42,26.42,0,0,0-3.41,1.08c-1.32.49-2.78,1-4.1,1.52,1.69-.6,1.7-.56,2-.41-.19.45-.38.69-2.79,1.74-.13-.21,1.33-.92-.5-.24,1-.33.23.21-.79.74-.7.26-1.62.63-2.35,1s-1.32.57-1.4.47a8.73,8.73,0,0,1,1.53-.77c.57-.39-2.56,1.14-.86,0l-2.33,1.35c-1.48.57.77-.78.15-.6-1,.58-1.79,1.1-2.55,1.61s-1.41,1-2.06,1.54c-1.3,1-2.6,1.93-4.22,3.15.09-.22-.17-.7-.12-.54a31.27,31.27,0,0,0-4,2.94c-1.29,1.16-2.6,2.37-4,3.43a21.82,21.82,0,0,1,2.24-1.86c-1.1.78-2.19,1.53-3.24,2.29l-3,2.35c-2,1.5-3.82,3.15-5.69,4.69s-3.57,3.23-5.39,4.85-3.55,3.4-5.32,5.24l-1.3,2.38-2,1.79a86.87,86.87,0,0,0-8.6,12l-1.78,3-1.62,3.15c-1.13,2.09-2.08,4.32-3.14,6.64a7.6,7.6,0,0,1-1.14,2,2,2,0,0,0-.73.85C9,80.1,8.43,81.41,8,82.6s-.66,2.23-.94,3.27c-.6,2-1,4.11-1.87,7.31.1-.92.08-2.56-.76.18a5.84,5.84,0,0,1-.36,2.7l.06-.94a16.51,16.51,0,0,0-.76,2.57c-.11.51-.24,1.07-.39,1.71s-.29,1.37-.47,2.21a65.28,65.28,0,0,0-1.19,16.72c-.31,5.31-.58-.58-.75.41a17.89,17.89,0,0,0,.21-2.81c0-.29-.18-.22-.24-.64-.07,2,0,4.42-.5,5.43a37.53,37.53,0,0,0,.16,6.79c-.14-1.38.08-2.57.26-1.27-.23,2.27.25,8-.26,7.75a139.83,139.83,0,0,0,2.92,20.45,124.07,124.07,0,0,0,6.35,20.38c1.12,2.12-.58-1.71.07-.56,1.59,3.08.83,2.61,2.23,5l-.72-.93a75.87,75.87,0,0,0,6.16,10.83c-.6-.42,1.4,3-.41.19,1,1.64,1,4.43,2,5.57-.05-.84,0-1.71,0-2.56a6.07,6.07,0,0,1,.78,1.19c.36.56.69,1.07.66.94a41.58,41.58,0,0,0,2.2,4.47c0,.67-1.5-1.87-2.37-3.24-.6.08,2.67,4.81,1,3.1,2,2.89-.05-.57,1.27,1.06L24,202.46l-1.21-2a37,37,0,0,1,4.2,5.35l2.59,2.43c-.06.27.32.79.84,1.42s1.25,1.32,1.8,2L31.3,211a35.48,35.48,0,0,1,3,3.8c-1.17-.77-1.35-1.71-2-1.91L33.93,215c.17-.16,1.44.95.29-.56,1,.77,1.8,1.29,2.87,2.21s2.36,2.24,4.59,4.32c1.71,2.21-2.41-1.78-1.87-.69A26.56,26.56,0,0,0,45,224.5,22.33,22.33,0,0,1,49,227.17,28.26,28.26,0,0,0,52.59,230c.94.62,1.84,1.29,3.81,2.63-1.4-.64,2.54,2.18,3.11,2.91l-1.71-.85c1.23.78,2.32,1.67,1.85,1.59,0-.23,1.36.53,3.08,1.56.86.5,1.8,1.1,2.73,1.62s1.85,1,2.59,1.36l-.34-.57c1.15.58,2.49,1.32,3.9,2s2.82,1.35,4,2c3.69,1.66,3,1,6,1.93,1.44,1,1.16,1.19.48,1.32-.93-.6-2.64-1.27-4.22-2.1-1.21-.45-2.32-.92-3.41-1.37l-3.22-1.31a51.6,51.6,0,0,1-6.33-3.32c-1.14-.28-.42.22.9.85A34,34,0,0,1,70,242.52a1.26,1.26,0,0,1-.42-.16c.19.11.36.21.54.33-1.65-.83-4.33-2.22-5-2.13,2.74,1.47,2.34.45,5.53,2.63,2.64,1.09,4.39,2.76,6,3.52.93.26,1.48.25,2.32.44a11.3,11.3,0,0,1,1.56.47c.65.25,1.45.6,2.53,1-.69-.11-1.39-.21-2.06-.37,4.89,2,2.54.35,7.07,2.15-1.59-.64,1.69.18-1.34-1,.78.21,2,.56,3.36,1s2.79,1,4,1.43c.67.13.18-.11.34-.21-2.67-1.18-4.45-1.2-6.56-2.39l-2.06-.3c-2.45-1.17-2.55-1.63-1-1.19A12.57,12.57,0,0,1,83,247c-.15-.84,2.91,1.44,4,1.21l-1.78-.65c-.3-.37.77-.06,2.19.46s3.25,1.13,4.39,1.56c2.53,1.17,5,1.86,5,2.27-1.2-.32-2.42-.58-3.61-.94,1.76.85,4.61,1.21,6.69,1.83a3.57,3.57,0,0,0,.56.24c-.1-.05-.15-.1-.14-.13a6.34,6.34,0,0,1,1.15.42c1.85.47,4.61.95,6.34,1.34l-.15-.34-.27.13c-1.72-.31-4-1.09-2.64-1,3.87.62,4.55,1.28,5.42,1.74-1,.26-3.79-.68-5.77-1a8,8,0,0,0,2.86.85c1.35.23,3,.59,5,1-1.7.28-4.65-.88-5.63-.57,3.23.69,4.13.58,7.55,1.17-.48.17-3.83-.3-3.66,0,.72.2,1.46.33,2.19.49a21.07,21.07,0,0,0-2.23-.24c-.24,0-.1.13.08.25.35.24.86.52-1.27.17,2,.62,2.87.08,5.68.82-.77-.34-3-1.06-.23-.86,1,.18,2,.42,3.07.56.63.18-.19.25-.93.29s-1.37.05-.38.3,2.19.12,3.28.18c-.09-.16-1.64-.39-.64-.5,1.86.32,3.13-.23,5.34-.35a20.77,20.77,0,0,1,3.77.4c2.22-.11,4.74-.29,7.2-.38,2.46-.24,4.87-.38,6.88-.79-2.74.56.15.52,1.83.58-3.19.38-3.19.82-2.94,1.11,2-.22,3.19-.84,2.19-.9,3.28-.14,2.22-.48,5.1-.55,1.87-.1-.86.6-.21.68,3.52-.48.88-.7,4.7-1.14-.2.09-.54.16-.23.2a14.57,14.57,0,0,0,4.61-1.23,9.11,9.11,0,0,0,1.91-.11c.67-.13,1.34-.31,1.94-.46,1.18-.32,2.05-.55,1.91-.21,4.84-1.36-.81-.14.1-.58.49-.18,1.08-.37,1.72-.54s1.3-.4,2-.58c1.31-.36,2.52-.64,3.1-.76-1.17.36-2.22.85-3.39,1.1l1.14.1a23.87,23.87,0,0,0,3.21-1,11.45,11.45,0,0,0,1.53-.86,15.42,15.42,0,0,1,4.52-1.92c-2.82,1.3-.85.65-2.2,1.46.88-.35,5.29-2.06,2.52-1.27,2.11-.84,3.6-1.36,5.07-1.91a49.35,49.35,0,0,0,4.61-2.79c2.82-1.44,5-2.29,6.43-2.89,5.61-3.62,11-6.77,16.21-11.49l-.41.32c4.2-3.48-2.19,1.13,2.12-2.52-.12.44.58-.05,1.51-.77s2-1.77,2.75-2.3,1.28-1.14,1.88-1.7,1.12-1.16,1.65-1.72c1-1.15,2.06-2.24,3-3.36,1.82-2.3,3.7-4.46,5.73-6.94.06.11-.09.51-.84,1.51a95.16,95.16,0,0,0,7.72-10.79l-.05.2c4.17-5.77,6.71-11.77,9.43-18.55-.17.57-.05.78-.17,1.23l1.28-2.82c.45-1,.83-2.13,1.22-3.19s.73-2.11,1-3a24,24,0,0,0,.51-2.44,19.33,19.33,0,0,0,1.3-3.58,31.66,31.66,0,0,1,1.37-4.55c.17-.29-.06.56-.14.93a71.62,71.62,0,0,0,1.85-7.34c.42-3.08.42-5,.59-7.09,0-1,.07-2.1.17-3.34s.29-2.68.41-4.47c.35-.16.35,1,.27,2.12s-.23,2.4,0,2.51a39.56,39.56,0,0,1,.33-4.66c.2,1.21.15.27.35,1.11a18.26,18.26,0,0,0-.06-3.65l-.17-1.75c-.06-.46-.1-.74-.09-.73s-.18.43-.26,1.85a33.73,33.73,0,0,1-.09-4.6c0-1,.07-2.05.05-3.07s-.09-2-.17-2.87c.06,1.13,0,4.68-.34,3.35,0-4.65-.72-6.17-1.34-9.35-.08-4.28.87,3.08,1.28,2.25.11-.73.34-2.49.69-.7a39.26,39.26,0,0,0-.65-5.19c-.33-1.59-.69-3.12-1-4.82l.15.08c-.19-1.2-.52-2.39-.81-3.58s-.58-2.38-.94-3.52-.7-2.27-1-3.35-.56-2.13-.82-3.12c.17.7.35,1.4.46,2.1a29.42,29.42,0,0,0-1.64-4.25c.26.07-.5-3,.07-1.82a40.64,40.64,0,0,1-2.86-5.95c-1.23-2.48-2.44-5-3.29-5.91-.43-1.21.31-.44.64-.17,1.23,2.78,1.49,3.78,2.42,5.12-1-2.3-1.64-4.07-1.33-3.79-1.46-2.12-4.44-7.33-5.56-8.14-.75-1.68-1.55-3.26-.9-2.91-2.22-3.18-2-2.18-1.7-1.37s.45,1.53-2-2c-1.93-3.48,2.6,2.9-.39-1.68l.62.8a4.38,4.38,0,0,0-2-2.77,8.41,8.41,0,0,1-2.88-2.58c0-.81,2.21,2.22.6-.46a37.29,37.29,0,0,0-3.66-3.43A49.38,49.38,0,0,1,222,60.38l.61.3L220.94,59l-1-1-1.07-.95c-1.43-1.28-2.85-2.58-3.85-3.4,0-.16.26.08.65.39-3.64-3.16-1.75-1-4.63-3.76l-1-.48c.73.68,1.81,1.66,3,2.62.58.49,1.19,1,1.78,1.41s1.13.91,1.65,1.26c-2.06-1.42,2.49,3.09,1.25,2.6l.49.19c4.25,4.92,9.78,11.08,14.11,18a26.77,26.77,0,0,1,2.19,2.88c.59,1,1.13,1.94,1.67,2.91,1.14,1.92,2,4,3.48,6.36,1,.48.57.87,2.63,5.12-1.11-2.25-.54-.08,0,1.4a28.17,28.17,0,0,1,1.39,2.85c.22,1,1.59,6.73,2.56,8.7.51,2.83-.34-.6-.67-1.15,0,1.19.84,2.18.88,3.15,0,0-.08,0-.18-.31l.74,2.92c.21.9.33,1.77.49,2.64.3,1.75.64,3.5.89,5.76.32.14.54,1.24.74,2.55s.26,2.85.48,3.85c-.28-.64.06,2.56,0,3.86l.55,2.42c.51,2.41-.18,3.37,0,6.5l.11-.76c0,.58,0,1.39,0,2.31s-.16,2-.27,3-.25,2.06-.38,3-.34,1.69-.48,2.23a85.36,85.36,0,0,1-5.54,26.36,152.75,152.75,0,0,1-12.24,24.89c-.6,1.32.82-.74.46.37a42.32,42.32,0,0,1-2.57,4.08c1.16-1.4.83-1.27.84-1,.56-.89,1-1.84,1.54-2.76.11-.1-.05.2.18,0,.5-.93,1.07-2.05,1.79-3.2-.87,1.75-.79,2.44-2.33,4.64a6.31,6.31,0,0,1,.55-1.13,28,28,0,0,1-2.1,3.37c-1.23,1.61-.83,1.28-1.14,1.38-.64.84-1.24,1.7-1.9,2.51l-2,2.42a18.27,18.27,0,0,1-1.3,2.07c-.5.64-1.05,1.25-1.55,1.79-1,1.09-1.91,1.92-2.26,2.29.13-.79,2.61-3.24,3.28-4.67-.54.52-1.12,1-1.68,1.53l.16.31-2.14,2.38.07-.17a2.69,2.69,0,0,1-1,1.27c-.13.08-.41.24-.18,0l-1.44,1.78c.67-1.19-1.46,1.39-1.5.88-5.41,5.07-6.48,7-11.95,10.61.94-.52-1.26,1.77-3,2.88-1,.58-1.31.68-.78.14l-2.07,1.66a45.65,45.65,0,0,0-4.51,2.44c-.78.46-1.59,1-2.49,1.5s-1.89,1-3,1.54l.14-.27c-.75.5-1.51,1.06-2.42,1.56s-2,1-3.19,1.57l.3-.52c-3.06,1.21-2,1.71-5.44,2.92.15.33,2.36-.38,2.83-.2-1,0-4.6,1.45-3.66,1.34-3.37,1.44-2.39.86-2.71.9l-2,.93c-2.43.85-.92-.18-.1-.69a13.4,13.4,0,0,1-1.67.78c-.59.21-1.19.39-1.82.56l-3.84,1c.34-.14.67-.31,1-.47-1.14.35-2.31.56-3.47.84a28.64,28.64,0,0,1-3.87,1.16c-1.45.3-3,.57-4.48.78l1.95-.87c-2.11.16-1,.37-1.57.56a16.72,16.72,0,0,1-5.77.51C142.39,253.67,137.06,252.75,132.55,253.41ZM104.65,6.54l-.5,0C105.23,6.25,105.84,6,104.65,6.54ZM76.59,15.88c3.18-1.63,2.24-.94,2.54-.94-.82.32-1.54.61-2.21.91l-1.84.9c-1.18.58-2.33,1.11-3.75,1.76a1.59,1.59,0,0,1,.81-.08,9,9,0,0,1-2.73,1C70.49,18.2,78.11,15.48,76.59,15.88Zm65-14.77-.43.09h0Zm-17.94.55a4,4,0,0,0-1.25-.09A2.79,2.79,0,0,0,123.7,1.66Zm-35,6.62A16.16,16.16,0,0,0,84.77,9.6C85.39,9.41,86.46,9,88.65,8.28Zm-69.4,183.8c-.61-.9-1.8-2.57-1-.88.61.69,1.18,2.36,1.83,2.86l.08.16C19.7,193.23,19.41,192.36,19.25,192.08Zm83.19,60.34c-.23.15-1,.17-.59.44l-.29-.09c.24.13.45.24.23.23a21.09,21.09,0,0,0,2.29.59C104.51,253,106.28,253.35,102.44,252.42Z"/><path class="cls-1" d="M68.68,241.88l.87.48Z"/><path class="cls-1" d="M103.92,253.54a18,18,0,0,0-2.07-.68A10.44,10.44,0,0,0,103.92,253.54Z"/><path class="cls-1" d="M196.8,18.13l-1-.38,1.78,1.06c3.15,1.43,3.44,1.27,4.35,1.38-1.45-.59-2.57-1.15-3.78-1.78s-2.56-1.23-4.37-2.05Z"/><path class="cls-1" d="M196.14,15.45a10.93,10.93,0,0,0-1.45-1l-.56-.05Z"/><path class="cls-1" d="M156.84,1.92l3.27.75C161.19,2.69,157.41,1.71,156.84,1.92Z"/><path class="cls-1" d="M170.46,8.41l1.72.24a11.51,11.51,0,0,0-3.85-1C170.36,8.11,168.79,8,170.46,8.41Z"/><path class="cls-1" d="M147.92.66c-1.08.3-3.33-.46-4-.15C144.76.48,147.71,1,147.92.66Z"/><path class="cls-1" d="M149.82,4.58c1,.5,2.73.39,4.77.76C152.88,5.1,150.54,4.42,149.82,4.58Z"/><path class="cls-1" d="M130,1.07c.17-.28,1.58-.27,3.16-.21a14.86,14.86,0,0,1-1.58.26c2.63-.22,2.81-.21,4.91-.3-2.1-.24-5.27-.3-4.94-.66C130,.41,128,.88,130,1.07Z"/><path class="cls-1" d="M144.87,4.14c1.7.27,2.71.53,4.75.81-.33-.23-1-.65-3.39-.79l.89-.24C144.91,3.49,148,4.41,144.87,4.14Z"/><path class="cls-1" d="M120.27,1l1.07,0c.61-.12,1.27-.23,1.93-.32l2-.18A15.35,15.35,0,0,0,128.33,0c-1.49.09-3.16.22-4.63.37S121,.79,120.27,1Z"/><path class="cls-1" d="M136.45,3.08l-.34.44c2.41.15-.17-.16.7-.24a10.2,10.2,0,0,0,2.22.11C136.29,3.35,138.87,3,136.45,3.08Z"/><path class="cls-1" d="M128.54,3.65,125.47,4l2.42.37C131.48,4,128.06,4.08,128.54,3.65Z"/><path class="cls-1" d="M124.73,3.55l-.35-.07c-1.53.3-3,.72-4.56,1.07C122.54,4,122.7,4,124.73,3.55Z"/><path class="cls-1" d="M69.63,16.05c-.19.21.35,0,.8-.14s.81-.33.23-.16C71.05,15.33,67.68,16.89,69.63,16.05Z"/><path class="cls-1" d="M81.28,14.55A32,32,0,0,0,78,16c-1.32.64-2.65,1.46-3.47,1.92C76.51,16.76,81.67,14.67,81.28,14.55Z"/><path class="cls-1" d="M73.9,18.29l.67-.38C74.27,18.07,74.05,18.19,73.9,18.29Z"/><path class="cls-1" d="M18.47,72.37a3.66,3.66,0,0,0-.22.52Z"/><path class="cls-1" d="M19.26,70.67a22.72,22.72,0,0,0,1.12-2.13,7.71,7.71,0,0,0,.72-1.66c-.23.44-.47.86-.7,1.29l-.63,1.31c-.42.89-.84,1.82-1.3,2.89C18.87,71.59,19.51,70.72,19.26,70.67Z"/><path class="cls-1" d="M11.87,87.06c.2-.93.69-2.12.41-1.88C12,85.65,11.54,87.6,11.87,87.06Z"/><path class="cls-1" d="M26.38,205.54c1,1.48,1.76,2.27,1.68,1.72C26.8,205.66,27.35,206.64,26.38,205.54Z"/><path class="cls-1" d="M29.54,209.05l0,.28c.19.35.37.72.58,1.06C29.93,210,29.74,209.49,29.54,209.05Z"/><path class="cls-1" d="M37.52,218.63a3.13,3.13,0,0,1-.61-.45C37.43,218.66,37.87,219.07,37.52,218.63Z"/><path class="cls-1" d="M36.65,217.93l.26.25Z"/><path class="cls-1" d="M36.15,217.27h-.21c.16.13.44.4.71.66A2,2,0,0,1,36.15,217.27Z"/><path class="cls-1" d="M40.14,221.32c-.47-.66-1-1.28-1.41-2-.92-.82-.48-.28,0,.3s.87,1.14-.17.45Z"/><path class="cls-1" d="M46.34,226.84a23.37,23.37,0,0,0,3,2.34,8.25,8.25,0,0,1,2.32,2c2.62,1.88,2.45,1.48,2.37,1.16s-.09-.52,3,1.51c-2.76-2.09-3.56-2.48-4.33-2.76s-1.46-.53-3.79-2.55c1.07,1,.64.79-.16.19S46.75,227.12,46.34,226.84Z"/><path class="cls-1" d="M46.07,225.48c-.45,0,1.72,1.85,2.5,2.31A12.3,12.3,0,0,0,46.07,225.48Z"/><polygon class="cls-1" points="56.37 234.43 57.86 235.73 58.37 235.89 56.37 234.43"/><path class="cls-1" d="M62.5,238.68l-1.78-.79C61.32,238.14,63.73,239.71,62.5,238.68Z"/><path class="cls-1" d="M71.31,244.22c1.57.92,3.33,1.06-.12-.55l.76.42C71.7,244.08,73.41,245.23,71.31,244.22Z"/><path class="cls-1" d="M93.86,252.51c-1.18-.37-2.58-.8-2.38-.57,1.08.33,2.16.66,3.27.91Z"/><path class="cls-1" d="M93.88,250.79c-.93-.75-3-1-5-1.84C91.21,249.85,90.91,249.8,93.88,250.79Z"/><path class="cls-1" d="M97.41,254.17a17.32,17.32,0,0,1-3.07-.87A7.93,7.93,0,0,0,97.41,254.17Z"/><path class="cls-1" d="M102.69,255.39c1,.42-.29.17.5.48a23.83,23.83,0,0,0,6.13,1.21c-.58-.3-1.33-.93-.33-.95-3.75-.52-5.81-.29-7.47-1.29-1.08,0-2.18,0-3.26-.09C101.18,255.66,100.66,254.83,102.69,255.39Z"/><path class="cls-1" d="M95.67,252.08l1.86.8c-.32-.34,1.16.06,2.21.27C99.37,252.51,96.78,252.37,95.67,252.08Z"/><polygon class="cls-1" points="123.53 258.31 127.84 258.39 126.45 258.3 123.53 258.31"/><path class="cls-1" d="M126.29,258.61l.1.16c1.11,0,2.21-.07,3.31-.14C128.56,258.65,127.42,258.62,126.29,258.61Z"/><path class="cls-1" d="M130.8,258.94l-.51,0c-.85.06-1.7.05-2.55.05Q129.27,259,130.8,258.94Z"/><path class="cls-1" d="M139.82,258.84l-.8-.18c-1.1.11-3.29,0-3.07.25A18.16,18.16,0,0,1,139.82,258.84Z"/><path class="cls-1" d="M167.51,248.16c-.67.36-.2.35.27.35l1-.7A5.4,5.4,0,0,1,167.51,248.16Z"/><path class="cls-1" d="M172.45,247.16c.91-.49,1.84-.94,2.74-1.45-1.67.6-2.6,1-3.47,1.38a23.76,23.76,0,0,1-3.14,1.3c1.31-.22,2.92-1.19,4.52-1.62Z"/><path class="cls-1" d="M222.46,212.21c0,.39.46-.17-.9,1.7.48-.63,1-1.23,1.43-1.81l1.36-1.82c.9-1.23,1.92-2.44,2.93-3.94-.49.4.79-2,.06-.81s-1.47,2.25-2.24,3.34l.21-.59C223.42,210.38,224.46,210,222.46,212.21Z"/><path class="cls-1" d="M223.86,62c.37.17.1-.26-.16-.7C221.84,59.7,224.23,62.37,223.86,62Z"/><path class="cls-2" d="M473.74,159.47c.11.23.44.72.47.56l-.47-.88Z"/><path class="cls-2" d="M475.32,160.64a6.9,6.9,0,0,0-1.05-2c.41.87.18.55.68,1.58,0,.15-.33-.17-.51-.49.11.24-.25-.1,0,.46.53.57.69.51.5-.12A2.86,2.86,0,0,1,475.32,160.64Z"/><path class="cls-2" d="M484.75,156.46l-.12-.07A.19.19,0,0,0,484.75,156.46Z"/><path class="cls-2" d="M490.37,153.52s0,.14.06.21A.27.27,0,0,0,490.37,153.52Z"/><path class="cls-2" d="M491.87,153.86l-.09,0C491.85,153.9,491.9,153.93,491.87,153.86Z"/><path class="cls-2" d="M484.75,156.46l.31.17C484.9,156.35,484.86,156.47,484.75,156.46Z"/><path class="cls-2" d="M475.22,157.86a.89.89,0,0,0,.06.27.44.44,0,0,1,0-.13Z"/><path class="cls-2" d="M482.84,158.63l0,0,.19.37Z"/><path class="cls-2" d="M481.12,159.91a8,8,0,0,0-.56-1,1.55,1.55,0,0,1,.22.54A4.05,4.05,0,0,0,481.12,159.91Z"/><path class="cls-2" d="M477.46,160.49v.13A.57.57,0,0,0,477.46,160.49Z"/><path class="cls-2" d="M484.22,158l.18.24A1.08,1.08,0,0,0,484.22,158Z"/><path class="cls-2" d="M470,138l0-.15C470,138,470,138,470,138Z"/><path class="cls-2" d="M468.56,133.37l0,0,.12-.46Z"/><path class="cls-2" d="M494.11,153.71h0C494.11,153.81,494.12,153.78,494.11,153.71Z"/><path class="cls-2" d="M507.49,139.48c-1.08.51-2.27.44-3.35,1A23.57,23.57,0,0,0,507.49,139.48Z"/><path class="cls-2" d="M475.33,157.93a.12.12,0,0,1,.06-.06A.05.05,0,0,0,475.33,157.93Z"/><path class="cls-2" d="M504.14,140.52h0l-.1.05Z"/><path class="cls-2" d="M498.41,150.37a3.14,3.14,0,0,0-.34-.22A1.4,1.4,0,0,0,498.41,150.37Z"/><path class="cls-2" d="M494.17,151.65l.14,0C494.24,151.65,494.2,151.64,494.17,151.65Z"/><path class="cls-2" d="M499.75,148.1c.12,0,.26,0,.22-.06l-.13,0C499.93,148.08,500,148.13,499.75,148.1Z"/><path class="cls-2" d="M502.05,146.63l-.27,0s0,0,0,.06Z"/><path class="cls-2" d="M475.48,138.94c0-.24.06-.5.1-.76C475.47,138.77,475.15,138.92,475.48,138.94Z"/><path class="cls-2" d="M475.47,158.26a.93.93,0,0,1-.14-.33.09.09,0,0,0,0,.07A1.3,1.3,0,0,0,475.47,158.26Z"/><path class="cls-2" d="M492.8,144.65l.16,0C492.86,144.65,492.81,144.64,492.8,144.65Z"/><path class="cls-2" d="M488.28,141.93l-.09.08S488.24,142,488.28,141.93Z"/><path class="cls-2" d="M492.92,144.57c.38.11.61.16.77.2l-.28-.09Z"/><path class="cls-2" d="M475.58,138.17h0Z"/><path class="cls-2" d="M473.25,139.67c.26.09.38-1,.59-1.63.39-.23,0,.83-.07,1.41.27-.24.66-1.19.8-1.11a1.45,1.45,0,0,1-.11.46c.43-.8.65.11,1.15-.9a1.12,1.12,0,0,1,0,.27c.09-.55.22-1.09.32-1.48.13,0,.39-.63.27.09-.07,0-.15.24-.24.45l.21-.27c-.14,1-.26.3-.44,1,.32-.27.81-1,.93-.7-.2,1-.52.22-.48,1.17L476,138c-.16,1.61-.15-.16-.36,1.57.32.38.56-.4.87,0,.22-.53.17-.82.39-1.35.79-.86-.17,2.59.55,1.37.26-.63.61-1.88.73-1.14l-.37,1.09c.35.2.61-1.56.81-.71-.17.42-.38.3-.36.45,0,.94.34-.59.53-.55l-.2,1c.44-.06,1-.67,1.53-.75a2.34,2.34,0,0,0-.22.91c.68-.36,1.16.41,1.55,1.13l.41-.81c.05,0,0,.41-.1.56.13.38.15-.54.33-.85.13,0,0,.53-.1.77.54-.64,1.43-1.31,1.59-.3l-.14.24c.22.42.77-1.67.86-.81l-.09.14c.56.53,1.47-.07,1.66,1.34.39-1.21.51.71,1-1,.17.94,0,1.22.38,1.92.12.11.47-1,.68-1.16l-.21.9.47-.88-.14,1.1.22-.19a1.38,1.38,0,0,1,0-.69c.36-.35.47.77.36,1.24l.79-.62a1.81,1.81,0,0,1-.37.67c.55-.84-.17,1,.33.19a3.9,3.9,0,0,1,.2-.71c0,.58.35.67.66.5l-.2.61c.41.26,1-.07,1.51.06a2.24,2.24,0,0,1,.37-1.46l-.18,1c.24-.56-.06-.39.31-1.06.16.15-.14,1.11-.32,1.39l.31-.27c-.06.28-.15.42-.25.78.24-.57.16,1.05.54.06l0,.28s.18-.29.28-.32a6.64,6.64,0,0,1,.75-1.19c0,.28-.32.88-.2.83.39-.33.56-.59,1-1a8.54,8.54,0,0,1-.91,1.07,9.64,9.64,0,0,0,1.08-.54c.3-.25.41-.37.69-.57s-.21.28-.62.56l-.09.06c.75-.41.34.07-.22.45s-1.16.7.06.17l-.12.05c.44-.18.92-.35,1.42-.51-.12.11-.94.36-1.63.69,1.07-.4,1.1-.35,1-.27s-.34.18.51-.06c-2,.68-2,.65-1.62.59s1-.17-.6.2l1.16-.27c1.17-.25-.64.16-.91.22l1.7-.38c.78-.11.66,0,.07.15a27.45,27.45,0,0,1-2.87.47c-.28,0,5.93-.5,3.09-.2l-2,.13c1.2-.07,1.06,0,.93.05s-.28.08.48.19c-.37,0-.88-.06-.86-.07-1.23-.07-.12,0,.78.16-.14,0-.85-.09-1.33-.14-.66-.08,1.34.24.24.09l-.42-.08a6.26,6.26,0,0,0,1,.24c-.61-.09.36.2-.34.07,1.13.38-.66-.12.91.44-1.63-.57-1.36-.43-.74-.07-.42-.21-.48-.19-1.07-.49l.2.14c.15.09.37.23.72.42-.85-.42-.54-.23-.35,0s.31.37-.56-.31a2.08,2.08,0,0,1,.48.8,1.51,1.51,0,0,1,.06.36.48.48,0,0,1,0,.17,2.4,2.4,0,0,1-.11.23,1.26,1.26,0,0,1-.24-.58.29.29,0,0,1,0-.14.11.11,0,0,0,0-.05c0-.06,0-.13-.4-.69l.22.45a4.15,4.15,0,0,1,0,.61c0,.38-.07.67-.39.68s-.25-.54-.33-.76c-.16.76-.95.46-1,1.34a1.24,1.24,0,0,1-.11-.36c-.06.08-.29-.05.05.46v-.19c.6.67.68,1.77.92,2.18-.81-1.57-.64-.12-1.62-2.13a1.84,1.84,0,0,0,.33.76c-.14-.06-.29-.24-.47-.69-.1.47.35,1,.08,1.11-.15-.25-.16-.38-.33-.7.19.58.37,1.15,0,1.08-.08-.16-.23-.34-.17-.38-.32.32.19,1.71-.52,1.5-.57-1.16-.37-.27-1-1.2l-.05.43.38.4c-.2.11.07.9-.3.7l-.1-.48-.25.41.43.23c.12.61.79,1.18.36,1.08,0-.13-.2.12-.66-.38h0c.1.36.2.74-.09.6s-.64-1.06-.79-1.25c.41.85-.32.51.1,1.43a5.09,5.09,0,0,0-.48-.81l.33.69a1.58,1.58,0,0,1-.54-.64c-.34.05.85,1.14.2.83a1.7,1.7,0,0,1-.09-.29c-.49-.06-.36.81-.86.68-.69-.89.11-.4-.5-1.14-.32.45-.16,1.71-.72,1.75l.15.05c.79,1.38-.74-.46-.54.3a2.61,2.61,0,0,0-.33-.62c-.42,0-.37.7-.53,1.39l-.17-.38c-.36-.2-.55.11-.83.07.17.37,0,.38.41.84-1.81-1.6-.39,1.73-1.93.42.06,0,0-.4-.1-.37l-.22.59a3.67,3.67,0,0,0,.66.72c.17.38.22.72.12.79-.06-.51-.6-.94-.89-1.21.13.17.23.38.35.56-.89-.9.71,1.2,0,.69l-.18-.32c0,.23.15.7,0,.69-.48-.64-.08-.39-.43-1-.14.15.48,1.49-.1.92-.05-.24,0-.3,0-.54-.68-.68-.57-.47-.77-.52h0l-.52-.17.21.17c.91,1.89-.23.59.22,1.93-.41-1.27-.35-.66-.82-1.44a1.76,1.76,0,0,1-.58-.57c.26.71-.54-.34-.15.69-.17-.24-.16.06-.53-.57-.05.3.32.4.5.72.27,1-1.29-.62-.94.79,0,.69.43,1.56.39,2.17a2,2,0,0,1-.49-.95c-.4-.25-.49-.11-.47.28a2.06,2.06,0,0,0-.48-.64c-.09.14.49,1,.09.69a11.72,11.72,0,0,1-.51-1.07c0,.33.14.88.12,1.2a3,3,0,0,1-.44-1,1.71,1.71,0,0,0,.17,1.39l.27.17c0,.08-.41-.56-.44-.71-.19-.63.37.09.54.33l0,.23c1,1.38.31-.52.58-.57l.58,1.11-.32-1a2.6,2.6,0,0,1,.62,1c.49.42-.1-.46.41,0a.38.38,0,0,1,.11.19l0-.42c.11.24.5.73.31.64.67.42-.05-1.08.56-.35l0,.08c.17-.61-.45-.8-.74-1.9l1.42,1.78-.46-.79c.06,0,.18,0,.36.32-.19-.62-.24-.32-.47-.87.64.58.33-.67,1.16.53-.31-.63-.48-.33-.53-.88.9,1.29.1-.38.66.12.38.71,0,.46.55,1-.63-1.23.51,0,.52-.29-.58-.92.08-.59.14-1.06.18.32.79.2,1.24.39l.09.16c-.55-1-.19-.94-.14-1.25a3.08,3.08,0,0,1,.52,1.11l.16-.11a1.07,1.07,0,0,1-.16-.68l.41.72c.19-.18-.08-1.1.5-.82-.4-.66-1.38-1.66-1.35-2.28a5.07,5.07,0,0,1,.64,1.12c0-.06-.1-.35.05-.23l.26.67c.29.17-.25-.54-.11-.55.31.5.3.31.54.71,0,.07-.22-.15-.14.08a1.43,1.43,0,0,1,.79.57c-.19-.28-.42-.68-.38-.8.2-.17.46.56.75.73-.17-.38.2-.11-.27-.86.07,0,.3.3.46.49-.1-.4.47-.43-.17-1.15l-.06,0v0h0c-.1-1,1-.08,1.21-.63l.16.25c0-.43.39-.49.2-1.13.07,0,.45.36.61.68,0-.3-.11-.59.4-.34.1.55.3.35,0,.43.35.08.66.45.46-.39.33.7.68.7.66.45l-.44-.36c.05-.17.19-.18.33-.19l.48.88c1.11.73-.3-2.26,1.14-.77-.26-.66-.51-.26-.84-1,.28,0,1.26,1,1.33,1,.58.28-.52-1.4,0-1.27-.23-.28-.78-1.06-.73-1.48.27,0,1.05,1.1,1.08,1.42,0,.06-.12,0-.18-.13a.69.69,0,0,0,.28.61l-.16-.31c.3.24.56,0,.81.56a.66.66,0,0,0-.46-.62c.54.27.42-.25.88-.13-.15-.14-.42-.47-.37-.49.64.11-.19-.68,0-1,.45.36.64,1.13.67.57a1.84,1.84,0,0,1,.64,1.06c-.12-.74.7.08.91.1l0,.33c0-.2,0-.24.12-.28l-.46-.55c.14.06.21,0,.37.27a13.37,13.37,0,0,1-.88-1.6c.29.24.1-.53.64.25-.49-.07.55.77.36,1.08,0-.13.06-.17.2-.11a.38.38,0,0,1,.1.23c.77.51-.43-1-.1-1.18.25.48.62.8.61.68-.13.07-.54-.71-.64-1.13.43.21.06-.41.19-.43l-.22-.09c-.25-.48-.11-.48-.05-.72.23.35,0,.33.17.45-.35-.89.88.59.76-.09.3.24.55.84.77,1-.12-.74.66.44.62-.21a1.72,1.72,0,0,1-.57-1.1l-.16.7-.29-1.06c-.13.08,0,.56-.17.51a1.48,1.48,0,0,0-.48-.88c.75.79,0-.75.61-.27l.95,1.49c.38.23.34,0,.42-.39s.14-.78.6-.81l-.4-.11c-.37-.6.3-.31.3-.65a3.05,3.05,0,0,0,1,.74c-.34-.31.53-.29-.37-1.13.3.13.6.24.91.35.82-.14-.93-1.41-.37-1.53.5.45,1.12.55,1.23,1,.17-.1.43-.13,0-.36.48.13-.38-.71.34-.5-.21-.17-.86-.5-.65-.57s.32.14.32.14c-.32-.14-.21-.34-1.07-.57,1.22.32,1.52.09,1.72-.12s.34-.41,1.62-.28a1.35,1.35,0,0,1,.38-.76c.25,0,.44.07.29.09,1.26-.15-2.36-.51-1-.63,1.75,0,.61.23,1.32.21,1.57.15,1.63,0,1.53-.11s-.34-.29.79-.34l.12.06c1.41-.12-.65-.47,0-.69h.53c-1.54-.19-1.74-.45-2-.62a17.73,17.73,0,0,0,2.26-.05c-.07-.09-2.51.13-2.68,0,.93-.1,1.89-.28,3.65-.42l-.23.2c2.37-.24.36-.28.91-.41l1-.06c.23-.33-2.35-.07-1.69-.4l-.84.12c-2.42.16,1.71-.31,0-.23l2.85-.41c-.46,0-2.08,0-2.38-.1a19.42,19.42,0,0,1,3.69-.16c.22-.14.49-.42-.86-.25.21,0,.82,0,.3.07a19.77,19.77,0,0,1-2.5.16,3,3,0,0,1-.74,0c2.86-.49,2.94-.62,2.79-.74s-.48-.22,1.34-.69c-1.39.1-1.58,0-1.66-.25s0-.46-.7-.56c-3.06,1.1-.39,0-3.78,1-.41,0-.43,0-.23-.08a15.11,15.11,0,0,0,1.33-.81,10.6,10.6,0,0,1,1.64-.44c-.3-.22,1.13-.53,1.56-.92-1,.42-1.79.53-1.7.29-.31.22-.63.43-1,.64-1.18.21-.68-.06-.23-.35s.87-.58-.28-.36l1.15-.32c-.93.12-1.64-.41-4,.54a3.35,3.35,0,0,1,1.14-.6,5.49,5.49,0,0,0-2.22.07c-.84.11-1.47.18-1.36-.26l.53-.33c-.32.06-1.13.59-.9.18.18-.14.49-.34.43-.38-.25.1-1.17.52-1.16.26l.64-.37c-.21-.35-.86-.19-1.49.09a10.39,10.39,0,0,1-1.69.72c.86-1.15.38-1.71.09-2l.11-.16a2.36,2.36,0,0,0-1.74.14,9.06,9.06,0,0,0-.83.38c-.29.13-.38.29-.58.37,0-1.48-1.05-.87-1.43-1.79a2.33,2.33,0,0,1-.39,1.1c-.07-.29-.58.8-.28-.37l0,0c.19-1.18-.16-.94-.37-1l-.41,1.53c0-2.37-1.66.47-1.48-1.61-.23.35-.4.3-.62.66l.2-.83a.94.94,0,0,0-1-.36l.24-.57c-.25-.12-.91,2.3-1.16,2.29l.22-1.25c-.45-.09-.65-1.29-1.37-.28.05-.18.15-.53.23-.56-.2-.09-.62-1-1,.67.26-1.1-.45-.22-.81.21l.23-.81c-.46,1-.53,1.27-.89,1.49,0-.12.1-.66.14-.43-.13-.49-.37.72-.54.22l.23-.49c-.22-.12-.27.16-.55.73-.22.29-.39-.31-.25-1.05-.14.44-.41,1-.5.76a1.41,1.41,0,0,1,.19-.52c-.26-.65-.82.8-.89-.06a2.28,2.28,0,0,0,.07-.5c.31.1.55.2.51.26a6,6,0,0,1,.41-1.93c-.34.51-1,1.66-1.14,1.25a1.57,1.57,0,0,1,0-.27l0-.08c0-.09-.1,0-.18.08-.05-.14-.08-.24-.15-.27.12-.63-.21-.41-.33-.47-.19.83-.32.65-.33,1.37,0-.07.05-.09.14-.11s.05,0,.08-.07l0,.07a2.06,2.06,0,0,1,.33,0c-.2.39-.39.72-.42.23-.2.5-.4,1-.5,1.28.11-1.19-.08-1.88,0-2.6-.5.37-1,.08-1.6,1.56-.15.17,0-.47,0-.72s.17-.1.26-.31c-.31.34-.68,0-1,1.06-.15-.55.4-.95,0-.87l.13-.32c-.33-1.9-1.88,2.45-2.17.05a.89.89,0,0,1,0,.4c-.71-1.2-2.16.44-2.71-1.33-.19-.37-.39.31-.68.79l.16-.89-.52.94c-.57.65-.15-2.32-1-1l-.08.6c-.15-.15-.65.22-.45-.46-.05.11-.21.6-.2.28l.1-.46-.63.68c-.25-.42.5-1.82,0-2a3.63,3.63,0,0,0-.85,1.54c.06,0,.12.34,0,.8l-.23.2a9.88,9.88,0,0,0-.64,3.75l.48-.76-.06.69-.25,0c0,.65.2.12.39-.23a2.94,2.94,0,0,0-.06.76l.6-1.23c-.09.54-.38,1-.26,1.36.27-.57.16-1.22.47-1.56,0,.65-.17,1.14.12.65a1.66,1.66,0,0,1-.25.71c.24-.39.42-.09.67-.79,0,.8.53-.08.2,1.2.12-.29.5-1,.65-1-.62,1.48.47.21,0,1.85.52-1.34.8-.46,1.3-1.15,0,.1-.14.32-.15.24.15.16.1.59.15.88a7,7,0,0,1,1-2c-.06,1.15-.46,1.31-.65,2.38.21-.93.6-.83.71-1.62a4.31,4.31,0,0,1-.08,1.33c.38-1.42.22-.2.57-1,.07.76-.27,1.35.1,1A1.63,1.63,0,0,1,473.25,139.67Zm6.89-.94h0l-.14,0Zm.53.11a.48.48,0,0,0-.22-.08c.05-.29.14-.58.19-.55S480.65,138.59,480.67,138.84Zm.26-6c.12-.09.1.08.07.25a.43.43,0,0,0-.17.06l0,.1C480.85,133.14,480.89,133,480.93,132.89Z"/><path class="cls-2" d="M480.52,133.93s0,0,0,0v.2l.09-.25Z"/><path class="cls-2" d="M484.61,156.38h0a.59.59,0,0,1-.08-.08Z"/><polygon class="cls-2" points="487.59 142.19 487.64 141.98 487.55 142.15 487.59 142.19"/><path class="cls-2" d="M480.53,155.56a1.17,1.17,0,0,0-.15-.16Z"/><path class="cls-2" d="M479.34,156.09l-.32-.15A.91.91,0,0,0,479.34,156.09Z"/><path class="cls-2" d="M478.27,156.28l.18.31h0Z"/><path class="cls-2" d="M491.08,146.93a.06.06,0,0,0,0-.06C491.08,146.69,491.06,146.77,491.08,146.93Z"/><path class="cls-2" d="M488.17,151.12a3.23,3.23,0,0,1-.09-.42C488,150.69,487.91,150.72,488.17,151.12Z"/><polygon class="cls-2" points="492.78 144.64 492.79 144.65 492.8 144.65 492.78 144.64"/><path class="cls-2" d="M488.28,150.6c-.16-.1-.2,0-.2.1S488.29,150.74,488.28,150.6Z"/><path class="cls-2" d="M474.43,158.27h-.06l.07.12Z"/><path class="cls-2" d="M474.44,158.39v.11S474.48,158.47,474.44,158.39Z"/><path class="cls-2" d="M474.47,158.74l0-.24S474.36,158.52,474.47,158.74Z"/><path class="cls-2" d="M475.75,157.89l-.15-.26A2.17,2.17,0,0,0,475.75,157.89Z"/><path class="cls-2" d="M476,157.6c-.12,0-.55-.42-.56-.18l.12.21C475.41,157.21,476.24,158.09,476,157.6Z"/><path class="cls-2" d="M479.48,159.89l-.41,0c.22.24.52.57.44.71C480.39,161.18,479,160,479.48,159.89Z"/><path class="cls-2" d="M480.61,159.73c-.07.22.26.4.35.56C480.9,160,480.88,159.9,480.61,159.73Z"/><path class="cls-2" d="M487,155.69l.4.65C487.41,156.18,487.19,156.09,487,155.69Z"/><polygon class="cls-2" points="486.03 151.57 485.66 151.24 485.99 151.87 486.03 151.57"/><polygon class="cls-2" points="489.69 155.72 489.7 155.85 489.74 155.49 489.69 155.72"/><path class="cls-2" d="M502.61,147.15l-1.28-.3C501.43,147,502.76,147.39,502.61,147.15Z"/><path class="cls-2" d="M508,142.55c1.13-.16,2-.38,1.09-.33C508.81,142.34,507.83,142.54,508,142.55Z"/><polygon class="cls-2" points="490.79 135.17 490.97 134.88 490.7 135.09 490.79 135.17"/><path class="cls-2" d="M294.89,140.46c-.22.16-.47.7-.13.75l.69-.75Z"/><path class="cls-2" d="M295.82,143.06a2.69,2.69,0,0,0,1.59-1.68c-.79.66-.67.27-1.58,1.07-.33,0-.32-.54-.09-.83-.22.16-.31-.43-.78,0,0,.86.42,1.14,1.2.85C296.16,142.74,295.93,142.92,295.82,143.06Z"/><path class="cls-2" d="M323.1,157.42l-.15-.18A.34.34,0,0,0,323.1,157.42Z"/><path class="cls-2" d="M341.29,163.58a.24.24,0,0,0-.26.16C341.18,163.7,341.3,163.67,341.29,163.58Z"/><path class="cls-2" d="M344.24,165.39l-.17-.11C344.12,165.39,344.18,165.46,344.24,165.39Z"/><path class="cls-2" d="M323.1,157.42l.38.46C323.62,157.59,323.31,157.57,323.1,157.42Z"/><path class="cls-2" d="M300.67,143a.67.67,0,0,0-.37.1,1.27,1.27,0,0,1,.28,0Z"/><path class="cls-2" d="M314.92,155.07l-.14-.06c-.09.09-.18.2-.28.32Z"/><path class="cls-2" d="M308.89,152.59c.11.1.51-.64.72-1-.22.28-.39.38-.53.38A2.52,2.52,0,0,0,308.89,152.59Z"/><path class="cls-2" d="M300.31,146.69l-.21,0A1.65,1.65,0,0,0,300.31,146.69Z"/><path class="cls-2" d="M319.17,157a1.6,1.6,0,0,0-.05.31A.81.81,0,0,0,319.17,157Z"/><path class="cls-2" d="M494,141.87c0,.06,0,.09.06.14S494,141.86,494,141.87Z"/><path class="cls-2" d="M502.42,142.54l-.08.09c.07.15.13.29.2.43Z"/><path class="cls-2" d="M349.93,167.76l0,0C349.73,167.81,349.82,167.81,349.93,167.76Z"/><path class="cls-2" d="M405.28,170.76c-.67-.71,1-1,0-1.8C405.36,169.28,404.47,170.33,405.28,170.76Z"/><path class="cls-2" d="M300.76,143.17a1,1,0,0,1,.23.12A.32.32,0,0,0,300.76,143.17Z"/><path class="cls-2" d="M405.25,169h0l-.1-.07Z"/><path class="cls-2" d="M363.8,169.51a1.06,1.06,0,0,0-.1-.38A1,1,0,0,0,363.8,169.51Z"/><path class="cls-2" d="M353.74,166.73l.23.16A.44.44,0,0,0,353.74,166.73Z"/><path class="cls-2" d="M369.28,169c.13.07.16.19.36.1a.28.28,0,0,0,0-.11C369.52,169.07,369.42,169.11,369.28,169Z"/><path class="cls-2" d="M374.84,169.46l-.09-.18-.18,0Z"/><path class="cls-2" d="M478.76,148.33a3,3,0,0,1,.49.63C479,148.42,479.65,147.94,478.76,148.33Z"/><path class="cls-2" d="M300.44,143.41c.13-.17.22-.24.32-.24l-.18,0A.64.64,0,0,0,300.44,143.41Z"/><path class="cls-2" d="M370.18,162.37l.84.2A3,3,0,0,0,370.18,162.37Z"/><path class="cls-2" d="M441.19,159l.17-.14A.17.17,0,0,0,441.19,159Z"/><path class="cls-2" d="M373.57,162.67a1.64,1.64,0,0,0,.43.63.53.53,0,0,0,.12-.21Z"/><path class="cls-2" d="M479.26,149h0Z"/><path class="cls-2" d="M483.89,145.1c-.77.27,0,1.15.09,1.81-.8.65-.71-.6-1.22-1-.47.49-.55,1.61-1,1.73-.1-.16-.2-.19-.19-.44-.3,1.05-1.79.7-2.13,2a.9.9,0,0,1-.18-.23,5.8,5.8,0,0,1,.62,1.39c-.34.15-.41.9-.79.27.22-.06.14-.34.17-.59l-.26.43c-.68-.86.37-.53.11-1.25-.59.58-1.14,1.69-1.79,1.6-.45-.92,1.17-.77.14-1.37l1,.07c-1.18-1.28.55-.08-.61-1.49-1.21.12-1.08.92-2.28,1-.07.62.35.76.29,1.38-1.26,1.51-2.07-2-2.8-.31-.09.74.2,2-.85,1.63l-.07-1.18c-1.12.24-.11,1.77-1.49,1.4.06-.5.74-.64.53-.72-1-.63-.32.79-.89,1l-.43-.93c-1.11.52-2.16,1.66-3.4,2.21,0-.31.11-.68-.28-.89-1.48,1-3.52.91-5.25.79l-.36,1c-.15,0-.37-.32-.27-.52-.7-.16.12.54-.08,1-.33.15-.6-.36-.45-.68-.88,1-2.68,2.4-4.06,1.8l.15-.31c-1-.1-.55,2-1.59,1.43l.12-.19c-2,.11-4,1.43-5.81.5,0,1.31-2.07-.12-1.8,1.64-1.31-.61-1.06-1-2.76-1.22-.44,0-.39,1.22-.88,1.52l-.2-.9-.51,1.1-.6-1-.44.34a.71.71,0,0,1,.52.59c-.68.57-2-.27-2.1-.73l-1.66,1.12c0-.37.24-.56.44-.83-.79,1.11-.36-.93-1.08.09.16.19,0,.56,0,.74a2.2,2.2,0,0,0-2.25.1l0-.65c-1.37.12-2.78.8-4.3,1,.6.2.66,1.31.23,1.49l-.34-.93c-.19.64.52.28.05,1.11-.58,0-.56-1-.28-1.4l-.64.45c-.08-.29.05-.46,0-.84-.18.65-1.33-.77-1.58.33l-.08-.28c-1.51.25-2.14.69-3.37.89.09.84-.42.72-.7,1.44-.95-.14-2-.66-3.13-.45-.72.52-.14.74-.42,1.28-.15-.75-1.24-.53-.74-1.16a11.4,11.4,0,0,0-3.27,1.15c.22.3.44.41.36.68-.29.16-.73-.25-.72-.62l.07-.09c-1.78,1.34-4.54-1.78-5.89,0l.08-.09-1.49.94c-.72-.09.39-.61-.18-1.05-1.58,1.39-2.65,0-4,.94-.6-1.1-1.54-1-2.52-.79s-2,.45-2.76-.25l.1.53c-.35.53-.46-.29-.74-.41,0,.42.42.47.2.77a12.2,12.2,0,0,1-4.85-.06c-1.64-.33-3.28-.83-4.89-1.08-1.17-.15-.7,2.75-2.18,1.47l.44-1c-2.41,1.22-4.86-.2-7.23.71.15-.22.17-.52.4-.5-.46-.74-1.82-.12-1.87.46-.35-.08-.05-.53-.25-.84-.47-.45-1.3.86-1.52.13,0-.12.16-.22.25-.28-.35.35-1.49-.19-1.24.66-.84-.47-1.7.22-2.36-.33-.53.88-1.45-.58-1.71.71.18-1.34-1.43-1.22-2.05-.64.23-.39-.43-.46-.16-1-.63,0-1.23.16-1.2.87-1-1.7-2.47,1-2.88-1.14a29.74,29.74,0,0,1-5.47.82c.26-1.33,1.88.11,2-1.3-1.65.32-2.76,1.4-4.28.79-.38-.26.32-.54.5-.74-1.67.26-3-.68-4.56-.21,0-.13.2-.23.36-.31-.28,0-.6-.31-.68.3l.3-.12c.28,1-1.45,1.64-1.59,2.09.8-1.65-1.32-.69-.14-2.74a.89.89,0,0,0-.53.74c-.24-.17-.28-.42.08-.83-1.05.14-.83.85-1.73.67.06-.29.27-.37.43-.69-.57.49-1.15,1-1.85.53.09-.17.05-.41.27-.36-1.31-.21-2.54,1-3.84.11.71-1.16-.39-.52-.21-1.63l-.84.15.18.6c-.66-.18-1.45.47-1.94,0l.61-.33-1.3-.09.6.58c-.82.4-.27,1.39-1.09.88.21-.07-.67-.17-.86-.89h0c-.42.25-.86.52-1.28.11,0-.38.42-1.17.4-1.42-.56.81-1.61-.2-2.29.64a1.63,1.63,0,0,0,.35-.87l-.47.65c-.24-.32-.26-.45-.08-.89-.88-.4-.09,1.45-1,.55.1,0,.09-.16.3-.22-1-.62-2.26-.15-3.17-.8,0-1.16,1,0,.9-1a12.55,12.55,0,0,0-2.44.05,4.35,4.35,0,0,1-2.27-.39l.22.21c-.69,1.44-.79-1.11-1.73-.64.21,0,.51-.76.41-.61-.87-.57-2.06-.3-3.67-.33l.31-.32c-.43-.54-1.4-.71-1.94-1.09-.32.32-.64.14-.64.77-1-2.89-3.95-.26-4.86-2.72.2.07.6-.14.44-.21l-1.52-.21c-.16.68,0,.46.1,1.07a1.19,1.19,0,0,1-1.19.3c.8-.16.43-1,.31-1.49,0,.21-.22.39-.28.6-.24-1.43-.67,1.23-1.33.06l.19-.31c-.44,0-1,.32-1.33.06.15-.8.54-.18.83-.77-.58-.18-1.72.93-1.89-.05.33-.09.66.07,1,0-.16-1.11-.32-.92-.66-1.25l0,0-.74-.83.13.35c-1.55,1.57-1.55-.32-3.05.48,1.45-.74.47-.6.93-1.39-.13-.34-.36-.77-.15-.95-.75.46-.47-.86-1.55-.19.1-.27-.45-.24,0-.86-.66-.06-.09.52-.3.83-1.31.48-1.49-2.05-3.35-1.42-1.31-.06-2,.7-3.17.6-.11-.6.77-.8.77-.8a1.3,1.3,0,0,0-1.42-.8c.22-.17.22-.42.22-.79-.44-.15-.77.79-1.1.12a5.48,5.48,0,0,1,1-.81c-.59,0-1.32.2-1.94.16.12-.51.67-.51,1-.71-.66-.1-1.64-.37-2.21.24l.22.44c-.22-.07.23-.66.45-.71.78-.29.54.62.43.89l-.44,0c-.48,1.69,1.54.53,2.19,1l-.89.93,1.21-.51c0,.37-.22,1-.66,1,.22.82.66-.14.77.7,0,.12-.05.17-.12.18l.67-.05c-.22.18-.33.82-.55.5.56,1.13,1.87,0,1.78,1l-.11,0c1.44.28.53-.75,2-1.24l-.38,2.32.54-.76c.11.1.34.28.13.59.77-.33.09-.4.64-.8.26,1.05,1.91.48,1.42,1.86.52-.52-.37-.77.51-.88-.49,1.5.89.12,1.16,1-.52.65-.89,0-.62.93.93-1.07,1,.81,1.61.8.47-1,1.25.1,2.22.16-.1.15.22.48.65.83a13.79,13.79,0,0,1,1.3,1.08l-.1.16c.59-.95,1.31-.43,2-.4-.28.6-.49.8-.92.94l.56.22a1,1,0,0,1,.91-.34l-.45.7c.76.26,1.85-.29,2.59.61.34-.69.05-2.29,1.23-2.37-.12.41-.34,1.08-.66,1.13.1,0,.43-.19.53,0l-.65.49c.32.46.44-.45.76-.25-.23.55.1.5-.12.91-.11,0-.22-.35-.43-.18a1.66,1.66,0,0,1,.68,1.25c.09-.32.29-.74.6-.69.76.26,0,.76.32,1.22.33-.31.65.29,1-.54.22.08.12.48.12.74.53-.24,1.86.52,1.74-.51l-.07-.1h.07c1.57-.39,2.48,1.39,3.87,1.47l-.1.28c.86-.06,1.74.39,2.48,0,.22.08.36.7.15,1,.65,0,.8-.29,1.5.43-.74.31.07.5-.71.17.68.49.72,1,1.77.45-.5.64.3,1.07.73,1l-.38-.67a2.77,2.77,0,0,1,1.13.34l-.49.9c1.24,1.63,3.4-1.16,4,1.14.6-.56-.72-.72-.13-1.4.68.33,1.06,1.93,1.29,2,.85.81,1.29-1.12,2.24-.51-.05-.38.07-1.33.92-1.47.69.29.53,1.65,0,1.82-.18,0-.24-.14-.2-.25-.27.07-.61.14-.42.58l.18-.32c.28.44,1.29.64.92,1.15.63-.2.37-.51,0-.79.81.72,1.46.36,2.35.92-.11-.22-.16-.66,0-.62,1.32.76.78-.52,1.77-.44.42.65-.48,1.21.58,1,.51.49-.08.95-.38,1.18,1-.47,1.56.82,2,1.07l-.52.17a1.25,1.25,0,0,1,.77,0l-.12-.76c.25.19.48.25.42.53.38-.4,0-1.2.71-1.72.3.42,1.19-.18,1.13.77-1.09-.52,0,1-1.06.93a.74.74,0,0,1,.69.14c0,.11-.08.19-.16.22.94,1,.72-.95,1.86-.72-.25.5.07,1,.28,1-.46-.1-.05-.92.45-1.24.65.54.85-.16,1.22,0l-.4-.27c.24-.5.6-.36,1.14-.44,0,.42-.52.2-.37.41.73-.81,1.11,1.19,2,.72.31.42-.13,1,.15,1.29,1-.52.85.9,1.88.5-.16-.75-.23-.58.54-1.18-.54.11-1.08.16-1.62.24l1.15-.85c-.46-.09-1.05.27-1.3.1.56-.49.48-.33.36-.95.46,1.18,1.34-.39,2,.41l-.29,1.75c1,.94,2.11-.63,3.48,0l-.42-.37c.29-.67.9,0,1.4-.2-.12.58.14.83.29,1.23,0-.44,1.06.18,1.33-1l.55.86c1.13.47,1.51-1.46,2.61-1.17-.41.61.05,1.07-.75,1.46.38,0,.7.18.75-.23.18.39,1.12-.7,1.41-.11.18-.24.29-.86.71-.77a.62.62,0,0,1,0,.29c0-.29.69-.34.39-1,1,1.94,3.21.15,4.08,1.82a24.05,24.05,0,0,1,2.56-.23c-.05.17,0,.29-.15.22,1,.6.73-1.66,1.85-1,.54,1-.64.48-.3.86.06,2,1.42-.2,2.15,1l-.2.1c.57.69,1.5-.66,2.47-.48a.62.62,0,0,0,0,.3c.7-1,2-1.21,2.92-1.49-.31.76-.44.4-.28,1.18.43-.11-.09-1.25.75-1.46.27.42.86.79.93,1.62l-.8,0c.39,1.07,1,0,1.45.16l-.06.46c1.23-.14,1.25-1.32,2.56-1.22l-.13-.36c.71-1.16.59.66,1.3-.2L392,170a11.89,11.89,0,0,1,2.49-1.36c-.47.89-1.46,1.32-2.07,1.84.47,0,1.6-.07,1.83-.66-.18.12-.42.4-.61.22a2.6,2.6,0,0,1,2.24-1.41c-.12,2.3,2.43.5,3.17,2.26,1.62-.92,3.3.31,5.22,0-.77-1.73.56-.08.34-1.91.44-.14.61-.13.66,0l1.42,1c.36.52-.4.44-.33.84,1,.08.46.75,1.15,1.2-.18-.65.28-1,.85-.75l-.84-.79c1.3-1.07,1.3,1.45,2.61.4l-.39.6c.68-.37,2.63-.17,3.19-1.73.15.2.36.68.06.85,1.72,0,3.61-1.94,5-1.17l-.08.46c.3-.17.45-.9.9-.49,0,.19-.08.46.07.47.15-.17.75-.86,1.2-.66l-.3.55c1.72.36,2.37-1.56,3.7-2,.17,1.31,1.52,1.57,2.2,1.69v.19c1.94-.08,3.09-1.55,4.77-2.35,1.32,1.23,3.8,0,5.7.47-.31-.19-.14-1,.15-1.21.46.18,1-1.12,1.12.08h-.15c.53,1.1,1.32.63,2,.53l-.19-1.57c2.17,1.94,4.33-1.7,5.69.09.33-.48.84-.59,1.16-1.07l.16.84a8.07,8.07,0,0,0,3.17-.58l-.15.66c.81-.13.45-2.61,1.17-2.84l.51,1.18c1.38-.36,3.06.37,4.15-1.08,0,.18.07.55-.14.65.66-.13,2.74.21,2.06-1.42.3,1.09,1.45-.29,2.06-1l.1.84c.35-1.2.29-1.49,1.09-2,.23,0,.36.59,0,.46.81.23.33-.91,1.28-.71l-.16.6c.72-.13.59-.39.81-1.1.35-.43,1.39-.18,1.71.52,0-.47.18-1.18.65-1.09a.58.58,0,0,1,0,.57c1.34.2,1.47-1.45,2.52-.9a.78.78,0,0,0,.28.43,6.31,6.31,0,0,1-1.66.36c.22.74,1,.65.72,1.85.44-.74,1.12-2.26,2-2.13a1.06,1.06,0,0,1,.18.22l0,.11a.45.45,0,0,0,.43-.26,1.45,1.45,0,0,0,.68,0c.27.58,1,0,1.35,0-.28-.79.25-.82-.42-1.34.07,0,0,.12-.28.24a.44.44,0,0,0-.14.13v-.08l-.92.35c.17-.5.37-.94.93-.63,0-.58.07-1.18.11-1.46.86.95,2,1.24,2.41,1.89,1-.82,2.61-1.17,2.81-2.92.26-.31.52.3.72.49-.13.22-.36.27-.39.52.51-.6,1.86-.8,1.65-1.9,1,.19-.12,1.12.94.56l0,.37c2.81.92,2.6-3.93,5.8-2.67-.22-.07-.32-.1-.42-.26,3.11-.1,5.29-3,8.57-2.67.89,0,.7-.71,1-1.4l.52.76.38-1.29c.82-1.17,2.83,1.2,3.67-.75l-.44-.48c.56-.11,1.46-1.05,1.66-.37,0-.13-.1-.66.23-.46l.22.43.89-1.32c1.11-.14.66,1.78,2.11,1.19.44-.42.89-2,.54-2.17a.76.76,0,0,1-.89-.41l.35-.45c-.55-1.29-.87-2.72-2.38-3.06l-.4,1.14-.55-.49.64-.35c-.65-.4-.64.22-.74.7a1.2,1.2,0,0,0-.65-.52l-.2,1.57c-.33-.45-.11-1.14-.76-1.18-.1.73.87.95.43,1.6-.65-.4-.75-.92-1-.23a.7.7,0,0,1-.1-.77c-.22.58-1,.65-.88,1.41-.72-.54-1.27.79-1.76-.44a2.37,2.37,0,0,1-.64,1.47c.05-1.74-1.43.5-1.91-1.13,0,1.52-1.55,1.35-2.15,2.43,0-.12,0-.37.12-.34-.55.1-.85-.24-1.28-.36.38,1.11-.3,1.68-.46,2.53-1-.81-.14-1.44-.73-2.37.38.87-.72,1.32-.22,2-.73-.47-.54-.16-1.14-1,.46,1.4-.35.4-.41,1.39-1-.41-.68-1.21-1.27-.5C483.41,145.84,483.89,145.1,483.89,145.1Zm-17.38,8.67v0l.37-.16Zm-1.56.47a3.54,3.54,0,0,0,.69-.16c.14.26.17.56,0,.59C465.67,154.46,465.26,154.41,465,154.24Zm5,4.58c-.21.2-.35.07-.43-.09a2.59,2.59,0,0,0,.4-.23v-.11A1.67,1.67,0,0,1,470,158.82Z"/><path class="cls-2" d="M470.11,157.63s0-.07.08-.1l-.2-.13v.28Z"/><path class="cls-2" d="M322.92,157.22l0,0a.28.28,0,0,1,0-.13A.41.41,0,0,1,322.92,157.22Z"/><polygon class="cls-2" points="442.86 158.24 442.91 158.45 443.01 158.23 442.86 158.24"/><path class="cls-2" d="M315.6,151.2a.5.5,0,0,0,0-.24A.53.53,0,0,0,315.6,151.2Z"/><path class="cls-2" d="M312.12,149.51l-.37-.51A2.4,2.4,0,0,0,312.12,149.51Z"/><path class="cls-2" d="M309.62,147.85a1.75,1.75,0,0,0-.2.31h0Z"/><path class="cls-2" d="M354.55,161.14a.25.25,0,0,0,.12,0C355,161,354.77,161,354.55,161.14Z"/><path class="cls-2" d="M340.43,160.08a3.48,3.48,0,0,1,.54-.28C340.74,159.69,340.55,159.62,340.43,160.08Z"/><path class="cls-2" d="M370.08,162.35h.1Z"/><path class="cls-2" d="M341.6,160a.57.57,0,0,0-.63-.17A.79.79,0,0,0,341.6,160Z"/><path class="cls-2" d="M298.39,141.66l-.1-.1a.53.53,0,0,1-.09.11Z"/><path class="cls-2" d="M298.2,141.67H298C298.08,141.71,298.14,141.74,298.2,141.67Z"/><path class="cls-2" d="M297.62,141.7l.4,0A.27.27,0,0,0,297.62,141.7Z"/><path class="cls-2" d="M301.64,143.88l.18-.25A1.25,1.25,0,0,0,301.64,143.88Z"/><path class="cls-2" d="M302.73,144.38c-.22-.2-.32-.92-.76-.94l-.15.19C302.2,143.32,302.25,144.7,302.73,144.38Z"/><path class="cls-2" d="M305.51,150l-.81-.65c0,.37,0,.86-.42.73C305,151.5,304.37,149.3,305.51,150Z"/><path class="cls-2" d="M308.17,151.78c-.56-.1-.2.43-.3.59C308.31,152.25,308.42,152.22,308.17,151.78Z"/><path class="cls-2" d="M329.45,160.19l-.29.71C329.59,160.94,329.25,160.62,329.45,160.19Z"/><polygon class="cls-2" points="334.77 157.65 334.51 157.08 334.13 157.7 334.77 157.65"/><polygon class="cls-2" points="335.71 163.61 335.5 163.66 336.26 163.59 335.71 163.61"/><path class="cls-2" d="M373.79,170.12l-.05-1C373.44,169.31,373.29,170.36,373.79,170.12Z"/><path class="cls-2" d="M390.44,169.86c.18.47.64.78.93.32C391,170.11,390.63,169.74,390.44,169.86Z"/><polygon class="cls-2" points="440.12 166.53 439.85 166.91 440.42 166.53 440.12 166.53"/><path class="cls-1" d="M78.74,197.92c-1,.53-.19.31.16.46Z"/><path class="cls-1" d="M78.9,198.38l.11.33A.23.23,0,0,0,78.9,198.38Z"/><path class="cls-1" d="M80.63,200.89c-1.07.21-1-1.16-2.14-.54C78.51,201.48,79.63,201.88,80.63,200.89Z"/><polygon class="cls-1" points="80.37 199.61 79.85 200.1 81.01 199.62 80.37 199.61"/><path class="cls-1" d="M80.47,198.86l-.11.25h1.16C81.17,199,80.82,199,80.47,198.86Z"/><path class="cls-1" d="M82.18,202.66l-.67-.23c0-1.13,1.09-.81,1.12-1.57-.67-.46-1.41,1.47-2.07.54-.25.38.1.67.38,1s.52.58,0,1.11C81.47,204.36,81.49,202.82,82.18,202.66Z"/><path class="cls-1" d="M119.88,207.94a1.46,1.46,0,0,0,.09.13C119.94,207.92,119.9,207.81,119.88,207.94Z"/><path class="cls-1" d="M130.21,207.35a1,1,0,0,0,.37.27,1.45,1.45,0,0,0-.16-.38Z"/><path class="cls-1" d="M113.53,210.33a2,2,0,0,0-.32-.42A.47.47,0,0,0,113.53,210.33Z"/><path class="cls-1" d="M170.89,185.54a2.27,2.27,0,0,0,.35.21h0l-.3-.26Z"/><path class="cls-1" d="M138.56,203.23a.76.76,0,0,0,.29-.3C138.64,203,138.57,203.1,138.56,203.23Z"/><path class="cls-1" d="M110,209.69l.14.05a.53.53,0,0,0-.15-.19v.14Z"/><path class="cls-1" d="M127.3,205.41a.6.6,0,0,0,.33.19A.57.57,0,0,0,127.3,205.41Z"/><path class="cls-1" d="M90.33,209.19c.12.2.3.19.5.1C90.81,209.05,90.69,209,90.33,209.19Z"/><path class="cls-1" d="M94,210.73a0,0,0,0,1,0,0C93.92,210.89,93.94,210.87,94,210.73Z"/><path class="cls-1" d="M96.26,211.85l-.05,0C96.19,212,96.19,212,96.26,211.85Z"/><path class="cls-1" d="M90.83,209.29c0,.64-.63,2.31.6.71l0-.27c0,.52.71,0,1,.05a3.88,3.88,0,0,0,.1-.49,2.6,2.6,0,0,1-.49-.46C91.94,208.31,91.33,209.06,90.83,209.29Z"/><path class="cls-1" d="M119.83,208.3c0-.37-.32-.19,0,0Z"/><path class="cls-1" d="M116.46,209.77l.25.07C116.63,209.76,116.55,209.69,116.46,209.77Z"/><path class="cls-1" d="M105.63,206.92s0,.05,0,.09C105.74,206.82,105.69,206.84,105.63,206.92Z"/><path class="cls-1" d="M117,209.86a1,1,0,0,1-.24,0C116.78,209.91,116.86,210,117,209.86Z"/><path class="cls-1" d="M108.71,209s0,.05,0,.06A.09.09,0,0,0,108.71,209Z"/><path class="cls-1" d="M173.35,131.27c.31.16,0,.59,0,.91,1.44-.18-.7-1.12.78-1a1.14,1.14,0,0,0-.7-.39l-.8,1C173.33,132,172.77,131.28,173.35,131.27Z"/><path class="cls-1" d="M174.48,183.46l-.15.06c.55.13.7.26,1.13-.06-.69-.64-2.08-.54-2.76-1.47.05.15,0,.31-.22.43A3.13,3.13,0,0,1,174.48,183.46Z"/><path class="cls-1" d="M172.48,182.42h-.07a1.78,1.78,0,0,0-.31,0,.34.34,0,0,1-.22.18A.9.9,0,0,0,172.48,182.42Z"/><path class="cls-1" d="M177.49,140l0,.34C177.67,140.13,177.62,140,177.49,140Z"/><path class="cls-1" d="M143.93,218a3.71,3.71,0,0,0-.23.5A.56.56,0,0,0,143.93,218Z"/><path class="cls-1" d="M170.92,188.76a1.08,1.08,0,0,0-.31.19.86.86,0,0,1,0,.21Z"/><path class="cls-1" d="M165.34,167.17c1.35.41-.09-.16.77-.39l-.68-.45C165.16,166.6,165.34,166.92,165.34,167.17Z"/><path class="cls-1" d="M173.49,130.73l-.11.06.05,0Z"/><path class="cls-1" d="M165.57,158l.18-.16A.36.36,0,0,0,165.57,158Z"/><path class="cls-1" d="M171.05,184.43c-.22.46-.42.93-.66,1.38l.5-.27C170.34,185.08,171.75,185,171.05,184.43Z"/><path class="cls-1" d="M163.38,172.42l-.85-.1a1.6,1.6,0,0,1,.05,2.08c-.3.6-.48,1.19.57,2.08-3.35.53,2.18,1.87-.82,2.37l.41.1a52.6,52.6,0,0,1-3.86,6.17,22.91,22.91,0,0,0-3.11,5.73l-.47-.37c-1.13,1.12-2.2,2-3.13,2.84-1.42,1.09-2.82,2.39-4.21,3.49l-2.09,1.67c-.7.53-1.41,1-2.12,1.49a18.2,18.2,0,0,1-2.16,1.3l-1.1.59c-.36.17-.73.3-1.1.44-.3.75.58,1.8.37,2.64-.24.05-.7.35-1-.34.25-.54-.24-1-.22-1.37-.63.36-1.72-.18-2,.9l.79.71c-.09.46-.55.37-.77.37-.07-.48-.67-1.39-.57-1.66-.23,1.29-.57,1.12-.88.76s-.64-.86-1-.33c.27,2-.77,3.94-1.66,5.44l-.58-.46c.69-.07-.15-1.47.68-1.47a.91.91,0,0,0-1,0,1.28,1.28,0,0,1-1,.12c.15.5.16,1.16-.12,1.4-.44-.26-.49-1.25-1-1.35.16-.2.31-.43.45-.64-.31-.74-.58.24-.88.36-.1-.84-.81-1-.66-1.94-.65,1.15-.91.48-1.68,1.17.74.93-.25,1.1-.21,1.8l.92-.29c-1.24-.62.42-.13.37-1.57.56.69-.89,2.34.1,2.15-1.23.68-1.42,0-2.79,1.14.8-.22-.21.92.19,1.39-1,0-.22-.52-.47-1.46-.54,0-.68-.82-1.26.2-.89-.49.21-1.07-.22-1.68.44-1,2.37,1.38,2.34-1.79.47,0,1-1.19,1.61-1.1-.52-.44-1.15-1.5-1.92-.83l-.15,1.77c-.54,0-.73,1.21-1.1,1,.23-.5-.07-1.28-.56-1.16.12.26.31.21.24.52-.87.08-1.06,1.29-2.08,1.56.8.51.94,1,1.66,1.87-.28,1.24-.55.15-1,.27.08-.16.18-.19.06-.44l-.52.57c-1-.6.24-1.81-.62-2.44-.58-1.07-.87.55-1.33-.06l.09.32a.64.64,0,0,1-.23-.09v.08c-.57.16-1.24.09-1.39,1-.06-.42-.51.13-.69.42a2.69,2.69,0,0,1-.69.7c-.21.13-.46,0-.63-.73,0,0,0,0,0,0a1,1,0,0,1-.72-1.17l-.82-.47.22-1.19c-.78.22-.78,1-1.56,2.1-.49-.83-1.64-.43-2.16-.1-.06-.07-.17-.1-.36-.08l.27.56c-.68-.22-.74.42-1.21.32.07.13.07.2-.14-.05a1.38,1.38,0,0,1-.25-.15c.06-.12.16-.08.24,0l0-.41c-.23-1.38-1,.5-1.52-.11.07,0,.19-.08.24-.05-.25-.42-.25-2.21-.67-1.24,0-.15-.22,0-.4.24l-.2-.24a.8.8,0,0,1,.19.24c-.25.29-.52.66-.46.41-.27-.15-.53-.3-.79-.47-.11-.22-.37-.14-.6,0v-.53c-.33,0-.24-.31-.16-.43-.5-2-1.94.3-2.57-1.55-.51.71-.17,1.24-.28,1.68a5.82,5.82,0,0,1-1.77,1.14c-.12-1.27-1.29-2.87-.42-4.31-.87-.5-.09,1.07-.77,1.42l-.09-.11a2.59,2.59,0,0,1,.24,1.62c-.26.87-1.21.78-1.37.43l.67-1.12c-1,.06-1.61,1.94-2.66,2.88-.52-.78.35-1.67.66-2.8l-.86,0,.39-.89c-.57,0-1,.81-1.55.18.84-.62-.59-1.28.56-2.09-.21-.46-1.1,1.19-.74-.07-.68.82.1.62.15,1-.48,1.41-1.09.27-1.68.42.29-.71.67-.68.39-1.38-.35.47-.87.73-.84,0-.43.88-.65-.11-.9-.3a1.6,1.6,0,0,1-.21,1.84,1,1,0,0,1-1.24-.13l.19.6c-1.15,1-.36-1.34-1.24-1.28a7.64,7.64,0,0,0,1.31-.78,9.22,9.22,0,0,1-2.17.67l.13-1.54c-.42.58-.59-.41-1.07.43-.37-.95,1.13-.69,1.54-1.28-.53-1-1.49,1-1.56-.73l.72-.62c-.23-.2-1-.09-.81-.49-.17.27,0,.24.19.34-1.15,1.56-1.92.4-2.89,2.15l.31.35c-.78,0-2,.85-2-.06s1-.95,1.47-1.26c-.45-.46-1.64,1.53-2.19.92.16.5-.3,1-.81,1.32.32.38.93,1.26,1.25.46l0-.26a2.4,2.4,0,0,1,.88-.59c.53.33-.24.92-.34,1.31.73.83,1.14-1.64,1.91-1.09l-.1.39c.65-.19,1.29.1,2-.91-.29,1.32,1.16.07,1.17,1-1.31,2.52-1.28-.93-2.51.14.13.76-.93,1-1.45,1.45.66-.05,1.33-.15,2-.25-.09.39-.37,1.86.38,1.1l-.07-.12c.7,0,1.11-1.07,1.39-.47,0,.27-.4.58-.53.73.31.48.67-.37,1.08-.44.32.45-.77.91-.54,1.38,1-.71.69.65,1.17.82.55-1.52,2.74-1.07,2.42-2.81l1.53-.49c0,.91-1.71,1.69-2,3-.28-.15-.55-.3-.83-.47-.74,1.89,2.36-.32,2,2,.44.3.42,0,.91,1.3l.58-1.69a2.78,2.78,0,0,1-.07,1.83,1.33,1.33,0,0,1,.77.34.93.93,0,0,1-.57.41c0,1.06.21.77.54.34s.63-.15.92,0l-.53.49a.91.91,0,0,0,.68-.43.53.53,0,0,0,.41,0,4.86,4.86,0,0,0,0-2C97,211,98,211,98.4,212.72c-.22.47-.85.91-.75,1,.37.44,1.21-.21,1.45-1a.78.78,0,0,1,.28,0c-.06.45-.12.94.08,1.09a.51.51,0,0,0,.18.45c.65-1.27,1.31-.27,1.73-.81a1.12,1.12,0,0,0-.72-.35c.71-.75,1.4-1.65,1.44-.83-1,.6.26,1.67-.93,1.65.16,2,.81-1.07,1.4-.2l.3.84c-.41,1-1,.21-1,.62h.41c-.62.62-1.82-.35-3.06.43l1.51,1.16a9.62,9.62,0,0,1,3.73.52,4.32,4.32,0,0,0,3.72-.46h-.09a3.27,3.27,0,0,0,.24-.65l0,.28.55-.67c.21,1,1,1.44,1.54,2.31a1.71,1.71,0,0,1-.21-1.47c.3-1,.45-1.41,1-.92-.13.72-.54.63-.16,1.29a.67.67,0,0,1,.43-.9c.28.53.88.75.77,1.48-.2.16-.3-.12-.4-.24-.21.16.6.78,0,1.28l.74-.09c.35.66-.43.92-.32,1.33a4.06,4.06,0,0,0,1.73-1.15,5,5,0,0,1,1.56-1.21c-.07.38-.17,2-.13,1.55.47.26,1-.18,1.52-.69s.79-1.13,1.19-1.2c-.1.49-.37.3-.58.53,2.19.56,4,.73,6.28,2.43l.72-1.64.55,1.16c2.54,1.23,4.84.19,7.5-.51.84-.2.62,1.11,1.09,1.53,2,0,2.17-2,3.82-2.74-.12.55-.25,2,.56,2,0-.5-.05-1.28.5-1.12l-.12.57c.63.61.88-.2,1.89-.15a3.7,3.7,0,0,0,2-1.59,7.45,7.45,0,0,0,1.12-2.82c1.29-.42.6,1.72,1,1.94-1.15-.16-.53.54-.52,1.17.35-.62.78-1.17,1.53-.19a2,2,0,0,0,1.29-1.52c-.16.52-.72.07-.65-.56a5,5,0,0,0,1.3-.26,1,1,0,0,1,1.18.64c1.44-1,3-1.84,4.53-2.83.75-.48,1.56-.94,2.29-1.45s1.44-1,2.14-1.58c0-1-.54,0-.61-.6.08-1.31.86,0,.92-1l.27.82c.92-.5.76-2.39,1-3.57.46.82,1.1.09.83,1,.26-.41,3.37,2.43,3.12,1.53l-2.9-2.64c-.22-.31.43-.55.22-.71.8.33,1.78.7,2,.51.75.66.05,1-.27,1.2,1,1.29,1.72-.06,2.24,1.46.5-.76-.64-.56-.63-1.36l.91-.37-.89.08c.25-.9-.43-2,.92-2-.13-.62-.25-1.23-.42-1.83,1,.82.64-.36,1.19-.52l.4.79a1.5,1.5,0,0,1,1.4-.6c.61,1-.61.29.08,1.13l.8-.33c-.56-.48-.68-1.21-1.37-1.09-.57-1.4-1.24-2.38-.21-3.57,1.44.17.42,1.29,1.58,1.81.74-.54.4-1.45-.05-2.28s-1-1.63-.73-2c1.07-.72.1-1.28.63-2.33.54.77,1.19-.24,2,0l.53.87c0-.46.42-.6.91-.2-1-.52-.12-1.91-.27-2.9l-.93-.33c0-.73-.17-1.78.36-2.26.14-1-.76-1.2-1.43-2.31a5.57,5.57,0,0,1,2.84,1c-.56,0-.48.57-.93.83.24,1.49,1.6,3.33.59,4.28,1.84,1.64.16-.92,1.19-1.09.12.08.14.14.13.2a.26.26,0,0,1,.14-.11,2.4,2.4,0,0,0,1,2.11c.16-.84-1.84-1.63-.48-2-.27-.95,1.7-.65,2-1-.6-.83-2.33-1.65-1.52-2.56l1,1c.58-1.23-1.53-1.37-1-2.46-.32.32-1-.89-1.4-.17a1.38,1.38,0,0,1,.29-1.94c-.13-.23-.41-.2-.82-.39-1.12.3.43,1.38-1,1.4l1.13,1a1.84,1.84,0,0,1-2.2-.6c0,.19.1.41-.18.43-2-.78,1-.39-.58-1.33l0,.47c-1.37-.39-.7-1.43-.42-1.92.85-.35,1.29-.82,2.26-.49l.08,1c.93-.13,0-1.23.2-1.69a.65.65,0,0,0,.35,0,.92.92,0,0,1-.28-.05.64.64,0,0,1,.5-.13c.2-.42-.17-1.25.27-1.54l-.88-.25.47.22a.89.89,0,0,1-1.42.19c-.3-1.07,1.42-.67,2.25-.63,1.25.66-.32.87,0,1.48,1.4.18.45-.86,1.64-1.5,1.31.85-.4,1.08.85,1.74.51-.69-.43-1.23.2-1.91.64.32.42,1.13,1.3,1.37l.59-.4c-.36,1.34,1.87.36,1.87,1.51.75-.3-.92-1.07.2-1.47-.69,0-2,.17-2.37-.67l.65-.6c.8-.11,1.31,1.26,2.05.95l-.26-.95c-.44-.1-.77.21-1.29-.21.6-.31-1.45-1.24-1.94-1.94.17-.4.34-.7.89-.71-1-1.41-.61-2.71-1.66-4,.75.86,1.52.33,2.27.07,0,.81,1.4,1.14,2.3,1.29,0-.53-1.4-1.15-1.92-1,.74-.67-.84-.75.24-1.25.58-.36,1.32.51,1.88.46.24-.86-1.64-.58-1.12-1.45.18.09.22.18.49.16.38-.46-.18-1.14-.85-1.37,1.91-.23.06-1.56,1.81-1.17-.27-1.33-1,0-1.58-.3-.69-.62.05-1.47.37-1.73,0,.31.46.66.14.92l1.27-.1c1.08-1.49-2.67-1.33-1.43-2.71.57.85.91.35,1.75.83-.27-.26.16-1.45-.84-.8a4.47,4.47,0,0,1,.65-1.35,3.76,3.76,0,0,0-1.54-1.46c.14-.81,1-1.4,1.59-1.8a5,5,0,0,1-.21-2.76,3.86,3.86,0,0,0-.49-2.75l-.06.15c0-1.48-1.54.87-1.72-.6,1.54,0,.86-1,1.56-1.68.39-2-1.76-2.8-1.24-4.63.31-.08.71-.08.83.22.12-1.37-.5-2.26-.79-3.37H179c.55-2.17-1.47-3.23-2.56-4.78.23.06.78-.14,1-.11-.06-1-.55-2.55-2.11-2.52.8-1.71-.72-.46-.17-2.46.2-.2.3,0,.4.07.07-.89-.31-1.28-.56-2-1.72-1-3.56-.19-4.16-2.09,1.66-1.28,1.09.69,2.49-.21-.53-.12-1.06-.16-1-.89.86-.2.47-.24,1.22-.48.18-.69-2.78-.13-2.6-.22-.34.23-.42.47-.15.75-1.27.39-1.25-1.47-2.27-1.88a1.06,1.06,0,0,1-.52,1.61c-.44-1.25-2.26-.25-3.4-.28-.05-1.46,1.82-.59,2.78-1.71.27-.49.79-1.65,1.56-1.65-.51-1.05-2-.76-2.94-1.22l.3-.28a6.34,6.34,0,0,0-2.23-.7c-.79-.16-1.47-.35-1.71-1l.23.76c-.32.06-.82-.47-1.63,0,.43-.54,0-1.57.59-1.84-1.66,1.47-3.61-.51-5.07,1.2-.14-.65.45-1.37.76-1.78.81.53.87,1,1.69.49-.68-.34-1-1.05-.7-1.47a8.27,8.27,0,0,1-2.18.89,3,3,0,0,0-1.73,1.19c-.32-.82-.81-1.25-.37-2.33-1.31.11-1.1,1-1,1.86s.14,1.52-1,1.33a.78.78,0,0,1,.08-1.2c.26-.26.47-.44-.33-.69l.32-.16c-.46-1.5-.77-1-1-.14s-.53,2-1.12,2c-.22-1.59.9-1.17,0-2.28a3.13,3.13,0,0,0-1.37,1.55c-.35.64-.65,1.15-1.23,1l0-.69c-.35.11-.87.18-1.39.29a4.25,4.25,0,0,0-1.36.39c-.14-.29,0-.28.07-.41-1.46-.06-.2,1-1.64.35l0,.83c.75.29,1.88.63,2.21-.43-.17.52.25.92.68,1.38a2.84,2.84,0,0,1,.94,1.67l-.05-.56c.51.46,1,.8,1.39,1.13a13.73,13.73,0,0,0,1.19.73c.38.23.73.37,1.08.58a9.15,9.15,0,0,1,1,.67c.53-.71.92-.53,1.22-.17s.57.67,1.23.36c.85-1.64.33-.31,1.29-.24-.53,0-.66,1.26-.55,1.6a1.51,1.51,0,0,1,.9-.46,3.39,3.39,0,0,0,0,1.38c.12.41.36.67.9.29.06.8-.46.4-.77.65-.4.89.78-.35.53.27a.85.85,0,0,1-.23.19,1.68,1.68,0,0,1,.65.8,11.27,11.27,0,0,0,.48,1c1.31-1.25,1.09.08,1.81-.06-.51.31-.16.84-.26,1.25.45-.19.9-.36,1.35-.52,1.2-.35-.2,1,.68,1.15l.17-.33c.72.06.6,1.72,0,2.65,2.69.79,3.17,2.69,3.21,4.59s-.34,4,.88,5.94c.62.1.8-.52,1.65-.57a2,2,0,0,1,.48.92c.35-.52-.21-.27.28-.38-.23-.16-.46-.32-.7-.47.11-.08.19,0,.42-.17-.24-.16-.68-.29-.68-.59.58.22,1.89-.11,1.61.61a.62.62,0,0,1-.43-.14c.06.48.67.3.45.76s.21.27-.33.51c-.09.5-.19,1-.3,1.49,1.75.2.47,1.42.37,1.65-1.21.16-.56-.75-1.81-.74l-.73.67.94-.22-.09.69-.19,0c.38,0,.77,0,.48.21-.12.05-.36.18-.43.12l.62.32c-1,0-.21.46-1.35.65-.12.76.33,1.11.67,1.49s.52.75-.17,1.43c.52-.25,1.84.16,1.67.56a1,1,0,0,1-1,.2l.61.4c-.89.34-1,.52-1.05.9a1.82,1.82,0,0,1-.21,1.2l-.5-.06c.6.35,1.07.76.83,1.29l-1-.16c-.77.59,2.09.64,1.39,1.34,1.09.09,1.69-.34,2.73-.34-1.13.1-1.35.9-.55.78.38.82-.09.54-.35.57l.61.54c-.13.54-1.45,0-2.05-.26,1.11.63.22,1.08,0,1.61l-.46-.29c-.09.23-.2.47-.31.71a1.13,1.13,0,0,1,.16,1.86l-1.35-.69c-.81.29.46.31.68.47.58.82-.44.79-1.31,1,.62.69-.07,1.12-.68,1.52S162.45,171.69,163.38,172.42Zm-57.69,35.24,0,.24C105.41,208.06,105.2,208.23,105.69,207.66Zm6.25,2.12c-.88.41-.5-.23-.47-.62.67.54,1.16.15,1.74.75a4.86,4.86,0,0,1,0-.93c.25.11.45.47.43,1.21C113.05,211.56,111.76,208.9,111.94,209.78Zm-17.06,1.84a2.8,2.8,0,0,1,.22-.25h0Zm4.45.43a1,1,0,0,0,.07.66C99.46,212.32,99.5,212,99.33,212.05Zm7.64,4.38c0,.65.55.58.91.52A2.76,2.76,0,0,0,107,216.43Zm52.28-11.79c-.05.34-.05,1.12.58,1.18-.16-.54.73-.11.37-.83l.08,0A5.24,5.24,0,0,0,159.25,204.64Zm9.84-23.52a7,7,0,0,0,1.55.69l-.07.05c.21,0,.39,0,.49.11.18-.15.38-.31.27-.5C169.53,180.75,169.37,180.26,169.09,181.12Z"/><path class="cls-1" d="M172.93,192.14c0-.11.07-.18.07-.25A1,1,0,0,0,172.93,192.14Z"/><path class="cls-1" d="M171.31,181.51c-.11-.06-.37.1-.67.3A.71.71,0,0,0,171.31,181.51Z"/><path class="cls-1" d="M85.89,199.59l.31,0c0-.25-.06-.49-.07-.74-1,.12-1.48.78-2.19,1.46,1.09-.34,1.17.29,2.1.54Z"/><path class="cls-1" d="M82.75,205.22a3.36,3.36,0,0,0-.15,1l.43-.42Z"/><path class="cls-1" d="M90.4,212.59l-.52-.81C89.42,212.13,89.9,213.36,90.4,212.59Z"/><path class="cls-1" d="M91.82,201.93l-.65.4c.07.61.53.77.92.18C91.49,202.64,92.16,202.11,91.82,201.93Z"/><path class="cls-1" d="M92.36,213.63c.7-1,.54.8,1.14-.13C93.17,213.7,92.87,212.59,92.36,213.63Z"/><path class="cls-1" d="M96.38,203.36c.24-1.09-.51-.38-.82-.81C95.91,202.71,95.91,204,96.38,203.36Z"/><path class="cls-1" d="M97.63,212.28c-.34.76-.64.58-.92.26.22-.19.44-.52.64-.58a5.24,5.24,0,0,1-1.43.4c.25.72.82,1.36.36,2.29C96.92,214.07,97.78,213.17,97.63,212.28Z"/><path class="cls-1" d="M97.46,203.68c-.22-.45-.12-1.24-.57-1.37-.17.56-.37,1.39.19,1.49l-.57.8C96.68,205.45,96.84,203.35,97.46,203.68Z"/><path class="cls-1" d="M99,215.22l-.08-.51c-.84.52-1.42-.12-2.18.89A2.73,2.73,0,0,0,99,215.22Z"/><path class="cls-1" d="M98.52,206.1l.58-1.22c-.43-.38-.13.43-.44.65-.07-.23-.24-.44-.44-.25C98.87,205.34,97.83,206.31,98.52,206.1Z"/><path class="cls-1" d="M100.74,205.39l.86-.28,0-1.58C100.71,203.71,101.29,204.3,100.74,205.39Z"/><path class="cls-1" d="M101.21,206.55v.27l1.68-1.52A6.87,6.87,0,0,0,101.21,206.55Z"/><path class="cls-1" d="M111.81,218.73c.23-.55-.35-1.39-.16-.7C111.43,218.48,112.27,219.4,111.81,218.73Z"/><path class="cls-1" d="M111.35,207.59c.19.51,1.25-.12,1.68-.45a3.42,3.42,0,0,1-1,0C111.71,207.14,111.41,207.2,111.35,207.59Z"/><path class="cls-1" d="M113.21,207l-.18.13A.35.35,0,0,0,113.21,207Z"/><path class="cls-1" d="M130.38,204.82a.27.27,0,0,0,.09-.15Z"/><path class="cls-1" d="M130.06,205.18c-.22-.18-.68.18-.78.8a3.09,3.09,0,0,0,1.1-1.16C130.22,204.9,130,204.47,130.06,205.18Z"/><path class="cls-1" d="M133.21,205.18c-.1.4-.35.26-.21.8C133.13,206.22,133.38,205.55,133.21,205.18Z"/><path class="cls-1" d="M165.32,205.47c.61-.16.68-.55,0-1C164.87,204.85,165.46,205,165.32,205.47Z"/><polygon class="cls-1" points="165.64 203.82 165.99 204.06 166.69 204.24 165.64 203.82"/><path class="cls-1" d="M168.9,201.93a.74.74,0,0,1,.16.4C169.09,202.1,169.1,201.89,168.9,201.93Z"/><path class="cls-1" d="M169,202.44a.36.36,0,0,0,0-.11Z"/><path class="cls-1" d="M168.69,202.46l.32.31a1.39,1.39,0,0,1,0-.33C169,202.54,168.9,202.58,168.69,202.46Z"/><path class="cls-1" d="M169.66,201.18l-1.42-.25c.08.93,1-.22,1.66,1.16Z"/><path class="cls-1" d="M170.73,199.1c.69-.29-.52-2.13,1-1.6.14-.94-.46-1.18-1-1.45s-1-.53-.83-1.48c-1.56,1.09,2,2.31.42,3.24C171.48,197.66,170.58,198.67,170.73,199.1Z"/><path class="cls-1" d="M168.46,197.89c.57.52,1-.08.75-.55C169,197.47,167.94,197.18,168.46,197.89Z"/><polygon class="cls-1" points="171.97 195.88 172.74 195.73 172.38 195.37 171.97 195.88"/><path class="cls-1" d="M173.22,194.33l.52.88C173.52,194.89,174,194.26,173.22,194.33Z"/><path class="cls-1" d="M175.46,192.42c.49-.3-1.16-1.57-1.2-.49l.17-.17C174.69,192,175.58,191.79,175.46,192.42Z"/><path class="cls-1" d="M175,185.5a.55.55,0,0,0,.37.81l-.08-.94Z"/><path class="cls-1" d="M170.38,183.78c-1.24-.22-.17.72-.75,1.05C170.07,184.38,170.21,184.5,170.38,183.78Z"/><path class="cls-1" d="M177,185.24c.39.4,0,.62-.2.79C177.53,186.19,177.58,185.56,177,185.24Z"/><path class="cls-1" d="M177.12,183.81c.57-.1.64.29,1,.21.73-.39.87-1,.33-1.57a5.59,5.59,0,0,1-2.49-.71c.11,1,2.11,2.27.29,2.1l1.75,1.51C178.64,184.74,176.82,184.26,177.12,183.81Z"/><path class="cls-1" d="M172.6,184.12l.86-.19c-.69-.16-.67-.55-.79-.87C171.14,182.62,172.62,183.82,172.6,184.12Z"/><path class="cls-1" d="M177.85,178.5c0-.38,0-.75-.06-1.13l-.17.31Z"/><polygon class="cls-1" points="178.53 177.98 178.98 178.07 178.38 177.05 178.53 177.98"/><polygon class="cls-1" points="179.34 177.02 179.24 177.13 179.47 177.85 179.34 177.02"/><path class="cls-1" d="M180.21,174.89l-.7,0c.1.31-.76.66.13.83C179.4,175.45,179.65,174.93,180.21,174.89Z"/><path class="cls-1" d="M164.76,165.23a2.08,2.08,0,0,0,1.22.13l-1.09-.38C164.94,165.05,165,165.21,164.76,165.23Z"/><path class="cls-1" d="M166.72,164.43c-.41-.25-.8-.51-1.22-.75-.27.68.72.89.84,1.56.44-.23-.43-.71,0-1Z"/><path class="cls-1" d="M166.77,152.37c.82-.17.68-.28,1.32,0-.67-.51-.66-1.11-1-1.8-.47.27-1.51,0-1.2.22s.49.43.72.65l-.58,0C165.58,152.27,167,151.64,166.77,152.37Z"/><path class="cls-1" d="M147.9,122.68a1.75,1.75,0,0,0-.35-1.09C146.92,122.15,148,122.57,147.9,122.68Z"/><path class="cls-1" d="M125.48,127.15c.65.86.3.17.39-.09Z"/><path class="cls-1" d="M125.87,127.06l.28-.06C126,126.92,125.9,127,125.87,127.06Z"/><path class="cls-1" d="M127.88,126c.27.93-1,.57-.23,1.67C128.54,127.82,128.82,127.06,127.88,126Z"/><polygon class="cls-1" points="126.77 125.95 127.24 126.48 126.74 125.41 126.77 125.95"/><polygon class="cls-1" points="126.08 125.75 126.31 125.87 126.27 124.88 126.08 125.75"/><path class="cls-1" d="M129.41,125.16l-.21.48c-1-.35-.69-1.13-1.38-1.36-.44.44,1.26,1.55.51,1.88.68.58.85-.88,1.78.21C130.88,126.24,129.54,125.76,129.41,125.16Z"/><path class="cls-1" d="M146,99.28l.15,0C146,99.23,145.9,99.18,146,99.28Z"/><path class="cls-1" d="M149.32,92.85a.86.86,0,0,0,.4-.11l-.4-.09Z"/><path class="cls-1" d="M144.63,104.68a2.15,2.15,0,0,0-.48,0C144.34,104.75,144.51,104.79,144.63,104.68Z"/><path class="cls-1" d="M156.53,56.74a1.88,1.88,0,0,0,.38-.17l0,0-.38.12Z"/><path class="cls-1" d="M149.8,85.48a.4.4,0,0,0-.08-.29C149.66,85.34,149.7,85.42,149.8,85.48Z"/><path class="cls-1" d="M142.61,106.8l.1-.08a.74.74,0,0,0-.21,0l.11.08Z"/><path class="cls-1" d="M146.56,93.72c.14,0,.26,0,.28-.1A.42.42,0,0,0,146.56,93.72Z"/><path class="cls-1" d="M136.05,121.18c.2,0,.23-.14.19-.33C136,120.75,135.93,120.79,136.05,121.18Z"/><path class="cls-1" d="M138.19,119.13s0,0,0,0S138.29,119.23,138.19,119.13Z"/><path class="cls-1" d="M139.72,118v0C139.81,118.11,139.84,118.12,139.72,118Z"/><path class="cls-1" d="M136.24,120.85c.56.26,1.79,1.57.73-.13l-.22-.16c.44.22.14-.55.27-.74a3.06,3.06,0,0,0-.38-.31,1.8,1.8,0,0,1-.5.16C135.67,119.53,136.16,120.36,136.24,120.85Z"/><path class="cls-1" d="M146.25,99.53c-.29-.21-.26,0,0,0Z"/><path class="cls-1" d="M145.77,102.3l.21-.14C145.87,102.17,145.77,102.18,145.77,102.3Z"/><path class="cls-1" d="M138.7,108.4l.09,0C138.66,108.27,138.66,108.32,138.7,108.4Z"/><path class="cls-1" d="M146.14,102a1.1,1.1,0,0,1-.16.15C146.07,102.16,146.16,102.14,146.14,102Z"/><path class="cls-1" d="M141.53,107.29h.06A0,0,0,0,0,141.53,107.29Z"/><path class="cls-1" d="M115,45.55c.13-.26.49.14.76.18-.16-1.39-.92.44-.82-.92a.82.82,0,0,0-.32.58l.85,1C115.66,45.71,115.06,46.1,115,45.55Z"/><path class="cls-1" d="M157,53l0,.15c.4-.4.58-.46.56-1-.88.29-1.56,1.48-2.64,1.66.14,0,.21.17.21.35A3.49,3.49,0,0,1,157,53Z"/><path class="cls-1" d="M155.12,54.17l0,.06a1.84,1.84,0,0,0-.19.25.28.28,0,0,1,0,.24A.93.93,0,0,0,155.12,54.17Z"/><path class="cls-1" d="M122.21,43l.28,0C122.3,42.83,122.23,42.86,122.21,43Z"/><path class="cls-1" d="M165,89.52c.1.14.2.28.31.41A.55.55,0,0,0,165,89.52Z"/><path class="cls-1" d="M158.92,58.2a.78.78,0,0,0-.06.32l.12.12Z"/><path class="cls-1" d="M141.67,57.3c.61-1.27-.11.07,0-.76l-.43.63C141.31,57.43,141.52,57.29,141.67,57.3Z"/><path class="cls-1" d="M114.59,45.32l.06.11v0Z"/><path class="cls-1" d="M136.33,56.65a1.42,1.42,0,0,0-.11-.18A.29.29,0,0,0,136.33,56.65Z"/><path class="cls-1" d="M155.83,56.13l.61,1.11.09-.5C155.86,57,156.63,55.81,155.83,56.13Z"/><path class="cls-1" d="M143.78,59.36l-.45.72c.78-.57.93-.17,1.1.09s.37.48,1.46-.2c-.8,1.34-.24.94.39.58s1.28-.72.5.43l.32-.28a16.36,16.36,0,0,1,1.29,4.22,10.46,10.46,0,0,0,1.8,4.26l-.59.13c0,2.48.32,5,.48,7.54.06,1.29.09,2.6,0,3.91a17.69,17.69,0,0,1-.6,3.85c.45.5,1.8.5,2.37,1-.09.15-.11.55-.82.39-.33-.4-1-.37-1.26-.53-.06.52-.94.93-.25,1.6.34,0,.71-.06,1-.11.35.29,0,.49-.12.63-.45-.2-1.51-.29-1.69-.49,1.92,1.64-1.2.36-.56,1.4,1.88.87,2.88,2.51,3.84,3.89l-.65.15c.25-.49-1.32-.65-1-1.2-.77.23-.15,1.09-.73,1.39.49.16,1.06.49,1.15.8-.42.15-1.31-.32-1.59-.05l-.36-.63c-.78-.17,0,.5,0,.77-.77-.37-1.16,0-1.91-.57.74,1,.11.82.39,1.65,1.07,0,.84.74,1.46,1.08l.1-.72c-1,.44.06-.33-1.22-1,.77,0,1.7,1.78,1.87,1,.16,1.15-.52.92-.08,2.37.11-.62.7.63,1.24.63-.39.64-.52-.14-1.4-.49-.19.34-.92,0-.28.9-.72.25-.8-.73-1.45-.83-.67-.77,2-.68-.71-2.37.15-.27-.63-1.25-.34-1.55-.56.08-1.71-.1-1.37.67l1.43,1.06c-.17.31.76,1.09.48,1.21-.33-.42-1.07-.66-1.12-.34.25.09.27,0,.5.17-.21.52.67,1.31.5,2.05a9,9,0,0,1,2.17.14c.91.88-.1.41-.18.76-.1-.15-.09-.22-.34-.3l.25.64c-.89.23-1.36-1.2-2.2-1.12-1.06-.36.11.79-.54.65l.28.16a.32.32,0,0,1-.17.06l.07.06c-.1.4-.43.65.19,1.35-.34-.25-.14.33,0,.61s.58,1.55-.74.77c0,0,0,0,0,0a1.06,1.06,0,0,1-1.36-.24l-.79.31-.81-.9c-.27.72.29,1.17.83,2.4-.88-.15-1.11.9-1,1.47-.08,0-.14.06-.2.21l.54.13c-.43.37,0,.78-.23,1,.14,0,.19.07-.1.08a.79.79,0,0,1-.22.08c-.07-.11,0-.15.11-.16l-.33-.25c-1.22-.63,0,1-.69,1,0-.06,0-.18.05-.2-.43-.05-1.88-1.05-1.25-.2-.14-.06-.07.16,0,.42h-.27a.61.61,0,0,1,.27,0c.14.34.34.74.15.56l-.67.32c-.22,0-.26.19-.26.42l-.42-.3c-.15.23-.35,0-.42-.12-1.83-.71-.45,1.6-2.18,1.11.4.75,1,.78,1.28,1.09a6.26,6.26,0,0,1,.35,1.93c-1.1-.59-2.79-.48-3.72-1.89-.7.43.86.62.93,1.32h-.11a2.75,2.75,0,0,1,1.42.64c.64.64.27,1.32-.07,1.26l-.72-1.07c-.28.83,1.1,2.2,1.58,3.48-.79,0-1.29-1.1-2.13-1.89l-.27.65-.64-.73c-.14.46.38,1.21-.3,1.3-.29-1-1.24-.13-1.61-1.43-.45,0,.7,1.44-.27.57.51.93.56.2.89.34,1.07,1-.06,1-.1,1.54-.52-.55-.4-.85-1.07-.93.31.5.39,1-.27.66.64.73-.26.48-.49.61a1.76,1.76,0,0,1,1.53,1c.09.44.08.71-.39.94l.56.11c.61,1.36-1.23-.29-1.38.46a8.87,8.87,0,0,0-.38-1.39,13.18,13.18,0,0,1,.13,2l-1.33-.7c.43.57-.46.35.19,1.06-.91,0-.41-1.2-.84-1.77-1,.08.62,1.62-1,1.06l-.42-.84c-.23.13-.26.86-.6.55.22.24.23.05.35-.06,1.2,1.52.06,1.81,1.51,3.19l.34-.15c-.12.66.56,1.89-.22,1.67s-.79-1.12-1-1.63c-.46.27,1.23,1.86.68,2.13.45,0,.9.56,1.13,1.06.33-.15,1.1-.36.43-.88l-.22-.05a2.56,2.56,0,0,1-.46-.91c.34-.33.78.5,1.12.71.77-.3-1.33-1.49-.78-1.94l.34.22c-.1-.61.24-1-.52-2,1.11.74.26-.93,1-.6,2,2-1,.69-.29,2.1.67.18.76,1.14,1.09,1.72l0-1.7c.33.22,1.54,1,1,.13h-.11c.12-.55-.75-1.33-.19-1.31a2.92,2.92,0,0,1,.54.73c.44-.06-.21-.69-.19-1,.44-.06.63,1,1.07,1-.4-1.11.69-.27.93-.56-1.19-1.1-.32-2.64-1.87-3.16l0-1.44c.76.45,1,2.12,2.09,3l-.58.43c1.41,1.43.27-2,2.1-.61.35-.19.1-.34,1.3-.06l-1.26-1.28a3.31,3.31,0,0,1,1.51,1,.77.77,0,0,1,.49-.41,1,1,0,0,1,.18.63c.87.56.69.23.42-.24s0-.55.23-.69l.27.64a1,1,0,0,0-.17-.72.4.4,0,0,0,.11-.31,5.58,5.58,0,0,0-1.61-1c1.12,0,1.4-.79,2.94-.17.32.41.5,1.1.61,1.09.46-.06.19-1-.35-1.57a.71.71,0,0,1,.11-.2c.35.29.73.59.92.53a.5.5,0,0,0,.42.12c-.84-1.15.19-1.11-.12-1.7a.64.64,0,0,0-.51.33c-.39-.91-.89-1.91-.21-1.5.16,1.06,1.43.71,1,1.58,1.64.94-.61-1.18.29-1.13l.79.25c.63.82-.17.84.16,1.06l.13-.29c.3.77-.87,1.13-.61,2.44l1.4-.46a5.3,5.3,0,0,1,1.64-2.34,3,3,0,0,0,1-2.82l0,.07a4.86,4.86,0,0,0-.42-.54l.22.14-.32-.76c.91.48,1.49.17,2.41.34a2.19,2.19,0,0,1-1.25-.75c-.67-.79-.94-1.14-.32-1.21.51.52.28.72.95.88a.79.79,0,0,1-.54-.83c.53.14.93-.11,1.46.4,0,.24-.21.13-.34.12,0,.23.84.09,1,.79l.22-.51c.65.22.54.82.91,1,.26-1-.65-2.45-.49-3.37.26.3,1.45,1.43,1.11,1.1.78-.12-.43-2.17-.08-2.74.3.39,0,.45,0,.76.94-.54,1.67-1.19,2.49-1.75a11.91,11.91,0,0,1,3-1.44l-1-1.43,1.23.21a4.41,4.41,0,0,0,1.27-1,5,5,0,0,0,.67-1.35,25.67,25.67,0,0,0,.73-3c.19-.65,1.22.16,1.79.07a1.86,1.86,0,0,0,0-1.87,4.17,4.17,0,0,1-.56-1.94c.42.36,1.65,1.22,1.93.65-.42-.29-1.11-.63-.7-.89l.42.37c.83-.09.27-.66.82-1.27.45-1.26-.45-2.85-2.05-4.23.41-1,1.75.49,2.15.37-.78.66.17.62.69.93-.36-.54-.54-1.1.69-1.09a1.49,1.49,0,0,0-.51-1.61c.35.36-.35.51-.82.14.51-.41.2-1.59,1.68-1.33.09-2.67.62-5.6.56-8.49-.77-.48-.31.37-.85.1-1-.69.52-.55-.29-1.1l.83.22c.11-.85-1.44-1.69-2.24-2.42.94.08.74-.7,1.33-.07-.17-.36,3.94-1.16,3.06-1.42l-3.83.74c-.39,0-.19-.55-.45-.48.74-.39,1.61-.9,1.57-1.14,1-.22.82.41.82.75,1.65-.08.95-1.25,2.49-.89-.35-.73-.82.19-1.48-.2l.28-.68-.49.56c-.55-.49-1.8-.51-1-1.32l-1.69-.5c1.27-.26.16-.55.4-1l.85.09c-.12-.49.06-.72.47-1.12,1.17.08-.19.51.9.44l.27-.63c-.72.13-1.35-.11-1.72.37-1.44-.27-2.58-.3-2.75-1.53,1.09-.84,1.22.35,2.37-.15.23-1.47-3.55-.81-3.59-1.55.23-1.06-.88-.67-1.23-1.55.91,0,.64-.93,1.33-1.39l1,.08c-.35-.2-.14-.6.48-.73-1.06.45-1.48-.87-2.28-1.29l-.86.5c-.49-.36-1.38-.74-1.39-1.35-.64-.59-1.36,0-2.58,0a6.74,6.74,0,0,1,2.54-1.65c-.33.44.11.63,0,1.1,1.22.53,3.5.47,3.49,1.71,2.39-.46-.55-.6,0-1.43.14,0,.2,0,.23,0a.2.2,0,0,1,0-.15,2.38,2.38,0,0,0,2.22.36c-.52-.57-2.38.48-1.81-.73-.88-.29.58-1.6.54-2.05-1,0-2.71.9-2.89-.18l1.39-.26c-.58-1.09-2,.48-2.49-.47.06.4-1.3.4-1,1a1.11,1.11,0,0,1-1.29-1.13c-.26,0-.39.24-.78.48-.41,1,1.28.29.43,1.42l1.45-.4a2.08,2.08,0,0,1-1.79,1.39c.12.09.36.11.19.33-1.83,1.17.36-.94-1.32-.14l.32.22c-1.13.84-1.49,0-1.64-.47.26-.78.17-1.31,1-1.94l.79.34c.44-.79-1-.5-1.16-.85a.75.75,0,0,0,.17-.29.76.76,0,0,1-.2.2.67.67,0,0,1,.18-.44c-.21-.33-1-.36-1-.83l-.66.63.42-.3a.94.94,0,0,1-.63,1.24c-.92-.14.26-1.4.71-2.09,1.16-.81.53.58,1.13.58.9-1.1-.41-.72-.34-2,1.34-.79.68.75,1.85,0-.31-.73-1.23-.13-1.47-.94.56-.43,1.14.08,1.76-.57l-.05-.69c1,.91,1.19-1.48,2.2-1,.09-.81-1.38.33-1.21-.86-.3.62-.79,1.85-1.66,1.81l-.23-.83c.26-.76,1.7-.62,1.75-1.42l-1-.19c-.28.36-.15.79-.75,1.09,0-.68-1.7.79-2.51,1a.83.83,0,0,1-.26-1c-1.6.45-2.58-.28-4,.4,1-.48.78-1.33.78-2.12.71.19,1.46-1,1.88-1.82-.5-.12-1.48,1-1.52,1.53-.37-.88-.91.6-1-.53-.16-.63.83-1.15,1-1.69-.75-.44-1,1.43-1.64.74.12-.15.22-.17.27-.43-.32-.5-1.08-.08-1.44.53.23-1.9-1.38-.34-.66-2-1.27.08-.16,1-.6,1.49-.7.61-1.27-.26-1.45-.62.27,0,.67-.34.84,0l.15-1.26c-1.17-1.31-1.65,2.44-2.65,1.07.82-.47.45-.87,1-1.64-.29.25-1.27-.35-.85.74a4.23,4.23,0,0,1-1.07-.81,3.62,3.62,0,0,0-1.45,1.41A4.1,4.1,0,0,1,139,41.4a3.74,3.74,0,0,1-2.4.07,2.67,2.67,0,0,0-2.27.31l.12.07c-1.2-.11.66,1.59-.53,1.67,0-1.53-.83-.94-1.33-1.69-1.62-.55-2.3,1.51-3.79.81-.06-.32-.06-.71.18-.8-1.11-.25-1.84.26-2.75.43v-.19c-1.77-.78-2.63,1.05-3.89,1.91,0-.22-.12-.77-.1-1-.83-.07-2.08.18-2,1.68-1.42-1.05-.36.65-2-.22-.17-.22,0-.28.06-.36-.74-.23-1.06.09-1.67.19-.77,1.45-.13,3.34-1.7,3.52-1.08-1.79.56-.9-.19-2.37-.1.47-.13,1-.74.74A8.71,8.71,0,0,0,113.5,45c-.57-.31-.09,2.54-.17,2.36.19.35.39.49.62.29.34,1.26-1.22.85-1.57,1.68a1.05,1.05,0,0,1,1.34.84c-1,.12-.23,2-.28,3-1.23-.3-.47-1.79-1.39-2.92-.42-.36-1.39-1.11-1.38-1.8-.89.21-.68,1.61-1.09,2.3l-.23-.34c-.77.8-.48,2.89-1.69,2.88l.67,0c0,.3-.45.57-.09,1.38-.44-.54-1.38-.48-1.56-1.09a2.45,2.45,0,0,1,.19,2.29,2.22,2.22,0,0,0,.28,2.21c-.6-.12-1.16-.85-1.48-1.24.6-.42,1.07-.29.67-1.16a.93.93,0,0,1-1.4,0c.63,1.34.22,2.8,1.21,3.79a2.8,2.8,0,0,1-2.22-.59c-.21,1,.71,1.23,1.47,1.46s1.42.45,1,1.26a.91.91,0,0,1-1.09-.51c-.17-.29-.27-.51-.74,0l0-.3c-3.08-.39,1.57,1.52,1.15,2.33-1.55-.4-.79-1.11-2.14-.79,0,.55.56,1.14,1,1.62s.83.88.53,1.27l-.64-.25a6,6,0,0,1-.18,1.18,4.13,4.13,0,0,0,0,1.19c-.31,0-.27-.06-.35-.17-.53,1.18.84.41-.15,1.44l.8.18c.5-.56,1.12-1.34.25-1.9.46.29,1,.06,1.52-.14a3.27,3.27,0,0,1,1.85-.22l-.54-.12a17,17,0,0,0,2.54-1.19,11.08,11.08,0,0,1,1.69-.91c-.58-.68-.22-.88.11-1s.79-.19.57-.86c-1.36-1.27-.18-.35,0-1.14-.08.44,1,1,1.35,1a1.45,1.45,0,0,1-.26-.9c.56.31,2.19.84,1.6-.31.71.16.32.51.51.86.75.61-.24-.79.28-.4a1.09,1.09,0,0,1,.16.26c.45-.46,1-.34,1.73-.54-1-1.51.13-1,0-1.67.25.54.72.34,1.07.52-.14-.45-.28-.9-.41-1.35-.27-1.19.9.4,1-.39l-.28-.22c0-.67,1.47-.21,2.24.5.66-2.38,2.21-2.53,3.77-2.26s3.19.88,4.71-.06c.07-.6-.42-.84-.47-1.68.3-.3.4-.25.72-.36-.42-.4-.21.18-.31-.32l-.36.63a3.26,3.26,0,0,0-.14-.43c-.12.22-.21.62-.45.6.17-.55-.12-1.88.46-1.5a.61.61,0,0,1-.11.4c.38,0,.23-.62.59-.35s.22-.18.41.38c.4.14.79.3,1.17.46.14-1.7,1.09-.31,1.26-.19.13,1.21-.57.48-.55,1.7.18.26.35.53.52.8l-.18-1,.53.16v.19c0-.38,0-.76.15-.46,0,.13.14.38.1.45l.24-.59c0,1,.35.25.48,1.4.57.19.82-.23,1.1-.52s.57-.47,1,.29c-.18-.53.18-1.85.44-1.63a1.35,1.35,0,0,1,.12,1l.31-.6c.34,1.81.71.66,1,1.32L138,57c.19-.6.59-1,.88-.76l-.24,1c.25.78.73-2.06,1.05-1.31a25.51,25.51,0,0,0,.21-2.71c-.09,1.1.39,1.41.45.6.62-.3.35.12.32.38l.48-.57c.34.16-.29,1.41-.57,2,.63-1.06.73-.13,1,.14l-.29.42a3.68,3.68,0,0,1,.35.33c.55-.69,1-.6,1.15,0-.28.4-.54.81-.81,1.22-.09.77.31-.41.47-.61.65-.46.31.47.1,1.27.61-.55.58.15.53.7S143,60.12,143.78,59.36Zm-4.45,49.4.21.1C139.56,109.18,139.62,109.44,139.33,108.76Zm4.16-3.3c-.05.85-.38.22-.69,0,.71-.16.63-.73,1.35-.78a5.69,5.69,0,0,1-.74-.55c.21-.1.58,0,1.16.43C145.4,105.75,142.71,105.06,143.49,105.46Zm-4.33,13.44-.15-.29h0Zm1.62-3.09a1.16,1.16,0,0,0,.57.3C141.05,115.86,140.79,115.66,140.78,115.81Zm6.1-3.06c.53.34.66,0,.76-.31A1.46,1.46,0,0,0,146.88,112.75Zm16.23-39.44c.25.19.89.56,1.3.16-.53-.14.33-.55-.47-.64a.17.17,0,0,1,.07,0A5,5,0,0,0,163.11,73.31ZM152.27,56.42a8,8,0,0,0,1.37-1v.08a.93.93,0,0,1,.35-.36c0-.2,0-.42-.22-.4C152.25,55.93,151.82,55.9,152.27,56.42Z"/><path class="cls-1" d="M162.69,58.42c-.06-.07-.08-.15-.13-.19A.92.92,0,0,0,162.69,58.42Z"/><path class="cls-1" d="M153.79,54.77c-.11.07-.13.34-.15.65A.66.66,0,0,0,153.79,54.77Z"/><path class="cls-1" d="M126.93,121.09v-.27l-.69-.14a3.92,3.92,0,0,0,1.12,2.33c-.22-1,.35-1,.69-1.67Z"/><path class="cls-1" d="M131.63,125.51a4,4,0,0,0,.89.48l-.34-.48Z"/><path class="cls-1" d="M138.89,122.74h-.77C138.32,123.24,139.42,123.48,138.89,122.74Z"/><path class="cls-1" d="M130.18,116.83l.19.7c.56.19.8-.11.38-.68C130.72,117.39,130.42,116.62,130.18,116.83Z"/><path class="cls-1" d="M140.18,121.79c-.62-1,.79,0,.17-.91C140.44,121.22,139.44,120.89,140.18,121.79Z"/><path class="cls-1" d="M132.65,113.72c-.86-.71-.47.23-.93.29C132,113.8,133.06,114.39,132.65,113.72Z"/><path class="cls-1" d="M140.47,117.19c.52.65.29.77-.06.81a2.81,2.81,0,0,1-.28-.77,4.5,4.5,0,0,1-.09,1.27c.67.19,1.35.1,2,.92A4,4,0,0,0,140.47,117.19Z"/><path class="cls-1" d="M133.26,113c-.45,0-1.1-.5-1.34-.2.42.4,1.07,1,1.32.56l.51.83C134.53,114.48,132.79,113.35,133.26,113Z"/><path class="cls-1" d="M143.27,117.74l-.44-.21c.17.88-.52,1,.09,2A2.09,2.09,0,0,0,143.27,117.74Z"/><path class="cls-1" d="M135.62,113.36l-.84-1.06c-.46.14.32.32.41.67-.22-.07-.45,0-.35.22C135.09,112.71,135.58,114,135.62,113.36Z"/><path class="cls-1" d="M135.74,111.29l0-.81-1.3-.83C134.33,110.47,135,110.31,135.74,111.29Z"/><path class="cls-1" d="M136.85,111.52l.22.15-.67-2.06A6.43,6.43,0,0,0,136.85,111.52Z"/><path class="cls-1" d="M150.51,110.92c-.33-.48-1.22-.62-.6-.32C150.17,111,151.21,111,150.51,110.92Z"/><path class="cls-1" d="M141.49,104.61c.47.15.43-1,.38-1.48C141.79,103.6,140.91,104.08,141.49,104.61Z"/><path class="cls-1" d="M141.85,102.93l0,.2A.35.35,0,0,0,141.85,102.93Z"/><path class="cls-1" d="M147.22,91.45a.21.21,0,0,0-.09-.14Z"/><path class="cls-1" d="M147.38,91.84c-.26.06-.13.54.37.91a3.3,3.3,0,0,0-.53-1.3C147.22,91.59,146.76,91.5,147.38,91.84Z"/><path class="cls-1" d="M148.77,89.74c.28.26,0,.35.57.54C149.6,90.31,149.17,89.81,148.77,89.74Z"/><path class="cls-1" d="M167.41,69.77c.25-.43,0-.62-.84-.4C166.65,69.79,167.11,69.49,167.41,69.77Z"/><polygon class="cls-1" points="166.32 68.91 166.73 68.8 167.33 68.45 166.32 68.91"/><path class="cls-1" d="M167.07,66.06a.74.74,0,0,1,.4.09C167.32,66,167.17,65.91,167.07,66.06Z"/><path class="cls-1" d="M167.53,66.21s0,0-.06-.06Z"/><path class="cls-1" d="M167.3,66.44l.45-.06a1,1,0,0,1-.22-.17C167.58,66.28,167.53,66.37,167.3,66.44Z"/><path class="cls-1" d="M167,65.22l-1.15.78c.74.4.51-.74,2-.51Z"/><path class="cls-1" d="M166.25,63.52c.27-.61-1.87-.72-.51-1.44-1.19-1.11-2.32,1.06-3.35-.24-.3,1.61,3-.19,2.61,1.35C165.74,62.3,165.84,63.4,166.25,63.52Z"/><path class="cls-1" d="M163.84,64.41c.75-.11.66-.73.12-.77C163.93,63.83,163,64.4,163.84,64.41Z"/><polygon class="cls-1" points="164.78 61.05 165.18 60.44 164.68 60.49 164.78 61.05"/><path class="cls-1" d="M164.49,59.37l1,.09C165.09,59.44,164.92,58.8,164.49,59.37Z"/><path class="cls-1" d="M164.53,56.71c.08-.53-1.92,0-1.14.63v-.22C163.69,57,164.12,56.28,164.53,56.71Z"/><path class="cls-1" d="M159,53.45a.54.54,0,0,0,.85.1l-.8-.4Z"/><path class="cls-1" d="M155,56.38c-.89.87.42.43.3,1C155.19,56.87,155.39,56.81,155,56.38Z"/><path class="cls-1" d="M159.85,51.68c.54-.13.48.35.53.56C160.9,51.75,160.41,51.39,159.85,51.68Z"/><path class="cls-1" d="M158.71,50.92c.22-.53.57-.4.71-.78.06-.82-.43-1.26-1.18-1a5.58,5.58,0,0,1-1.82,1.83c.9.32,3-.75,1.87.7.72-.26,1.46-.51,2.19-.73C160.28,50.09,158.92,51.39,158.71,50.92Z"/><path class="cls-1" d="M156.5,54.78l.33-.77a1,1,0,0,1-1.11.27C154.53,55.32,156.27,54.63,156.5,54.78Z"/><polygon class="cls-1" points="154.51 47.99 153.48 47.64 153.69 47.92 154.51 47.99"/><polygon class="cls-1" points="154.31 47.19 154.58 46.81 153.44 46.98 154.31 47.19"/><path class="cls-1" d="M153.77,46.08l.06.13.74.07Z"/><path class="cls-1" d="M152.09,44.58l-.18.66c.32,0,.34.92.8.14C152.35,45.5,152,45.1,152.09,44.58Z"/><path class="cls-1" d="M140.43,57.76a3.71,3.71,0,0,0,.35-1.18l-.46,1.05C140.37,57.58,140.48,57.5,140.43,57.76Z"/><path class="cls-1" d="M140.36,55.82q-.36.59-.69,1.17c.36.3.69-.7,1.11-.76,0-.46-.51.38-.62,0Z"/><path class="cls-1" d="M132.2,54.94c-.13-.82-.22-.69,0-1.29-.39.6-.85.54-1.39.79.22.48,0,1.47.19,1.2l.5-.64,0,.58C132.14,56.1,131.64,54.61,132.2,54.94Z"/><path class="cls-1" d="M104.74,64.62a2,2,0,0,0-1.15-.08C104,65.21,104.67,64.48,104.74,64.62Z"/></g></g></svg>