<svg xmlns="http://www.w3.org/2000/svg" viewBox="0 0 510.49 258.99"><defs><style>.cls-1{fill:#8f4a4b;}.cls-2{fill:#914d4e;}</style></defs><title>Ресурс 9</title><g id="Слой_2" data-name="Слой 2"><g id="Слой_3" data-name="Слой 3"><path class="cls-1" d="M222.14,32.44c1.16.41-.24-.33-1.45-1.13Z"/><path class="cls-1" d="M220.69,31.31l-1-.79A6.86,6.86,0,0,0,220.69,31.31Z"/><path class="cls-1" d="M210.8,24.34c2.47,1.3,5.09,3.37,6.74,4C215.38,26.56,211.61,24.33,210.8,24.34Z"/><polygon class="cls-1" points="214.16 26.85 214.58 26.84 212.33 25.82 214.16 26.85"/><polygon class="cls-1" points="215.5 27.97 215.25 27.71 211.93 25.84 215.5 27.97"/><path class="cls-1" d="M202.72,19.48c.83.42,1.68.81,2.48,1.28,2.1,1.61-1.7-.5-.3.57,3,1.76,1.37,0,5.08,2.33-.15-.43-6-3.53-5.19-3.59C201.62,18.21,204.5,20.23,202.72,19.48Z"/><path class="cls-1" d="M46.67,35.91l-.32.22C46.5,36.07,46.64,36,46.67,35.91Z"/><path class="cls-1" d="M18.4,70.74c-.34.52-.66,1.06-1,1.58a5.35,5.35,0,0,0,.46-.59Z"/><path class="cls-1" d="M69.7,19.26c.6-.26,1.14-.52,1.63-.75A9.36,9.36,0,0,0,69.7,19.26Z"/><path class="cls-1" d="M88.05,249.18a.4.4,0,0,0-.28,0l.08,0,.52.05Z"/><path class="cls-1" d="M5.54,119c0,.71,0,1.41,0,2A16.93,16.93,0,0,0,5.54,119Z"/><path class="cls-1" d="M84.61,12.35,84,12.6l.81-.26h-.17Z"/><path class="cls-1" d="M26.68,58.64c-.37.48-.7.92-1,1.3C26.06,59.51,26.38,59.07,26.68,58.64Z"/><path class="cls-1" d="M162.88,4.1a11.08,11.08,0,0,0-2-.39A8.27,8.27,0,0,0,162.88,4.1Z"/><path class="cls-1" d="M146.52,1.65h.09C146.52,1.59,146.47,1.6,146.52,1.65Z"/><path class="cls-1" d="M136,1h.19C136,1,136,.94,136,1Z"/><path class="cls-1" d="M160.88,3.71c-1.31-.43-1.61-1.09-3.47-.75l.33.15a22.17,22.17,0,0,0-3.83-.51,2.33,2.33,0,0,0,.42.22c.61.08,1.41.26,2.64.52A19.18,19.18,0,0,0,160.88,3.71Z"/><path class="cls-1" d="M46.73,35.71c.19,0,1-.74,0,0Z"/><path class="cls-1" d="M57.61,26.9l-1.17.74A11.22,11.22,0,0,0,57.61,26.9Z"/><path class="cls-1" d="M106,6.48l-.25,0C105.64,6.58,105.84,6.54,106,6.48Z"/><path class="cls-1" d="M55.41,28.38c.34-.25.67-.51,1-.74A6.25,6.25,0,0,0,55.41,28.38Z"/><path class="cls-1" d="M90.57,10.33l-.22.05A.82.82,0,0,0,90.57,10.33Z"/><path class="cls-1" d="M253.69,150.72a15.71,15.71,0,0,1-.52,2.73c0,1.18.23,0,.38-1.06s.21-2,.21-.29c.11-1,.15-1.85.17-2.61l-.57,1.42C253.29,152.94,253.65,149.57,253.69,150.72Z"/><path class="cls-1" d="M100.62,254l-.44-.14c.26.25,0,.24,1.68.76,1.54.08-.65-.9,2-.58a18.89,18.89,0,0,1-1.93-.49C102.91,254,101.81,254.05,100.62,254Z"/><path class="cls-1" d="M101.92,253.54l-.07,0-.35-.19c-.37-.09-.72-.19-1-.29A9.85,9.85,0,0,0,101.92,253.54Z"/><path class="cls-1" d="M244.05,185.67c-.19.41-.36.78-.52,1.11A4.19,4.19,0,0,0,244.05,185.67Z"/><path class="cls-1" d="M.58,115.29v-1.47A8.72,8.72,0,0,0,.58,115.29Z"/><path class="cls-1" d="M76.74,244.85l-1.12-.62-.73-.36C75.51,244.2,76.11,244.55,76.74,244.85Z"/><path class="cls-1" d="M159,250.77c-.75.66.65-.2,2.42-.36l1.53-.64C161.43,250.06,160.1,250.47,159,250.77Z"/><path class="cls-1" d="M254,149.38a0,0,0,0,1,0,0v.13Z"/><path class="cls-1" d="M202.48,230.42l.67-.42A4.75,4.75,0,0,0,202.48,230.42Z"/><path class="cls-1" d="M92.37,250.58c-2-.73-4.06-1.36-6-2.2l1.7.8C89,249.25,91.44,250.55,92.37,250.58Z"/><path class="cls-1" d="M132.55,253.41l-.56-.28c-6.21.57-13.24-.85-18.22-.86-1.84-.49-3-.84-4-1a10.17,10.17,0,0,0-2.12-.15c-1.19,0-2.31,0-5.58-1.25l.19.2a119.09,119.09,0,0,1-16.41-5.54l-2-.83c-.67-.29-1.32-.61-2-.92-1.31-.62-2.64-1.22-3.94-1.86-2.57-1.37-5.18-2.65-7.64-4.17a146.84,146.84,0,0,1-26.79-20.19l.18-.11a132.77,132.77,0,0,1-28.41-42,122.75,122.75,0,0,1-9.8-49.43,4.83,4.83,0,0,0-.38-2.17c-.15-.26-.3-.47-.35-1.85.08-1.19.16-3.89.45-3.89,0,2.32.29,1,.33,1.82.06-1.91.41-4.08.62-6.21s.61-4.17.69-5.89l-.72,2.79a29.84,29.84,0,0,1,.69-4.58c.06.53.74-1.12.61-.09.15-1.8.32-3,.49-4a13.53,13.53,0,0,1,.64-2.17c.22-.59.45-1.15.69-1.93s.48-1.78.86-3.24c-.33-1.34,1.35-8.82,3-13.62.4-.79.75-1.6,1.2-2.37-1.41,3.23.46.13-1.25,4.13,1.51-3.3,2.72-6.45,4.36-9.47-.47.51-.58.26,0-1,1.1-1.81,1.44-1.83,2.67-3.9-.37.7-.65,1.45-1,2.17a37.77,37.77,0,0,0,2.14-3.91c.49-.27,2.39-3.31,2.34-2.59a35.36,35.36,0,0,1,1.95-3.3c.3-.47.61-.95,1-1.49s.79-1.12,1.26-1.85c-2.44,2.7.27-1-.16-.78-.79,1.11-1.62,2.2-2.34,3.36a15.61,15.61,0,0,1,1.32-1.69c.09-.07-.15.25-.47.73-.6,1-1.55,2.5-1.23,2.46-1.71,2.11,1.46-3.53-1.05.27.72-1.16,1.31-2.08,1.83-2.89s1.06-1.44,1.55-2.11c1-1.34,1.93-2.75,3.63-5-2.12,2.62.18-.7-1.11.59,2.77-3.28.82-.7,1.91-1.51,1.49-1.8,2.29-2.23,3.51-4,2.7-2.64-.13.66,1.32-.59A12.41,12.41,0,0,1,35.07,47c-.71.75-1.59,1.61-2.33,2.51-1.51,1.75-2.75,3.33-2,3.28a23,23,0,0,0-1.85,2.68c-.64,1-1.37,2.08-2.2,3.21.77-1,1.79-2,2.79-3.24L31,53.57c.51-.6,1-1.21,1.45-1.82l-.36-.5c1.5-1.76,1.46-2.43,2.67-3.59-.48.76.8-.23,2-1.6-.43.32-.92.87-.86.65,1.18-1.25,1.74-2.07,2.43-2.89a42,42,0,0,1,2.88-3.18c-2.55,2.26-3.25,2.55-5.61,4.71.31-.9,1.48-1.7,2.82-3-.16.24-.44.52,0,.19L39.76,41c3.21-2.82,0,.79,2.71-1.46,2.05-1.34,2.36-2.33,3.88-3.41l-.34.16.72-.58h0c1.71-1.46,3.62-2.94,3.93-3.58a15.34,15.34,0,0,0,2.08-1.75c.95-.82,3.14-3,5-3.55l-.11.08c2.38-1.51,4.28-2.6,3.87-2.12l3.94-2.23-.21.6c1.72-1.13,2.51-1.62,3.12-2.1s1.06-.9,2.21-1.76c1.34-.64,3.19-1.47,4.89-2.35s3.29-1.66,4.16-2.12c.31-.12.76-.32,1.51-.66l-1.65.54c3-1.26,2.52-1.35,4.52-2.1-.43.12-.5.12.64-.25l1.15-.41a4.65,4.65,0,0,1-1,.4l.41,0a12,12,0,0,0,3.1-1.12A20.57,20.57,0,0,1,91.49,10c-.24.1-.65.26-.92.35,1.51-.38,3.78-.57,4.31-1a6.2,6.2,0,0,0,1.35-.5l1.11-.25-1.1.24a5.11,5.11,0,0,1,1.37-.56c1.28-.35,2.56-.68,3.86-.94A22.2,22.2,0,0,0,104,6.64h.69c1.4-.37,1.44-.24,1.27-.17a43,43,0,0,0,6.35-1c1-.18,2-.37,3-.52A21.76,21.76,0,0,1,119,4.64c1-.38-1.24-.29-1.43-.42.81-.3,3.89-.79,5.43-1.09l5.71.25c2,.1,3.57.38,3,.65,4.45,0-1.4-.34.83-.55l.52,0a21,21,0,0,1-3.63-.43c-.36-.33,3.61-.42,4.83-.35l-.85.44a12.93,12.93,0,0,0,3.51-.49,8.88,8.88,0,0,1,2.37-.62c3.31.29,1.38.61,2.06,1,1.15,0,2.3.1,3.46.15l0,.32c2.24.12,2.8-.21,5.88.34-2.27,0,4.58.9,1.45.91,1.68.33,2.28-.25,3.08.35,1.23-.15-1.5-.44-2.35-.63-.32-.28.63-.23,1.92-.06s2.89.53,3.92.65c.13.28-1.41.05,1,.64a7.45,7.45,0,0,1,3.38.6c.07-.31,2.72.53,4.06.87-1.5-.42-3.65-1.13-2.59-1.18a24.28,24.28,0,0,1,4.92,1.06l-1.8-.65a10.4,10.4,0,0,1,3.21.85,34.54,34.54,0,0,0,3.76,1.3A29.91,29.91,0,0,0,171.08,8c1.56.22,4.43.91,6.79,1.51.84.43,1.67.85,2.48,1.34.4-.11,2.92,1.1,3,.8,3.16,1.4-2.74-.6-3.14-.5a19.15,19.15,0,0,0,3.67,1.23,10.53,10.53,0,0,1,3.44,1.46L186,13.62a41.47,41.47,0,0,1,4,1.68c.05-.1-.61-.33-1.4-.67a10.46,10.46,0,0,1,3.39.85c1.33.5,2.52.94,2.43.53l-1.71-.87c2.69,1.17,4.83,1.59,6.72,2.88,1.43,1-1.27-.21-2.29-.46,2.46,1.25,2.33.38,5.23,2-1.48-.91-1.08-1-.07-.63-.84-.46-2.14-1.2-3.16-1.74s-1.8-.83-1.54-.57l.6.36a7.36,7.36,0,0,1-1.71-.46c-2.37-1.13-1-.8-1.4-1.14-3.91-1.95-.57.4-4.21-1.23l-.43-.32c-1.84-.58-4.56-1.73-5.21-1.51-1.48-1-4.28-1.42-6-2.3,0-.52,1.57.08,3.45.85.93.39,1.94.81,2.86,1.16a13.18,13.18,0,0,0,2.29.78c-1.85-1,1.28.05,2.17.19-2.09-.73-4.16-1.49-6.29-2.09a8.68,8.68,0,0,0-3.35-1.51l.48.2c-2.51-.79-2-.14-4.09-1-.31-.19.4-.12.58-.13-2-.72-1.72-.32-3.08-.67-2-.72,1.11,0-.52-.68C171.24,6.81,170,6,168,5.48c.74.66-8.32-1.12-4,.31-1.66-.24-3.31-.52-5-.65-1.49-.57,3.54-.12,2.26-.81l3.92.89c-.25-.38-2.33-.77-4.65-1.14a27.74,27.74,0,0,1-6.18-1.26,50.22,50.22,0,0,1-5.62-1l.63.68c-2.08-.4-2.74-.72-2.82-.85-1.24-.07-2.36-.18-3.5-.3a6.41,6.41,0,0,1,1.49-.07,4.12,4.12,0,0,0-2.6-.24,25.52,25.52,0,0,1-3.5,0l1.2-.18a8.21,8.21,0,0,0-1.9.15c-.55,0-1.07,0-1.57,0a12.17,12.17,0,0,0,3.1.73c-1.22-.11-2.37-.19-3.49-.25l-3.23-.06-3.1-.1c-1,0-2.06,0-3.11-.11.14-.18,1.89-.48,1.36-.48-2.11,0-4.38.44-4.17.69l-1.15.14a5.26,5.26,0,0,0-1.92-.15,6.33,6.33,0,0,0-1.33,0,9.74,9.74,0,0,1-2.69.62,23,23,0,0,0-2.82.53c.94-.08,2.09-.25,3.26-.43a12.87,12.87,0,0,1-4.4,1.05c3.06-.74-3.39,0,1.28-.81-3.4-.12-1.66.63-5.16,1.07l-2.28.19c.27-.4,3.6-.85,3-.88l-1.55.34c1.5-.6,7.44-1.4,11.07-2.14-1.24.07-2.47.2-3.69.36l-3.69.43-7.19,1.54c-2.45.63-5,1.13-7.41,1.89l-3.6,1c-1.17.39-2.31.8-3.42,1.2s-2.18.78-3.18,1.23-2,.89-2.84,1.34l.31-.13a.53.53,0,0,0-.21.32l-.36.05-1.37.8a26.42,26.42,0,0,0-3.41,1.08c-1.32.49-2.78,1-4.1,1.52,1.69-.6,1.7-.56,2-.41-.19.45-.38.69-2.79,1.74-.13-.21,1.33-.92-.5-.24,1-.33.23.21-.79.74-.7.26-1.62.63-2.35,1s-1.32.57-1.4.47a8.73,8.73,0,0,1,1.53-.77c.57-.39-2.56,1.14-.86,0l-2.33,1.35c-1.48.57.77-.78.15-.6-1,.58-1.79,1.1-2.55,1.61s-1.41,1-2.06,1.54c-1.3,1-2.6,1.93-4.22,3.15.09-.22-.17-.7-.12-.54a31.27,31.27,0,0,0-4,2.94c-1.29,1.16-2.6,2.37-4,3.43a21.82,21.82,0,0,1,2.24-1.86c-1.1.78-2.19,1.53-3.24,2.29l-3,2.35c-2,1.5-3.82,3.15-5.69,4.69s-3.57,3.23-5.39,4.85-3.55,3.4-5.32,5.24l-1.3,2.38-2,1.79a86.87,86.87,0,0,0-8.6,12l-1.78,3-1.62,3.15c-1.13,2.09-2.08,4.32-3.14,6.64a7.6,7.6,0,0,1-1.14,2,2,2,0,0,0-.73.85C9,80.1,8.43,81.41,8,82.6s-.66,2.23-.94,3.27c-.6,2-1,4.11-1.87,7.31.1-.92.08-2.56-.76.18a5.84,5.84,0,0,1-.36,2.7l.06-.94a16.51,16.51,0,0,0-.76,2.57c-.11.51-.24,1.07-.39,1.71s-.29,1.37-.47,2.21a65.28,65.28,0,0,0-1.19,16.72c-.31,5.31-.58-.58-.75.41a17.89,17.89,0,0,0,.21-2.81c0-.29-.18-.22-.24-.64-.07,2,0,4.42-.5,5.43a37.53,37.53,0,0,0,.16,6.79c-.14-1.38.08-2.57.26-1.27-.23,2.27.25,8-.26,7.75a139.83,139.83,0,0,0,2.92,20.45,124.07,124.07,0,0,0,6.35,20.38c1.12,2.12-.58-1.71.07-.56,1.59,3.08.83,2.61,2.23,5l-.72-.93a75.87,75.87,0,0,0,6.16,10.83c-.6-.42,1.4,3-.41.19,1,1.64,1,4.43,2,5.57-.05-.84,0-1.71,0-2.56a6.07,6.07,0,0,1,.78,1.19c.36.56.69,1.07.66.94a41.58,41.58,0,0,0,2.2,4.47c0,.67-1.5-1.87-2.37-3.24-.6.08,2.67,4.81,1,3.1,2,2.89-.05-.57,1.27,1.06L24,202.46l-1.21-2a37,37,0,0,1,4.2,5.35l2.59,2.43c-.06.27.32.79.84,1.42s1.25,1.32,1.8,2L31.3,211a35.48,35.48,0,0,1,3,3.8c-1.17-.77-1.35-1.71-2-1.91L33.93,215c.17-.16,1.44.95.29-.56,1,.77,1.8,1.29,2.87,2.21s2.36,2.24,4.59,4.32c1.71,2.21-2.41-1.78-1.87-.69A26.56,26.56,0,0,0,45,224.5,22.33,22.33,0,0,1,49,227.17,28.26,28.26,0,0,0,52.59,230c.94.62,1.84,1.29,3.81,2.63-1.4-.64,2.54,2.18,3.11,2.91l-1.71-.85c1.23.78,2.32,1.67,1.85,1.59,0-.23,1.36.53,3.08,1.56.86.5,1.8,1.1,2.73,1.62s1.85,1,2.59,1.36l-.34-.57c1.15.58,2.49,1.32,3.9,2s2.82,1.35,4,2c3.69,1.66,3,1,6,1.93,1.44,1,1.16,1.19.48,1.32-.93-.6-2.64-1.27-4.22-2.1-1.21-.45-2.32-.92-3.41-1.37l-3.22-1.31a51.6,51.6,0,0,1-6.33-3.32c-1.14-.28-.42.22.9.85A34,34,0,0,1,70,242.52a1.26,1.26,0,0,1-.42-.16c.19.11.36.21.54.33-1.65-.83-4.33-2.22-5-2.13,2.74,1.47,2.34.45,5.53,2.63,2.64,1.09,4.39,2.76,6,3.52.93.26,1.48.25,2.32.44a11.3,11.3,0,0,1,1.56.47c.65.25,1.45.6,2.53,1-.69-.11-1.39-.21-2.06-.37,4.89,2,2.54.35,7.07,2.15-1.59-.64,1.69.18-1.34-1,.78.21,2,.56,3.36,1s2.79,1,4,1.43c.67.13.18-.11.34-.21-2.67-1.18-4.45-1.2-6.56-2.39l-2.06-.3c-2.45-1.17-2.55-1.63-1-1.19A12.57,12.57,0,0,1,83,247c-.15-.84,2.91,1.44,4,1.21l-1.78-.65c-.3-.37.77-.06,2.19.46s3.25,1.13,4.39,1.56c2.53,1.17,5,1.86,5,2.27-1.2-.32-2.42-.58-3.61-.94,1.76.85,4.61,1.21,6.69,1.83a3.57,3.57,0,0,0,.56.24c-.1-.05-.15-.1-.14-.13a6.34,6.34,0,0,1,1.15.42c1.85.47,4.61.95,6.34,1.34l-.15-.34-.27.13c-1.72-.31-4-1.09-2.64-1,3.87.62,4.55,1.28,5.42,1.74-1,.26-3.79-.68-5.77-1a8,8,0,0,0,2.86.85c1.35.23,3,.59,5,1-1.7.28-4.65-.88-5.63-.57,3.23.69,4.13.58,7.55,1.17-.48.17-3.83-.3-3.66,0,.72.2,1.46.33,2.19.49a21.07,21.07,0,0,0-2.23-.24c-.24,0-.1.13.08.25.35.24.86.52-1.27.17,2,.62,2.87.08,5.68.82-.77-.34-3-1.06-.23-.86,1,.18,2,.42,3.07.56.63.18-.19.25-.93.29s-1.37.05-.38.3,2.19.12,3.28.18c-.09-.16-1.64-.39-.64-.5,1.86.32,3.13-.23,5.34-.35a20.77,20.77,0,0,1,3.77.4c2.22-.11,4.74-.29,7.2-.38,2.46-.24,4.87-.38,6.88-.79-2.74.56.15.52,1.83.58-3.19.38-3.19.82-2.94,1.11,2-.22,3.19-.84,2.19-.9,3.28-.14,2.22-.48,5.1-.55,1.87-.1-.86.6-.21.68,3.52-.48.88-.7,4.7-1.14-.2.09-.54.16-.23.2a14.57,14.57,0,0,0,4.61-1.23,9.11,9.11,0,0,0,1.91-.11c.67-.13,1.34-.31,1.94-.46,1.18-.32,2.05-.55,1.91-.21,4.84-1.36-.81-.14.1-.58.49-.18,1.08-.37,1.72-.54s1.3-.4,2-.58c1.31-.36,2.52-.64,3.1-.76-1.17.36-2.22.85-3.39,1.1l1.14.1a23.87,23.87,0,0,0,3.21-1,11.45,11.45,0,0,0,1.53-.86,15.42,15.42,0,0,1,4.52-1.92c-2.82,1.3-.85.65-2.2,1.46.88-.35,5.29-2.06,2.52-1.27,2.11-.84,3.6-1.36,5.07-1.91a49.35,49.35,0,0,0,4.61-2.79c2.82-1.44,5-2.29,6.43-2.89,5.61-3.62,11-6.77,16.21-11.49l-.41.32c4.2-3.48-2.19,1.13,2.12-2.52-.12.44.58-.05,1.51-.77s2-1.77,2.75-2.3,1.28-1.14,1.88-1.7,1.12-1.16,1.65-1.72c1-1.15,2.06-2.24,3-3.36,1.82-2.3,3.7-4.46,5.73-6.94.06.11-.09.51-.84,1.51a95.16,95.16,0,0,0,7.72-10.79l-.05.2c4.17-5.77,6.71-11.77,9.43-18.55-.17.57-.05.78-.17,1.23l1.28-2.82c.45-1,.83-2.13,1.22-3.19s.73-2.11,1-3a24,24,0,0,0,.51-2.44,19.33,19.33,0,0,0,1.3-3.58,31.66,31.66,0,0,1,1.37-4.55c.17-.29-.06.56-.14.93a71.62,71.62,0,0,0,1.85-7.34c.42-3.08.42-5,.59-7.09,0-1,.07-2.1.17-3.34s.29-2.68.41-4.47c.35-.16.35,1,.27,2.12s-.23,2.4,0,2.51a39.56,39.56,0,0,1,.33-4.66c.2,1.21.15.27.35,1.11a18.26,18.26,0,0,0-.06-3.65l-.17-1.75c-.06-.46-.1-.74-.09-.73s-.18.43-.26,1.85a33.73,33.73,0,0,1-.09-4.6c0-1,.07-2.05.05-3.07s-.09-2-.17-2.87c.06,1.13,0,4.68-.34,3.35,0-4.65-.72-6.17-1.34-9.35-.08-4.28.87,3.08,1.28,2.25.11-.73.34-2.49.69-.7a39.26,39.26,0,0,0-.65-5.19c-.33-1.59-.69-3.12-1-4.82l.15.08c-.19-1.2-.52-2.39-.81-3.58s-.58-2.38-.94-3.52-.7-2.27-1-3.35-.56-2.13-.82-3.12c.17.7.35,1.4.46,2.1a29.42,29.42,0,0,0-1.64-4.25c.26.07-.5-3,.07-1.82a40.64,40.64,0,0,1-2.86-5.95c-1.23-2.48-2.44-5-3.29-5.91-.43-1.21.31-.44.64-.17,1.23,2.78,1.49,3.78,2.42,5.12-1-2.3-1.64-4.07-1.33-3.79-1.46-2.12-4.44-7.33-5.56-8.14-.75-1.68-1.55-3.26-.9-2.91-2.22-3.18-2-2.18-1.7-1.37s.45,1.53-2-2c-1.93-3.48,2.6,2.9-.39-1.68l.62.8a4.38,4.38,0,0,0-2-2.77,8.41,8.41,0,0,1-2.88-2.58c0-.81,2.21,2.22.6-.46a37.29,37.29,0,0,0-3.66-3.43A49.38,49.38,0,0,1,222,60.38l.61.3L220.94,59l-1-1-1.07-.95c-1.43-1.28-2.85-2.58-3.85-3.4,0-.16.26.08.65.39-3.64-3.16-1.75-1-4.63-3.76l-1-.48c.73.68,1.81,1.66,3,2.62.58.49,1.19,1,1.78,1.41s1.13.91,1.65,1.26c-2.06-1.42,2.49,3.09,1.25,2.6l.49.19c4.25,4.92,9.78,11.08,14.11,18a26.77,26.77,0,0,1,2.19,2.88c.59,1,1.13,1.94,1.67,2.91,1.14,1.92,2,4,3.48,6.36,1,.48.57.87,2.63,5.12-1.11-2.25-.54-.08,0,1.4a28.17,28.17,0,0,1,1.39,2.85c.22,1,1.59,6.73,2.56,8.7.51,2.83-.34-.6-.67-1.15,0,1.19.84,2.18.88,3.15,0,0-.08,0-.18-.31l.74,2.92c.21.9.33,1.77.49,2.64.3,1.75.64,3.5.89,5.76.32.14.54,1.24.74,2.55s.26,2.85.48,3.85c-.28-.64.06,2.56,0,3.86l.55,2.42c.51,2.41-.18,3.37,0,6.5l.11-.76c0,.58,0,1.39,0,2.31s-.16,2-.27,3-.25,2.06-.38,3-.34,1.69-.48,2.23a85.36,85.36,0,0,1-5.54,26.36,152.75,152.75,0,0,1-12.24,24.89c-.6,1.32.82-.74.46.37a42.32,42.32,0,0,1-2.57,4.08c1.16-1.4.83-1.27.84-1,.56-.89,1-1.84,1.54-2.76.11-.1-.05.2.18,0,.5-.93,1.07-2.05,1.79-3.2-.87,1.75-.79,2.44-2.33,4.64a6.31,6.31,0,0,1,.55-1.13,28,28,0,0,1-2.1,3.37c-1.23,1.61-.83,1.28-1.14,1.38-.64.84-1.24,1.7-1.9,2.51l-2,2.42a18.27,18.27,0,0,1-1.3,2.07c-.5.64-1.05,1.25-1.55,1.79-1,1.09-1.91,1.92-2.26,2.29.13-.79,2.61-3.24,3.28-4.67-.54.52-1.12,1-1.68,1.53l.16.31-2.14,2.38.07-.17a2.69,2.69,0,0,1-1,1.27c-.13.08-.41.24-.18,0l-1.44,1.78c.67-1.19-1.46,1.39-1.5.88-5.41,5.07-6.48,7-11.95,10.61.94-.52-1.26,1.77-3,2.88-1,.58-1.31.68-.78.14l-2.07,1.66a45.65,45.65,0,0,0-4.51,2.44c-.78.46-1.59,1-2.49,1.5s-1.89,1-3,1.54l.14-.27c-.75.5-1.51,1.06-2.42,1.56s-2,1-3.19,1.57l.3-.52c-3.06,1.21-2,1.71-5.44,2.92.15.33,2.36-.38,2.83-.2-1,0-4.6,1.45-3.66,1.34-3.37,1.44-2.39.86-2.71.9l-2,.93c-2.43.85-.92-.18-.1-.69a13.4,13.4,0,0,1-1.67.78c-.59.21-1.19.39-1.82.56l-3.84,1c.34-.14.67-.31,1-.47-1.14.35-2.31.56-3.47.84a28.64,28.64,0,0,1-3.87,1.16c-1.45.3-3,.57-4.48.78l1.95-.87c-2.11.16-1,.37-1.57.56a16.72,16.72,0,0,1-5.77.51C142.39,253.67,137.06,252.75,132.55,253.41ZM104.65,6.54l-.5,0C105.23,6.25,105.84,6,104.65,6.54ZM76.59,15.88c3.18-1.63,2.24-.94,2.54-.94-.82.32-1.54.61-2.21.91l-1.84.9c-1.18.58-2.33,1.11-3.75,1.76a1.59,1.59,0,0,1,.81-.08,9,9,0,0,1-2.73,1C70.49,18.2,78.11,15.48,76.59,15.88Zm65-14.77-.43.09h0Zm-17.94.55a4,4,0,0,0-1.25-.09A2.79,2.79,0,0,0,123.7,1.66Zm-35,6.62A16.16,16.16,0,0,0,84.77,9.6C85.39,9.41,86.46,9,88.65,8.28Zm-69.4,183.8c-.61-.9-1.8-2.57-1-.88.61.69,1.18,2.36,1.83,2.86l.08.16C19.7,193.23,19.41,192.36,19.25,192.08Zm83.19,60.34c-.23.15-1,.17-.59.44l-.29-.09c.24.13.45.24.23.23a21.09,21.09,0,0,0,2.29.59C104.51,253,106.28,253.35,102.44,252.42Z"/><path class="cls-1" d="M68.68,241.88l.87.48Z"/><path class="cls-1" d="M103.92,253.54a18,18,0,0,0-2.07-.68A10.44,10.44,0,0,0,103.92,253.54Z"/><path class="cls-1" d="M196.8,18.13l-1-.38,1.78,1.06c3.15,1.43,3.44,1.27,4.35,1.38-1.45-.59-2.57-1.15-3.78-1.78s-2.56-1.23-4.37-2.05Z"/><path class="cls-1" d="M196.14,15.45a10.93,10.93,0,0,0-1.45-1l-.56-.05Z"/><path class="cls-1" d="M156.84,1.92l3.27.75C161.19,2.69,157.41,1.71,156.84,1.92Z"/><path class="cls-1" d="M170.46,8.41l1.72.24a11.51,11.51,0,0,0-3.85-1C170.36,8.11,168.79,8,170.46,8.41Z"/><path class="cls-1" d="M147.92.66c-1.08.3-3.33-.46-4-.15C144.76.48,147.71,1,147.92.66Z"/><path class="cls-1" d="M149.82,4.58c1,.5,2.73.39,4.77.76C152.88,5.1,150.54,4.42,149.82,4.58Z"/><path class="cls-1" d="M130,1.07c.17-.28,1.58-.27,3.16-.21a14.86,14.86,0,0,1-1.58.26c2.63-.22,2.81-.21,4.91-.3-2.1-.24-5.27-.3-4.94-.66C130,.41,128,.88,130,1.07Z"/><path class="cls-1" d="M144.87,4.14c1.7.27,2.71.53,4.75.81-.33-.23-1-.65-3.39-.79l.89-.24C144.91,3.49,148,4.41,144.87,4.14Z"/><path class="cls-1" d="M120.27,1l1.07,0c.61-.12,1.27-.23,1.93-.32l2-.18A15.35,15.35,0,0,0,128.33,0c-1.49.09-3.16.22-4.63.37S121,.79,120.27,1Z"/><path class="cls-1" d="M136.45,3.08l-.34.44c2.41.15-.17-.16.7-.24a10.2,10.2,0,0,0,2.22.11C136.29,3.35,138.87,3,136.45,3.08Z"/><path class="cls-1" d="M128.54,3.65,125.47,4l2.42.37C131.48,4,128.06,4.08,128.54,3.65Z"/><path class="cls-1" d="M124.73,3.55l-.35-.07c-1.53.3-3,.72-4.56,1.07C122.54,4,122.7,4,124.73,3.55Z"/><path class="cls-1" d="M69.63,16.05c-.19.21.35,0,.8-.14s.81-.33.23-.16C71.05,15.33,67.68,16.89,69.63,16.05Z"/><path class="cls-1" d="M81.28,14.55A32,32,0,0,0,78,16c-1.32.64-2.65,1.46-3.47,1.92C76.51,16.76,81.67,14.67,81.28,14.55Z"/><path class="cls-1" d="M73.9,18.29l.67-.38C74.27,18.07,74.05,18.19,73.9,18.29Z"/><path class="cls-1" d="M18.47,72.37a3.66,3.66,0,0,0-.22.52Z"/><path class="cls-1" d="M19.26,70.67a22.72,22.72,0,0,0,1.12-2.13,7.71,7.71,0,0,0,.72-1.66c-.23.44-.47.86-.7,1.29l-.63,1.31c-.42.89-.84,1.82-1.3,2.89C18.87,71.59,19.51,70.72,19.26,70.67Z"/><path class="cls-1" d="M11.87,87.06c.2-.93.69-2.12.41-1.88C12,85.65,11.54,87.6,11.87,87.06Z"/><path class="cls-1" d="M26.38,205.54c1,1.48,1.76,2.27,1.68,1.72C26.8,205.66,27.35,206.64,26.38,205.54Z"/><path class="cls-1" d="M29.54,209.05l0,.28c.19.35.37.72.58,1.06C29.93,210,29.74,209.49,29.54,209.05Z"/><path class="cls-1" d="M37.52,218.63a3.13,3.13,0,0,1-.61-.45C37.43,218.66,37.87,219.07,37.52,218.63Z"/><path class="cls-1" d="M36.65,217.93l.26.25Z"/><path class="cls-1" d="M36.15,217.27h-.21c.16.13.44.4.71.66A2,2,0,0,1,36.15,217.27Z"/><path class="cls-1" d="M40.14,221.32c-.47-.66-1-1.28-1.41-2-.92-.82-.48-.28,0,.3s.87,1.14-.17.45Z"/><path class="cls-1" d="M46.34,226.84a23.37,23.37,0,0,0,3,2.34,8.25,8.25,0,0,1,2.32,2c2.62,1.88,2.45,1.48,2.37,1.16s-.09-.52,3,1.51c-2.76-2.09-3.56-2.48-4.33-2.76s-1.46-.53-3.79-2.55c1.07,1,.64.79-.16.19S46.75,227.12,46.34,226.84Z"/><path class="cls-1" d="M46.07,225.48c-.45,0,1.72,1.85,2.5,2.31A12.3,12.3,0,0,0,46.07,225.48Z"/><polygon class="cls-1" points="56.37 234.43 57.86 235.73 58.37 235.89 56.37 234.43"/><path class="cls-1" d="M62.5,238.68l-1.78-.79C61.32,238.14,63.73,239.71,62.5,238.68Z"/><path class="cls-1" d="M71.31,244.22c1.57.92,3.33,1.06-.12-.55l.76.42C71.7,244.08,73.41,245.23,71.31,244.22Z"/><path class="cls-1" d="M93.86,252.51c-1.18-.37-2.58-.8-2.38-.57,1.08.33,2.16.66,3.27.91Z"/><path class="cls-1" d="M93.88,250.79c-.93-.75-3-1-5-1.84C91.21,249.85,90.91,249.8,93.88,250.79Z"/><path class="cls-1" d="M97.41,254.17a17.32,17.32,0,0,1-3.07-.87A7.93,7.93,0,0,0,97.41,254.17Z"/><path class="cls-1" d="M102.69,255.39c1,.42-.29.17.5.48a23.83,23.83,0,0,0,6.13,1.21c-.58-.3-1.33-.93-.33-.95-3.75-.52-5.81-.29-7.47-1.29-1.08,0-2.18,0-3.26-.09C101.18,255.66,100.66,254.83,102.69,255.39Z"/><path class="cls-1" d="M95.67,252.08l1.86.8c-.32-.34,1.16.06,2.21.27C99.37,252.51,96.78,252.37,95.67,252.08Z"/><polygon class="cls-1" points="123.53 258.31 127.84 258.39 126.45 258.3 123.53 258.31"/><path class="cls-1" d="M126.29,258.61l.1.16c1.11,0,2.21-.07,3.31-.14C128.56,258.65,127.42,258.62,126.29,258.61Z"/><path class="cls-1" d="M130.8,258.94l-.51,0c-.85.06-1.7.05-2.55.05Q129.27,259,130.8,258.94Z"/><path class="cls-1" d="M139.82,258.84l-.8-.18c-1.1.11-3.29,0-3.07.25A18.16,18.16,0,0,1,139.82,258.84Z"/><path class="cls-1" d="M167.51,248.16c-.67.36-.2.35.27.35l1-.7A5.4,5.4,0,0,1,167.51,248.16Z"/><path class="cls-1" d="M172.45,247.16c.91-.49,1.84-.94,2.74-1.45-1.67.6-2.6,1-3.47,1.38a23.76,23.76,0,0,1-3.14,1.3c1.31-.22,2.92-1.19,4.52-1.62Z"/><path class="cls-1" d="M222.46,212.21c0,.39.46-.17-.9,1.7.48-.63,1-1.23,1.43-1.81l1.36-1.82c.9-1.23,1.92-2.44,2.93-3.94-.49.4.79-2,.06-.81s-1.47,2.25-2.24,3.34l.21-.59C223.42,210.38,224.46,210,222.46,212.21Z"/><path class="cls-1" d="M223.86,62c.37.17.1-.26-.16-.7C221.84,59.7,224.23,62.37,223.86,62Z"/><path class="cls-2" d="M473.74,159.47c.11.23.44.72.47.56l-.47-.88Z"/><path class="cls-2" d="M475.32,160.64a6.9,6.9,0,0,0-1.05-2c.41.87.18.55.68,1.58,0,.15-.33-.17-.51-.49.11.24-.25-.1,0,.46.53.57.69.51.5-.12A2.86,2.86,0,0,1,475.32,160.64Z"/><path class="cls-2" d="M484.75,156.46l-.12-.07A.19.19,0,0,0,484.75,156.46Z"/><path class="cls-2" d="M490.37,153.52s0,.14.06.21A.27.27,0,0,0,490.37,153.52Z"/><path class="cls-2" d="M491.87,153.86l-.09,0C491.85,153.9,491.9,153.93,491.87,153.86Z"/><path class="cls-2" d="M484.75,156.46l.31.17C484.9,156.35,484.86,156.47,484.75,156.46Z"/><path class="cls-2" d="M475.22,157.86a.89.89,0,0,0,.06.27.44.44,0,0,1,0-.13Z"/><path class="cls-2" d="M482.84,158.63l0,0,.19.37Z"/><path class="cls-2" d="M481.12,159.91a8,8,0,0,0-.56-1,1.55,1.55,0,0,1,.22.54A4.05,4.05,0,0,0,481.12,159.91Z"/><path class="cls-2" d="M477.46,160.49v.13A.57.57,0,0,0,477.46,160.49Z"/><path class="cls-2" d="M484.22,158l.18.24A1.08,1.08,0,0,0,484.22,158Z"/><path class="cls-2" d="M470,138l0-.15C470,138,470,138,470,138Z"/><path class="cls-2" d="M468.56,133.37l0,0,.12-.46Z"/><path class="cls-2" d="M494.11,153.71h0C494.11,153.81,494.12,153.78,494.11,153.71Z"/><path class="cls-2" d="M507.49,139.48c-1.08.51-2.27.44-3.35,1A23.57,23.57,0,0,0,507.49,139.48Z"/><path class="cls-2" d="M475.33,157.93a.12.12,0,0,1,.06-.06A.05.05,0,0,0,475.33,157.93Z"/><path class="cls-2" d="M504.14,140.52h0l-.1.05Z"/><path class="cls-2" d="M498.41,150.37a3.14,3.14,0,0,0-.34-.22A1.4,1.4,0,0,0,498.41,150.37Z"/><path class="cls-2" d="M494.17,151.65l.14,0C494.24,151.65,494.2,151.64,494.17,151.65Z"/><path class="cls-2" d="M499.75,148.1c.12,0,.26,0,.22-.06l-.13,0C499.93,148.08,500,148.13,499.75,148.1Z"/><path class="cls-2" d="M502.05,146.63l-.27,0s0,0,0,.06Z"/><path class="cls-2" d="M475.48,138.94c0-.24.06-.5.1-.76C475.47,138.77,475.15,138.92,475.48,138.94Z"/><path class="cls-2" d="M475.47,158.26a.93.93,0,0,1-.14-.33.09.09,0,0,0,0,.07A1.3,1.3,0,0,0,475.47,158.26Z"/><path class="cls-2" d="M492.8,144.65l.16,0C492.86,144.65,492.81,144.64,492.8,144.65Z"/><path class="cls-2" d="M488.28,141.93l-.09.08S488.24,142,488.28,141.93Z"/><path class="cls-2" d="M492.92,144.57c.38.11.61.16.77.2l-.28-.09Z"/><path class="cls-2" d="M475.58,138.17h0Z"/><path class="cls-2" d="M473.25,139.67c.26.09.38-1,.59-1.63.39-.23,0,.83-.07,1.41.27-.24.66-1.19.8-1.11a1.45,1.45,0,0,1-.11.46c.43-.8.65.11,1.15-.9a1.12,1.12,0,0,1,0,.27c.09-.55.22-1.09.32-1.48.13,0,.39-.63.27.09-.07,0-.15.24-.24.45l.21-.27c-.14,1-.26.3-.44,1,.32-.27.81-1,.93-.7-.2,1-.52.22-.48,1.17L476,138c-.16,1.61-.15-.16-.36,1.57.32.38.56-.4.87,0,.22-.53.17-.82.39-1.35.79-.86-.17,2.59.55,1.37.26-.63.61-1.88.73-1.14l-.37,1.09c.35.2.61-1.56.81-.71-.17.42-.38.3-.36.45,0,.94.34-.59.53-.55l-.2,1c.44-.06,1-.67,1.53-.75a2.34,2.34,0,0,0-.22.91c.68-.36,1.16.41,1.55,1.13l.41-.81c.05,0,0,.41-.1.56.13.38.15-.54.33-.85.13,0,0,.53-.1.77.54-.64,1.43-1.31,1.59-.3l-.14.24c.22.42.77-1.67.86-.81l-.09.14c.56.53,1.47-.07,1.66,1.34.39-1.21.51.71,1-1,.17.94,0,1.22.38,1.92.12.11.47-1,.68-1.16l-.21.9.47-.88-.14,1.1.22-.19a1.38,1.38,0,0,1,0-.69c.36-.35.47.77.36,1.24l.79-.62a1.81,1.81,0,0,1-.37.67c.55-.84-.17,1,.33.19a3.9,3.9,0,0,1,.2-.71c0,.58.35.67.66.5l-.2.61c.41.26,1-.07,1.51.06a2.24,2.24,0,0,1,.37-1.46l-.18,1c.24-.56-.06-.39.31-1.06.16.15-.14,1.11-.32,1.39l.31-.27c-.06.28-.15.42-.25.78.24-.57.16,1.05.54.06l0,.28s.18-.29.28-.32a6.64,6.64,0,0,1,.75-1.19c0,.28-.32.88-.2.83.39-.33.56-.59,1-1a8.54,8.54,0,0,1-.91,1.07,9.64,9.64,0,0,0,1.08-.54c.3-.25.41-.37.69-.57s-.21.28-.62.56l-.09.06c.75-.41.34.07-.22.45s-1.16.7.06.17l-.12.05c.44-.18.92-.35,1.42-.51-.12.11-.94.36-1.63.69,1.07-.4,1.1-.35,1-.27s-.34.18.51-.06c-2,.68-2,.65-1.62.59s1-.17-.6.2l1.16-.27c1.17-.25-.64.16-.91.22l1.7-.38c.78-.11.66,0,.07.15a27.45,27.45,0,0,1-2.87.47c-.28,0,5.93-.5,3.09-.2l-2,.13c1.2-.07,1.06,0,.93.05s-.28.08.48.19c-.37,0-.88-.06-.86-.07-1.23-.07-.12,0,.78.16-.14,0-.85-.09-1.33-.14-.66-.08,1.34.24.24.09l-.42-.08a6.26,6.26,0,0,0,1,.24c-.61-.09.36.2-.34.07,1.13.38-.66-.12.91.44-1.63-.57-1.36-.43-.74-.07-.42-.21-.48-.19-1.07-.49l.2.14c.15.09.37.23.72.42-.85-.42-.54-.23-.35,0s.31.37-.56-.31a2.08,2.08,0,0,1,.48.8,1.51,1.51,0,0,1,.06.36.48.48,0,0,1,0,.17,2.4,2.4,0,0,1-.11.23,1.26,1.26,0,0,1-.24-.58.29.29,0,0,1,0-.14.11.11,0,0,0,0-.05c0-.06,0-.13-.4-.69l.22.45a4.15,4.15,0,0,1,0,.61c0,.38-.07.67-.39.68s-.25-.54-.33-.76c-.16.76-.95.46-1,1.34a1.24,1.24,0,0,1-.11-.36c-.06.08-.29-.05.05.46v-.19c.6.67.68,1.77.92,2.18-.81-1.57-.64-.12-1.62-2.13a1.84,1.84,0,0,0,.33.76c-.14-.06-.29-.24-.47-.69-.1.47.35,1,.08,1.11-.15-.25-.16-.38-.33-.7.19.58.37,1.15,0,1.08-.08-.16-.23-.34-.17-.38-.32.32.19,1.71-.52,1.5-.57-1.16-.37-.27-1-1.2l-.05.43.38.4c-.2.11.07.9-.3.7l-.1-.48-.25.41.43.23c.12.61.79,1.18.36,1.08,0-.13-.2.12-.66-.38h0c.1.36.2.74-.09.6s-.64-1.06-.79-1.25c.41.85-.32.51.1,1.43a5.09,5.09,0,0,0-.48-.81l.33.69a1.58,1.58,0,0,1-.54-.64c-.34.05.85,1.14.2.83a1.7,1.7,0,0,1-.09-.29c-.49-.06-.36.81-.86.68-.69-.89.11-.4-.5-1.14-.32.45-.16,1.71-.72,1.75l.15.05c.79,1.38-.74-.46-.54.3a2.61,2.61,0,0,0-.33-.62c-.42,0-.37.7-.53,1.39l-.17-.38c-.36-.2-.55.11-.83.07.17.37,0,.38.41.84-1.81-1.6-.39,1.73-1.93.42.06,0,0-.4-.1-.37l-.22.59a3.67,3.67,0,0,0,.66.72c.17.38.22.72.12.79-.06-.51-.6-.94-.89-1.21.13.17.23.38.35.56-.89-.9.71,1.2,0,.69l-.18-.32c0,.23.15.7,0,.69-.48-.64-.08-.39-.43-1-.14.15.48,1.49-.1.92-.05-.24,0-.3,0-.54-.68-.68-.57-.47-.77-.52h0l-.52-.17.21.17c.91,1.89-.23.59.22,1.93-.41-1.27-.35-.66-.82-1.44a1.76,1.76,0,0,1-.58-.57c.26.71-.54-.34-.15.69-.17-.24-.16.06-.53-.57-.05.3.32.4.5.72.27,1-1.29-.62-.94.79,0,.69.43,1.56.39,2.17a2,2,0,0,1-.49-.95c-.4-.25-.49-.11-.47.28a2.06,2.06,0,0,0-.48-.64c-.09.14.49,1,.09.69a11.72,11.72,0,0,1-.51-1.07c0,.33.14.88.12,1.2a3,3,0,0,1-.44-1,1.71,1.71,0,0,0,.17,1.39l.27.17c0,.08-.41-.56-.44-.71-.19-.63.37.09.54.33l0,.23c1,1.38.31-.52.58-.57l.58,1.11-.32-1a2.6,2.6,0,0,1,.62,1c.49.42-.1-.46.41,0a.38.38,0,0,1,.11.19l0-.42c.11.24.5.73.31.64.67.42-.05-1.08.56-.35l0,.08c.17-.61-.45-.8-.74-1.9l1.42,1.78-.46-.79c.06,0,.18,0,.36.32-.19-.62-.24-.32-.47-.87.64.58.33-.67,1.16.53-.31-.63-.48-.33-.53-.88.9,1.29.1-.38.66.12.38.71,0,.46.55,1-.63-1.23.51,0,.52-.29-.58-.92.08-.59.14-1.06.18.32.79.2,1.24.39l.09.16c-.55-1-.19-.94-.14-1.25a3.08,3.08,0,0,1,.52,1.11l.16-.11a1.07,1.07,0,0,1-.16-.68l.41.72c.19-.18-.08-1.1.5-.82-.4-.66-1.38-1.66-1.35-2.28a5.07,5.07,0,0,1,.64,1.12c0-.06-.1-.35.05-.23l.26.67c.29.17-.25-.54-.11-.55.31.5.3.31.54.71,0,.07-.22-.15-.14.08a1.43,1.43,0,0,1,.79.57c-.19-.28-.42-.68-.38-.8.2-.17.46.56.75.73-.17-.38.2-.11-.27-.86.07,0,.3.3.46.49-.1-.4.47-.43-.17-1.15l-.06,0v0h0c-.1-1,1-.08,1.21-.63l.16.25c0-.43.39-.49.2-1.13.07,0,.45.36.61.68,0-.3-.11-.59.4-.34.1.55.3.35,0,.43.35.08.66.45.46-.39.33.7.68.7.66.45l-.44-.36c.05-.17.19-.18.33-.19l.48.88c1.11.73-.3-2.26,1.14-.77-.26-.66-.51-.26-.84-1,.28,0,1.26,1,1.33,1,.58.28-.52-1.4,0-1.27-.23-.28-.78-1.06-.73-1.48.27,0,1.05,1.1,1.08,1.42,0,.06-.12,0-.18-.13a.69.69,0,0,0,.28.61l-.16-.31c.3.24.56,0,.81.56a.66.66,0,0,0-.46-.62c.54.27.42-.25.88-.13-.15-.14-.42-.47-.37-.49.64.11-.19-.68,0-1,.45.36.64,1.13.67.57a1.84,1.84,0,0,1,.64,1.06c-.12-.74.7.08.91.1l0,.33c0-.2,0-.24.12-.28l-.46-.55c.14.06.21,0,.37.27a13.37,13.37,0,0,1-.88-1.6c.29.24.1-.53.64.25-.49-.07.55.77.36,1.08,0-.13.06-.17.2-.11a.38.38,0,0,1,.1.23c.77.51-.43-1-.1-1.18.25.48.62.8.61.68-.13.07-.54-.71-.64-1.13.43.21.06-.41.19-.43l-.22-.09c-.25-.48-.11-.48-.05-.72.23.35,0,.33.17.45-.35-.89.88.59.76-.09.3.24.55.84.77,1-.12-.74.66.44.62-.21a1.72,1.72,0,0,1-.57-1.1l-.16.7-.29-1.06c-.13.08,0,.56-.17.51a1.48,1.48,0,0,0-.48-.88c.75.79,0-.75.61-.27l.95,1.49c.38.23.34,0,.42-.39s.14-.78.6-.81l-.4-.11c-.37-.6.3-.31.3-.65a3.05,3.05,0,0,0,1,.74c-.34-.31.53-.29-.37-1.13.3.13.6.24.91.35.82-.14-.93-1.41-.37-1.53.5.45,1.12.55,1.23,1,.17-.1.43-.13,0-.36.48.13-.38-.71.34-.5-.21-.17-.86-.5-.65-.57s.32.14.32.14c-.32-.14-.21-.34-1.07-.57,1.22.32,1.52.09,1.72-.12s.34-.41,1.62-.28a1.35,1.35,0,0,1,.38-.76c.25,0,.44.07.29.09,1.26-.15-2.36-.51-1-.63,1.75,0,.61.23,1.32.21,1.57.15,1.63,0,1.53-.11s-.34-.29.79-.34l.12.06c1.41-.12-.65-.47,0-.69h.53c-1.54-.19-1.74-.45-2-.62a17.73,17.73,0,0,0,2.26-.05c-.07-.09-2.51.13-2.68,0,.93-.1,1.89-.28,3.65-.42l-.23.2c2.37-.24.36-.28.91-.41l1-.06c.23-.33-2.35-.07-1.69-.4l-.84.12c-2.42.16,1.71-.31,0-.23l2.85-.41c-.46,0-2.08,0-2.38-.1a19.42,19.42,0,0,1,3.69-.16c.22-.14.49-.42-.86-.25.21,0,.82,0,.3.07a19.77,19.77,0,0,1-2.5.16,3,3,0,0,1-.74,0c2.86-.49,2.94-.62,2.79-.74s-.48-.22,1.34-.69c-1.39.1-1.58,0-1.66-.25s0-.46-.7-.56c-3.06,1.1-.39,0-3.78,1-.41,0-.43,0-.23-.08a15.11,15.11,0,0,0,1.33-.81,10.6,10.6,0,0,1,1.64-.44c-.3-.22,1.13-.53,1.56-.92-1,.42-1.79.53-1.7.29-.31.22-.63.43-1,.64-1.18.21-.68-.06-.23-.35s.87-.58-.28-.36l1.15-.32c-.93.12-1.64-.41-4,.54a3.35,3.35,0,0,1,1.14-.6,5.49,5.49,0,0,0-2.22.07c-.84.11-1.47.18-1.36-.26l.53-.33c-.32.06-1.13.59-.9.18.18-.14.49-.34.43-.38-.25.1-1.17.52-1.16.26l.64-.37c-.21-.35-.86-.19-1.49.09a10.39,10.39,0,0,1-1.69.72c.86-1.15.38-1.71.09-2l.11-.16a2.36,2.36,0,0,0-1.74.14,9.06,9.06,0,0,0-.83.38c-.29.13-.38.29-.58.37,0-1.48-1.05-.87-1.43-1.79a2.33,2.33,0,0,1-.39,1.1c-.07-.29-.58.8-.28-.37l0,0c.19-1.18-.16-.94-.37-1l-.41,1.53c0-2.37-1.66.47-1.48-1.61-.23.35-.4.3-.62.66l.2-.83a.94.94,0,0,0-1-.36l.24-.57c-.25-.12-.91,2.3-1.16,2.29l.22-1.25c-.45-.09-.65-1.29-1.37-.28.05-.18.15-.53.23-.56-.2-.09-.62-1-1,.67.26-1.1-.45-.22-.81.21l.23-.81c-.46,1-.53,1.27-.89,1.49,0-.12.1-.66.14-.43-.13-.49-.37.72-.54.22l.23-.49c-.22-.12-.27.16-.55.73-.22.29-.39-.31-.25-1.05-.14.44-.41,1-.5.76a1.41,1.41,0,0,1,.19-.52c-.26-.65-.82.8-.89-.06a2.28,2.28,0,0,0,.07-.5c.31.1.55.2.51.26a6,6,0,0,1,.41-1.93c-.34.51-1,1.66-1.14,1.25a1.57,1.57,0,0,1,0-.27l0-.08c0-.09-.1,0-.18.08-.05-.14-.08-.24-.15-.27.12-.63-.21-.41-.33-.47-.19.83-.32.65-.33,1.37,0-.07.05-.09.14-.11s.05,0,.08-.07l0,.07a2.06,2.06,0,0,1,.33,0c-.2.39-.39.72-.42.23-.2.5-.4,1-.5,1.28.11-1.19-.08-1.88,0-2.6-.5.37-1,.08-1.6,1.56-.15.17,0-.47,0-.72s.17-.1.26-.31c-.31.34-.68,0-1,1.06-.15-.55.4-.95,0-.87l.13-.32c-.33-1.9-1.88,2.45-2.17.05a.89.89,0,0,1,0,.4c-.71-1.2-2.16.44-2.71-1.33-.19-.37-.39.31-.68.79l.16-.89-.52.94c-.57.65-.15-2.32-1-1l-.08.6c-.15-.15-.65.22-.45-.46-.05.11-.21.6-.2.28l.1-.46-.63.68c-.25-.42.5-1.82,0-2a3.63,3.63,0,0,0-.85,1.54c.06,0,.12.34,0,.8l-.23.2a9.88,9.88,0,0,0-.64,3.75l.48-.76-.06.69-.25,0c0,.65.2.12.39-.23a2.94,2.94,0,0,0-.06.76l.6-1.23c-.09.54-.38,1-.26,1.36.27-.57.16-1.22.47-1.56,0,.65-.17,1.14.12.65a1.66,1.66,0,0,1-.25.71c.24-.39.42-.09.67-.79,0,.8.53-.08.2,1.2.12-.29.5-1,.65-1-.62,1.48.47.21,0,1.85.52-1.34.8-.46,1.3-1.15,0,.1-.14.32-.15.24.15.16.1.59.15.88a7,7,0,0,1,1-2c-.06,1.15-.46,1.31-.65,2.38.21-.93.6-.83.71-1.62a4.31,4.31,0,0,1-.08,1.33c.38-1.42.22-.2.57-1,.07.76-.27,1.35.1,1A1.63,1.63,0,0,1,473.25,139.67Zm6.89-.94h0l-.14,0Zm.53.11a.48.48,0,0,0-.22-.08c.05-.29.14-.58.19-.55S480.65,138.59,480.67,138.84Zm.26-6c.12-.09.1.08.07.25a.43.43,0,0,0-.17.06l0,.1C480.85,133.14,480.89,133,480.93,132.89Z"/><path class="cls-2" d="M480.52,133.93s0,0,0,0v.2l.09-.25Z"/><path class="cls-2" d="M484.61,156.38h0a.59.59,0,0,1-.08-.08Z"/><polygon class="cls-2" points="487.59 142.19 487.64 141.98 487.55 142.15 487.59 142.19"/><path class="cls-2" d="M480.53,155.56a1.17,1.17,0,0,0-.15-.16Z"/><path class="cls-2" d="M479.34,156.09l-.32-.15A.91.91,0,0,0,479.34,156.09Z"/><path class="cls-2" d="M478.27,156.28l.18.31h0Z"/><path class="cls-2" d="M491.08,146.93a.06.06,0,0,0,0-.06C491.08,146.69,491.06,146.77,491.08,146.93Z"/><path class="cls-2" d="M488.17,151.12a3.23,3.23,0,0,1-.09-.42C488,150.69,487.91,150.72,488.17,151.12Z"/><polygon class="cls-2" points="492.78 144.64 492.79 144.65 492.8 144.65 492.78 144.64"/><path class="cls-2" d="M488.28,150.6c-.16-.1-.2,0-.2.1S488.29,150.74,488.28,150.6Z"/><path class="cls-2" d="M474.43,158.27h-.06l.07.12Z"/><path class="cls-2" d="M474.44,158.39v.11S474.48,158.47,474.44,158.39Z"/><path class="cls-2" d="M474.47,158.74l0-.24S474.36,158.52,474.47,158.74Z"/><path class="cls-2" d="M475.75,157.89l-.15-.26A2.17,2.17,0,0,0,475.75,157.89Z"/><path class="cls-2" d="M476,157.6c-.12,0-.55-.42-.56-.18l.12.21C475.41,157.21,476.24,158.09,476,157.6Z"/><path class="cls-2" d="M479.48,159.89l-.41,0c.22.24.52.57.44.71C480.39,161.18,479,160,479.48,159.89Z"/><path class="cls-2" d="M480.61,159.73c-.07.22.26.4.35.56C480.9,160,480.88,159.9,480.61,159.73Z"/><path class="cls-2" d="M487,155.69l.4.65C487.41,156.18,487.19,156.09,487,155.69Z"/><polygon class="cls-2" points="486.03 151.57 485.66 151.24 485.99 151.87 486.03 151.57"/><polygon class="cls-2" points="489.69 155.72 489.7 155.85 489.74 155.49 489.69 155.72"/><path class="cls-2" d="M502.61,147.15l-1.28-.3C501.43,147,502.76,147.39,502.61,147.15Z"/><path class="cls-2" d="M508,142.55c1.13-.16,2-.38,1.09-.33C508.81,142.34,507.83,142.54,508,142.55Z"/><polygon class="cls-2" points="490.79 135.17 490.97 134.88 490.7 135.09 490.79 135.17"/><path class="cls-2" d="M294.89,140.46c-.22.16-.47.7-.13.75l.69-.75Z"/><path class="cls-2" d="M295.82,143.06a2.69,2.69,0,0,0,1.59-1.68c-.79.66-.67.27-1.58,1.07-.33,0-.32-.54-.09-.83-.22.16-.31-.43-.78,0,0,.86.42,1.14,1.2.85C296.16,142.74,295.93,142.92,295.82,143.06Z"/><path class="cls-2" d="M323.1,157.42l-.15-.18A.34.34,0,0,0,323.1,157.42Z"/><path class="cls-2" d="M341.29,163.58a.24.24,0,0,0-.26.16C341.18,163.7,341.3,163.67,341.29,163.58Z"/><path class="cls-2" d="M344.24,165.39l-.17-.11C344.12,165.39,344.18,165.46,344.24,165.39Z"/><path class="cls-2" d="M323.1,157.42l.38.46C323.62,157.59,323.31,157.57,323.1,157.42Z"/><path class="cls-2" d="M300.67,143a.67.67,0,0,0-.37.1,1.27,1.27,0,0,1,.28,0Z"/><path class="cls-2" d="M314.92,155.07l-.14-.06c-.09.09-.18.2-.28.32Z"/><path class="cls-2" d="M308.89,152.59c.11.1.51-.64.72-1-.22.28-.39.38-.53.38A2.52,2.52,0,0,0,308.89,152.59Z"/><path class="cls-2" d="M300.31,146.69l-.21,0A1.65,1.65,0,0,0,300.31,146.69Z"/><path class="cls-2" d="M319.17,157a1.6,1.6,0,0,0-.05.31A.81.81,0,0,0,319.17,157Z"/><path class="cls-2" d="M494,141.87c0,.06,0,.09.06.14S494,141.86,494,141.87Z"/><path class="cls-2" d="M502.42,142.54l-.08.09c.07.15.13.29.2.43Z"/><path class="cls-2" d="M349.93,167.76l0,0C349.73,167.81,349.82,167.81,349.93,167.76Z"/><path class="cls-2" d="M405.28,170.76c-.67-.71,1-1,0-1.8C405.36,169.28,404.47,170.33,405.28,170.76Z"/><path class="cls-2" d="M300.76,143.17a1,1,0,0,1,.23.12A.32.32,0,0,0,300.76,143.17Z"/><path class="cls-2" d="M405.25,169h0l-.1-.07Z"/><path class="cls-2" d="M363.8,169.51a1.06,1.06,0,0,0-.1-.38A1,1,0,0,0,363.8,169.51Z"/><path class="cls-2" d="M353.74,166.73l.23.16A.44.44,0,0,0,353.74,166.73Z"/><path class="cls-2" d="M369.28,169c.13.07.16.19.36.1a.28.28,0,0,0,0-.11C369.52,169.07,369.42,169.11,369.28,169Z"/><path class="cls-2" d="M374.84,169.46l-.09-.18-.18,0Z"/><path class="cls-2" d="M478.76,148.33a3,3,0,0,1,.49.63C479,148.42,479.65,147.94,478.76,148.33Z"/><path class="cls-2" d="M300.44,143.41c.13-.17.22-.24.32-.24l-.18,0A.64.64,0,0,0,300.44,143.41Z"/><path class="cls-2" d="M370.18,162.37l.84.2A3,3,0,0,0,370.18,162.37Z"/><path class="cls-2" d="M441.19,159l.17-.14A.17.17,0,0,0,441.19,159Z"/><path class="cls-2" d="M373.57,162.67a1.64,1.64,0,0,0,.43.63.53.53,0,0,0,.12-.21Z"/><path class="cls-2" d="M479.26,149h0Z"/><path class="cls-2" d="M483.89,145.1c-.77.27,0,1.15.09,1.81-.8.65-.71-.6-1.22-1-.47.49-.55,1.61-1,1.73-.1-.16-.2-.19-.19-.44-.3,1.05-1.79.7-2.13,2a.9.9,0,0,1-.18-.23,5.8,5.8,0,0,1,.62,1.39c-.34.15-.41.9-.79.27.22-.06.14-.34.17-.59l-.26.43c-.68-.86.37-.53.11-1.25-.59.58-1.14,1.69-1.79,1.6-.45-.92,1.17-.77.14-1.37l1,.07c-1.18-1.28.55-.08-.61-1.49-1.21.12-1.08.92-2.28,1-.07.62.35.76.29,1.38-1.26,1.51-2.07-2-2.8-.31-.09.74.2,2-.85,1.63l-.07-1.18c-1.12.24-.11,1.77-1.49,1.4.06-.5.74-.64.53-.72-1-.63-.32.79-.89,1l-.43-.93c-1.11.52-2.16,1.66-3.4,2.21,0-.31.11-.68-.28-.89-1.48,1-3.52.91-5.25.79l-.36,1c-.15,0-.37-.32-.27-.52-.7-.16.12.54-.08,1-.33.15-.6-.36-.45-.68-.88,1-2.68,2.4-4.06,1.8l.15-.31c-1-.1-.55,2-1.59,1.43l.12-.19c-2,.11-4,1.43-5.81.5,0,1.31-2.07-.12-1.8,1.64-1.31-.61-1.06-1-2.76-1.22-.44,0-.39,1.22-.88,1.52l-.2-.9-.51,1.1-.6-1-.44.34a.71.71,0,0,1,.52.59c-.68.57-2-.27-2.1-.73l-1.66,1.12c0-.37.24-.56.44-.83-.79,1.11-.36-.93-1.08.09.16.19,0,.56,0,.74a2.2,2.2,0,0,0-2.25.1l0-.65c-1.37.12-2.78.8-4.3,1,.6.2.66,1.31.23,1.49l-.34-.93c-.19.64.52.28.05,1.11-.58,0-.56-1-.28-1.4l-.64.45c-.08-.29.05-.46,0-.84-.18.65-1.33-.77-1.58.33l-.08-.28c-1.51.25-2.14.69-3.37.89.09.84-.42.72-.7,1.44-.95-.14-2-.66-3.13-.45-.72.52-.14.74-.42,1.28-.15-.75-1.24-.53-.74-1.16a11.4,11.4,0,0,0-3.27,1.15c.22.3.44.41.36.68-.29.16-.73-.25-.72-.62l.07-.09c-1.78,1.34-4.54-1.78-5.89,0l.08-.09-1.49.94c-.72-.09.39-.61-.18-1.05-1.58,1.39-2.65,0-4,.94-.6-1.1-1.54-1-2.52-.79s-2,.45-2.76-.25l.1.53c-.35.53-.46-.29-.74-.41,0,.42.42.47.2.77a12.2,12.2,0,0,1-4.85-.06c-1.64-.33-3.28-.83-4.89-1.08-1.17-.15-.7,2.75-2.18,1.47l.44-1c-2.41,1.22-4.86-.2-7.23.71.15-.22.17-.52.4-.5-.46-.74-1.82-.12-1.87.46-.35-.08-.05-.53-.25-.84-.47-.45-1.3.86-1.52.13,0-.12.16-.22.25-.28-.35.35-1.49-.19-1.24.66-.84-.47-1.7.22-2.36-.33-.53.88-1.45-.58-1.71.71.18-1.34-1.43-1.22-2.05-.64.23-.39-.43-.46-.16-1-.63,0-1.23.16-1.2.87-1-1.7-2.47,1-2.88-1.14a29.74,29.74,0,0,1-5.47.82c.26-1.33,1.88.11,2-1.3-1.65.32-2.76,1.4-4.28.79-.38-.26.32-.54.5-.74-1.67.26-3-.68-4.56-.21,0-.13.2-.23.36-.31-.28,0-.6-.31-.68.3l.3-.12c.28,1-1.45,1.64-1.59,2.09.8-1.65-1.32-.69-.14-2.74a.89.89,0,0,0-.53.74c-.24-.17-.28-.42.08-.83-1.05.14-.83.85-1.73.67.06-.29.27-.37.43-.69-.57.49-1.15,1-1.85.53.09-.17.05-.41.27-.36-1.31-.21-2.54,1-3.84.11.71-1.16-.39-.52-.21-1.63l-.84.15.18.6c-.66-.18-1.45.47-1.94,0l.61-.33-1.3-.09.6.58c-.82.4-.27,1.39-1.09.88.21-.07-.67-.17-.86-.89h0c-.42.25-.86.52-1.28.11,0-.38.42-1.17.4-1.42-.56.81-1.61-.2-2.29.64a1.63,1.63,0,0,0,.35-.87l-.47.65c-.24-.32-.26-.45-.08-.89-.88-.4-.09,1.45-1,.55.1,0,.09-.16.3-.22-1-.62-2.26-.15-3.17-.8,0-1.16,1,0,.9-1a12.55,12.55,0,0,0-2.44.05,4.35,4.35,0,0,1-2.27-.39l.22.21c-.69,1.44-.79-1.11-1.73-.64.21,0,.51-.76.41-.61-.87-.57-2.06-.3-3.67-.33l.31-.32c-.43-.54-1.4-.71-1.94-1.09-.32.32-.64.14-.64.77-1-2.89-3.95-.26-4.86-2.72.2.07.6-.14.44-.21l-1.52-.21c-.16.68,0,.46.1,1.07a1.19,1.19,0,0,1-1.19.3c.8-.16.43-1,.31-1.49,0,.21-.22.39-.28.6-.24-1.43-.67,1.23-1.33.06l.19-.31c-.44,0-1,.32-1.33.06.15-.8.54-.18.83-.77-.58-.18-1.72.93-1.89-.05.33-.09.66.07,1,0-.16-1.11-.32-.92-.66-1.25l0,0-.74-.83.13.35c-1.55,1.57-1.55-.32-3.05.48,1.45-.74.47-.6.93-1.39-.13-.34-.36-.77-.15-.95-.75.46-.47-.86-1.55-.19.1-.27-.45-.24,0-.86-.66-.06-.09.52-.3.83-1.31.48-1.49-2.05-3.35-1.42-1.31-.06-2,.7-3.17.6-.11-.6.77-.8.77-.8a1.3,1.3,0,0,0-1.42-.8c.22-.17.22-.42.22-.79-.44-.15-.77.79-1.1.12a5.48,5.48,0,0,1,1-.81c-.59,0-1.32.2-1.94.16.12-.51.67-.51,1-.71-.66-.1-1.64-.37-2.21.24l.22.44c-.22-.07.23-.66.45-.71.78-.29.54.62.43.89l-.44,0c-.48,1.69,1.54.53,2.19,1l-.89.93,1.21-.51c0,.37-.22,1-.66,1,.22.82.66-.14.77.7,0,.12-.05.17-.12.18l.67-.05c-.22.18-.33.82-.55.5.56,1.13,1.87,0,1.78,1l-.11,0c1.44.28.53-.75,2-1.24l-.38,2.32.54-.76c.11.1.34.28.13.59.77-.33.09-.4.64-.8.26,1.05,1.91.48,1.42,1.86.52-.52-.37-.77.51-.88-.49,1.5.89.12,1.16,1-.52.65-.89,0-.62.93.93-1.07,1,.81,1.61.8.47-1,1.25.1,2.22.16-.1.15.22.48.65.83a13.79,13.79,0,0,1,1.3,1.08l-.1.16c.59-.95,1.31-.43,2-.4-.28.6-.49.8-.92.94l.56.22a1,1,0,0,1,.91-.34l-.45.7c.76.26,1.85-.29,2.59.61.34-.69.05-2.29,1.23-2.37-.12.41-.34,1.08-.66,1.13.1,0,.43-.19.53,0l-.65.49c.32.46.44-.45.76-.25-.23.55.1.5-.12.91-.11,0-.22-.35-.43-.18a1.66,1.66,0,0,1,.68,1.25c.09-.32.29-.74.6-.69.76.26,0,.76.32,1.22.33-.31.65.29,1-.54.22.08.12.48.12.74.53-.24,1.86.52,1.74-.51l-.07-.1h.07c1.57-.39,2.48,1.39,3.87,1.47l-.1.28c.86-.06,1.74.39,2.48,0,.22.08.36.7.15,1,.65,0,.8-.29,1.5.43-.74.31.07.5-.71.17.68.49.72,1,1.77.45-.5.64.3,1.07.73,1l-.38-.67a2.77,2.77,0,0,1,1.13.34l-.49.9c1.24,1.63,3.4-1.16,4,1.14.6-.56-.72-.72-.13-1.4.68.33,1.06,1.93,1.29,2,.85.81,1.29-1.12,2.24-.51-.05-.38.07-1.33.92-1.47.69.29.53,1.65,0,1.82-.18,0-.24-.14-.2-.25-.27.07-.61.14-.42.58l.18-.32c.28.44,1.29.64.92,1.15.63-.2.37-.51,0-.79.81.72,1.46.36,2.35.92-.11-.22-.16-.66,0-.62,1.32.76.78-.52,1.77-.44.42.65-.48,1.21.58,1,.51.49-.08.95-.38,1.18,1-.47,1.56.82,2,1.07l-.52.17a1.25,1.25,0,0,1,.77,0l-.12-.76c.25.19.48.25.42.53.38-.4,0-1.2.71-1.72.3.42,1.19-.18,1.13.77-1.09-.52,0,1-1.06.93a.74.74,0,0,1,.69.14c0,.11-.08.19-.16.22.94,1,.72-.95,1.86-.72-.25.5.07,1,.28,1-.46-.1-.05-.92.45-1.24.65.54.85-.16,1.22,0l-.4-.27c.24-.5.6-.36,1.14-.44,0,.42-.52.2-.37.41.73-.81,1.11,1.19,2,.72.31.42-.13,1,.15,1.29,1-.52.85.9,1.88.5-.16-.75-.23-.58.54-1.18-.54.11-1.08.16-1.62.24l1.15-.85c-.46-.09-1.05.27-1.3.1.56-.49.48-.33.36-.95.46,1.18,1.34-.39,2,.41l-.29,1.75c1,.94,2.11-.63,3.48,0l-.42-.37c.29-.67.9,0,1.4-.2-.12.58.14.83.29,1.23,0-.44,1.06.18,1.33-1l.55.86c1.13.47,1.51-1.46,2.61-1.17-.41.61.05,1.07-.75,1.46.38,0,.7.18.75-.23.18.39,1.12-.7,1.41-.11.18-.24.29-.86.71-.77a.62.62,0,0,1,0,.29c0-.29.69-.34.39-1,1,1.94,3.21.15,4.08,1.82a24.05,24.05,0,0,1,2.56-.23c-.05.17,0,.29-.15.22,1,.6.73-1.66,1.85-1,.54,1-.64.48-.3.86.06,2,1.42-.2,2.15,1l-.2.1c.57.69,1.5-.66,2.47-.48a.62.62,0,0,0,0,.3c.7-1,2-1.21,2.92-1.49-.31.76-.44.4-.28,1.18.43-.11-.09-1.25.75-1.46.27.42.86.79.93,1.62l-.8,0c.39,1.07,1,0,1.45.16l-.06.46c1.23-.14,1.25-1.32,2.56-1.22l-.13-.36c.71-1.16.59.66,1.3-.2L392,170a11.89,11.89,0,0,1,2.49-1.36c-.47.89-1.46,1.32-2.07,1.84.47,0,1.6-.07,1.83-.66-.18.12-.42.4-.61.22a2.6,2.6,0,0,1,2.24-1.41c-.12,2.3,2.43.5,3.17,2.26,1.62-.92,3.3.31,5.22,0-.77-1.73.56-.08.34-1.91.44-.14.61-.13.66,0l1.42,1c.36.52-.4.44-.33.84,1,.08.46.75,1.15,1.2-.18-.65.28-1,.85-.75l-.84-.79c1.3-1.07,1.3,1.45,2.61.4l-.39.6c.68-.37,2.63-.17,3.19-1.73.15.2.36.68.06.85,1.72,0,3.61-1.94,5-1.17l-.08.46c.3-.17.45-.9.9-.49,0,.19-.08.46.07.47.15-.17.75-.86,1.2-.66l-.3.55c1.72.36,2.37-1.56,3.7-2,.17,1.31,1.52,1.57,2.2,1.69v.19c1.94-.08,3.09-1.55,4.77-2.35,1.32,1.23,3.8,0,5.7.47-.31-.19-.14-1,.15-1.21.46.18,1-1.12,1.12.08h-.15c.53,1.1,1.32.63,2,.53l-.19-1.57c2.17,1.94,4.33-1.7,5.69.09.33-.48.84-.59,1.16-1.07l.16.84a8.07,8.07,0,0,0,3.17-.58l-.15.66c.81-.13.45-2.61,1.17-2.84l.51,1.18c1.38-.36,3.06.37,4.15-1.08,0,.18.07.55-.14.65.66-.13,2.74.21,2.06-1.42.3,1.09,1.45-.29,2.06-1l.1.84c.35-1.2.29-1.49,1.09-2,.23,0,.36.59,0,.46.81.23.33-.91,1.28-.71l-.16.6c.72-.13.59-.39.81-1.1.35-.43,1.39-.18,1.71.52,0-.47.18-1.18.65-1.09a.58.58,0,0,1,0,.57c1.34.2,1.47-1.45,2.52-.9a.78.78,0,0,0,.28.43,6.31,6.31,0,0,1-1.66.36c.22.74,1,.65.72,1.85.44-.74,1.12-2.26,2-2.13a1.06,1.06,0,0,1,.18.22l0,.11a.45.45,0,0,0,.43-.26,1.45,1.45,0,0,0,.68,0c.27.58,1,0,1.35,0-.28-.79.25-.82-.42-1.34.07,0,0,.12-.28.24a.44.44,0,0,0-.14.13v-.08l-.92.35c.17-.5.37-.94.93-.63,0-.58.07-1.18.11-1.46.86.95,2,1.24,2.41,1.89,1-.82,2.61-1.17,2.81-2.92.26-.31.52.3.72.49-.13.22-.36.27-.39.52.51-.6,1.86-.8,1.65-1.9,1,.19-.12,1.12.94.56l0,.37c2.81.92,2.6-3.93,5.8-2.67-.22-.07-.32-.1-.42-.26,3.11-.1,5.29-3,8.57-2.67.89,0,.7-.71,1-1.4l.52.76.38-1.29c.82-1.17,2.83,1.2,3.67-.75l-.44-.48c.56-.11,1.46-1.05,1.66-.37,0-.13-.1-.66.23-.46l.22.43.89-1.32c1.11-.14.66,1.78,2.11,1.19.44-.42.89-2,.54-2.17a.76.76,0,0,1-.89-.41l.35-.45c-.55-1.29-.87-2.72-2.38-3.06l-.4,1.14-.55-.49.64-.35c-.65-.4-.64.22-.74.7a1.2,1.2,0,0,0-.65-.52l-.2,1.57c-.33-.45-.11-1.14-.76-1.18-.1.73.87.95.43,1.6-.65-.4-.75-.92-1-.23a.7.7,0,0,1-.1-.77c-.22.58-1,.65-.88,1.41-.72-.54-1.27.79-1.76-.44a2.37,2.37,0,0,1-.64,1.47c.05-1.74-1.43.5-1.91-1.13,0,1.52-1.55,1.35-2.15,2.43,0-.12,0-.37.12-.34-.55.1-.85-.24-1.28-.36.38,1.11-.3,1.68-.46,2.53-1-.81-.14-1.44-.73-2.37.38.87-.72,1.32-.22,2-.73-.47-.54-.16-1.14-1,.46,1.4-.35.4-.41,1.39-1-.41-.68-1.21-1.27-.5C483.41,145.84,483.89,145.1,483.89,145.1Zm-17.38,8.67v0l.37-.16Zm-1.56.47a3.54,3.54,0,0,0,.69-.16c.14.26.17.56,0,.59C465.67,154.46,465.26,154.41,465,154.24Zm5,4.58c-.21.2-.35.07-.43-.09a2.59,2.59,0,0,0,.4-.23v-.11A1.67,1.67,0,0,1,470,158.82Z"/><path class="cls-2" d="M470.11,157.63s0-.07.08-.1l-.2-.13v.28Z"/><path class="cls-2" d="M322.92,157.22l0,0a.28.28,0,0,1,0-.13A.41.41,0,0,1,322.92,157.22Z"/><polygon class="cls-2" points="442.86 158.24 442.91 158.45 443.01 158.23 442.86 158.24"/><path class="cls-2" d="M315.6,151.2a.5.5,0,0,0,0-.24A.53.53,0,0,0,315.6,151.2Z"/><path class="cls-2" d="M312.12,149.51l-.37-.51A2.4,2.4,0,0,0,312.12,149.51Z"/><path class="cls-2" d="M309.62,147.85a1.75,1.75,0,0,0-.2.31h0Z"/><path class="cls-2" d="M354.55,161.14a.25.25,0,0,0,.12,0C355,161,354.77,161,354.55,161.14Z"/><path class="cls-2" d="M340.43,160.08a3.48,3.48,0,0,1,.54-.28C340.74,159.69,340.55,159.62,340.43,160.08Z"/><path class="cls-2" d="M370.08,162.35h.1Z"/><path class="cls-2" d="M341.6,160a.57.57,0,0,0-.63-.17A.79.79,0,0,0,341.6,160Z"/><path class="cls-2" d="M298.39,141.66l-.1-.1a.53.53,0,0,1-.09.11Z"/><path class="cls-2" d="M298.2,141.67H298C298.08,141.71,298.14,141.74,298.2,141.67Z"/><path class="cls-2" d="M297.62,141.7l.4,0A.27.27,0,0,0,297.62,141.7Z"/><path class="cls-2" d="M301.64,143.88l.18-.25A1.25,1.25,0,0,0,301.64,143.88Z"/><path class="cls-2" d="M302.73,144.38c-.22-.2-.32-.92-.76-.94l-.15.19C302.2,143.32,302.25,144.7,302.73,144.38Z"/><path class="cls-2" d="M305.51,150l-.81-.65c0,.37,0,.86-.42.73C305,151.5,304.37,149.3,305.51,150Z"/><path class="cls-2" d="M308.17,151.78c-.56-.1-.2.43-.3.59C308.31,152.25,308.42,152.22,308.17,151.78Z"/><path class="cls-2" d="M329.45,160.19l-.29.71C329.59,160.94,329.25,160.62,329.45,160.19Z"/><polygon class="cls-2" points="334.77 157.65 334.51 157.08 334.13 157.7 334.77 157.65"/><polygon class="cls-2" points="335.71 163.61 335.5 163.66 336.26 163.59 335.71 163.61"/><path class="cls-2" d="M373.79,170.12l-.05-1C373.44,169.31,373.29,170.36,373.79,170.12Z"/><path class="cls-2" d="M390.44,169.86c.18.47.64.78.93.32C391,170.11,390.63,169.74,390.44,169.86Z"/><polygon class="cls-2" points="440.12 166.53 439.85 166.91 440.42 166.53 440.12 166.53"/><path class="cls-1" d="M78.74,197.92c-1,.51-.19.31.19.49Z"/><path class="cls-1" d="M78.93,198.41l.13.35A.26.26,0,0,0,78.93,198.41Z"/><path class="cls-1" d="M80.88,201.08c-1.11.17-1.08-1.22-2.28-.62C78.68,201.61,79.88,202.08,80.88,201.08Z"/><polygon class="cls-1" points="80.54 199.75 80.01 200.23 81.21 199.78 80.54 199.75"/><polygon class="cls-1" points="80.6 198.98 80.5 199.23 81.72 199.28 80.6 198.98"/><path class="cls-1" d="M82.61,203l-.72-.26c0-1.18,1.11-.8,1.11-1.59-.74-.51-1.43,1.48-2.18.51-.47.81,1.53,1.08.56,2.13C82,204.69,81.89,203.09,82.61,203Z"/><path class="cls-1" d="M124.2,208.15a.85.85,0,0,0,.09.14C124.26,208.14,124.23,208,124.2,208.15Z"/><path class="cls-1" d="M134.19,206.9a1,1,0,0,0,.43.21,2.36,2.36,0,0,0-.23-.35Z"/><path class="cls-1" d="M116.55,210.59a3,3,0,0,0-.37-.36C116.24,210.43,116.35,210.58,116.55,210.59Z"/><path class="cls-1" d="M174.14,176.06a1.7,1.7,0,0,0,.39.16h0l-.33-.23Z"/><path class="cls-1" d="M143,200.93a.93.93,0,0,0,.3-.37C143.06,200.69,143,200.81,143,200.93Z"/><path class="cls-1" d="M112.84,210.31l.16,0a.72.72,0,0,0-.17-.18v.14Z"/><path class="cls-1" d="M131.1,205.4a.53.53,0,0,0,.33.15A.57.57,0,0,0,131.1,205.4Z"/><path class="cls-1" d="M91.66,209.82c.13.21.32.2.53.12C92.16,209.69,92,209.58,91.66,209.82Z"/><path class="cls-1" d="M95.66,211.46h0C95.59,211.63,95.62,211.6,95.66,211.46Z"/><path class="cls-1" d="M98.17,212.62l0,0C98.1,212.76,98.11,212.79,98.17,212.62Z"/><path class="cls-1" d="M92.19,209.94c.09.66-.56,2.34.68.75l0-.28c.06.52.76,0,1.08.05,0-.19.07-.34.09-.49a3.14,3.14,0,0,1-.56-.46C93.33,209,92.71,209.71,92.19,209.94Z"/><path class="cls-1" d="M124.13,208.51c0-.36-.3-.2,0,0Z"/><path class="cls-1" d="M120.31,209.79l.38.08C120.57,209.79,120.45,209.72,120.31,209.79Z"/><path class="cls-1" d="M108,207.66s0,.05,0,.09C108.12,207.56,108.07,207.58,108,207.66Z"/><path class="cls-1" d="M121,209.9c-.12,0-.23,0-.34,0C120.79,209.94,120.9,210,121,209.9Z"/><path class="cls-1" d="M111.45,209.66s0,.06,0,.06A.09.09,0,0,0,111.45,209.66Z"/><path class="cls-1" d="M159.54,119.46c.37.06.22.6.38.91,1.34-.63-1.16-.89.35-1.22a1.28,1.28,0,0,0-.85-.17l-.35,1.26C159.84,120.22,159,119.66,159.54,119.46Z"/><path class="cls-1" d="M177.48,173.22l-.13.1c.57,0,.72.15,1.11-.26-.75-.58-2.14-.23-2.92-1.11a.47.47,0,0,1-.17.49A2.9,2.9,0,0,1,177.48,173.22Z"/><path class="cls-1" d="M175.37,172.44h-.07a2.91,2.91,0,0,0-.32,0,.37.37,0,0,1-.19.24A.91.91,0,0,0,175.37,172.44Z"/><path class="cls-1" d="M167.24,127l.15.34C167.45,127.07,167.38,127,167.24,127Z"/><path class="cls-1" d="M150.25,214.83a4.17,4.17,0,0,0-.17.54A.58.58,0,0,0,150.25,214.83Z"/><path class="cls-1" d="M174.54,179.48a.9.9,0,0,0-.28.27,1.61,1.61,0,0,1,0,.22Z"/><path class="cls-1" d="M165.87,158.38c1.4,0-.11-.08.64-.51l-.79-.17C165.56,158,165.82,158.2,165.87,158.38Z"/><path class="cls-1" d="M159.44,118.88l-.08.1h.06Z"/><path class="cls-1" d="M162.42,149.13l.1-.24A.37.37,0,0,0,162.42,149.13Z"/><path class="cls-1" d="M174.19,174.84l-.5,1.6.45-.38C173.53,175.65,174.94,175.28,174.19,174.84Z"/><path class="cls-1" d="M165,163.38l-.86,0c.85.74.54,1.47.36,2.14a1.59,1.59,0,0,0,.84,2.09c-3.21,1.12,2.42,1.63-.52,2.67l.42,0a58.12,58.12,0,0,1-3.19,7.4,29.6,29.6,0,0,0-2.59,7.14l-.53-.28a67.37,67.37,0,0,1-6.09,8.15l-.36.39a5.21,5.21,0,0,1-.41.41l-1.14,1c-.75.66-1.51,1.34-2.28,2a35.77,35.77,0,0,1-4.78,3.26c-.3.86.77,1.74.59,2.65-.26.12-.76.47-1.13-.16.24-.6-.35-1-.34-1.34-.7.47-2,.24-2.23,1.39l1,.53c-.07.49-.6.51-.85.55-.13-.47-.92-1.25-.83-1.54-.31,2.73-1.46-.42-2.16.91a5.72,5.72,0,0,1,0,3,13.08,13.08,0,0,1-.45,1.47c-.18.46-.36.91-.53,1.32l-.7-.35c.74-.19-.4-1.41.5-1.57a1.13,1.13,0,0,0-1.09.19,1.19,1.19,0,0,1-1,.32c.24.47.35,1.12.1,1.4-.5-.18-.73-1.17-1.22-1.17l.36-.72c-.44-.69-.53.37-.82.52-.23-.82-.94-.9-.92-1.84-.49,1.21-.77.61-1.44,1.35.81.86-.13,1.12,0,1.81l.87-.37c-1.28-.5.4-.16.16-1.62.62.6-.57,2.46.36,2.12a2.6,2.6,0,0,1-1.28.56,3.06,3.06,0,0,0-1.37.86c.79-.26-.15.93.29,1.38-1,0-.26-.51-.58-1.44-.55,0-.73-.78-1.26.27-.9-.47.18-1.07-.26-1.67.34-1,2.4,1.25,2.13-1.91.4-.06.83-1.29,1.38-1.24-.54-.41-1.18-1.38-1.79-.67l0,1.78c-.5,0-.62,1.24-1,1.08.2-.51-.12-1.26-.54-1.13.12.26.28.2.23.51-.8.11-1,1.31-2,1.6.79.5.93,1,1.68,1.85-.25,1.24-.56.15-1,.28.07-.16.17-.19,0-.45l-.52.58c-1-.59.24-1.79-.6-2.45-.54-1.08-.87.53-1.3-.09l.07.32a.71.71,0,0,1-.23-.1.27.27,0,0,1,0,.09c-.58.14-1.24,0-1.45.92,0-.42-.53.09-.74.37s-1.21,1.43-1.67-.09h0c-.75-.21-1.37-.67-1.2-1.18l-1.31-.36.11-1.21c-1.29.35-.9,1-1.5,2.28-.29-.38-.61-.38-1.06-.34a2.45,2.45,0,0,0-1.07.47.41.41,0,0,0-.36,0l.31.51c-.71-.13-.73.49-1.23.41.09.13.09.2-.16,0l-.27-.14c.05-.12.16-.08.26,0l0-.42c-.35-1.38-1,.57-1.62,0,.07,0,.19-.09.26-.06-.31-.41-.42-2.21-.81-1.22,0-.15-.23,0-.41.25l-.22-.24a1.13,1.13,0,0,1,.21.24c-.25.3-.51.68-.47.42l-.87-.45c-.13-.22-.41-.14-.65,0l0-.53c-.36,0-.28-.31-.2-.43-.64-2-2.06.3-2.85-1.55-.51.72-.11,1.25-.21,1.69A5.65,5.65,0,0,1,103.1,209c-.19-1.31-1.55-2.9-.68-4.36-1-.5,0,1.08-.76,1.43l-.1-.1a2.46,2.46,0,0,1,.35,1.63.87.87,0,0,1-1.46.42l.66-1.12c-1.11,0-1.62,1.92-2.71,2.87-.6-.79.29-1.69.56-2.82l-.93,0,.38-.89c-.62,0-1.09.79-1.66.13.88-.61-.7-1.29.5-2.1-.26-.47-1.13,1.19-.81-.07-.69.82.15.62.21,1-.43,1.42-1.16.28-1.79.41.29-.72.69-.68.36-1.4-.36.47-.9.71-.91-.07-.41.87-.7-.12-1-.32a1.5,1.5,0,0,1-.12,1.85,1.08,1.08,0,0,1-1.35-.14l.24.62c-1.19,1-.45-1.38-1.39-1.35.58-.36.77-.26,1.36-.75a11.62,11.62,0,0,1-2.29.63l0-1.57c-.42.58-.65-.43-1.12.41-.44-1,1.17-.67,1.58-1.26-.62-1.08-1.54,1-1.7-.8l.74-.62c-.26-.22-1.11-.1-.91-.52-.17.29,0,.26.23.36-1.17,1.59-2,.34-3,2.12l.35.36c-.83-.06-2,.8-2.14-.11s1-1,1.5-1.27c-.52-.47-1.68,1.56-2.29.9.19.52-.27,1.07-.79,1.33.35.42,1.06,1.29,1.35.49l0-.26a2.08,2.08,0,0,1,.91-.58c.57.36-.21.94-.3,1.34.82.88,1.13-1.65,2-1.06l-.08.41c.69-.21,1.39.11,2.1-.9-.24,1.34,1.24.12,1.29,1-1.27,2.56-1.41-1-2.67.07.18.77-.94,1-1.47,1.46l2.11-.22c-.07.41-.3,1.9.47,1.15l-.09-.13c.76,0,1.14-1.07,1.48-.46,0,.27-.41.59-.54.73.36.48.7-.36,1.14-.42.36.47-.78.9-.52,1.39,1.06-.69.77.7,1.3.88.51-1.54,2.9-1.06,2.46-2.83l1.61-.45c0,.93-1.74,1.67-2,3l-.91-.49c-.69,1.87,2.5-.24,2.22,2,.47.31.46,0,1,1.33l.54-1.71a2.71,2.71,0,0,1,0,1.87,1.59,1.59,0,0,1,.85.36,1,1,0,0,1-.59.41c0,1.07.26.77.6.34s.67-.15,1,0l-.54.5a1,1,0,0,0,.71-.43.66.66,0,0,0,.44,0,4.61,4.61,0,0,0-.09-2c.91,1.13,2,1.11,2.5,2.87-.21.47-.87.91-.76,1,.44.44,1.31-.2,1.52-.95a.93.93,0,0,1,.31,0c0,.46-.09.95.14,1.11a.56.56,0,0,0,.22.45c.63-1.29,1.42-.28,1.83-.82A1.32,1.32,0,0,0,103,214c.72-.75,1.42-1.66,1.51-.83-1.06.6.38,1.68-.92,1.66.3,2,.82-1.07,1.52-.2l.38.85c-.39,1-1.1.22-1.08.63h.45c-.65.64-2-.36-3.31.44l1.72,1.17a12.11,12.11,0,0,1,4.13.5,8.12,8.12,0,0,0,2.07.17,4.11,4.11,0,0,0,2-.73h-.1a2.91,2.91,0,0,0,.21-.66l0,.27.55-.69c.3,1.06,1.27,1.34,2,2.21a1.61,1.61,0,0,1-.43-1.47c.22-1,.34-1.44,1-1,0,.73-.52.65,0,1.3a.63.63,0,0,1,.38-.94c.41.49,1.18.6,1.19,1.34-.22.2-.4-.06-.54-.17-.24.19.9.68.21,1.27l.9-.2c.55.62-.34,1-.12,1.36a3,3,0,0,0,.55-.23,1.11,1.11,0,0,0,.32-.33c.18-.23.36-.51.53-.78a3.67,3.67,0,0,1,1.16-1.36c0,.39-.09,2-.07,1.55.69.53,1.55-1.74,2.44-1.81-.15.48-.47.26-.73.49,2.55.74,4.77,1,7.64,2.59l.75-1.67c.24.38.5.75.77,1.11a7.81,7.81,0,0,0,2.28.33,10.53,10.53,0,0,0,2.13-.35,14.72,14.72,0,0,0,2-.76c.67-.29,1.34-.58,2-.93.87-.35.85,1,1.42,1.31a2.68,2.68,0,0,0,2-1.52,5.06,5.06,0,0,1,1.6-1.94c0,.56.07,2.08.89,1.82,0-.51-.26-1.25.33-1.19l0,.58c.74.49.87-.36,1.91-.5a3.89,3.89,0,0,0,1.83-1.92,8.14,8.14,0,0,0,.81-3c1.31-.6.82,1.64,1.23,1.81-1.23,0-.49.61-.4,1.23.26-.69.7-1.27,1.56-.41a2.19,2.19,0,0,0,1.13-1.72c-.1.55-.72.18-.72-.47.75,0,1.82-1.23,2.6.05,1.37-1.17,2.91-2.28,4.44-3.43l2.24-1.76a23.46,23.46,0,0,0,2.31-2c0-1.08-.62.17-.69-.52.09-1.46,1-.2,1-1.37l.32.82c1-.82.73-2.86.91-4.19.61.75,1.17-.26,1,.85.21-.52,3.93,1.47,3.55.56-1.17-.6-2.33-1.21-3.48-1.84-.28-.26.37-.73.12-.83.9.08,2,.12,2.2-.16.91.42.21,1-.1,1.38,1.27,1,1.85-.72,2.64.74.39-1-.76-.36-.91-1.23l.79-.56-.84.27c0-.9-.9-1.79.41-2.11-.27-.58-.52-1.13-.82-1.69,1.15.58.56-.5,1.07-.78l.55.69a1.48,1.48,0,0,1,1.26-.87c.8.89-.55.4.3,1.08l.72-.48c-.64-.36-.91-1.05-1.56-.8-.84-1.26-1.68-2.11-.84-3.54,1.47-.12.63,1.23,1.87,1.51,1.31-1.37-2-3.35-1.43-4.18,1-.94-.08-1.33.31-2.53.64.7,1.17-.48,2-.4l.64.8c-.1-.47.35-.7.89-.36-1.1-.35-.38-2-.63-3l-1-.18c-.09-.76-.36-1.84.1-2.44,0-1.12-.89-1.15-1.69-2.23a5.18,5.18,0,0,1,3,.62c-.57.13-.43.68-.86,1,.44,1.55,2,3.24,1.1,4.41,2,1.39.05-1,1.07-1.35.12.07.15.13.16.19a.21.21,0,0,1,.12-.14,2.4,2.4,0,0,0,1.3,2c0-.91-2.05-1.39-.73-2-.37-.94,1.61-1,1.91-1.39-.7-.77-2.53-1.35-1.81-2.45l1.12.91c.44-1.39-1.66-1.19-1.27-2.45-.27.4-1.16-.77-1.41.06a1.55,1.55,0,0,1,.06-2.12c-.15-.22-.43-.14-.86-.28-1.09.5.57,1.4-.88,1.66l1.26.9a1.73,1.73,0,0,1-2.27-.28c0,.21.15.43-.14.5-2.12-.49,1-.59-.72-1.32,0,.17,0,.34,0,.51-1.4-.19-.89-1.42-.65-2,.82-.51,1.22-1.09,2.22-.9l.19,1c.92-.29-.16-1.32,0-1.85a.77.77,0,0,0,.34-.09.67.67,0,0,1-.28,0,.69.69,0,0,1,.47-.22c.16-.47-.3-1.31.12-1.7l-.91-.11.49.15a.9.9,0,0,1-1.4.45c-.41-1.09,1.35-1,2.17-1.06,1.34.49-.21,1,.15,1.59,1.42,0,.38-1,1.44-1.9,1.42.7-.23,1.24,1.08,1.74.44-.82-.6-1.25-.06-2.1.67.23.59,1.15,1.48,1.25l.53-.53c-.17,1.52,1.9.06,2.07,1.32.7-.46-1.09-1,0-1.65-.69.13-2,.55-2.43-.3l.58-.77c.78-.26,1.44,1.14,2.15.68l-.36-1c-.45,0-.75.36-1.32,0,.56-.46-1.62-1.1-2.21-1.78.1-.46.24-.83.78-.94-1.19-1.34-1-2.87-2.26-4,.89.79,1.54,0,2.24-.42.17.91,1.58,1,2.49,1-.13-.58-1.59-1-2.07-.73.6-.91-1-.65,0-1.45.5-.53,1.39.27,1.93.09,0-.52-.39-.59-.79-.66s-.74-.13-.61-.81c.19.07.25.19.51.07a1.24,1.24,0,0,0-1.18-1.52c.88-.44.76-.95.66-1.33s-.24-.63.67-.72c-.77-1.46-.93.4-1.6.2-.9-.47-.47-1.68-.29-2.08.12.34.69.56.48,1l1.16-.58c.4-2.07-3-.51-2.43-2.43.88.67,1,0,2,.22-.38-.18-.44-1.61-1.12-.54a5.86,5.86,0,0,1,.07-1.66,3.91,3.91,0,0,0-2.05-.9,3.7,3.7,0,0,1,.74-2.41c-1.55-1.37-.87-3.59-2.65-4.91v.16c-.5-1.44-1.16,1.35-1.84,0,1.44-.54.47-1.32.92-2.15a3.46,3.46,0,0,0-1.46-2.18,3,3,0,0,1-1.33-2.13c.27-.16.65-.28.88,0-.36-1.42-1.27-2.16-2-3.2l.18-.07c-.24-2.38-2.63-2.88-4.28-4.16.25,0,.7-.36.94-.4-.47-1-1.54-2.44-3.06-1.94.08-2-.9-.24-1.18-2.42.1-.27.29-.09.42-.06-.31-.92-.87-1.18-1.41-1.86a8.88,8.88,0,0,0-2.77.11A2.39,2.39,0,0,1,157,120c1-1.8,1.39.3,2.37-1-.58.06-1.13.21-1.37-.54.75-.48.35-.39,1-.88-.13-.73-2.76.79-2.64.65-.23.34-.2.59.19.78-1.08.82-1.9-1-3.07-1,.3.19,1,1.07.2,1.73-1-1.07-2.33.58-3.45.94-.69-1.37,1.52-1.21,2-2.61.05-.57,0-1.86.8-2.13-1-.83-2.3,0-3.39-.08l.17-.37a5.7,5.7,0,0,0-2.44.17,2.14,2.14,0,0,1-2-.36c.18.2.35.39.52.6-.29.17-1-.09-1.55.64.2-.66-.61-1.46-.12-1.93-1.05,2-3.52.79-4.38,2.8-.32-.56,0-1.44.19-1.93.89.28,1.13.76,1.71-.05-.75-.07-1.25-.69-1.09-1.18-.91,1.27-2.7,1.77-3.05,3.11-.52-.69-1-1-.88-2.17-1.15.41-.8,1.27-.54,2s.46,1.47-.7,1.51c-1.18-1,1-1.54-.58-1.84l.27-.19c-1.4-2.86-.62,2.16-1.79,2.19-.39-1.55.72-1.24-.3-2.26a3.36,3.36,0,0,0-1.17,1.65c-.29.66-.58,1.19-1.17,1.06l0-.7a6.41,6.41,0,0,1-1.39.28,5,5,0,0,0-1.36.36c-.12-.29,0-.27.09-.4-1.45-.17-.27.94-1.66.22l0,.83c.71.35,1.9.79,2.28-.28-.37,1.07,1.53,1.64,1.56,3.06l0-.56a7.92,7.92,0,0,0,3,1.71c1,.37,1.92.47,2.84.91.52-.83,1-.72,1.53-.48s1,.56,1.62,0c.34-1.85.26-.35,1.37-.59-.6.16-.23,1.4.06,1.69a1.56,1.56,0,0,1,.81-.72c.14.68,1,2.39,1.76,1.27.43.77-.29.52-.51.89,0,1,.66-.59.69.09a.83.83,0,0,1-.15.26c.89.19,1.26.79,2,1.37.74-1.67,1.14-.32,1.78-.71-.37.48.21.86.3,1.29.36-.34.72-.67,1.09-1,1-.75.26,1.08,1.16.87l0-.36c.75-.25,1.3,1.47,1.14,2.52,2.91-.14,4.14,1.58,4.89,3.44s1.14,4,3,5.69c.63-.07.59-.76,1.39-1.05.48.29.49.44.8.81.14-.63-.31-.22.13-.48l-.85-.28c.09-.11.18-.08.34-.29-.28-.1-.74-.1-.87-.4.66,0,1.81-.67,1.78.16a.6.6,0,0,1-.47,0c.23.48.76.11.71.64s.31.22-.13.62c.1.53.17,1.09.25,1.62,1.77-.29,1,1.34.95,1.61-1.11.51-.81-.63-2-.26l-.46.91.82-.5.17.76-.18.06c.36-.13.73-.25.55.08-.1.1-.29.3-.38.26l.73.16c-1,.26,0,.55-1.06,1.07.32,1.7,2.42,1.11,1.68,3.13.38-.46,1.84-.39,1.85.12a.82.82,0,0,1-.82.57l.78.29c-1.36,1.4,0,1.58-.2,2.79l-.49.13c.7.14,1.3.37,1.3,1l-1,.24c-.47.86,2.22-.18,1.81.76,1.05-.32,1.45-1,2.4-1.37-1,.54-.92,1.4-.21,1,.66.66.13.55-.1.69l.76.28c.08.56-1.36.51-2,.49,1.26.18.6.93.5,1.46l-.52-.11-.07.69c.89.25,1.07.91.62,1.35-.49-.08-1-.14-1.45-.19-.75.32.5.1.75.17.74.38-.26.68-1.08,1,.73.56.16,1.1-.38,1.61S164,162.8,165,163.38Zm-56.88,45,.06.24C107.85,208.81,107.63,209,108.12,208.4Zm6.78,1.85c-.87.47-.54-.18-.54-.58.73.47,1.23.11,1.82.56a3.86,3.86,0,0,1-.12-.91c.23.07.47.39.56,1.13-.16.72-.69.48-1.1.15S114.77,209.81,114.9,210.25Zm-18.23,2.12a2.85,2.85,0,0,1,.23-.26h0Zm4.83.47a1,1,0,0,0,.11.68C101.65,213.13,101.68,212.8,101.5,212.84Zm8.63,4.36c.1.63.67.55,1.07.49A3,3,0,0,0,110.13,217.2Zm55.19-18.68c0,.38.12,1.22.79,1.07-.26-.52.75-.36.25-1a.26.26,0,0,1,.09,0A5.19,5.19,0,0,0,165.32,198.52Zm6.52-26.9a5.88,5.88,0,0,0,1.62.47l-.06.07a.73.73,0,0,1,.5,0c.16-.19.35-.39.22-.57C172.24,171.15,172,170.64,171.84,171.62Z"/><path class="cls-1" d="M177,182.7c0-.12,0-.2,0-.27A.87.87,0,0,0,177,182.7Z"/><path class="cls-1" d="M174.1,171.66c-.12,0-.36.17-.64.43A.72.72,0,0,0,174.1,171.66Z"/><path class="cls-1" d="M86.4,199.9l.32,0-.11-.75c-1.07.1-1.54.75-2.27,1.44,1.13-.3,1.3.3,2.28.61Z"/><path class="cls-1" d="M83.35,205.59a3,3,0,0,0-.1,1.07l.43-.42Z"/><path class="cls-1" d="M91.9,213.3l-.6-.85C90.83,212.79,91.39,214.07,91.9,213.3Z"/><path class="cls-1" d="M92.86,202.47l-.66.38c.1.64.59.82,1,.22C92.55,203.19,93.24,202.67,92.86,202.47Z"/><path class="cls-1" d="M94.05,214.37c.71-1,.63.84,1.22-.11C94.93,214.47,94.55,213.32,94.05,214.37Z"/><path class="cls-1" d="M97.86,204c.2-1.1-.57-.38-.93-.83C97.31,203.34,97.4,204.64,97.86,204Z"/><path class="cls-1" d="M99.67,213.07c-.33.77-.66.58-1,.26.22-.19.45-.52.67-.58a5.44,5.44,0,0,1-1.53.38c.3.75,1,1.4.5,2.33C99,214.88,99.88,214,99.67,213.07Z"/><path class="cls-1" d="M99,204.37c-.26-.46-.19-1.28-.67-1.42-.16.57-.33,1.41.27,1.52l-.58.81C98.29,206.15,98.36,204,99,204.37Z"/><path class="cls-1" d="M101.32,216.05l-.13-.51c-.87.51-1.53-.15-2.3.88A3.1,3.1,0,0,0,101.32,216.05Z"/><path class="cls-1" d="M100.3,206.81l.57-1.22c-.48-.4-.12.43-.44.65-.09-.24-.28-.45-.49-.26C100.65,206.05,99.58,207,100.3,206.81Z"/><path class="cls-1" d="M102.67,206.12l.9-.29,0-1.59C102.53,204.43,103.2,205,102.67,206.12Z"/><path class="cls-1" d="M103.24,207.29v.27c.58-.49,1.16-1,1.73-1.51A6.76,6.76,0,0,0,103.24,207.29Z"/><path class="cls-1" d="M116,219.16c.19-.57-.69-1.32-.33-.66C115.5,219,116.74,219.75,116,219.16Z"/><path class="cls-1" d="M114.11,208.13c.22.46,1.22-.25,1.61-.6C115.25,207.75,114.16,207.35,114.11,208.13Z"/><path class="cls-1" d="M115.88,207.39a.82.82,0,0,1-.16.14A.28.28,0,0,0,115.88,207.39Z"/><path class="cls-1" d="M134,204.38a.22.22,0,0,0,.07-.16Z"/><path class="cls-1" d="M133.68,204.78c-.26-.15-.64.29-.63.93a3.74,3.74,0,0,0,.9-1.33C133.81,204.48,133.54,204.09,133.68,204.78Z"/><path class="cls-1" d="M137,204.17c0,.41-.35.32-.11.83C137.11,205.2,137.28,204.49,137,204.17Z"/><path class="cls-1" d="M171.61,197.62c.55-.28.53-.67-.27-1C171,197.13,171.63,197.12,171.61,197.62Z"/><polygon class="cls-1" points="171.53 195.96 171.93 196.11 172.65 196.15 171.53 195.96"/><path class="cls-1" d="M174.37,193.44a.71.71,0,0,1,.22.36C174.58,193.56,174.56,193.36,174.37,193.44Z"/><path class="cls-1" d="M174.59,193.92a.24.24,0,0,0,0-.12Z"/><path class="cls-1" d="M174.25,194l.38.25a1.06,1.06,0,0,1,0-.33C174.57,194,174.47,194.08,174.25,194Z"/><path class="cls-1" d="M175,192.55h-1.45c.24.92,1-.41,1.85.84Z"/><path class="cls-1" d="M175.7,190.27c.65-.42-.83-2.08.71-1.8,0-2-2.46-.62-2.25-2.69-1.41,1.42,2.33,2,.87,3.26C176.24,188.66,175.49,189.85,175.7,190.27Z"/><path class="cls-1" d="M173.26,189.46c.65.42,1-.28.67-.71C173.76,188.92,172.63,188.83,173.26,189.46Z"/><polygon class="cls-1" points="176.48 186.76 177.22 186.47 176.82 186.15 176.48 186.76"/><path class="cls-1" d="M177.53,184.94l.62.81C177.9,185.46,178.26,184.74,177.53,184.94Z"/><path class="cls-1" d="M179.53,182.57c.45-.39-1.34-1.45-1.26-.31l.15-.2C178.7,182.22,179.57,181.9,179.53,182.57Z"/><path class="cls-1" d="M178.3,175.33a.56.56,0,0,0,.46.79l-.18-1Z"/><path class="cls-1" d="M173.45,174.26c-1.27,0-.1.8-.64,1.25C173.2,175,173.35,175.06,173.45,174.26Z"/><path class="cls-1" d="M180.27,174.71c.45.36,0,.67-.11.88C180.87,175.64,180.86,175,180.27,174.71Z"/><path class="cls-1" d="M180.17,173.15c.56-.2.67.21,1.05,0,.68-.54.77-1.24.15-1.74a5.09,5.09,0,0,1-2.56-.35c.23,1.08,2.36,2.09.52,2.22l1.93,1.33C181.78,173.9,179.92,173.69,180.17,173.15Z"/><path class="cls-1" d="M175.71,174.25l.84-.35c-.71-.05-.75-.48-.91-.8C174.07,172.88,175.71,173.93,175.71,174.25Z"/><polygon class="cls-1" points="180.22 167.25 180 166.03 179.87 166.4 180.22 167.25"/><polygon class="cls-1" points="180.81 166.55 181.27 166.57 180.55 165.56 180.81 166.55"/><polygon class="cls-1" points="181.5 165.35 181.41 165.49 181.73 166.24 181.5 165.35"/><path class="cls-1" d="M182,162.79l-.68.19c.15.33-.64.89.26.9A.7.7,0,0,1,182,162.79Z"/><path class="cls-1" d="M164.76,157a2.18,2.18,0,0,0,1.19-.3l-1.16,0C164.86,156.79,165,156.89,164.76,157Z"/><path class="cls-1" d="M166.32,155.61l-1.43-.26c0,.74,1,.56,1.35,1.12.33-.36-.64-.48-.39-.89Z"/><path class="cls-1" d="M161.38,142.69c.73-.4.55-.48,1.29-.31-.83-.35-1-1-1.62-1.59-.35.42-1.45.45-1.08.57l.93.48-.54.2C160.19,142.93,161.36,141.87,161.38,142.69Z"/><path class="cls-1" d="M131.21,118.71a1.77,1.77,0,0,0-.4-1.07C130.23,118.23,131.33,118.6,131.21,118.71Z"/><path class="cls-1" d="M107,129.57c.93.53.33.11.27,0Z"/><path class="cls-1" d="M107.28,129.53l.19,0C107.3,129.45,107.26,129.47,107.28,129.53Z"/><path class="cls-1" d="M108.36,128.93c.67.55-.5.32.62,1C109.77,130,109.62,129.57,108.36,128.93Z"/><polygon class="cls-1" points="107.46 128.89 108.09 129.21 107.17 128.57 107.46 128.89"/><polygon class="cls-1" points="106.81 128.76 107.06 128.84 106.54 128.26 106.81 128.76"/><path class="cls-1" d="M109.14,128.44l.08.29c-1-.21-1.11-.67-1.76-.81-.11.27,1.78.92,1.34,1.12.84.34.23-.53,1.5.12C110.83,129.07,109.54,128.79,109.14,128.44Z"/><path class="cls-1" d="M108.06,112.7l.13,0C108.05,112.67,107.94,112.64,108.06,112.7Z"/><path class="cls-1" d="M108.72,108.88a.64.64,0,0,0,.33,0l-.37-.1Z"/><path class="cls-1" d="M109.47,116a2.63,2.63,0,0,0-.38,0C109.28,116,109.43,116,109.47,116Z"/><path class="cls-1" d="M123.66,95.79l.39.16h0l-.35-.16Z"/><path class="cls-1" d="M108.43,104.2a.29.29,0,0,0-.07-.21C108.3,104.07,108.33,104.14,108.43,104.2Z"/><path class="cls-1" d="M109,117.25s0,0,0,0a.43.43,0,0,0-.16,0l.13,0Z"/><path class="cls-1" d="M106.48,109.19c.11,0,.2,0,.21,0S106.51,109.15,106.48,109.19Z"/><path class="cls-1" d="M112,125.94c.15,0,.09-.09,0-.21S111.73,125.71,112,125.94Z"/><path class="cls-1" d="M112.48,124.65s0,0,0,0C112.64,124.73,112.61,124.71,112.48,124.65Z"/><path class="cls-1" d="M113,123.93l0,0C113.1,124,113.13,124,113,123.93Z"/><path class="cls-1" d="M112,125.73c.55.14,2.2.87.47-.1l-.25-.08c.44.11-.2-.33-.22-.45l-.45-.17a.81.81,0,0,1-.28.11C110.84,125,111.66,125.45,112,125.73Z"/><path class="cls-1" d="M108.38,112.86c-.33-.14-.2,0,0,0Z"/><path class="cls-1" d="M109.23,114.54a.2.2,0,0,0,.1-.08C109.25,114.47,109.17,114.47,109.23,114.54Z"/><path class="cls-1" d="M106.89,118.29l.09,0C106.79,118.22,106.81,118.25,106.89,118.29Z"/><path class="cls-1" d="M109.39,114.38a.16.16,0,0,1-.06.08C109.41,114.47,109.47,114.46,109.39,114.38Z"/><path class="cls-1" d="M108.43,117.56h0S108.43,117.55,108.43,117.56Z"/><path class="cls-1" d="M135.4,80.61c.12.18-.39.08-.58.14,1.15.68.21-.51,1.18.23,0-.11-.1-.26-.25-.4l-1.22-.23C134.91,80.72,135,80.34,135.4,80.61Z"/><path class="cls-1" d="M126.45,95.59h-.12a2.31,2.31,0,0,0,1,.2c-.77-.4-2-.64-2.87-1.16.07.07,0,.12-.11.13A9,9,0,0,1,126.45,95.59Z"/><path class="cls-1" d="M124.38,94.76h-.07l-.3-.07s-.06,0-.15,0A1.43,1.43,0,0,0,124.38,94.76Z"/><path class="cls-1" d="M133.75,83.49l-.14,0C133.84,83.57,133.85,83.54,133.75,83.49Z"/><path class="cls-1" d="M122.65,110.82a3.85,3.85,0,0,0,.3.27A.67.67,0,0,0,122.65,110.82Z"/><path class="cls-1" d="M124.59,97.2a.43.43,0,0,0-.22,0,.19.19,0,0,1,0,.08Z"/><path class="cls-1" d="M115.57,86.71c1.31.52-.08-.09.73,0l-.67-.37C115.38,86.42,115.57,86.6,115.57,86.71Z"/><path class="cls-1" d="M135.84,80.6l-.11,0,0,0Z"/><path class="cls-1" d="M116.52,82.79h.2A.34.34,0,0,0,116.52,82.79Z"/><path class="cls-1" d="M123.55,95.35l-.26.47.37,0C123,95.49,124.32,95.7,123.55,95.35Z"/><path class="cls-1" d="M114.12,88.54l-.82-.23c1.56,1.08-1.08.79,1.2,2-3-.39,2.4,1.27-.3.93l.4.13c-1.06,1.61-3.19,2.79-2.47,4.91l-.55-.22c-2,2.16-1.84,5.12-3.39,7.47.4.46,1.67.85,2.19,1.33-.09.07-.12.3-.79,0-.29-.33-.93-.5-1.16-.68-.06.32-1,.34-.3,1l1,.17c.32.26,0,.31-.08.38-.42-.24-1.43-.53-1.6-.7,1.91,1.5-1.12,0-.47.84a20.14,20.14,0,0,1,4.17,3.15l-.56,0c.13-.26-1.34-.61-1.11-.89-.65,0,0,.64-.39.76a3.69,3.69,0,0,1,1.24.65c-.33,0-1.25-.36-1.43-.22l-.49-.45c-.74-.19.12.33.18.49-.78-.31-1-.11-1.88-.55.93.73.31.54.85,1.11.93.1,1,.53,1.62.8l-.16-.45c-.71.2-.07-.2-1.39-.77.7.07,2,1.27,2,.83.48.72-.15.54.74,1.46-.13-.37.83.44,1.29.49-.1.34-.5-.14-1.38-.42,0,.19-.81-.09.07.52-.52.1-1-.5-1.55-.6-.85-.53,1.47-.28-1.43-1.53,0-.16-1-.85-.82-1-.46,0-1.53-.17-1,.36l1.61.77c0,.19,1,.73.84.79-.44-.28-1.17-.48-1.11-.28.25.07.22,0,.5.14,0,.31,1.08.86,1.24,1.31a9.6,9.6,0,0,1,1.86.2c1.1.59.09.25.16.45a1,1,0,0,0-.41-.2l.48.41c-.64.09-1.62-.81-2.29-.8-1-.26.41.5-.19.38l.3.11a.2.2,0,0,1-.11,0l.08,0c.09.24-.09.38.73.83-.39-.16,0,.2.28.38s1.18.94-.24.45c0,0,0,0,0,0a1.35,1.35,0,0,1-1.2-.16l-.5.18-1.08-.55c.15.45.81.72,1.84,1.47-.76-.09-.41.55-.07.89-.06,0-.08,0,0,.13l.49.07c-.16.22.43.47.36.63.12,0,.18,0,0,0l-.12,0c-.12-.06-.08-.09,0-.1l-.38-.14c-1.26-.36.52.61,0,.62,0,0-.1-.11-.07-.12-.35,0-2-.59-1.06-.09-.14,0,0,.1.25.25h-.2a.48.48,0,0,1,.21,0c.28.2.65.44.41.33l-.33.21c-.19,0-.09.12,0,.26l-.48-.17c0,.14-.26,0-.38-.06-1.75-.36.54,1-1,.73a6.87,6.87,0,0,0,1.56.61,9.35,9.35,0,0,1,1.32,1.13c-1.13-.31-2.32-.19-3.8-1-.27.28,1,.33,1.43.75h-.08a4.49,4.49,0,0,1,1.41.33c.83.36.93.77.65.75l-1.13-.61c.26.5,2,1.26,3.12,2a10.29,10.29,0,0,1-2.64-1l.17.4-.88-.41c.16.28,1,.7.5.77-.74-.55-1,0-2-.78-.35,0,1.32.82.13.34.89.53.52.1.84.17,1.37.58.51.59.79.91-.7-.31-.77-.49-1.32-.52.51.28.86.59.17.4.87.41.08.29,0,.37a3.2,3.2,0,0,1,1.66.52c.31.25.45.41.24.57l.47,0c1.2.78-1.07-.13-.77.31a11.85,11.85,0,0,0-1-.8,12.42,12.42,0,0,1,1.22,1.19l-1.38-.38c.63.32-.16.21.71.61-.7,0-.95-.69-1.58-1-.73.06,1.34.94-.15.63l-.77-.48c-.11.08.27.5-.15.33.29.13.2,0,.23,0,1.73.88,1,1,2.84,1.85l.18-.09c.25.38,1.41,1.1.69,1a5.13,5.13,0,0,1-1.62-.95c-.21.15,1.92,1.08,1.63,1.25a3.46,3.46,0,0,1,1.42.61c.18-.08.66-.22-.13-.52l-.19,0a4.14,4.14,0,0,1-.82-.53c.09-.2.86.29,1.23.41.43-.19-1.8-.86-1.61-1.13l.37.12a3.81,3.81,0,0,0-1.46-1.16c1.23.41-.31-.56.46-.38,2.58,1.17-.41.43.92,1.25a5.89,5.89,0,0,1,1.74,1l-.89-1c.37.12,1.72.57.83,0h-.08c-.2-.33-1.28-.77-.85-.77a5.93,5.93,0,0,1,.8.41c.31,0-.52-.4-.71-.61.3,0,1,.57,1.36.57-.91-.64.37-.17.38-.36-1.49-.61-1.7-1.55-3.14-1.81l-.82-.84c.82.24,1.92,1.22,3.2,1.68l-.19.28c1.83.8-.9-1.18,1.22-.43.15-.12-.12-.2.92-.08l-1.64-.71a6.8,6.8,0,0,1,1.65.51c-.06-.14,0-.2.13-.25a1.74,1.74,0,0,1,.49.36c1,.3.63.11.17-.15s-.28-.33-.22-.42l.56.37a1.46,1.46,0,0,0-.53-.42s0-.1-.09-.18a9.84,9.84,0,0,0-1.75-.54c.8-.07.59-.52,2.07-.2.46.23,1,.64,1.06.62.31,0-.43-.59-1.14-.91a.21.21,0,0,1,0-.12,3.19,3.19,0,0,0,1,.29.83.83,0,0,0,.37.06c-1.25-.66-.47-.65-1-1-.16,0-.19.09-.19.2-.79-.53-1.72-1.1-1-.87.71.62,1.45.38,1.65.9,1.74.52-1.11-.68-.41-.67l.72.14c.92.46.34.49.71.61l-.06-.17c.64.45,0,.67.89,1.44l.78-.3c-.79-1.21.89-1.46-.88-3,0,0,0,0,0,0a6.51,6.51,0,0,0-.6-.32l.24.08-.65-.44a9.69,9.69,0,0,0,2,.23,4.45,4.45,0,0,1-1.34-.46c-.93-.46-1.31-.67-.88-.7.67.31.59.42,1.19.52a1.47,1.47,0,0,1-.84-.49,3.55,3.55,0,0,1,1.32.27c.16.13-.09.07-.2.06.15.13.69.07,1.17.48l-.1-.29c.61.15.84.49,1.22.61-.3-.54-1.75-1.43-2.06-1.94.35.18,1.83.88,1.4.67.56,0-1.38-1.25-1.38-1.57.43.25.2.26.38.44.94-.54,1.28-1.18,3-1.28l-1.43-.91,1.1.27c1.35-.34.65-1.41.54-2.39,0-.28,1.13.35,1.61.43.42-.45-1.25-1.36-1.37-2,.44.28,1.7,1,1.86.81-.42-.24-1.1-.58-.77-.6l.44.28c.74.19.15-.22.56-.35.17-.47-.72-1.4-2.25-2.52.33-.33,1.64.78,2,.85-.69,0,.19.32.69.61-.37-.34-.55-.64.58-.23,0-.24.12-.32-.53-.85.32.27-.31.09-.76-.22.46,0,.23-.63,1.59,0a20.64,20.64,0,0,1,1.35-3.24c-.64-.48-.34,0-.8-.29-.81-.65.57,0-.08-.53l.72.41c.25-.28-1-1.2-1.59-1.79.84.4.82,0,1.23.51-.08-.21,3.85,1.19,3.11.74l-3.66-1.3c-.35-.15,0-.27-.3-.35a5.7,5.7,0,0,0,1.7.24c.93.33.64.48.57.6,1.51.64,1.15,0,2.46.72-.13-.37-.79-.28-1.28-.67l.42-.11-.59,0c-.37-.38-1.5-.92-.55-.84l-1.37-.87c1.21.45.3-.11.63-.14l.73.39c0-.2.28-.19.76-.14,1,.53-.32.08.66.52l.44-.07a6.4,6.4,0,0,0-1.63-.63c-1.2-.69-2.21-1.21-1.92-1.65,1.25.25.94.64,2.13,1,.7-.3-2.8-1.79-2.55-2,.62-.19-.46-.58-.4-1,.75.42,1,.06,1.74.28l.77.46c-.2-.21.15-.2.72.05-1.08-.38-.82-.87-1.24-1.32l-.94-.3c-.23-.31-.71-.81-.4-.93-.18-.43-1-.66-2-1.27a15.77,15.77,0,0,1,2.87,1c-.51-.08-.28.16-.62.2.65.69,2.49,1.74,1.88,2,2.17,1-.15-.37.71-.27.13.05.17.08.18.11s0,0,.09,0a3.55,3.55,0,0,0,1.61,1.09c-.13-.34-2.16-1-1.09-1-.55-.46,1.29,0,1.49-.09-.78-.46-2.58-1.11-2.1-1.36l1.2.62c.18-.42-1.77-.86-1.57-1.23-.2.08-1.19-.57-1.32-.33-.63-.37-.65-.69-.21-.77a5.62,5.62,0,0,0-.85-.32c-1-.08.72.66-.61.4l1.3.65a4.69,4.69,0,0,1-2.16-.66c0,.08.21.2,0,.16-2.06-.7.81,0-.89-.68l.09.2c-1.35-.42-1-.76-.88-.92a4.61,4.61,0,0,1,2,.21l.32.44c.82.12-.33-.54-.24-.69l.32.06-.27-.08a1,1,0,0,1,.42,0c.1-.13-.42-.56-.06-.59l-.87-.28.48.19c-.08.12-.67.12-1.28-.21-.49-.51,1.18,0,2,.19,1.29.53-.11.3.29.61,1.33.36.23-.27,1.2-.28,1.39.62-.14.36,1.16.89.33-.17-.67-.59-.22-.74.65.27.63.55,1.49.83l.46,0c-.05.46,1.81.54,2,1,.64,0-1.1-.63-.12-.54a6.84,6.84,0,0,1-2.32-.78l.5-.09c.72.13,1.44.78,2.07.82l-.4-.42a6,6,0,0,1-1.25-.37c.51,0-1.57-.82-2.15-1.21.08-.12.21-.2.72-.08-1.15-.78-1-1.2-2.06-1.93a4.38,4.38,0,0,0,2.15.58c.1.31,1.44.77,2.31,1.05a5.46,5.46,0,0,0-1.92-.85c.63-.07-.88-.5.1-.41a12.37,12.37,0,0,1,1.82.64c.15-.25-1.6-.63-1.19-.82a2.07,2.07,0,0,0,.48.19c.33-.07-.24-.46-.9-.72,1.81.42,0-.55,1.66.06-.33-.55-.95-.26-1.52-.54s0-.5.31-.5c0,.11.45.36.15.36l1.21.32c1-.21-2.58-1.21-1.4-1.34.54.45.87.38,1.67.78-.27-.17.18-.43-.8-.51a1.44,1.44,0,0,1,.66-.24,6,6,0,0,0-1.42-.94c.2-.21,1.1-.11,1.66-.06-.69-.8.93-.8.19-1.65h-.08c.36-.35-1.64-.32-1.45-.75,1.43.53,1.06.05,1.88.16.92-.3-.76-1.28.38-1.46.3.1.65.25.66.36.58-.24.39-.64.58-1l.17.07a.9.9,0,0,0,.58-.23c.05-.06,0-.15-.1-.28a4,4,0,0,1-.64-.91c.17.1.71.32.89.42.4-.1.77-.43-.45-1.14,1.54.2-.34-.39,1.2-.33.26.06.22.14.26.19.56-.07.49-.29.76-.51-.69-1-2.5-1.72-1.7-2.32,2,.57.34.65,1.91,1.17-.3-.28-.66-.55-.12-.63.74.38.48.18,1.18.5.59,0-1.85-1.39-1.67-1.32-.39-.12-.61-.1-.61.08-1.17-.52.14-.91-.27-1.51-.06.15-.57.52-1.48.13.56-.48-1.38-1.06-2.15-1.5,1-.33,1.69.59,3.13.77a4.92,4.92,0,0,1,2.24.28c.4-.52-.79-1.07-1.07-1.51l.41,0c-.11-.66-1.89-1.29-1-1.69l-.48.22c-.24-.09-.12-.35-1-.49.69,0,1.3-.3,1.87-.16-2.19-.24-1.35-1.08-3.43-1.22a8.47,8.47,0,0,1,1.94,0c-.18.29-.61.38.26.52,0-.24.52-.43,1-.41-1.36-.21-1.92-.71-3.29-.75a6,6,0,0,1,2.17-.36c-.74-.62-3.48.5-3.5-.23,1.08-.38,1.5.24,1.85-.23l.19.07c2.9-.48-2.1-.11-2-.48,1.59-.13,1.15.19,2.28-.12-.42-.3-2.79-.32-2.29-.67l.67,0c-.13-.2.18-.59,0-.78.31,0,.27,0,.36,0,.59-.35-.82-.14.28-.42l-.78-.08c-.54.14-1.32.44-.41.61-.91-.17-2,.37-3.37.32l.55,0a6.18,6.18,0,0,0-3.41,2.1c1.65.33-.62.72.52,1.09,1.86,0,.38.07.76.41a3.3,3.3,0,0,0-1.67.13,2.19,2.19,0,0,1,.83.21c-.64.09-2.13.45-.88.6-.6.16-.59-.06-1-.1-1,0,.74.16.1.2a2.52,2.52,0,0,1-.29,0c.06.24-.43.36-.68.52,1.82.21.66.27,1.3.44a4.31,4.31,0,0,0-1,0l1.32.35c1.1.37-.82,0-.25.25l.33,0c.5.25-.66.3-1.63.1,1.51,1.15.78,1.62-.23,2a6.68,6.68,0,0,0-1.59.66,1.82,1.82,0,0,0-.57.6,1.15,1.15,0,0,0-.18.8c.49.28.91.2,1.66.54.14.24,0,.26,0,.43.51,0-.08-.16.4,0l-.41-.4c.13,0,.18.07.43.13-.13-.14-.45-.34-.32-.43.4.31,1.67.75,1.11.81a.84.84,0,0,1-.31-.21c-.16.14.46.35.07.37s.08.16-.49,0l-.85.27c1.46.74-.1.57-.27.61-1.13-.43-.25-.45-1.34-.93l-.9-.1.92.31-.34.17-.17-.07c.35.15.7.29.36.26a2.08,2.08,0,0,1-.44-.14l.45.35c-.92-.42-.33.06-1.42-.32-.74.41,1.24,1.23-.43,1.26.55.08,1.68.73,1.43.82a1.88,1.88,0,0,1-1-.25l.5.4c-1.8-.31-.78.31-1.49.5l-.47-.18c.52.33.93.64.68.79l-1-.36c-.76,0,2,.88,1.25,1,1,.34,1.63.34,2.63.64-1.08-.28-1.34,0-.56.15.33.43-.09.19-.35.13l.58.39c-.12.18-1.39-.4-2-.67,1,.56.2.5,0,.66l-.43-.25-.28.22c.75.46.73.74.22.83l-1.31-.63c-.76-.07.45.25.66.37.58.49-.36.23-1.17.11C116,88.32,112.19,87.48,114.12,88.54Zm-6.56,29.95.21.05C108,118.74,108.14,118.88,107.56,118.49Zm1.42-2c.38.51-.19.13-.56,0,.48-.09.13-.44.67-.47-.28-.08-.63-.24-.86-.33.11-.07.44,0,1.12.26C110.6,116.61,108.17,116.2,109,116.44Zm4.08,8-.27-.17h0Zm-.53-1.87a2.24,2.24,0,0,0,.58.16C112.75,122.64,112.45,122.53,112.53,122.62Zm2.85-1.89c.58.2.48,0,.4-.18A.61.61,0,0,0,115.38,120.73Zm7.07-17.26a2.08,2.08,0,0,0,1.14.58c-.45-.27.43-.06-.28-.42h.07A7,7,0,0,0,122.45,103.47ZM121,93.55c.55.21,1.14.48,1.58.59h-.05a2.45,2.45,0,0,1,.47.14c.14,0,.3-.05.15-.15C121.29,93.48,121,93.23,121,93.55Z"/><path class="cls-1" d="M127.46,99s0-.06,0-.09A.18.18,0,0,0,127.46,99Z"/><path class="cls-1" d="M123.1,94.15a1.43,1.43,0,0,0-.56,0A.83.83,0,0,0,123.1,94.15Z"/><path class="cls-1" d="M105.13,126.06l-.14-.16-.6-.08a7.73,7.73,0,0,0,2.07,1.36c-.72-.61-.24-.57-.34-1Z"/><path class="cls-1" d="M111,128.62a7.76,7.76,0,0,0,.94.28l-.52-.29Z"/><path class="cls-1" d="M115,126.76l-.58,0C114.86,127.08,115.82,127.18,115,126.76Z"/><path class="cls-1" d="M105.27,123.54l.53.41c.52.1.54-.09-.09-.41C106,123.86,105.34,123.41,105.27,123.54Z"/><path class="cls-1" d="M115.43,126.15c-1-.56.59,0-.38-.54C115.31,125.81,114.39,125.65,115.43,126.15Z"/><path class="cls-1" d="M105.37,121.65c-1-.39-.22.15-.52.2C104.91,121.72,106,122,105.37,121.65Z"/><path class="cls-1" d="M113.07,123.44c.75.37.65.45.41.48a5.55,5.55,0,0,1-.64-.45,5.25,5.25,0,0,1,.65.75,4.78,4.78,0,0,1,2,.48A8.7,8.7,0,0,0,113.07,123.44Z"/><path class="cls-1" d="M105.42,121.21c-.35,0-1.08-.25-1.1-.07.54.22,1.32.53,1.29.29l.84.47C107.17,122,105.26,121.42,105.42,121.21Z"/><path class="cls-1" d="M115.44,123.68l-.44-.11c.61.51.15.58,1.21,1.2C116.26,124.53,115.91,124,115.44,123.68Z"/><path class="cls-1" d="M107.35,121.34l-1.21-.6c-.26.1.41.18.67.38-.2,0-.34,0-.13.14C106.6,121,107.67,121.71,107.35,121.34Z"/><path class="cls-1" d="M106.28,120.11l-.41-.48-1.42-.45C104.78,119.67,105.2,119.55,106.28,120.11Z"/><path class="cls-1" d="M107.23,120.21l.25.08-1.64-1.2A12,12,0,0,0,107.23,120.21Z"/><path class="cls-1" d="M117.18,119.72c-.51-.28-1.26-.38-.63-.2C117,119.77,117.77,119.81,117.18,119.72Z"/><path class="cls-1" d="M107,115.94c.45.09-.15-.59-.44-.9C106.72,115.33,106.26,115.63,107,115.94Z"/><path class="cls-1" d="M106.43,114.92l.11.12A.4.4,0,0,0,106.43,114.92Z"/><path class="cls-1" d="M106.49,107.73a.32.32,0,0,0-.12-.11Z"/><path class="cls-1" d="M106.73,108c-.22,0,0,.35.57.64a4,4,0,0,0-.81-.92C106.52,107.82,106.08,107.72,106.73,108Z"/><path class="cls-1" d="M107.62,106.78c.31.23.09.24.61.45C108.48,107.3,108,106.9,107.62,106.78Z"/><path class="cls-1" d="M127.22,104c.34,0,.15-.2-.65-.48C126.52,103.72,127,103.82,127.22,104Z"/><polygon class="cls-1" points="126.48 103.31 126.88 103.45 127.52 103.59 126.48 103.31"/><path class="cls-1" d="M128,102.78a1.78,1.78,0,0,1,.32.2A.48.48,0,0,0,128,102.78Z"/><path class="cls-1" d="M128.38,103s0,0,0,0Z"/><path class="cls-1" d="M128.1,103l.41.18a.64.64,0,0,1-.13-.15S128.33,103.07,128.1,103Z"/><path class="cls-1" d="M128.28,102.54l-1.28-.28c.52.43.71,0,1.91.71Z"/><path class="cls-1" d="M128.2,101.75c.46,0-1.33-1,.13-.57-.55-.8-2.42-.79-2.74-1.57-.94.26,2.64,1.32,1.66,1.5C128.22,101.22,127.89,101.54,128.2,101.75Z"/><path class="cls-1" d="M125.78,100.92c.7.3.85.1.4-.15C126.08,100.8,125,100.53,125.78,100.92Z"/><polygon class="cls-1" points="127.94 100.51 128.55 100.56 128.11 100.34 127.94 100.51"/><path class="cls-1" d="M128.45,100l.77.46C128.92,100.31,129.07,100.11,128.45,100Z"/><path class="cls-1" d="M129.8,99.57c.33,0-1.54-.88-1.23-.42l.1,0C129,99.24,129.69,99.32,129.8,99.57Z"/><path class="cls-1" d="M127.48,96.55c-.08.09.12.29.53.41l-.3-.41Z"/><path class="cls-1" d="M122.78,95c-1.2-.33,0,.27-.44.31C122.64,95.14,122.79,95.22,122.78,95Z"/><path class="cls-1" d="M129.24,96.83c.46.25.11.25,0,.29C129.93,97.32,129.82,97.08,129.24,96.83Z"/><path class="cls-1" d="M129,96.27c.5.08.65.25,1,.3.59,0,.58-.23,0-.56a16.41,16.41,0,0,1-2.46-.81c.32.44,2.44,1.35.73.91l2,1C130.58,97,128.8,96.39,129,96.27Z"/><path class="cls-1" d="M124.9,95.51l.74.08a1.76,1.76,0,0,1-.94-.52C123.19,94.59,124.84,95.39,124.9,95.51Z"/><polygon class="cls-1" points="128.61 94.31 128.37 93.86 128.25 93.94 128.61 94.31"/><polygon class="cls-1" points="129.16 94.26 129.59 94.4 128.88 93.87 129.16 94.26"/><polygon class="cls-1" points="129.78 94.08 129.7 94.1 130.01 94.43 129.78 94.08"/><path class="cls-1" d="M130.3,93.48l-.65-.16c.14.15-.63.08.23.35C129.62,93.5,129.78,93.36,130.3,93.48Z"/><path class="cls-1" d="M115,85.73a5,5,0,0,0,1.17.38l-1-.45S115.25,85.79,115,85.73Z"/><path class="cls-1" d="M116.87,85.93l-1.15-.66c-.27.22.68.58.79.89.42,0-.41-.41,0-.43Z"/><path class="cls-1" d="M119.38,81.36c.79.28.7.19,1.15.54-.41-.41-.17-.57-.19-.89-.52-.11-1.32-.6-1.14-.43l.38.47-.53-.22C118.37,80.86,119.89,81.26,119.38,81.36Z"/><path class="cls-1" d="M130.33,70a5.26,5.26,0,0,0,1.14-.1C131,69.74,130.42,70.05,130.33,70Z"/><path class="cls-1" d="M200,61.67c.5-1,.09-.34-.09-.27Z"/><path class="cls-1" d="M199.9,61.4l-.06-.2C199.81,61.38,199.84,61.42,199.9,61.4Z"/><path class="cls-1" d="M199,60.3c.53-.71.49.49,1.09-.65C200.07,58.81,199.48,59,199,60.3Z"/><polygon class="cls-1" points="199.14 61.22 199.4 60.57 198.82 61.53 199.14 61.22"/><path class="cls-1" d="M199.09,61.88l0-.25-.57.57C198.74,62.09,198.91,62,199.09,61.88Z"/><path class="cls-1" d="M198.2,59.55l.34-.12c0,1-.51,1.2-.51,1.87.32.08.65-1.9,1-1.46.22-.88-.71-.2-.26-1.54C198.49,57.76,198.53,59.1,198.2,59.55Z"/><path class="cls-1" d="M182.1,66.47l0-.13C182.08,66.49,182.1,66.6,182.1,66.47Z"/><path class="cls-1" d="M177.8,67.45a1,1,0,0,0-.17-.29,3.38,3.38,0,0,0,.06.38Z"/><path class="cls-1" d="M184.8,63.81a2.3,2.3,0,0,0,.17.35C184.94,64,184.89,63.81,184.8,63.81Z"/><path class="cls-1" d="M157.55,58.59a4.19,4.19,0,0,0,0-.42v0l0,.38Z"/><path class="cls-1" d="M173,69.61a.32.32,0,0,0-.2.14C172.9,69.78,173,69.72,173,69.61Z"/><path class="cls-1" d="M186.35,63.69h-.07a.71.71,0,0,0,.08.15v-.14Z"/><path class="cls-1" d="M179.19,69.37c-.06-.1-.11-.18-.15-.17S179.14,69.36,179.19,69.37Z"/><path class="cls-1" d="M194,57.3c-.07-.14-.15,0-.22.11S193.91,57.67,194,57.3Z"/><path class="cls-1" d="M192.34,57.36h0C192.35,57.18,192.34,57.22,192.34,57.36Z"/><path class="cls-1" d="M191.29,57.21l0,0C191.3,57.05,191.3,57,191.29,57.21Z"/><path class="cls-1" d="M193.81,57.41c-.1-.57,0-2.37-.34-.41l0,.27c-.08-.46-.28.31-.41.36l0,.48a1,1,0,0,1,.26.22C193.48,58.76,193.63,57.82,193.81,57.41Z"/><path class="cls-1" d="M182.12,66.11c0,.36.12.17,0,0Z"/><path class="cls-1" d="M183.45,64.63a.38.38,0,0,0-.13-.06C183.36,64.64,183.4,64.71,183.45,64.63Z"/><path class="cls-1" d="M188.48,65.12l0-.08C188.45,65.24,188.47,65.21,188.48,65.12Z"/><path class="cls-1" d="M183.2,64.55a.25.25,0,0,1,.12,0C183.28,64.5,183.24,64.44,183.2,64.55Z"/><path class="cls-1" d="M187,64.06a.11.11,0,0,0,0,0S186.94,64.06,187,64.06Z"/><path class="cls-1" d="M135.52,53.58c.13-.2.31.3.48.42.1-1.35-.68.1-.42-1.13-.14,0-.23.23-.3.43l.45,1.16C135.92,53.94,135.46,54.09,135.52,53.58Z"/><path class="cls-1" d="M156.28,56l0,.11a2,2,0,0,0-.18-1A30.16,30.16,0,0,1,156,58.2c.05-.1.12-.06.19.06A7.79,7.79,0,0,1,156.28,56Z"/><path class="cls-1" d="M156.2,58.26v.06l0,.31s.07,0,.1.13A1.52,1.52,0,0,0,156.2,58.26Z"/><path class="cls-1" d="M140.11,53.6l.14.12C140.17,53.48,140.14,53.49,140.11,53.6Z"/><path class="cls-1" d="M173.43,53.93a3,3,0,0,0,.13-.39A.68.68,0,0,0,173.43,53.93Z"/><path class="cls-1" d="M158.67,57.23a.62.62,0,0,0,.12.19l.07-.06Z"/><path class="cls-1" d="M151.26,69.22c0-1.4,0,.11-.24-.69l-.1.75C151.06,69.5,151.16,69.26,151.26,69.22Z"/><path class="cls-1" d="M135.25,53.21l0,.13v0Z"/><path class="cls-1" d="M146.91,69.85l-.1-.19A.56.56,0,0,0,146.91,69.85Z"/><path class="cls-1" d="M157.13,58.85l.6.08-.18-.34C157.48,59.28,157.21,58,157.13,58.85Z"/><path class="cls-1" d="M153.54,70l.06.85c.55-1.82,1.25.76,1.67-1.78.75,3,.43-2.68,1.11,0l0-.42c2.14.47,4.4,2,6.41.59v.6c3.22,1,6.39-.2,9.63.29.31-.55.14-1.86.4-2.53.12,0,.37,0,.37.72-.22.4-.11,1-.18,1.34.36-.07.83.78,1.16-.12l-.27-.95c.13-.39.33-.12.45-.07-.06.48.1,1.52,0,1.75.71-2.35.53,1,1.12.09a18.69,18.69,0,0,1,1.36-5.1l.24.53c-.33,0,0,1.47-.41,1.37.34.58.66-.28,1,0a3.14,3.14,0,0,1,.09-1.4c.2.28.21,1.29.44,1.39l-.23.63c.15.76.28-.23.43-.36,0,.85.38,1,.31,1.94.32-1.15.43-.5.76-1.23-.34-.89.1-1.1.06-1.81l-.39.34c.55.56-.18.15-.15,1.58-.25-.66.37-2.36-.06-2.14.52-.73.63-.09,1.16-1.27-.32.26.07-.94-.1-1.38.4-.05.1.5.22,1.43.22,0,.29.78.5-.28.36.43-.06,1.07.12,1.66-.14,1-1-1.22-.91,1.93-.18,0-.42,1.25-.69,1.18.23.41.57,1.45.86.74l0-1.78c.23,0,.28-1.26.44-1.1-.09.52.06,1.27.24,1.12-.05-.25-.12-.19-.1-.5.33-.14.38-1.35.77-1.68a8.76,8.76,0,0,1-.68-1.77c.08-1.25.21-.18.39-.34a.85.85,0,0,0,0,.46l.2-.6c.39.54-.06,1.8.27,2.41.22,1,.31-.59.49,0l0-.32a.2.2,0,0,1,.09.09V66c.21-.18.44-.08.5-1,0,.42.19-.13.26-.41s.41-1.48.58,0h0a1.25,1.25,0,0,1,.41,1.15l.43.38,0,1.21c.39-.33.35-1,.62-2.29.28.72.77.14.95-.31,0,0,.08,0,.16,0l-.16-.47c.3,0,.26-.59.46-.6,0-.11-.05-.18.07,0a.39.39,0,0,1,.11.09c0,.13-.05.11-.1,0l0,.4c.26,1.29.38-.73.65-.28,0,0-.07.13-.1.11.15.33.39,2,.44,1,0,.13.09-.08.13-.34l.12.18a.52.52,0,0,1-.11-.19c.06-.35.12-.78.13-.52l.38.21c.07.18.17,0,.24-.15l.07.51c.14-.08.14.22.13.36.49,1.74.71-.91,1.22.6a6.42,6.42,0,0,0-.14-1.67,8.57,8.57,0,0,1,.49-1.69c.24,1.16.9,2.19.78,3.86.39.13-.11-1,.08-1.61l.05.07a4.3,4.3,0,0,1-.32-1.42c0-.9.33-1.16.44-.9L191,63.65c.37-.45.31-2.39.58-3.67.3.51.1,1.68.14,2.83l.32-.31,0,1c.21-.25.29-1.15.55-.76-.23.9.37.92.05,2.13.12.33.26-1.53.27-.24.16-1-.1-.52-.17-.85,0-1.48.37-.7.58-1.07,0,.77-.18.89,0,1.42.08-.58.25-1,.31-.3.08-1,.26-.18.37-.11a3.09,3.09,0,0,1-.1-1.75c.14-.38.25-.56.49-.4l-.13-.47c.36-1.39.27,1,.61.64a10.31,10.31,0,0,0-.45,1.25,9.71,9.71,0,0,1,.8-1.53l.06,1.43c.13-.7.26.1.4-.86.2.69-.41,1.11-.53,1.82.25.67.53-1.55.64,0l-.27.87c.1.08.41-.39.34.06.06-.32,0-.2-.09-.21.42-1.9.77-1.23,1.14-3.19l-.15-.17c.34-.32.85-1.6.91-.86A4.44,4.44,0,0,1,197,62c.22.18.7-2.08,1-1.81a2.83,2.83,0,0,1,.35-1.51c-.17-.18-.51-.65-.62.19l0,.2a4.47,4.47,0,0,1-.39.91c-.25-.06.07-.91.1-1.3-.39-.41-.44,2-.81,1.8l0-.39a3.34,3.34,0,0,0-.82,1.7c0-1.3-.48.45-.54-.33.36-2.82.6.27,1.05-1.22-.1-.6.35-1.31.56-1.93-.3.36-.59.73-.88,1.1,0-.4,0-1.82-.25-.82l0,.08c-.31.28-.39,1.44-.56,1a5.26,5.26,0,0,1,.16-.89c-.18-.29-.25.62-.42.86-.17-.28.24-1.15.1-1.48-.36,1.07-.36-.29-.59-.25-.07,1.6-1,2.12-.67,3.56l-.53,1.07c-.09-.85.46-2.23.43-3.59l.39.09c.08-2-.91,1.24-1-1-.21-.09-.16.19-.54-.82v1.79a5.71,5.71,0,0,1-.23-1.72c-.13.11-.24.06-.35,0a1.65,1.65,0,0,1,.16-.59c-.13-1-.19-.63-.26-.1s-.22.39-.35.37l.13-.66a1.19,1.19,0,0,0-.2.66c-.06,0-.11,0-.16.15a9.76,9.76,0,0,0,.28,1.82c-.46-.7-.83-.32-1.23-1.8,0-.51.18-1.16.13-1.22-.21-.26-.43.64-.4,1.42-.05,0-.08.07-.11.07a2.73,2.73,0,0,0-.19-1c0-.16-.06-.31-.13-.36-.06,1.42-.44.71-.52,1.36a.22.22,0,0,0,.31.08c-.15,1-.27,2-.41,1.27.29-.9-.33-1.47.11-1.87-.34-1.79-.15,1.29-.48.66l-.22-.71c0-1,.33-.52.28-.91l-.15.14c.13-.78.7-.28,1-1.44l-.72-.57c-.87,1.25-1.9-.15-2.58,2.11,0,0,0,0,0,0a6.35,6.35,0,0,0,0,.69l0-.26-.14.78a8.86,8.86,0,0,0-.73-1.92,4.28,4.28,0,0,1,.18,1.41c0,1-.06,1.47-.3,1.09,0-.74.15-.72,0-1.3a1.39,1.39,0,0,1-.1,1c-.13-.47-.36-.58-.36-1.31.06-.2.11,0,.15.16.06-.2-.25-.66-.07-1.26l-.24.21c-.15-.62.09-1,0-1.36-.4.5-.61,2.18-1,2.68,0-.39,0-2,0-1.55-.29-.49-.61,1.78-.94,1.91,0-.48.17-.29.27-.52-1-.63-1.8-.66-2.72-2.23l-.25,1.68L179.86,55c-1-1.08-1.73,0-2.66.5-.3.1-.17-1.17-.3-1.65-.64-.19-.81,1.71-1.42,2.08.09-.52.24-2,0-2-.05.49-.09,1.25-.25.95l.09-.51c-.15-.76-.3-.05-.61-.37-.55,0-1.09,1.21-1.56,3.07-.49-.18.06-1.81,0-2.18.34.62.25-.29.33-.87-.19.47-.41.76-.5-.44-.25.07-.37,0-.63.82.13-.41.24.24.11.79-.2-.42-.73,0-.69-1.47a22.56,22.56,0,0,1-3.86,0c-.22.77.16.3,0,.84-.32,1-.25-.52-.51.28l.11-.82c-.37-.12-.79,1.39-1.16,2.14.07-.93-.29-.77,0-1.32-.18.15-.37-4-.52-3.17l.19,3.89c0,.38-.27.15-.24.4a6,6,0,0,0-.45-1.67c-.05-1,.22-.76.37-.74,0-1.64-.5-1.06-.28-2.56-.32.27.05.84-.15,1.45L165,52l.22.55c-.24.49-.32,1.74-.63.82l-.33,1.6c0-1.29-.24-.24-.4-.54l.1-.83c-.22.05-.3-.18-.44-.65.13-1.14.2.27.26-.8l-.25-.39a5.82,5.82,0,0,0,0,1.75c-.23,1.37-.35,2.51-.92,2.39-.25-1.25.28-1.11.17-2.35-.59-.53-.72,3.26-1.06,3.11-.44-.51-.41.65-.85.73.14-.86-.31-.92-.4-1.73l.18-.89c-.14.27-.27-.06-.23-.69,0,1.16-.57,1.08-.88,1.64l.06,1c-.24.33-.57,1-.82.7-.37.32-.28,1.19-.57,2.27a14.73,14.73,0,0,1-.11-3c.11.5.28.21.45.51.47-.85.83-2.93,1.31-2.45.19-2.39-.32.28-.56-.56,0-.15,0-.19,0-.21a.11.11,0,0,1-.06-.07,3.3,3.3,0,0,0,.49-1.9c-.28.25-.2,2.39-.56,1.36-.26.67-.48-1.21-.64-1.37-.18.89-.17,2.81-.61,2.44l.18-1.34c-.49,0-.21,2-.66,1.91.16.15-.15,1.31.16,1.34-.15.72-.47.86-.72.47a4.82,4.82,0,0,0,0,.91c.28.93.42-.9.66.43l.17-1.44a4.19,4.19,0,0,1,.14,2.25c.07-.06.13-.26.19,0,.06,2.17-.31-.77-.38,1.07l.17-.16c.09,1.41-.4,1.24-.63,1.15a4.18,4.18,0,0,1-.53-1.92l.34-.44c-.18-.82-.43.48-.64.44a1.14,1.14,0,0,0-.06-.32,2.64,2.64,0,0,1,0,.29,1.11,1.11,0,0,1-.12-.42c-.17-.05-.43.58-.6.25l0,.91v-.51c.16,0,.39.59.28,1.27-.36.64-.46-1.12-.55-1.91.06-1.4.35,0,.53-.47-.12-1.38-.37-.14-.76-1.05.13-1.52.44,0,.5-1.38-.31-.25-.37.82-.7.44,0-.7.35-.77.31-1.67l-.21-.43c.51-.1-.12-1.89.28-2.26-.2-.62-.25,1.24-.53.28a6.4,6.4,0,0,1,.07,2.46l-.3-.45c-.13-.73.28-1.61.08-2.23l-.3.52a5.05,5.05,0,0,1,.09,1.3c-.18-.49-.26,1.75-.46,2.42-.16,0-.29-.12-.36-.65-.39,1.35-.91,1.31-1.26,2.59a3.94,3.94,0,0,0-.22-2.23c.3-.2.27-1.61.23-2.52a4.81,4.81,0,0,0-.17,2.09c-.34-.57-.2,1-.52,0-.21-.48.05-1.4,0-1.93-.38-.06,0,1.72-.45,1.4a1.67,1.67,0,0,0,0-.51c-.23-.29-.43.39-.44,1.09-.32-1.83-.62.24-.67-1.56-.48.51.13,1,.07,1.61-.16.81-.57.18-.7-.1.11,0,.2-.55.33-.27l-.18-1.24c-.68-.85-.21,2.84-.86,1.8.25-.67,0-.95.12-1.84-.07.32-.55,0-.21.94a1.53,1.53,0,0,1-.56-.52,5.66,5.66,0,0,0-.38,1.68c-.3-.11-.59-1-.78-1.5-.54.95-1.21-.54-1.75.46l0,.07c-.49-.19.34,1.64-.16,1.63,0-1.53-.38-1-.59-1.8-.64-.74-.94,1.18-1.52.18,0-.32,0-.7.1-.74-.41-.47-.7-.15-1.1-.22v-.18c-.66-1.22-1.25.29-2,.69.06-.19,0-.77.08-1-.4-.32-1.11-.5-1.3.92-.65-1.46-.29.48-1.14-.9-.07-.26.05-.26.09-.32-.42-.46-.66-.28-1.07-.4-.72,1.1-.51,3.06-1.58,2.7-.53-2,.48-.64.16-2.26-.13.4-.21.85-.6.44,0-.83-.09-.51-.14-1.27-.37-.48-.41,2.33-.38,2.12.1.39.19.6.38.49.06,1.3-.63.27-.85.87.12,0,.55.31.69,1.29-.54-.31-.16,1.66-.23,2.54-.65-.79-.18-1.77-.64-3.15a6.63,6.63,0,0,1-.67-2.16c-.47-.19-.4,1.08-.66,1.49l-.11-.4c-.45.32-.45,2.2-1.14,1.56l.38.37c0,.26-.3.24-.16,1.08-.21-.66-.77-1.11-.81-1.69.51,2.14-.76,1.71-.2,3.74a6.87,6.87,0,0,1-.76-1.78c.43,0,.69.39.54-.5-.27.14-.69-.29-.85-.77.23,1.38-.2,2.18.28,3.47A4.93,4.93,0,0,1,128,59.29c-.28.56.26,1.26.72,1.9s.85,1.23.44,1.44c-.94-.73-.34-1.51-1.09-1.52v-.22c-1.92-2.26.76,2,.33,2.14-.94-1.3-.31-1.16-1.25-1.91-.23.64,1,2.66.34,2.52l-.35-.57c-.17.27-.83.42-1,.72-.23-.22-.16-.22-.18-.33-.84,0,.4.75-.72.3l.46.64c.57.21,1.38.49,1-.36.42.84,1.64,1.24,2.42,2.37l-.32-.45a14.84,14.84,0,0,0,3.4,1.91c-.26-.79,0-.73.21-.59s.49.33.45-.26c-.69-1.73-.09-.38.11-.86-.09.29.52,1.32.71,1.52a2.08,2.08,0,0,1-.08-.86c.3.57,1.2,1.84,1,.59.4.5.14.58.22,1,.39.88-.07-.76.2-.18a2.47,2.47,0,0,1,.07.29c.3-.17.64.23,1.06.35-.49-1.76.17-.77.16-1.44.11.58.4.6.61.9l-.15-1.37c-.09-1.17.52.7.64,0l-.16-.3c.13-.6.71.39,1,1.32.24-1.88,1-1.46,1.68-.68s1.39,1.9,2.45,1.39c.12-.56-.14-.93,0-1.75.21-.21.26-.14.46-.17-.2-.49-.14.12-.14-.39l-.29.53c0-.14,0-.19,0-.45-.1.17-.21.54-.34.45.17-.48.18-1.83.45-1.33a.65.65,0,0,1-.11.37c.22.1.21-.55.38-.2s.15-.12.2.47l.67.69c.24-1.62.71-.11.83,0,0,1.21-.41.4-.51,1.59l.29.87,0-1,.35.24v.19c0-.38,0-.76.14-.43a1.07,1.07,0,0,1,0,.45l.21-.54c-.08,1,.22.28.27,1.43.81.53.85-1.62,1.62-.1-.14-.53.07-1.83.28-1.64a1.72,1.72,0,0,1,.14,1l.21-.61c.47,1.77.68.59,1.18,1.17v.51c.12-.62.26-1.11.52-.94l0,1c.36.69.07-2.15.44-1.52-.08-1.09-.33-1.64-.44-2.67.16,1.1.53,1.24.39.46.29-.47.22,0,.27.27L150,66c.23,0,.16,1.43.13,2.06.13-1.19.41-.38.65-.2l-.06.49.31.18c.14-.86.42-.94.68-.5l-.1,1.45c.2.74.06-.5.1-.75.24-.72.34.26.5,1.07C152.53,68.28,153.18,72.14,153.54,70Zm34.81-5.54,0-.21C188.4,64,188.46,63.73,188.35,64.43Zm-2.83-.38c.34-.57.23.11.26.51-.33-.39-.52.07-.81-.4a7.7,7.7,0,0,1,.07.91c-.12-.07-.23-.38-.27-1.12C184.91,62.51,185.67,64.88,185.52,64.05Zm6.34-7.16-.05.32h0Zm-1.75,1.27a2.1,2.1,0,0,0-.12-.6C190,58,190.05,58.27,190.11,58.16Zm-3.32-1.74c-.08-.61-.24-.42-.36-.28A.61.61,0,0,0,186.79,56.42ZM166,57a1.88,1.88,0,0,0,.13-1.28c-.09.52-.24-.38-.32.41V56A7.24,7.24,0,0,0,166,57Zm-9.79,4.93a16.29,16.29,0,0,0,0-1.69l0,0a1.75,1.75,0,0,1,0-.49c-.08-.12-.17-.26-.22-.09C156,61.6,155.85,61.91,156.22,61.89Z"/><path class="cls-1" d="M159.44,53.91s-.07,0-.09.05S159.4,53.94,159.44,53.91Z"/><path class="cls-1" d="M156,59.67a1.42,1.42,0,0,0,.21.53A.71.71,0,0,0,156,59.67Z"/><path class="cls-1" d="M196.59,63.93l-.13.17,0,.6a9.83,9.83,0,0,0,.94-2.29c-.49.81-.54.33-.93.52Z"/><path class="cls-1" d="M197.81,57.61a5.52,5.52,0,0,0,0-1l-.18.56Z"/><path class="cls-1" d="M193.55,54.22l.34.54C194,54.25,193.66,53.32,193.55,54.22Z"/><path class="cls-1" d="M194.19,64.48l.21-.63c-.07-.52-.26-.48-.35.23C194.25,63.71,194.05,64.47,194.19,64.48Z"/><path class="cls-1" d="M192.58,54.05c-.15,1.16-.34-.52-.44.57C192.24,54.3,192.52,55.21,192.58,54.05Z"/><path class="cls-1" d="M192.41,65.08c0,1.1.22.14.38.41C192.65,65.48,192.5,64.31,192.41,65.08Z"/><path class="cls-1" d="M190.71,57.31c0-.83.16-.77.31-.57a4.43,4.43,0,0,1-.16.77,4.5,4.5,0,0,1,.49-.9,4.22,4.22,0,0,1-.48-2A7,7,0,0,0,190.71,57.31Z"/><path class="cls-1" d="M192,65.2c.14.33.2,1.1.37,1,0-.58,0-1.42-.24-1.29l.1-1C192,63.27,192.25,65.27,192,65.2Z"/><path class="cls-1" d="M189.76,55.07l.11.45c.24-.77.55-.39.68-1.62C190.26,54,189.9,54.49,189.76,55.07Z"/><path class="cls-1" d="M191.28,63.39l-.05,1.35c.21.19,0-.45.07-.77.06.19.15.32.2.06C191.25,64.23,191.5,62.94,191.28,63.39Z"/><path class="cls-1" d="M190.56,64.88l-.27.58.21,1.47C190.82,66.42,190.52,66.09,190.56,64.88Z"/><path class="cls-1" d="M190.22,64l0-.25-.41,2A10.35,10.35,0,0,0,190.22,64Z"/><path class="cls-1" d="M184.92,55.23c0,.58.21,1.3.1.65C185.07,55.4,184.73,54.65,184.92,55.23Z"/><path class="cls-1" d="M186,66.06c-.12-.44-.53.39-.71.79C185.49,66.57,186,66.85,186,66.06Z"/><path class="cls-1" d="M185.2,67l.07-.15A.52.52,0,0,0,185.2,67Z"/><path class="cls-1" d="M177.65,70a.31.31,0,0,0-.06.15Z"/><path class="cls-1" d="M177.83,69.62c.12.2.36-.15.41-.78a4,4,0,0,0-.59,1.12C177.73,69.89,177.83,70.33,177.83,69.62Z"/><path class="cls-1" d="M176.11,69.31c.09-.37.21-.18.18-.74C176.25,68.32,176.05,68.92,176.11,69.31Z"/><path class="cls-1" d="M164.63,52.32c-.16-.3-.26-.07-.22.77C164.6,53.08,164.5,52.58,164.63,52.32Z"/><polygon class="cls-1" points="164.2 53.27 164.18 52.85 164.07 52.21 164.2 53.27"/><path class="cls-1" d="M163.05,52a1.53,1.53,0,0,1,.07-.36A.39.39,0,0,0,163.05,52Z"/><path class="cls-1" d="M163.15,51.61a.16.16,0,0,0,0,.06Z"/><path class="cls-1" d="M163.23,51.88v-.45a.61.61,0,0,1-.09.18S163.22,51.64,163.23,51.88Z"/><path class="cls-1" d="M162.7,51.88l.22,1.29c.23-.63-.26-.66,0-2Z"/><path class="cls-1" d="M161.94,52.24c-.21-.42-.52,1.61-.64.09-.59.79.14,2.53-.53,3.11.64.78.32-2.93.89-2.09C161.38,52.41,161.84,52.6,161.94,52.24Z"/><path class="cls-1" d="M162,54.8c0-.76-.23-.83-.32-.32C161.8,54.56,161.93,55.63,162,54.8Z"/><polygon class="cls-1" points="160.77 52.92 160.59 52.34 160.54 52.83 160.77 52.92"/><path class="cls-1" d="M160.08,52.62l.18-.88C160.2,52.08,159.93,52,160.08,52.62Z"/><path class="cls-1" d="M159.11,51.52c-.17-.29-.31,1.75,0,1.3l-.08-.08C159.09,52.43,158.9,51.71,159.11,51.52Z"/><path class="cls-1" d="M156.91,54.75c.11,0,.25-.22.22-.64l-.31.41Z"/><path class="cls-1" d="M157,59.71c.12,1.24.29-.1.5.31C157.27,59.78,157.29,59.61,157,59.71Z"/><path class="cls-1" d="M156.53,53c.08-.52.22-.19.3-.1C156.78,52.18,156.56,52.36,156.53,53Z"/><path class="cls-1" d="M156,53.42c-.11-.5,0-.7-.07-1-.23-.56-.46-.48-.58.21a13.75,13.75,0,0,1,.08,2.59c.35-.45.51-2.75.7-1l.27-2.17C156.14,51.69,156.23,53.55,156,53.42Z"/><path class="cls-1" d="M156.79,57.52l-.2-.72a1.57,1.57,0,0,1-.19,1.06C156.46,59.44,156.68,57.62,156.79,57.52Z"/><polygon class="cls-1" points="154.09 54.4 153.69 54.77 153.82 54.86 154.09 54.4"/><polygon class="cls-1" points="153.82 53.9 153.8 53.44 153.51 54.28 153.82 53.9"/><polygon class="cls-1" points="153.39 53.37 153.44 53.44 153.67 53.03 153.39 53.37"/><path class="cls-1" d="M152.54,53.07l.09.67c.1-.18.32.57.28-.34C152.83,53.71,152.61,53.6,152.54,53.07Z"/><path class="cls-1" d="M150.56,70.11a4.49,4.49,0,0,0-.09-1.23l0,1.14C150.47,70,150.52,69.85,150.56,70.11Z"/><path class="cls-1" d="M150,68.3l-.18,1.31c.33.17.29-.84.55-1.06-.14-.4-.24.53-.4.19Z"/><path class="cls-1" d="M144,67.76c0-.84-.08-.72.12-1.27-.29.53-.58.37-1,.51.08.52-.16,1.44,0,1.21l.41-.52,0,.57C143.83,68.88,143.65,67.32,144,67.76Z"/><path class="cls-1" d="M127.47,63.12a3.7,3.7,0,0,0-.74-.87C126.77,62.79,127.47,63,127.47,63.12Z"/></g></g></svg>